<?xml version="1.0" encoding="utf-8"?>
<!-- Generator: Adobe Illustrator 27.0.0, SVG Export Plug-In . SVG Version: 6.00 Build 0)  -->
<svg version="1.1" id="Layer_1" xmlns="http://www.w3.org/2000/svg" xmlns:xlink="http://www.w3.org/1999/xlink" x="0px" y="0px"
	 viewBox="0 0 408.1 237.9" style="enable-background:new 0 0 408.1 237.9;" xml:space="preserve">
<style type="text/css">
	.st0{fill:none;stroke:#FFFFFF;stroke-width:2;stroke-linecap:round;stroke-miterlimit:10;stroke-dasharray:0,0,1,12;}
	.st1{fill:#FFFFFF;}
</style>
<!-- <polygon class="st0" points="3.9,3 3.9,3 3.9,3 "/> -->
<g>
	<path class="st0" d="M404.3,2h-1c-0.6,0-1,0.4-1,1s0.4,1,1,1h1V2L404.3,2z M391.3,2h-1c-0.6,0-1,0.4-1,1s0.4,1,1,1h1
		c0.6,0,1-0.4,1-1S391.8,2,391.3,2L391.3,2z M378.3,2h-1c-0.6,0-1,0.4-1,1s0.4,1,1,1h1c0.6,0,1-0.4,1-1S378.8,2,378.3,2L378.3,2z
		 M365.3,2h-1c-0.6,0-1,0.4-1,1s0.4,1,1,1h1c0.6,0,1-0.4,1-1S365.8,2,365.3,2L365.3,2z M352.3,2h-1c-0.6,0-1,0.4-1,1s0.4,1,1,1h1
		c0.6,0,1-0.4,1-1S352.8,2,352.3,2L352.3,2z M339.3,2h-1c-0.6,0-1,0.4-1,1s0.4,1,1,1h1c0.6,0,1-0.4,1-1S339.8,2,339.3,2L339.3,2z
		 M326.3,2h-1c-0.6,0-1,0.4-1,1s0.4,1,1,1h1c0.6,0,1-0.4,1-1S326.8,2,326.3,2L326.3,2z M313.3,2h-1c-0.6,0-1,0.4-1,1s0.4,1,1,1h1
		c0.6,0,1-0.4,1-1S313.8,2,313.3,2L313.3,2z M300.3,2h-1c-0.6,0-1,0.4-1,1s0.4,1,1,1h1c0.6,0,1-0.4,1-1S300.8,2,300.3,2L300.3,2z
		 M287.3,2h-1c-0.6,0-1,0.4-1,1s0.4,1,1,1h1c0.6,0,1-0.4,1-1S287.8,2,287.3,2L287.3,2z M274.3,2h-1c-0.6,0-1,0.4-1,1s0.4,1,1,1h1
		c0.6,0,1-0.4,1-1S274.8,2,274.3,2L274.3,2z M261.3,2h-1c-0.6,0-1,0.4-1,1s0.4,1,1,1h1c0.6,0,1-0.4,1-1S261.8,2,261.3,2L261.3,2z
		 M248.3,2h-1c-0.6,0-1,0.4-1,1s0.4,1,1,1h1c0.6,0,1-0.4,1-1S248.8,2,248.3,2L248.3,2z M235.3,2h-1c-0.6,0-1,0.4-1,1s0.4,1,1,1h1
		c0.6,0,1-0.4,1-1S235.8,2,235.3,2L235.3,2z M222.3,2h-1c-0.6,0-1,0.4-1,1s0.4,1,1,1h1c0.6,0,1-0.4,1-1S222.8,2,222.3,2L222.3,2z
		 M209.3,2h-1c-0.6,0-1,0.4-1,1s0.4,1,1,1h1c0.6,0,1-0.4,1-1S209.8,2,209.3,2L209.3,2z M196.3,2h-1c-0.6,0-1,0.4-1,1s0.4,1,1,1h1
		c0.6,0,1-0.4,1-1S196.8,2,196.3,2L196.3,2z M183.3,2h-1c-0.6,0-1,0.4-1,1s0.4,1,1,1h1c0.6,0,1-0.4,1-1S183.8,2,183.3,2L183.3,2z
		 M170.3,2h-1c-0.6,0-1,0.4-1,1s0.4,1,1,1h1c0.6,0,1-0.4,1-1S170.8,2,170.3,2L170.3,2z M157.3,2h-1c-0.6,0-1,0.4-1,1s0.4,1,1,1h1
		c0.6,0,1-0.4,1-1S157.8,2,157.3,2L157.3,2z M144.3,2h-1c-0.6,0-1,0.4-1,1s0.4,1,1,1h1c0.6,0,1-0.4,1-1S144.8,2,144.3,2L144.3,2z
		 M131.3,2h-1c-0.6,0-1,0.4-1,1s0.4,1,1,1h1c0.6,0,1-0.4,1-1S131.8,2,131.3,2L131.3,2z M118.3,2h-1c-0.6,0-1,0.4-1,1s0.4,1,1,1h1
		c0.6,0,1-0.4,1-1S118.8,2,118.3,2L118.3,2z M105.3,2h-1c-0.6,0-1,0.4-1,1s0.4,1,1,1h1c0.6,0,1-0.4,1-1S105.8,2,105.3,2L105.3,2z
		 M92.3,2h-1c-0.6,0-1,0.4-1,1s0.4,1,1,1h1c0.6,0,1-0.4,1-1S92.8,2,92.3,2L92.3,2z M79.3,2h-1c-0.6,0-1,0.4-1,1s0.4,1,1,1h1
		c0.6,0,1-0.4,1-1S79.8,2,79.3,2L79.3,2z M66.3,2h-1c-0.6,0-1,0.4-1,1s0.4,1,1,1h1c0.6,0,1-0.4,1-1S66.8,2,66.3,2L66.3,2z M53.3,2
		h-1c-0.6,0-1,0.4-1,1s0.4,1,1,1h1c0.6,0,1-0.4,1-1S53.8,2,53.3,2L53.3,2z M40.3,2h-1c-0.6,0-1,0.4-1,1s0.4,1,1,1h1c0.6,0,1-0.4,1-1
		S40.8,2,40.3,2L40.3,2z M27.3,2h-1c-0.6,0-1,0.4-1,1s0.4,1,1,1h1c0.6,0,1-0.4,1-1S27.8,2,27.3,2L27.3,2z M14.3,2h-1
		c-0.6,0-1,0.4-1,1s0.4,1,1,1h1c0.6,0,1-0.4,1-1S14.8,2,14.3,2L14.3,2z M4.8,3.5c-0.6,0-1,0.4-1,1v1c0,0.6,0.4,1,1,1s1-0.4,1-1v-1
		C5.8,4,5.4,3.5,4.8,3.5L4.8,3.5z M4.8,16.5c-0.6,0-1,0.4-1,1v1c0,0.6,0.4,1,1,1s1-0.4,1-1v-1C5.8,17,5.4,16.5,4.8,16.5L4.8,16.5z
		 M4.8,29.5c-0.6,0-1,0.4-1,1v1c0,0.6,0.4,1,1,1s1-0.4,1-1v-1C5.8,30,5.4,29.5,4.8,29.5L4.8,29.5z M4.8,42.5c-0.6,0-1,0.4-1,1v1
		c0,0.6,0.4,1,1,1s1-0.4,1-1v-1C5.8,43,5.4,42.5,4.8,42.5L4.8,42.5z M4.8,55.5c-0.6,0-1,0.4-1,1v1c0,0.6,0.4,1,1,1s1-0.4,1-1v-1
		C5.8,56,5.4,55.5,4.8,55.5L4.8,55.5z M4.8,68.5c-0.6,0-1,0.4-1,1v1c0,0.6,0.4,1,1,1s1-0.4,1-1v-1C5.8,69,5.4,68.5,4.8,68.5
		L4.8,68.5z M4.8,81.5c-0.6,0-1,0.4-1,1v1c0,0.6,0.4,1,1,1s1-0.4,1-1v-1C5.8,82,5.4,81.5,4.8,81.5L4.8,81.5z M4.8,94.5
		c-0.6,0-1,0.4-1,1v1c0,0.6,0.4,1,1,1s1-0.4,1-1v-1C5.8,95,5.4,94.5,4.8,94.5L4.8,94.5z M4.8,107.5c-0.6,0-1,0.4-1,1v1
		c0,0.6,0.4,1,1,1s1-0.4,1-1v-1C5.8,108,5.4,107.5,4.8,107.5L4.8,107.5z M4.8,120.5c-0.6,0-1,0.4-1,1v1c0,0.6,0.4,1,1,1s1-0.4,1-1
		v-1C5.8,121,5.4,120.5,4.8,120.5L4.8,120.5z M4.8,133.5c-0.6,0-1,0.4-1,1v1c0,0.6,0.4,1,1,1s1-0.4,1-1v-1
		C5.8,134,5.4,133.5,4.8,133.5L4.8,133.5z M4.8,146.5c-0.6,0-1,0.4-1,1v1c0,0.6,0.4,1,1,1s1-0.4,1-1v-1C5.8,147,5.4,146.5,4.8,146.5
		L4.8,146.5z M4.8,159.5c-0.6,0-1,0.4-1,1v1c0,0.6,0.4,1,1,1s1-0.4,1-1v-1C5.8,160,5.4,159.5,4.8,159.5L4.8,159.5z M4.8,172.5
		c-0.6,0-1,0.4-1,1v1c0,0.6,0.4,1,1,1s1-0.4,1-1v-1C5.8,173,5.4,172.5,4.8,172.5L4.8,172.5z M4.8,185.5c-0.6,0-1,0.4-1,1v1
		c0,0.6,0.4,1,1,1s1-0.4,1-1v-1C5.8,186,5.4,185.5,4.8,185.5L4.8,185.5z M4.8,198.5c-0.6,0-1,0.4-1,1v1c0,0.6,0.4,1,1,1s1-0.4,1-1
		v-1C5.8,199,5.4,198.5,4.8,198.5L4.8,198.5z M4.8,211.5c-0.6,0-1,0.4-1,1v1c0,0.6,0.4,1,1,1s1-0.4,1-1v-1
		C5.8,212,5.4,211.5,4.8,211.5L4.8,211.5z M4.8,224.5c-0.6,0-1,0.4-1,1v1c0,0.6,0.4,1,1,1s1-0.4,1-1v-1C5.8,225,5.4,224.5,4.8,224.5
		L4.8,224.5z M6.9,234.4h-1c-0.6,0-1,0.4-1,1s0.4,1,1,1h1c0.6,0,1-0.4,1-1S7.4,234.4,6.9,234.4L6.9,234.4z M19.9,234.4h-1
		c-0.6,0-1,0.4-1,1s0.4,1,1,1h1c0.6,0,1-0.4,1-1S20.4,234.4,19.9,234.4L19.9,234.4z M32.9,234.4h-1c-0.6,0-1,0.4-1,1s0.4,1,1,1h1
		c0.6,0,1-0.4,1-1S33.4,234.4,32.9,234.4L32.9,234.4z M45.9,234.4h-1c-0.6,0-1,0.4-1,1s0.4,1,1,1h1c0.6,0,1-0.4,1-1
		S46.4,234.4,45.9,234.4L45.9,234.4z M58.9,234.4h-1c-0.6,0-1,0.4-1,1s0.4,1,1,1h1c0.6,0,1-0.4,1-1S59.4,234.4,58.9,234.4
		L58.9,234.4z M71.9,234.4h-1c-0.6,0-1,0.4-1,1s0.4,1,1,1h1c0.6,0,1-0.4,1-1S72.4,234.4,71.9,234.4L71.9,234.4z M84.9,234.4h-1
		c-0.6,0-1,0.4-1,1s0.4,1,1,1h1c0.6,0,1-0.4,1-1S85.4,234.4,84.9,234.4L84.9,234.4z M97.9,234.4h-1c-0.6,0-1,0.4-1,1s0.4,1,1,1h1
		c0.6,0,1-0.4,1-1S98.4,234.4,97.9,234.4L97.9,234.4z M110.9,234.4h-1c-0.6,0-1,0.4-1,1s0.4,1,1,1h1c0.6,0,1-0.4,1-1
		S111.4,234.4,110.9,234.4L110.9,234.4z M123.9,234.4h-1c-0.6,0-1,0.4-1,1s0.4,1,1,1h1c0.6,0,1-0.4,1-1S124.4,234.4,123.9,234.4
		L123.9,234.4z M136.9,234.4h-1c-0.6,0-1,0.4-1,1s0.4,1,1,1h1c0.6,0,1-0.4,1-1S137.4,234.4,136.9,234.4L136.9,234.4z M149.9,234.4
		h-1c-0.6,0-1,0.4-1,1s0.4,1,1,1h1c0.6,0,1-0.4,1-1S150.4,234.4,149.9,234.4L149.9,234.4z M162.9,234.4h-1c-0.6,0-1,0.4-1,1
		s0.4,1,1,1h1c0.6,0,1-0.4,1-1S163.4,234.4,162.9,234.4L162.9,234.4z M175.9,234.4h-1c-0.6,0-1,0.4-1,1s0.4,1,1,1h1c0.6,0,1-0.4,1-1
		S176.4,234.4,175.9,234.4L175.9,234.4z M188.9,234.4h-1c-0.6,0-1,0.4-1,1s0.4,1,1,1h1c0.6,0,1-0.4,1-1S189.4,234.4,188.9,234.4
		L188.9,234.4z M201.9,234.4h-1c-0.6,0-1,0.4-1,1s0.4,1,1,1h1c0.6,0,1-0.4,1-1S202.4,234.4,201.9,234.4L201.9,234.4z M214.9,234.4
		h-1c-0.6,0-1,0.4-1,1s0.4,1,1,1h1c0.6,0,1-0.4,1-1S215.4,234.4,214.9,234.4L214.9,234.4z M227.9,234.4h-1c-0.6,0-1,0.4-1,1
		s0.4,1,1,1h1c0.6,0,1-0.4,1-1S228.4,234.4,227.9,234.4L227.9,234.4z M240.9,234.4h-1c-0.6,0-1,0.4-1,1s0.4,1,1,1h1c0.6,0,1-0.4,1-1
		S241.4,234.4,240.9,234.4L240.9,234.4z M253.9,234.4h-1c-0.6,0-1,0.4-1,1s0.4,1,1,1h1c0.6,0,1-0.4,1-1S254.4,234.4,253.9,234.4
		L253.9,234.4z M266.9,234.4h-1c-0.6,0-1,0.4-1,1s0.4,1,1,1h1c0.6,0,1-0.4,1-1S267.4,234.4,266.9,234.4L266.9,234.4z M279.9,234.4
		h-1c-0.6,0-1,0.4-1,1s0.4,1,1,1h1c0.6,0,1-0.4,1-1S280.4,234.4,279.9,234.4L279.9,234.4z M292.9,234.4h-1c-0.6,0-1,0.4-1,1
		s0.4,1,1,1h1c0.6,0,1-0.4,1-1S293.4,234.4,292.9,234.4L292.9,234.4z M305.9,234.4h-1c-0.6,0-1,0.4-1,1s0.4,1,1,1h1c0.6,0,1-0.4,1-1
		S306.4,234.4,305.9,234.4L305.9,234.4z M318.9,234.4h-1c-0.6,0-1,0.4-1,1s0.4,1,1,1h1c0.6,0,1-0.4,1-1S319.4,234.4,318.9,234.4
		L318.9,234.4z M331.9,234.4h-1c-0.6,0-1,0.4-1,1s0.4,1,1,1h1c0.6,0,1-0.4,1-1S332.4,234.4,331.9,234.4L331.9,234.4z M344.9,234.4
		h-1c-0.6,0-1,0.4-1,1s0.4,1,1,1h1c0.6,0,1-0.4,1-1S345.4,234.4,344.9,234.4L344.9,234.4z M357.9,234.4h-1c-0.6,0-1,0.4-1,1
		s0.4,1,1,1h1c0.6,0,1-0.4,1-1S358.4,234.4,357.9,234.4L357.9,234.4z M370.9,234.4h-1c-0.6,0-1,0.4-1,1s0.4,1,1,1h1c0.6,0,1-0.4,1-1
		S371.4,234.4,370.9,234.4L370.9,234.4z M383.9,234.4h-1c-0.6,0-1,0.4-1,1s0.4,1,1,1h1c0.6,0,1-0.4,1-1S384.4,234.4,383.9,234.4
		L383.9,234.4z M396.9,234.4h-1c-0.6,0-1,0.4-1,1s0.4,1,1,1h1c0.6,0,1-0.4,1-1S397.4,234.4,396.9,234.4L396.9,234.4z M403.3,229.8
		c-0.6,0-1,0.4-1,1v1c0,0.6,0.4,1,1,1s1-0.4,1-1v-1C404.3,230.3,403.8,229.8,403.3,229.8L403.3,229.8z M403.3,216.8
		c-0.6,0-1,0.4-1,1v1c0,0.6,0.4,1,1,1s1-0.4,1-1v-1C404.3,217.3,403.8,216.8,403.3,216.8L403.3,216.8z M403.3,203.8
		c-0.6,0-1,0.4-1,1v1c0,0.6,0.4,1,1,1s1-0.4,1-1v-1C404.3,204.3,403.8,203.8,403.3,203.8L403.3,203.8z M403.3,190.8
		c-0.6,0-1,0.4-1,1v1c0,0.6,0.4,1,1,1s1-0.4,1-1v-1C404.3,191.3,403.8,190.8,403.3,190.8L403.3,190.8z M403.3,177.8
		c-0.6,0-1,0.4-1,1v1c0,0.6,0.4,1,1,1s1-0.4,1-1v-1C404.3,178.3,403.8,177.8,403.3,177.8L403.3,177.8z M403.3,164.8
		c-0.6,0-1,0.4-1,1v1c0,0.6,0.4,1,1,1s1-0.4,1-1v-1C404.3,165.3,403.8,164.8,403.3,164.8L403.3,164.8z M403.3,151.8
		c-0.6,0-1,0.4-1,1v1c0,0.6,0.4,1,1,1s1-0.4,1-1v-1C404.3,152.3,403.8,151.8,403.3,151.8L403.3,151.8z M403.3,138.8
		c-0.6,0-1,0.4-1,1v1c0,0.6,0.4,1,1,1s1-0.4,1-1v-1C404.3,139.3,403.8,138.8,403.3,138.8L403.3,138.8z M403.3,125.8
		c-0.6,0-1,0.4-1,1v1c0,0.6,0.4,1,1,1s1-0.4,1-1v-1C404.3,126.3,403.8,125.8,403.3,125.8L403.3,125.8z M403.3,112.8
		c-0.6,0-1,0.4-1,1v1c0,0.6,0.4,1,1,1s1-0.4,1-1v-1C404.3,113.3,403.8,112.8,403.3,112.8L403.3,112.8z M403.3,99.8c-0.6,0-1,0.4-1,1
		v1c0,0.6,0.4,1,1,1s1-0.4,1-1v-1C404.3,100.3,403.8,99.8,403.3,99.8L403.3,99.8z M403.3,86.8c-0.6,0-1,0.4-1,1v1c0,0.6,0.4,1,1,1
		s1-0.4,1-1v-1C404.3,87.3,403.8,86.8,403.3,86.8L403.3,86.8z M403.3,73.8c-0.6,0-1,0.4-1,1v1c0,0.6,0.4,1,1,1s1-0.4,1-1v-1
		C404.3,74.3,403.8,73.8,403.3,73.8L403.3,73.8z M403.3,60.8c-0.6,0-1,0.4-1,1v1c0,0.6,0.4,1,1,1s1-0.4,1-1v-1
		C404.3,61.3,403.8,60.8,403.3,60.8L403.3,60.8z M403.3,47.8c-0.6,0-1,0.4-1,1v1c0,0.6,0.4,1,1,1s1-0.4,1-1v-1
		C404.3,48.3,403.8,47.8,403.3,47.8L403.3,47.8z M403.3,34.8c-0.6,0-1,0.4-1,1v1c0,0.6,0.4,1,1,1s1-0.4,1-1v-1
		C404.3,35.3,403.8,34.8,403.3,34.8L403.3,34.8z M403.3,21.8c-0.6,0-1,0.4-1,1v1c0,0.6,0.4,1,1,1s1-0.4,1-1v-1
		C404.3,22.3,403.8,21.8,403.3,21.8L403.3,21.8z M403.3,8.8c-0.6,0-1,0.4-1,1v1c0,0.6,0.4,1,1,1s1-0.4,1-1v-1
		C404.3,9.3,403.8,8.8,403.3,8.8L403.3,8.8z"/>
</g>
</svg>
