<?xml version="1.0" encoding="utf-8"?>
<!-- Generator: Adobe Illustrator 27.0.0, SVG Export Plug-In . SVG Version: 6.00 Build 0)  -->
<svg version="1.1" id="Layer_1" xmlns="http://www.w3.org/2000/svg" xmlns:xlink="http://www.w3.org/1999/xlink" x="0px" y="0px"
	 viewBox="0 0 1440 789" style="enable-background:new 0 0 1440 789;" xml:space="preserve">
<style type="text/css">
	.st0{fill:none;stroke:#FFFFFF;stroke-width:2.8;stroke-linecap:round;stroke-miterlimit:10;stroke-dasharray:0.1,5.5;}
	.st1{fill:#FFFFFF;}
</style>
<line class="st0" x1="719" y1="699.9" x2="719" y2="789"/>
<line class="st0" x1="719" y1="0" x2="719" y2="73"/>
<line class="st0" x1="408.6" y1="384.5" x2="0.6" y2="384.5"/>
<line class="st0" x1="1440" y1="383.5" x2="1035.5" y2="383.5"/>
<line class="st0" x1="448.7" y1="225.3" x2="73.7" y2="0"/>
<line class="st0" x1="1406.3" y1="789" x2="1002.2" y2="546.2"/>
<line class="st0" x1="566.6" y1="114.5" x2="503.1" y2="0"/>
<line class="st0" x1="949.6" y1="789" x2="877.5" y2="658.9"/>
<line class="st0" x1="876.4" y1="112.5" x2="944.4" y2="-0.8"/>
<line class="st0" x1="482.9" y1="791" x2="563.5" y2="656.9"/>
<line class="st0" x1="991" y1="227.2" x2="1399.3" y2="0.9"/>
<line class="st0" x1="0.6" y1="786.5" x2="448.6" y2="538.2"/>
<g>
	<path class="st1" d="M884.3,155.3c0.1,0.2,0.2,0.3,0.2,0.5c0.2,1.2,0.9,1.9,1.8,2.4c-0.2,0.5-0.1,1.1,0.4,1.4
		c0.3,0.2,0.5,0.3,0.6,0.5c0.2,0.2,0.5,0.3,0.8,0.3c0.2,0,0.4-0.1,0.6-0.2c0.6,0.6,1.3,1.2,2,1.7c1.5,1.1,3.2,1.7,5,2.1
		c0,0.6,0.4,1.1,0.9,1.2l0.4,0.1c0.2,0,0.4,0.1,0.7,0.1c0,0,0.1,0,0.1,0c0.5,0,1-0.4,1.1-0.9c2.5,0.1,3.6-0.8,5.2-3.6
		c0.2-0.4,0.4-0.8,0.6-1.1c0,0,0,0,0,0c0.2,0.1,0.4,0.1,0.6,0.1c0.4,0,0.8-0.2,1-0.6c0.2-0.3,0.3-0.6,0.5-1c0.3-0.5,0.1-1.2-0.5-1.5
		c1.2-2.2,2.4-4.3,3.6-6.5c0.1-0.1,0.1-0.2,0.2-0.4c0.1,0.1,0.2,0.1,0.3,0.1c0.1,0,0.1,0.1,0.2,0.1c0,2.5-0.1,7.3,0.1,8.1
		c0,0,0,0,0,0c-0.3,0.5-0.1,1.2,0.4,1.5c0.3,0.2,0.7,0.3,1,0.3c0.4,0,0.8-0.1,1.1-0.3c0.5-0.3,0.7-1,0.4-1.6c-0.2-0.4-0.6-0.6-1-0.5
		c0.1-1.9,0.1-5.9,0.3-7.9c0.1,0.1,0.2,0.1,0.3,0.1c0,0,0,0,0.1,0.1c0.2,0.3,0.5,0.4,0.9,0.4c0.1,0,0.2,0,0.3,0
		c1,1.4,2.3,3.3,2.6,3.8c0.6,1,1.1,2,1.7,3c-0.2,0.3-0.3,0.8-0.1,1.2l0.5,0.9c0.2,0.4,0.6,0.6,1,0.6c0,0,0,0,0.1,0
		c0.4,0.7,0.8,1.3,1.1,2c1,1.8,2.6,2.5,4.6,2.4c0.2,0,0.3,0,0.5,0c0.1,0.6,0.6,0.9,1.1,0.9c0.1,0,0.1,0,0.2,0c0.3-0.1,0.7-0.1,1-0.2
		l-0.2-1.1c0.8-0.1,1.7-0.3,2.6-0.2c0.2,0,0.6-0.2,0.8-0.4c0.7-0.7,1.6-1.1,2.4-1.5c0.6-0.3,1.2-0.6,1.6-1.2
		c0.1-0.2,0.2-0.3,0.4-0.5c0,0.1,0.1,0.1,0.1,0.2c0.2,0.2,0.5,0.3,0.8,0.3c0.3,0,0.6-0.1,0.8-0.3c0.2-0.2,0.4-0.4,0.6-0.5
		c0.5-0.4,0.6-1.1,0.3-1.6c0,0,0,0-0.1-0.1c0.6-0.4,1.1-0.8,1.3-1.5c0.3-1.2,0.9-2.3,1.4-3.4c0.2-0.5,0.4-1.1,0.3-1.7
		c0-0.1,0-0.1,0-0.2c0.1,0.1,0.3,0.1,0.4,0.1c0,0,0,0,0,0c0.6,0,1.1-0.5,1.1-1.1c0-0.3,0-0.6,0.1-0.9c0.1-0.6-0.3-1.2-1-1.3
		c-0.2,0-0.4,0-0.5,0.1c0.2-2.6-0.6-4.8-2.5-6.7c-0.1-0.1-0.1-0.1-0.2-0.2c0.3-0.1,0.5-0.4,0.6-0.7c0.2-0.2,0.3-0.5,0.3-0.8
		c0,0,0,0,0,0c0.2,0,0.4,0,0.6-0.1c1.4-0.1,2.5-0.7,3.2-1.9c0.5-0.9,1-1.8,1.3-2.7c0.1,0.1,0.2,0.1,0.3,0.2c0.1,0,0.2,0.1,0.4,0.1
		c0.5,0,0.9-0.3,1.1-0.8c0.1-0.3,0.2-0.7,0.3-1c0.2-0.6-0.2-1.2-0.8-1.4c-0.1,0-0.2,0-0.4,0c0.6-2.5,1.5-4.9,2.6-7.2
		c0.1,0.1,0.1,0.1,0.2,0.2c0.2,0.1,0.3,0.1,0.5,0.1c0.4,0,0.8-0.2,1-0.6c0.1-0.3,0.3-0.6,0.4-0.8c0.3-0.5,0.1-1.2-0.4-1.5
		c-0.1,0-0.1,0-0.2-0.1c0.5-0.8,1-1.5,1.6-2.3c1-1.3,1.4-2.7,1.7-4.2c0-0.1,0-0.1,0-0.1c0.1,0.1,0.3,0.1,0.5,0.1c0,0,0,0,0,0
		c0.6,0,1.1-0.5,1.1-1.1l0-0.2c0-0.4,0-0.8-0.1-1.1c-0.2-0.6-0.8-1-1.4-0.8c-0.3,0.1-0.5,0.2-0.6,0.4c-0.4-0.5-1.1-0.8-2-1
		c-1.6-0.4-3.2-0.3-4.8,0.1c0,0,0-0.1,0-0.1c-0.2-0.6-0.8-0.9-1.4-0.8c-0.3,0.1-0.5,0.2-0.8,0.2l-0.2,0.1c-0.6,0.2-0.9,0.8-0.7,1.4
		c0,0,0,0.1,0,0.1c-2.4,0.8-4.7,1.8-6.9,3c0,0,0,0,0,0c-0.3-0.5-1-0.7-1.5-0.4c-0.3,0.2-0.6,0.3-0.9,0.5c-0.5,0.3-0.7,1-0.4,1.5
		c-2.2,1.3-4.3,2.7-6.3,4.1c-0.4-0.2-1-0.2-1.4,0.2c-0.1,0.1-0.3,0.3-0.5,0.4c-0.5,0.3-0.7,1-0.4,1.5c0,0,0,0,0,0
		c-2.1,1.5-4,3.2-5.8,5c-0.3-0.1-0.7-0.1-1,0.2c-0.4,0.1-0.7,0.3-0.9,0.5c-0.4,0.4-0.4,1-0.1,1.4c0,0-0.1,0.1-0.1,0.1
		c-0.7,0.8-2,2.9-2.2,2.4c-0.6-1.6-1-3-0.4-4.8c0-0.1,0.1-0.2,0.1-0.3c0.1,0.1,0.2,0.1,0.3,0.1c0.1,0,0.2,0,0.3,0
		c0.5,0,0.9-0.3,1.1-0.8l0.3-1c0.2-0.6-0.2-1.2-0.8-1.4c-0.1,0-0.2,0-0.3,0c0,0,0,0,0,0c0.2-0.1,0.4-0.3,0.5-0.6
		c0.1-0.3,0.2-0.6,0.4-0.9c0.1-0.3,0.1-0.6,0-0.9c0.7-1.9,1.6-3.5,2.9-4.8c0,0,0,0,0,0c0.2,0.3,0.6,0.5,0.9,0.5
		c0.2,0,0.5-0.1,0.7-0.2c0.5-0.3,0.9-0.9,1-1.6c0.1-0.6-0.3-1.2-0.9-1.3c-0.5-0.1-0.9,0.2-1.1,0.6c-0.9,0.8-1.7,1.6-2.3,2.6
		c-0.7,1.1-1.3,2.3-1.8,3.5c-0.5-0.1-1,0.2-1.2,0.6c-0.1,0.3-0.3,0.7-0.4,1c-0.2,0.5,0,1,0.4,1.3c-0.6,1.6-1,3.2-1.1,4.9
		c0,0.2-0.6,0.6-0.8,0.3s-0.3-0.6-0.3-0.9c0-0.4,0-0.8,0-1.2c0.1,0,0.1,0,0.2,0c0,0,0.1,0,0.2,0c0.6-0.1,1-0.7,1-1.3
		c0-0.4-0.1-0.7-0.2-1.1c-0.1-0.6-0.7-1-1.3-0.9c-0.1,0-0.2,0.1-0.3,0.1c-0.1-0.5-0.3-1.1-0.5-1.6c0.3-0.3,0.4-0.7,0.2-1.1
		c-0.1-0.3-0.2-0.7-0.4-1c-0.1-0.4-0.5-0.6-0.8-0.7c-0.4-1.1-0.9-2.1-1.6-3c0.1,0,0.2-0.1,0.3-0.2c0.5-0.4,0.5-1.1,0.1-1.6
		c-0.2-0.3-0.5-0.6-0.8-0.8c-0.4-0.4-1.2-0.4-1.6,0c-0.1,0.1-0.1,0.1-0.1,0.2c0,0,0,0,0,0c-0.3-0.2-0.5-0.7-0.8-0.5
		c-0.4,0.3-0.1,0.8,0,1.2c0.1,0.2,0.3,0.4,0.5,0.6c0.7,0.7,1.4,1.3,1.9,2c0.5,0.7,0.9,1.5,1.2,2.2c-0.4,0.3-0.6,0.8-0.4,1.3
		c0.1,0.3,0.2,0.6,0.3,1c0.2,0.5,0.6,0.7,1.1,0.7c0,0,0,0,0,0c0.2,0.8,0.4,1.6,0.7,2.4c0,0,0,0,0,0.1c0.1,0.3,0.1,0.6,0.2,0.9
		c0,0.3,0.2,0.5,0.3,0.7c0.3,1.3,0.1,2.4-0.4,3.6c-0.2,0-0.3,0-0.5,0c-0.4-0.1-0.8,0-1,0.3c0,0,0,0.1-0.1,0.1
		c-1.8-2.1-3.8-4-5.9-5.8c0,0,0.1-0.1,0.1-0.1c0.4-0.5,0.3-1.2-0.1-1.6c-0.3-0.2-0.5-0.4-0.8-0.7c-0.5-0.4-1.2-0.3-1.6,0.2
		c0,0,0,0.1-0.1,0.1c-0.5-0.4-1.1-0.8-1.6-1.3c-1.6-1.2-3.2-2.4-4.9-3.5c0,0,0.1-0.1,0.1-0.1c0.3-0.5,0.2-1.2-0.3-1.6
		c-0.3-0.2-0.6-0.4-0.9-0.6c-0.5-0.3-1.2-0.2-1.6,0.4c0,0,0,0.1-0.1,0.2c-2.3-1.4-4.6-2.6-7.1-3.7c0,0,0.1-0.1,0.1-0.1
		c0.2-0.6,0-1.2-0.6-1.5c-0.3-0.1-0.6-0.3-1-0.4c-0.6-0.2-1.2,0.1-1.5,0.6c0,0.1,0,0.1,0,0.2c-0.3-0.1-0.6-0.2-0.9-0.3
		c-1.6-0.5-3.3-1-5.1-0.9c-0.7,0-1.2,0.1-1.7,0.3c0-0.1-0.1-0.2-0.1-0.2c-0.4-0.5-1.1-0.5-1.6-0.1c-0.4,0.3-0.7,0.7-0.9,1.2
		c-0.3,0.6,0,1.2,0.5,1.5c0,0,0.1,0,0.1,0c-0.1,0.3-0.1,0.7,0,1.1c0.1,1.4,0.5,2.8,1.2,4c0.5,0.8,1,1.6,1.5,2.4
		c-0.4,0.4-0.6,1-0.3,1.5c0.2,0.3,0.4,0.6,0.5,0.9c0.2,0.4,0.6,0.6,1,0.6c0.1,0,0.3,0,0.4-0.1c0.1,0.1,0.1,0.2,0.2,0.3
		c1,1.7,1.7,3.5,2.2,5.5c0.1,0.6,0.3,1.1,0.4,1.7c-0.5,0.2-0.8,0.8-0.7,1.4c0.1,0.3,0.2,0.7,0.3,1c0.2,0.5,0.6,0.8,1.1,0.8
		c0.1,0,0.2,0,0.2,0c0.2,0.7,0.5,1.4,0.8,2.1c0.6,1.6,1.8,2.5,3.5,2.6c0.4,0,0.9,0,1.3,0.1c0,0.4,0.3,0.8,0.6,0.9c0,0,0,0.1,0.1,0.1
		c-1.6,1-2.5,2.5-2.8,4.3c-0.2,0.9-0.3,1.8-0.4,2.7c-0.6,0-1.1,0.4-1.1,1c0,0.4,0,0.7,0,1.1c0,0.6,0.5,1.1,1.1,1.1
		C883.1,152.5,883.5,153.9,884.3,155.3z"/>
	<path class="st1" d="M1070.3,325.1c-0.2-0.6-0.8-0.9-1.4-0.8c-0.1,0-0.2,0.1-0.3,0.1c-0.4-0.5-1.1-0.8-2-1
		c-1.8-0.4-3.5-0.2-5.2,0.3c-0.2-0.5-0.8-0.8-1.3-0.7l-1,0.3c-0.6,0.2-0.9,0.8-0.7,1.3c-2.4,0.9-4.7,1.9-6.9,3.1
		c-0.3-0.5-1-0.6-1.5-0.3c-0.3,0.2-0.6,0.3-0.9,0.5c-0.5,0.3-0.7,0.9-0.4,1.4c-2.1,1.3-4.1,2.7-6.1,4.1c0,0-0.1,0.1-0.1,0.1
		c-0.4-0.2-1-0.2-1.3,0.2c-0.1,0.1-0.3,0.2-0.5,0.4c-0.5,0.3-0.7,1-0.4,1.5c0,0,0,0,0,0c-2.1,1.6-3.9,3.3-5.7,5
		c-0.4-0.2-0.8-0.1-1.1,0.1c-0.3,0.1-0.7,0.3-0.9,0.5c-0.4,0.4-0.4,1.1,0,1.6c-0.7,1-1.8,2.7-2,2.2c-0.5-1.6-0.9-3-0.4-4.8
		c0,0,0-0.1,0-0.1c0.1,0,0.2,0,0.2,0c0.5,0,0.9-0.3,1.1-0.8l0.3-1c0.2-0.6-0.1-1.1-0.7-1.4c0.1-0.3,0.2-0.6,0.3-0.9
		c0.1-0.3,0.2-0.5,0.3-0.8c0-0.1,0.1-0.2,0.1-0.4c0.7-2,1.5-3.8,2.7-5.1c0.2,0.2,0.5,0.3,0.7,0.3c0.3,0,0.5-0.1,0.7-0.3
		c0.5-0.3,0.8-0.8,0.9-1.4c0.1-0.6-0.3-1.2-0.9-1.3c-0.6-0.1-1.2,0.3-1.4,0.9l-0.1,0.1c-0.2,0.1-0.2,0.3-0.3,0.4
		c-0.5,0.5-0.9,1-1.3,1.6c-0.6,1.2-1.2,2.4-1.8,3.6c0,0-0.1,0-0.1-0.1c-0.6-0.2-1.2,0-1.5,0.6c-0.1,0.3-0.3,0.7-0.4,1
		c-0.2,0.6,0.1,1.2,0.7,1.4c0,0,0.1,0,0.1,0c0,0.1-0.1,0.3-0.1,0.4c-0.1,0.1-0.2,0.3-0.3,0.4l-0.3,1c-0.1,0.2,0,0.4,0,0.6
		c-0.2,0.8-0.3,1.6-0.4,2.4c0,0.2-0.6,0.6-0.8,0.3c-0.2-0.3-0.3-0.6-0.3-0.9c0-0.4,0-0.7,0-1.1c0.6-0.1,1-0.7,0.9-1.3
		c-0.1-0.4-0.1-0.7-0.2-1.1c-0.1-0.6-0.7-1-1.3-0.9c-0.2-0.7-0.4-1.3-0.6-2c0-0.2,0-0.3,0-0.5c-0.1-0.3-0.2-0.7-0.4-1
		c-0.1-0.2-0.2-0.3-0.3-0.4c-0.5-1.2-1.1-2.4-1.9-3.4c0.4-0.4,0.5-1.1,0.1-1.6c-0.2-0.3-0.5-0.6-0.8-0.8c-0.4-0.4-1.1-0.4-1.6,0
		c-0.2-0.2-0.3-0.4-0.5-0.3c-0.4,0.3-0.1,0.8,0,1.2c0.1,0.2,0.3,0.4,0.4,0.5c0,0,0.1,0.1,0.1,0.1c0.2,0.2,0.4,0.4,0.6,0.7
		c0.1,0.1,0.3,0.2,0.4,0.3c0.3,0.3,0.6,0.6,0.8,0.9c0.5,0.7,0.8,1.4,1.2,2.1c0,0,0,0,0,0c-0.6,0.2-0.9,0.9-0.7,1.5
		c0.1,0.3,0.2,0.6,0.3,1c0.2,0.5,0.6,0.7,1.1,0.7c0.1,0,0.2,0,0.4-0.1c0.2,0.6,0.3,1.1,0.5,1.7c-0.1,0.2-0.2,0.5-0.1,0.7
		c0.1,0.3,0.1,0.6,0.2,0.9c0.1,0.4,0.3,0.7,0.7,0.9c0.3,1.3,0,2.5-0.5,3.6c-0.1-0.1-0.3-0.1-0.5-0.1c-0.1,0-0.2,0-0.3,0
		c-0.3-0.1-0.6,0-0.9,0.2c-1.8-2-3.7-3.8-5.7-5.5c0,0,0,0,0,0c0.4-0.5,0.3-1.2-0.1-1.6c-0.3-0.2-0.5-0.4-0.8-0.7
		c-0.5-0.4-1.2-0.3-1.6,0.2c0,0,0,0,0,0c-0.6-0.4-1.1-0.9-1.7-1.3c-1.6-1.2-3.1-2.3-4.8-3.4c0,0,0,0,0,0c0.3-0.5,0.2-1.2-0.3-1.6
		c-0.3-0.2-0.6-0.4-0.9-0.6c-0.5-0.3-1.2-0.2-1.6,0.4c0,0,0,0,0,0c-2.3-1.4-4.7-2.6-7.1-3.6c0,0,0,0,0,0c0.2-0.6,0-1.2-0.6-1.5
		c-0.3-0.1-0.6-0.3-1-0.4c-0.6-0.2-1.2,0.1-1.5,0.7c0,0,0,0,0,0c-0.3-0.1-0.7-0.3-1-0.4c-1.6-0.6-3.3-1-5.1-0.9
		c-0.6,0-1.2,0.1-1.7,0.3c0-0.1,0-0.1-0.1-0.2c-0.4-0.5-1.1-0.6-1.6-0.2c-0.4,0.3-0.7,0.7-0.9,1.1c-0.3,0.5-0.1,1.2,0.4,1.5
		c0.1,0,0.1,0.1,0.2,0.1c-0.1,0.4-0.1,0.7,0,1.1c0.1,1.3,0.5,2.7,1.2,3.9c0.5,0.8,0.9,1.6,1.4,2.3c0,0,0,0,0,0
		c-0.5,0.3-0.7,1-0.4,1.5l0.5,0.9c0.2,0.3,0.6,0.5,1,0.5c0.2,0,0.4-0.1,0.6-0.2c0,0,0,0,0,0c0.1,0.1,0.1,0.2,0.2,0.3
		c1.1,1.8,1.8,3.6,2.3,5.5c0.1,0.5,0.3,1.1,0.4,1.6c0,0,0,0,0,0c-0.6,0.2-0.9,0.8-0.8,1.4c0.1,0.3,0.2,0.7,0.3,1
		c0.2,0.5,0.6,0.8,1.1,0.8c0.1,0,0.2,0,0.3-0.1c0,0,0,0,0,0c0.2,0.7,0.5,1.4,0.8,2.1c0.7,1.6,1.9,2.5,3.6,2.6c0.4,0,0.8,0.1,1.1,0.1
		c0,0,0,0,0,0c0,0.5,0.3,0.9,0.7,1c-1.6,1-2.5,2.5-2.7,4.3c-0.1,0.9-0.3,1.8-0.4,2.7c0,0,0,0,0,0c-0.6,0-1.2,0.4-1.2,1.1
		c0,0.4,0,0.7,0,1.1c0,0.6,0.5,1.1,1.1,1.1c0,0,0,0,0,0c0,0,0,0,0,0c0.1,1.4,0.5,2.9,1.3,4.2c0.1,0.2,0.2,0.3,0.2,0.5
		c0.2,1.1,0.8,1.8,1.7,2.3c-0.3,0.5-0.2,1.2,0.3,1.5c0.3,0.2,0.5,0.3,0.6,0.5c0.2,0.2,0.5,0.3,0.8,0.3c0.3,0,0.5-0.1,0.7-0.3
		c0.6,0.7,1.3,1.2,2.1,1.7c1.5,1,3.1,1.6,4.9,1.9c0,0,0,0,0,0c-0.1,0.6,0.3,1.2,0.9,1.3l0.4,0.1c0.2,0,0.4,0.1,0.6,0.1
		c0,0,0.1,0,0.1,0c0.6,0,1-0.4,1.1-1c0,0,0,0,0,0c2.6,0.1,3.7-0.8,5.2-3.6c0.2-0.3,0.4-0.7,0.6-1c0,0,0,0,0,0
		c0.2,0.1,0.4,0.1,0.5,0.1c0.4,0,0.8-0.2,1-0.6c0.2-0.3,0.3-0.6,0.5-0.9c0.3-0.6,0.1-1.2-0.5-1.5c1.2-2.2,2.4-4.4,3.6-6.6
		c0-0.1,0.1-0.2,0.2-0.4c0,0,0,0,0,0c0.1,0.1,0.2,0.1,0.3,0.1c0.2,0.1,0.4,0.2,0.7,0.2c0,0,0.1,0,0.1,0c0,2.4,0,6.2,0.1,7.4
		c-0.2,0.1-0.3,0.2-0.4,0.3c-0.4,0.5-0.3,1.2,0.3,1.6c0.4,0.3,0.8,0.4,1.2,0.4c0.3,0,0.6-0.1,0.8-0.2c0.6-0.2,0.9-0.9,0.7-1.5
		c-0.1-0.3-0.4-0.5-0.6-0.6c0.2-1.3,0.1-5.3,0.2-7.7c0,0,0,0,0,0c0,0,0.1,0,0.1,0c0.2,0.1,0.4,0.2,0.6,0.2c0.2,0,0.5-0.1,0.7-0.2
		c0,0,0,0,0-0.1c1,1.4,2.3,3.3,2.6,3.8c0.5,1,1.1,2,1.6,2.9c0,0,0,0-0.1,0c-0.5,0.3-0.7,1-0.4,1.5l0.5,0.9c0.2,0.4,0.6,0.6,1,0.6
		c0.2,0,0.4,0,0.5-0.1c0,0,0,0,0.1-0.1c0.4,0.6,0.7,1.3,1.1,1.9c1,1.7,2.6,2.4,4.6,2.3c0,0,0,0,0,0c0,0.1,0,0.2,0,0.4
		c0.1,0.6,0.6,1,1.1,1c0.1,0,0.1,0,0.2,0c0.3-0.1,0.7-0.1,1-0.2c0.6-0.1,1-0.7,0.9-1.3c0-0.1-0.1-0.2-0.1-0.3
		c0.7-0.1,1.4-0.2,2.1-0.1c0.3,0,0.6-0.2,0.8-0.4c0.7-0.6,1.5-1.1,2.3-1.5c0.6-0.3,1.2-0.6,1.6-1.2c0,0,0,0,0,0c0,0,0,0.1,0.1,0.1
		c0.2,0.2,0.5,0.4,0.8,0.4c0.3,0,0.5-0.1,0.8-0.3c0.2-0.2,0.4-0.4,0.7-0.5c0.5-0.4,0.6-1.1,0.3-1.6c-0.1-0.1-0.1-0.1-0.2-0.2
		c0.1,0,0.1-0.1,0.2-0.1c0.7-0.4,1.3-0.9,1.5-1.7c0.3-1.3,0.9-2.4,1.4-3.5c0.2-0.4,0.3-0.9,0.3-1.4c0,0,0,0,0,0c0,0,0,0,0,0
		c0.6,0,1.1-0.5,1.1-1.1c0-0.3,0-0.6,0.1-0.9c0.1-0.6-0.3-1.2-1-1.3c-0.1,0-0.2,0-0.3,0c0.3-2.7-0.6-5.1-2.6-7c0,0-0.1-0.1-0.1-0.1
		c0.1-0.1,0.2-0.2,0.2-0.4c0.2-0.2,0.3-0.5,0.3-0.8c0-0.1,0-0.3-0.1-0.4c0.3,0,0.6-0.1,0.9-0.1c1.4-0.1,2.5-0.7,3.2-1.9
		c0.4-0.7,0.8-1.4,1.2-2.2c0.1,0,0.1,0.1,0.2,0.1c0.1,0,0.2,0.1,0.4,0.1c0.5,0,0.9-0.3,1.1-0.8c0.1-0.3,0.2-0.7,0.3-1
		c0.2-0.6-0.2-1.2-0.8-1.4c0,0-0.1,0-0.1,0c0.6-2.5,1.4-4.9,2.4-7.1c0,0,0.1,0,0.1,0.1c0.2,0.1,0.3,0.1,0.5,0.1c0.4,0,0.8-0.2,1-0.6
		c0.1-0.3,0.3-0.6,0.4-0.8c0.3-0.5,0.1-1.2-0.4-1.5c0,0-0.1,0-0.1,0c0.5-0.9,1.1-1.8,1.8-2.6c0.9-1.2,1.3-2.6,1.6-4
		c0.1,0,0.1,0,0.2,0c0,0,0,0,0,0c0.6,0,1.1-0.5,1.1-1.1l0-0.1C1070.4,325.9,1070.4,325.5,1070.3,325.1z"/>
	<path class="st1" d="M983,575.5c-0.1,0-0.2,0.1-0.3,0.2c-0.4-0.5-1.1-0.8-2.1-1c-1.7-0.4-3.4-0.2-5.1,0.2c-0.2-0.5-0.8-0.8-1.3-0.6
		l-0.8,0.2c0,0-0.1,0-0.1,0c0,0-0.1,0-0.1,0c-0.5,0.2-0.8,0.7-0.7,1.3c-2.4,0.9-4.7,1.9-6.9,3.1c-0.3-0.4-0.9-0.6-1.4-0.3
		c-0.3,0.2-0.6,0.3-0.9,0.5c-0.5,0.3-0.6,0.9-0.4,1.4c-2.1,1.3-4.2,2.7-6.2,4.2c0,0,0,0.1-0.1,0.1c-0.4-0.2-0.9-0.1-1.3,0.2
		c-0.1,0.1-0.3,0.3-0.5,0.4c-0.5,0.3-0.7,1-0.4,1.5c-2.1,1.6-3.9,3.3-5.7,5.1c-0.4-0.2-0.8-0.1-1.1,0.1c-0.3,0.1-0.7,0.3-0.9,0.5
		c-0.4,0.4-0.4,1.1,0,1.6c-0.7,1-1.8,2.7-2,2.2c-0.5-1.6-0.9-3-0.4-4.8c0,0,0-0.1,0-0.1c0.1,0,0.2,0,0.2,0c0.5,0,0.9-0.3,1.1-0.8
		l0.3-1c0.2-0.6-0.1-1.1-0.7-1.4c0.1-0.3,0.2-0.6,0.3-0.9c0.1-0.3,0.2-0.5,0.3-0.8c0-0.1,0.1-0.2,0.1-0.3c0.7-1.9,1.5-3.7,2.7-5.1
		c0.2,0.2,0.5,0.3,0.7,0.3c0.2,0,0.5-0.1,0.7-0.2l0,0c0.5-0.3,0.8-0.8,0.9-1.4c0.1-0.6-0.3-1.2-0.9-1.3c-0.6-0.1-1.2,0.3-1.4,0.9
		l-0.1,0.1c-0.2,0.1-0.3,0.3-0.3,0.5c-0.5,0.5-0.9,1-1.3,1.6c-0.6,1.2-1.2,2.4-1.8,3.6c0,0-0.1-0.1-0.1-0.1c-0.6-0.2-1.2,0-1.5,0.6
		c-0.1,0.3-0.3,0.7-0.4,1c-0.2,0.6,0.1,1.2,0.7,1.4c0,0,0.1,0,0.1,0c0,0.1-0.1,0.3-0.1,0.4c-0.1,0.1-0.2,0.3-0.3,0.4l-0.3,1
		c-0.1,0.2,0,0.4,0,0.6c-0.2,0.8-0.3,1.6-0.4,2.4c0,0.2-0.6,0.6-0.8,0.3c-0.2-0.3-0.3-0.6-0.3-0.9c0-0.4,0-0.7,0-1.1
		c0.6-0.1,1-0.7,0.9-1.3c-0.1-0.4-0.1-0.7-0.2-1.1c-0.1-0.6-0.7-1-1.3-0.9c-0.2-0.7-0.4-1.3-0.6-2c0-0.2,0-0.3,0-0.5
		c-0.1-0.3-0.2-0.7-0.4-1c-0.1-0.2-0.2-0.3-0.3-0.4c-0.5-1.2-1.1-2.4-1.9-3.4c0.4-0.4,0.5-1.1,0.1-1.6c-0.2-0.3-0.5-0.6-0.8-0.8
		c-0.4-0.4-1.1-0.4-1.6,0c-0.2-0.2-0.3-0.4-0.5-0.3c-0.4,0.3-0.1,0.8,0,1.2c0.1,0.2,0.3,0.4,0.4,0.5c0,0,0,0.1,0.1,0.1
		c0.2,0.2,0.4,0.4,0.6,0.7c0.1,0.1,0.3,0.2,0.4,0.3c0.3,0.3,0.6,0.6,0.8,0.9c0.5,0.7,0.8,1.4,1.2,2.1c0,0,0,0,0,0
		c-0.6,0.2-0.9,0.9-0.7,1.5c0.1,0.3,0.2,0.6,0.3,0.9c0.2,0.5,0.6,0.7,1.1,0.7c0.1,0,0.2,0,0.4-0.1c0.2,0.6,0.3,1.1,0.5,1.7
		c-0.1,0.2-0.2,0.5-0.1,0.7c0.1,0.3,0.1,0.6,0.2,0.9c0.1,0.4,0.3,0.7,0.7,0.9c0.3,1.3,0,2.5-0.5,3.6c-0.2-0.1-0.5-0.2-0.7-0.1
		c-0.3-0.1-0.6,0-0.9,0.2c-1.8-2-3.7-3.8-5.7-5.5c0,0,0,0,0,0c0.4-0.5,0.3-1.2-0.1-1.6c-0.3-0.2-0.5-0.4-0.8-0.7
		c-0.5-0.4-1.2-0.3-1.6,0.2c0,0,0,0,0,0c-0.6-0.4-1.1-0.9-1.7-1.3c-1.6-1.2-3.1-2.3-4.8-3.4c0,0,0,0,0,0c0.3-0.5,0.2-1.2-0.3-1.6
		c-0.3-0.2-0.6-0.4-0.9-0.6c-0.5-0.3-1.2-0.2-1.5,0.4c0,0,0,0,0,0c-2.3-1.4-4.7-2.6-7.1-3.6c0,0,0,0,0,0c0.2-0.6,0-1.2-0.6-1.5
		c-0.3-0.1-0.7-0.3-1-0.4c-0.6-0.2-1.2,0.1-1.5,0.7c0,0,0,0,0,0c-0.3-0.1-0.7-0.3-1-0.4c-1.6-0.6-3.3-1-5.1-0.9
		c-0.6,0-1.2,0.1-1.7,0.3c0-0.1,0-0.1-0.1-0.2c-0.4-0.5-1.1-0.6-1.6-0.2c-0.4,0.3-0.7,0.7-0.9,1.1c-0.3,0.5-0.1,1.2,0.4,1.5
		c0.1,0,0.1,0.1,0.2,0.1c-0.1,0.3-0.1,0.7,0,1.1c0.1,1.3,0.5,2.7,1.2,3.9c0.5,0.8,0.9,1.6,1.4,2.3c0,0,0,0,0,0
		c-0.5,0.3-0.7,1-0.4,1.5l0.5,0.9c0.2,0.3,0.6,0.5,1,0.5c0.2,0,0.4-0.1,0.6-0.2c0,0,0,0,0,0c0.1,0.1,0.1,0.2,0.2,0.3
		c1.1,1.8,1.8,3.6,2.3,5.5c0.1,0.5,0.3,1.1,0.4,1.6c0,0,0,0,0,0c-0.6,0.2-0.9,0.8-0.8,1.4c0.1,0.3,0.2,0.7,0.3,1
		c0.2,0.5,0.6,0.8,1.1,0.8c0.1,0,0.2,0,0.3-0.1c0,0,0,0,0,0c0.2,0.7,0.5,1.4,0.8,2.1c0.7,1.6,1.9,2.5,3.6,2.6c0.4,0,0.8,0.1,1.1,0.1
		c0,0,0,0,0,0c0,0.5,0.3,0.9,0.7,1c-1.6,1-2.5,2.5-2.7,4.3c-0.1,0.9-0.3,1.8-0.4,2.7c0,0,0,0,0,0c-0.6,0-1.2,0.4-1.2,1.1
		c0,0.4,0,0.7,0,1.1c0,0.6,0.5,1.1,1.1,1.1c0,0,0,0,0,0c0,0,0,0,0,0c0.1,1.4,0.5,2.9,1.3,4.2c0.1,0.2,0.2,0.3,0.2,0.5
		c0.2,1.1,0.8,1.8,1.7,2.3c-0.3,0.5-0.2,1.2,0.3,1.5c0.3,0.2,0.5,0.3,0.6,0.5c0.2,0.2,0.5,0.3,0.8,0.3c0.3,0,0.5-0.1,0.7-0.3
		c0.6,0.7,1.3,1.2,2.1,1.7c1.5,1,3.1,1.6,4.9,1.9c0,0,0,0,0,0c-0.1,0.6,0.3,1.2,0.9,1.3l0.4,0.1c0.2,0,0.4,0.1,0.6,0.1
		c0.1,0,0.1,0,0.1,0c0.6,0,1-0.4,1.1-1c0,0,0,0,0,0c2.5,0.1,3.7-0.8,5.2-3.6c0.2-0.3,0.4-0.7,0.6-1c0,0,0,0,0,0
		c0.2,0.1,0.4,0.1,0.5,0.1c0.4,0,0.8-0.2,1-0.6c0.2-0.3,0.3-0.6,0.5-0.9c0.3-0.6,0.1-1.2-0.5-1.5c1.2-2.2,2.4-4.4,3.6-6.6
		c0-0.1,0.1-0.2,0.2-0.4c0,0,0,0,0,0c0.1,0.1,0.2,0.1,0.3,0.1c0.2,0.1,0.4,0.2,0.7,0.2c0,0,0.1,0,0.1,0c0,2.4,0,6.2,0.1,7.4
		c-0.2,0.1-0.3,0.2-0.4,0.3c-0.4,0.5-0.3,1.2,0.2,1.6c0.4,0.3,0.8,0.4,1.3,0.4c0.3,0,0.6-0.1,0.8-0.2c0.6-0.2,0.9-0.9,0.7-1.5
		c-0.1-0.3-0.4-0.5-0.6-0.6c0.2-1.3,0.1-5.3,0.2-7.7c0,0,0,0,0,0c0,0,0.1,0,0.1,0c0.2,0.1,0.4,0.2,0.6,0.2c0.2,0,0.5-0.1,0.7-0.2
		c0,0,0,0,0-0.1c1,1.4,2.3,3.3,2.6,3.8c0.5,1,1.1,2,1.6,2.9c0,0,0,0-0.1,0c-0.5,0.3-0.7,1-0.4,1.5l0.5,0.9c0.2,0.4,0.6,0.6,1,0.6
		c0.2,0,0.4,0,0.5-0.1c0,0,0,0,0.1-0.1c0.4,0.6,0.7,1.3,1.1,1.9c1,1.7,2.6,2.4,4.6,2.3c0,0,0,0,0,0c0,0.1,0,0.2,0,0.4
		c0.1,0.6,0.6,1,1.1,1c0.1,0,0.1,0,0.2,0c0.3,0,0.7-0.1,1-0.2l-0.3-1.4c1-0.2,2.1-0.4,3.1-0.3c0.3,0,0.6-0.2,0.8-0.4
		c0.7-0.6,1.5-1.1,2.3-1.5c0.6-0.3,1.2-0.6,1.6-1.2c0,0,0,0,0,0c0,0,0,0.1,0.1,0.1c0.2,0.2,0.5,0.4,0.8,0.4c0.3,0,0.5-0.1,0.8-0.3
		c0.2-0.2,0.4-0.4,0.7-0.5c0.5-0.4,0.6-1.1,0.3-1.6c-0.1-0.1-0.1-0.1-0.2-0.2c0.1,0,0.1-0.1,0.2-0.1c0.7-0.4,1.3-0.9,1.5-1.7
		c0.3-1.3,0.9-2.4,1.4-3.5c0.2-0.4,0.3-0.9,0.3-1.4c0,0,0,0,0,0c0,0,0,0,0,0c0.6,0,1.1-0.5,1.1-1.1c0-0.3,0-0.6,0.1-0.9
		c0.1-0.6-0.3-1.2-1-1.3c-0.1,0-0.2,0-0.3,0c0.3-2.7-0.6-5.1-2.6-7c0,0,0,0-0.1-0.1c0.1-0.1,0.2-0.3,0.3-0.4
		c0.2-0.2,0.3-0.5,0.3-0.8c0-0.1,0-0.3-0.1-0.4c0.3,0,0.5-0.1,0.8-0.1c1.4-0.1,2.5-0.7,3.2-1.9c0.5-0.7,0.9-1.5,1.2-2.3
		c0.1,0,0.1,0.1,0.2,0.1c0.1,0,0.2,0.1,0.4,0.1c0.5,0,0.9-0.3,1.1-0.8c0.1-0.3,0.2-0.7,0.3-1c0.2-0.6-0.2-1.2-0.8-1.4
		c-0.1,0-0.2,0-0.2,0c0.6-2.5,1.4-4.9,2.5-7.2c0.1,0,0.1,0.1,0.2,0.1c0.2,0.1,0.3,0.1,0.5,0.1c0.4,0,0.8-0.2,1-0.6
		c0.1-0.3,0.3-0.6,0.4-0.8c0.3-0.5,0.1-1.2-0.4-1.5c-0.1,0-0.1,0-0.2-0.1c0.5-0.9,1.1-1.7,1.7-2.6c0.9-1.3,1.3-2.6,1.6-4
		c0.1,0,0.2,0.1,0.3,0.1c0,0,0,0,0,0c0.6,0,1.1-0.5,1.1-1.1l0-0.1c0-0.4,0-0.8-0.1-1.2C984.2,575.6,983.6,575.3,983,575.5z"/>
	<path class="st1" d="M590.1,611.5c-0.1,0-0.2,0.1-0.3,0.2c-0.4-0.5-1.1-0.8-2.1-1c-1.7-0.4-3.4-0.2-5.1,0.2
		c-0.2-0.5-0.8-0.8-1.3-0.6l-1,0.3c-0.6,0.2-0.9,0.7-0.7,1.3c-2.4,0.9-4.7,1.9-6.9,3.1c-0.3-0.4-0.9-0.6-1.4-0.3
		c-0.3,0.2-0.6,0.3-0.9,0.5c-0.5,0.3-0.6,0.9-0.4,1.4c-2.1,1.3-4.2,2.7-6.2,4.2c0,0,0,0.1-0.1,0.1c-0.4-0.2-0.9-0.1-1.3,0.2
		c-0.1,0.1-0.3,0.3-0.5,0.4c-0.5,0.3-0.7,1-0.4,1.5c-2.1,1.6-3.9,3.3-5.7,5.1c-0.3-0.1-0.7-0.1-1,0.1c-0.3,0.1-0.7,0.3-0.9,0.5
		c-0.4,0.4-0.4,1.1-0.1,1.5c-0.7,1-1.9,2.8-2,2.3c-0.5-1.6-0.9-3-0.4-4.8c0,0,0-0.1,0-0.1c0,0,0,0,0,0c0.1,0,0.2,0,0.3,0
		c0.5,0,0.9-0.3,1.1-0.8l0.3-1c0.2-0.6-0.2-1.2-0.8-1.4c0-0.1,0.1-0.3,0.1-0.4c0.1-0.1,0.1-0.2,0.2-0.3c0.1-0.3,0.2-0.6,0.4-0.9
		c0.1-0.2,0.1-0.4,0.1-0.6c0.7-1.9,1.5-3.6,2.7-4.9c0.2,0.2,0.5,0.4,0.8,0.4c0.2,0,0.5-0.1,0.7-0.2l0,0c0.5-0.3,0.8-0.8,0.9-1.4
		c0.1-0.6-0.3-1.2-0.9-1.3c-0.6-0.1-1.2,0.3-1.4,0.9l-0.1,0.1c-0.1,0.1-0.1,0.1-0.2,0.2c-0.6,0.6-1.1,1.1-1.5,1.9
		c-0.6,1.2-1.2,2.4-1.8,3.6c0,0,0,0,0,0c-0.6-0.2-1.2,0-1.5,0.6c-0.1,0.3-0.3,0.7-0.4,1c-0.2,0.6,0.1,1.2,0.7,1.4c0,0,0,0,0,0
		c-0.1,0.2-0.1,0.5-0.2,0.7c0,0.1-0.1,0.1-0.1,0.2l-0.3,1c0,0.1,0,0.2,0,0.4c-0.2,0.9-0.4,1.8-0.5,2.7c0,0.2-0.6,0.6-0.8,0.3
		c-0.2-0.3-0.3-0.6-0.3-0.9c0-0.4,0-0.7,0-1.1c0,0,0,0,0,0c0.6-0.1,1-0.7,1-1.3c-0.1-0.4-0.1-0.7-0.2-1.1c-0.1-0.6-0.7-1-1.3-0.9
		c0,0,0,0,0,0c-0.2-0.6-0.3-1.2-0.5-1.8c0.1-0.2,0.1-0.5,0-0.7c-0.1-0.3-0.2-0.7-0.4-1c-0.1-0.2-0.3-0.4-0.5-0.5
		c-0.5-1.2-1.1-2.3-1.8-3.3c0,0,0,0,0,0c0.5-0.4,0.5-1.1,0.1-1.6c-0.2-0.3-0.5-0.6-0.8-0.8c-0.4-0.4-1.2-0.4-1.6,0c0,0,0,0,0,0
		c-0.2-0.2-0.4-0.5-0.6-0.3c-0.4,0.3-0.1,0.8,0,1.2c0.1,0.2,0.3,0.4,0.5,0.6c0.2,0.2,0.5,0.5,0.7,0.7c0,0,0,0,0.1,0.1c0,0,0,0,0,0
		c0.4,0.4,0.8,0.8,1.1,1.2c0.5,0.7,0.9,1.4,1.2,2.1c-0.5,0.2-0.8,0.9-0.6,1.4c0.1,0.3,0.2,0.6,0.3,0.9c0.2,0.5,0.6,0.7,1.1,0.7
		c0.1,0,0.2,0,0.3,0c0.2,0.6,0.4,1.2,0.5,1.8c-0.1,0.2-0.1,0.4-0.1,0.6c0.1,0.3,0.1,0.6,0.2,0.9c0.1,0.4,0.3,0.7,0.6,0.8
		c0.3,1.3,0.1,2.4-0.4,3.6c-0.2-0.1-0.4-0.1-0.7-0.1c-0.4-0.1-0.7,0-1,0.3c-1.7-1.9-3.6-3.7-5.7-5.5c0,0,0,0,0.1,0
		c0.4-0.5,0.3-1.2-0.1-1.6c-0.3-0.2-0.5-0.4-0.8-0.7c-0.5-0.4-1.2-0.3-1.6,0.2c0,0,0,0,0,0.1c-0.6-0.5-1.2-0.9-1.8-1.4
		c-1.5-1.2-3.1-2.3-4.7-3.4c0,0,0,0,0-0.1c0.3-0.5,0.2-1.2-0.3-1.6c-0.3-0.2-0.6-0.4-0.9-0.6c-0.5-0.3-1.2-0.2-1.6,0.4
		c0,0,0,0,0,0.1c-2.3-1.4-4.7-2.6-7.1-3.6c0,0,0,0,0-0.1c0.2-0.6,0-1.2-0.6-1.5c-0.3-0.1-0.6-0.3-1-0.4c-0.6-0.2-1.2,0.1-1.5,0.7
		c0,0,0,0,0,0.1c-0.4-0.1-0.7-0.3-1.1-0.4c-1.6-0.6-3.3-1-5.1-0.9c-0.6,0-1.1,0.1-1.6,0.3c0-0.1,0-0.1-0.1-0.2
		c-0.4-0.5-1.1-0.6-1.6-0.2c-0.4,0.3-0.7,0.7-0.9,1.1c-0.3,0.5-0.1,1.2,0.4,1.5c0,0,0.1,0,0.1,0c-0.1,0.4-0.1,0.7-0.1,1.2
		c0.1,1.3,0.5,2.7,1.2,3.9c0.5,0.8,1,1.6,1.5,2.4c-0.5,0.3-0.6,1-0.3,1.5l0.5,0.9c0.2,0.3,0.6,0.5,1,0.5c0.2,0,0.3,0,0.5-0.1
		c0,0.1,0.1,0.2,0.1,0.2c1.1,1.8,1.8,3.6,2.3,5.5c0.1,0.6,0.3,1.1,0.4,1.7c-0.5,0.2-0.9,0.8-0.7,1.4c0.1,0.3,0.2,0.7,0.3,1
		c0.2,0.5,0.6,0.8,1.1,0.8c0.1,0,0.2,0,0.3,0c0.2,0.7,0.5,1.4,0.8,2c0.7,1.6,1.9,2.5,3.6,2.6c0.4,0.1,0.8,0.1,1.2,0.1c0,0,0,0,0,0
		c0,0.4,0.3,0.8,0.7,1c-1.6,1-2.5,2.5-2.8,4.3c-0.1,0.9-0.3,1.8-0.4,2.7c-0.6,0-1.1,0.4-1.1,1c0,0.4,0,0.7,0,1.1
		c0,0.6,0.5,1.1,1.1,1.1c0.1,1.4,0.5,2.9,1.3,4.2c0.1,0.2,0.2,0.3,0.2,0.5c0.2,1.2,0.9,1.8,1.8,2.3c-0.3,0.5-0.1,1.1,0.3,1.5
		c0.3,0.2,0.5,0.3,0.6,0.5c0.2,0.2,0.5,0.3,0.8,0.3c0.2,0,0.5-0.1,0.6-0.2c0.6,0.7,1.3,1.2,2.1,1.7c1.5,1,3.2,1.6,5,2c0,0,0,0,0,0
		c-0.1,0.6,0.3,1.2,1,1.3l0.4,0.1c0.2,0,0.4,0.1,0.6,0.1c0.1,0,0.1,0,0.1,0c0.6,0,1-0.4,1.1-1c0,0,0,0,0,0c2.5,0.1,3.6-0.8,5.1-3.6
		c0.2-0.4,0.4-0.7,0.6-1.1c0,0,0.1,0.1,0.1,0.1c0.2,0.1,0.4,0.1,0.5,0.1c0.4,0,0.8-0.2,1-0.6c0.2-0.3,0.3-0.6,0.5-0.9
		c0.3-0.6,0.1-1.2-0.5-1.5c0,0,0,0-0.1,0c1.2-2.2,2.4-4.4,3.6-6.6c0.1-0.1,0.2-0.3,0.3-0.5c0.1,0,0.2,0.1,0.3,0.1
		c0.2,0.1,0.4,0.2,0.7,0.2c0,0,0.1,0,0.1,0c0,2.4,0,6.4,0.2,7.5c-0.1,0.1-0.2,0.2-0.3,0.3c-0.4,0.5-0.3,1.2,0.2,1.6
		c0.4,0.3,0.8,0.4,1.2,0.4c0.3,0,0.6-0.1,0.8-0.2c0.6-0.2,0.9-0.9,0.7-1.5c-0.1-0.3-0.4-0.6-0.7-0.6c0.2-1.4,0.1-5.3,0.2-7.8
		c0,0,0.1,0,0.1,0.1c0,0,0.1,0,0.1,0c0.2,0.1,0.4,0.2,0.6,0.2c0.2,0,0.5-0.1,0.7-0.2c1,1.4,2.2,3.3,2.5,3.7c0.5,1,1.1,2,1.6,3
		c-0.5,0.3-0.7,1-0.4,1.5l0.5,0.9c0.2,0.4,0.6,0.6,1,0.6c0.2,0,0.4,0,0.5-0.1c0.4,0.6,0.7,1.3,1.1,1.9c1,1.7,2.6,2.4,4.6,2.3
		c0,0,0.1,0,0.1,0c0,0.1,0,0.2,0,0.4c0.1,0.6,0.6,1,1.1,1c0.1,0,0.1,0,0.2,0c0.3,0,0.7-0.1,1-0.2l-0.3-1.4c1-0.2,2-0.4,3-0.3
		c0.3,0,0.6-0.2,0.8-0.4c0.7-0.6,1.5-1.1,2.3-1.5c0.6-0.3,1.2-0.6,1.6-1.2c0,0,0-0.1,0.1-0.1c0,0.1,0.1,0.1,0.1,0.2
		c0.2,0.2,0.5,0.4,0.8,0.4c0.3,0,0.5-0.1,0.8-0.3c0.2-0.2,0.4-0.4,0.7-0.5c0.5-0.4,0.6-1.1,0.3-1.6c-0.1-0.1-0.1-0.2-0.2-0.2
		c0,0,0.1,0,0.1-0.1c0.7-0.4,1.3-0.9,1.5-1.7c0.3-1.3,0.9-2.4,1.4-3.5c0.2-0.4,0.3-0.9,0.3-1.4c0,0,0.1,0,0.1,0c0,0,0,0,0,0
		c0.6,0,1.1-0.5,1.1-1.1c0-0.3,0-0.6,0.1-0.9c0.1-0.6-0.3-1.2-1-1.3c-0.1,0-0.2,0-0.4,0c0,0,0,0,0,0c0.3-2.7-0.6-5.1-2.6-7
		c0,0,0,0-0.1-0.1c0.1-0.1,0.2-0.3,0.3-0.4c0.2-0.2,0.3-0.5,0.3-0.8c0-0.1,0-0.3-0.1-0.4c0.3,0,0.5-0.1,0.8-0.1
		c1.4-0.1,2.5-0.7,3.2-1.9c0.5-0.7,0.9-1.5,1.2-2.3c0.1,0,0.1,0.1,0.2,0.1c0.1,0,0.2,0.1,0.4,0.1c0.5,0,0.9-0.3,1.1-0.8
		c0.1-0.3,0.2-0.7,0.3-1c0.2-0.6-0.2-1.2-0.8-1.4c-0.1,0-0.2,0-0.2,0c0.6-2.5,1.4-4.9,2.5-7.2c0.1,0,0.1,0.1,0.2,0.1
		c0.2,0.1,0.3,0.1,0.5,0.1c0.4,0,0.8-0.2,1-0.6c0.1-0.3,0.3-0.6,0.4-0.8c0.3-0.5,0.1-1.2-0.4-1.5c-0.1,0-0.1,0-0.2-0.1
		c0.5-0.9,1.1-1.7,1.7-2.6c0.9-1.3,1.3-2.6,1.6-4c0.1,0,0.2,0.1,0.3,0.1c0,0,0,0,0,0c0.6,0,1.1-0.5,1.1-1.1l0-0.1
		c0-0.4,0-0.8-0.1-1.2C591.3,611.6,590.7,611.3,590.1,611.5z"/>
	<path class="st1" d="M696.2,656.9c-0.1,0-0.2,0.1-0.3,0.1c-0.4-0.5-1.1-0.8-2-1c-1.8-0.4-3.5-0.2-5.2,0.3c-0.2-0.5-0.8-0.8-1.4-0.7
		l-0.9,0.3l0,0c-0.6,0.2-0.9,0.8-0.7,1.3c-2.4,0.9-4.7,1.9-6.9,3.1c-0.3-0.5-1-0.6-1.5-0.3c-0.3,0.2-0.6,0.3-0.9,0.5
		c-0.5,0.3-0.7,0.9-0.4,1.4c-2.1,1.3-4.1,2.7-6.1,4.1c0,0-0.1,0.1-0.1,0.1c-0.4-0.2-1-0.2-1.3,0.2c-0.1,0.1-0.3,0.3-0.5,0.4
		c-0.5,0.3-0.7,1-0.4,1.5c0,0,0,0,0,0c-2.1,1.5-3.9,3.2-5.6,5c0,0,0,0,0,0c-0.4-0.2-0.9-0.1-1.2,0.2c-0.3,0.1-0.6,0.3-0.8,0.5
		c-0.4,0.4-0.4,1.1,0,1.6c-0.7,1-1.8,2.7-2,2.2c-0.5-1.6-0.9-3-0.4-4.8c0,0,0-0.1,0-0.1c0.1,0,0.2,0,0.2,0c0.5,0,0.9-0.3,1.1-0.8
		l0.3-1c0.2-0.6-0.1-1.1-0.7-1.3c0.1-0.3,0.2-0.6,0.3-0.9c0.1-0.3,0.2-0.5,0.3-0.8c0-0.1,0.1-0.2,0.1-0.4c0.7-1.9,1.5-3.7,2.7-5.1
		c0.2,0.2,0.5,0.3,0.7,0.3c0.2,0,0.5-0.1,0.7-0.2l0,0c0.5-0.3,0.8-0.8,0.9-1.4c0.1-0.6-0.3-1.2-0.9-1.3c-0.6-0.1-1.2,0.3-1.4,0.9
		l-0.1,0.1c-0.2,0.1-0.3,0.3-0.3,0.5c-0.5,0.5-0.9,1-1.3,1.6c-0.6,1.2-1.2,2.4-1.8,3.6c0,0-0.1-0.1-0.1-0.1c-0.6-0.2-1.2,0-1.5,0.6
		c-0.1,0.3-0.3,0.7-0.4,1c-0.2,0.6,0.1,1.2,0.7,1.4c0,0,0.1,0,0.1,0c0,0.1-0.1,0.3-0.1,0.4c-0.1,0.1-0.2,0.3-0.3,0.4l-0.3,1
		c-0.1,0.2,0,0.4,0,0.6c-0.2,0.8-0.3,1.6-0.4,2.4c0,0.2-0.6,0.6-0.8,0.3c-0.2-0.3-0.3-0.6-0.3-0.9c0-0.4,0-0.7,0-1.1
		c0.6-0.1,1-0.7,0.9-1.3c-0.1-0.4-0.1-0.7-0.2-1.1c-0.1-0.6-0.7-1-1.3-0.9c-0.2-0.7-0.4-1.3-0.6-2c0-0.2,0-0.3,0-0.5
		c-0.1-0.3-0.2-0.7-0.4-1c-0.1-0.2-0.2-0.3-0.3-0.4c-0.5-1.2-1.1-2.4-1.9-3.4c0.4-0.4,0.5-1.1,0.1-1.6c-0.2-0.3-0.5-0.6-0.8-0.8
		c-0.4-0.4-1.1-0.4-1.6,0c-0.2-0.2-0.3-0.4-0.5-0.3c-0.4,0.3-0.1,0.8,0,1.2c0.1,0.2,0.3,0.4,0.4,0.5c0,0,0,0.1,0.1,0.1
		c0.2,0.2,0.4,0.4,0.6,0.7c0.1,0.1,0.3,0.2,0.4,0.3c0.3,0.3,0.6,0.6,0.8,0.9c0.5,0.7,0.8,1.4,1.2,2.1c0,0,0,0,0,0
		c-0.6,0.2-0.9,0.9-0.7,1.5c0.1,0.3,0.2,0.6,0.3,0.9c0.2,0.5,0.6,0.7,1.1,0.7c0.1,0,0.2,0,0.4-0.1c0.2,0.6,0.3,1.1,0.5,1.7
		c-0.1,0.2-0.2,0.5-0.1,0.7c0.1,0.3,0.1,0.6,0.2,0.9c0.1,0.4,0.3,0.8,0.7,0.9c0.3,1.3,0,2.5-0.5,3.6c-0.1-0.1-0.3-0.1-0.5-0.1
		c-0.1,0-0.2,0-0.3,0c-0.3-0.1-0.6,0-0.9,0.2c-1.8-2-3.7-3.8-5.7-5.5c0,0,0,0,0,0c0.4-0.5,0.3-1.2-0.1-1.6c-0.3-0.2-0.5-0.4-0.8-0.7
		c-0.5-0.4-1.2-0.3-1.6,0.2c0,0,0,0,0,0c-0.6-0.4-1.1-0.9-1.7-1.3c-1.6-1.2-3.1-2.3-4.8-3.4c0,0,0,0,0,0c0.3-0.5,0.2-1.2-0.3-1.6
		c-0.3-0.2-0.6-0.4-0.9-0.6c-0.5-0.3-1.2-0.2-1.6,0.4c0,0,0,0,0,0c-2.3-1.4-4.7-2.6-7.1-3.6c0,0,0,0,0,0c0.2-0.6,0-1.2-0.6-1.5
		c-0.3-0.1-0.6-0.3-1-0.4c-0.6-0.2-1.2,0.1-1.5,0.7c0,0,0,0,0,0c-0.3-0.1-0.7-0.3-1-0.4c-1.6-0.6-3.3-1-5.1-0.9
		c-0.6,0-1.2,0.1-1.7,0.3c0-0.1,0-0.1-0.1-0.2c-0.4-0.5-1.1-0.6-1.6-0.2c-0.4,0.3-0.7,0.7-0.9,1.1c-0.3,0.5-0.1,1.2,0.4,1.5
		c0.1,0,0.1,0.1,0.2,0.1c-0.1,0.4-0.1,0.7,0,1.1c0.1,1.3,0.5,2.7,1.2,3.9c0.5,0.8,0.9,1.5,1.4,2.3c-0.5,0.3-0.7,1-0.4,1.5l0.5,0.9
		c0.2,0.3,0.6,0.5,1,0.5c0.2,0,0.4-0.1,0.6-0.2c0.1,0.1,0.1,0.2,0.2,0.3c1.1,1.8,1.8,3.6,2.3,5.5c0.1,0.5,0.3,1.1,0.4,1.6
		c0,0,0,0,0,0c-0.6,0.2-0.9,0.8-0.8,1.4c0.1,0.3,0.2,0.7,0.3,1c0.2,0.5,0.6,0.8,1.1,0.8c0.1,0,0.2,0,0.3-0.1c0,0,0,0,0,0
		c0.2,0.7,0.5,1.4,0.8,2.1c0.7,1.6,1.9,2.5,3.6,2.6c0.4,0,0.8,0.1,1.1,0.1c0,0,0,0,0,0c0,0.5,0.3,0.9,0.7,1c-1.6,1-2.5,2.5-2.7,4.3
		c-0.1,0.9-0.3,1.8-0.4,2.7c0,0,0,0,0,0c-0.6,0-1.2,0.4-1.2,1.1c0,0.4,0,0.7,0,1.1c0,0.6,0.5,1.1,1.1,1.1c0,0,0,0,0,0c0,0,0,0,0,0
		c0.1,1.4,0.5,2.9,1.3,4.2c0.1,0.2,0.2,0.3,0.2,0.5c0.2,1.1,0.8,1.8,1.7,2.3c-0.3,0.5-0.2,1.2,0.3,1.5c0.3,0.2,0.5,0.3,0.6,0.5
		c0.2,0.2,0.5,0.3,0.8,0.3c0.3,0,0.5-0.1,0.7-0.3c0.6,0.7,1.3,1.2,2.1,1.7c1.5,1,3.1,1.6,4.9,1.9c0,0,0,0,0,0
		c-0.1,0.6,0.3,1.2,1,1.3l0.4,0.1c0.2,0,0.4,0.1,0.6,0.1c0.1,0,0.1,0,0.1,0c0.6,0,1-0.4,1.1-1c0,0,0,0,0,0c2.5,0.1,3.7-0.8,5.2-3.6
		c0.2-0.3,0.4-0.7,0.6-1c0,0,0,0,0,0c0.2,0.1,0.4,0.1,0.5,0.1c0.4,0,0.8-0.2,1-0.6c0.2-0.3,0.3-0.6,0.5-0.9c0.3-0.6,0.1-1.2-0.5-1.5
		c1.2-2.2,2.4-4.4,3.6-6.6c0-0.1,0.1-0.2,0.2-0.4c0,0,0,0,0,0c0.1,0.1,0.2,0.1,0.3,0.1c0.2,0.1,0.4,0.2,0.7,0.2c0,0,0.1,0,0.1,0
		c0,2.5,0,6.4,0.2,7.5c-0.2,0.1-0.3,0.2-0.4,0.3c-0.4,0.5-0.3,1.2,0.2,1.6c0.4,0.3,0.8,0.4,1.2,0.4c0.3,0,0.6-0.1,0.8-0.2
		c0.6-0.2,0.9-0.9,0.7-1.5c-0.1-0.3-0.4-0.5-0.7-0.6c0.2-1.2,0.1-5.2,0.2-7.7c0,0,0,0,0,0c0,0,0.1,0,0.1,0c0.2,0.1,0.4,0.2,0.6,0.2
		c0.2,0,0.5-0.1,0.7-0.2c0,0,0.1-0.1,0.1-0.1c1,1.4,2.2,3.3,2.5,3.7c0.5,1,1.1,2,1.6,3c0,0-0.1,0-0.1,0c-0.5,0.3-0.7,1-0.4,1.5
		l0.5,0.9c0.2,0.4,0.6,0.6,1,0.6c0.2,0,0.4,0,0.5-0.1c0,0,0.1-0.1,0.1-0.1c0.4,0.6,0.7,1.3,1.1,1.9c1,1.7,2.6,2.4,4.6,2.3
		c0,0,0,0,0,0c0,0.1-0.1,0.3,0,0.5c0.1,0.6,0.6,1,1.1,1c0.1,0,0.1,0,0.2,0c0.3,0,0.7-0.1,1-0.2l-0.3-1.5c1-0.2,2.1-0.4,3.2-0.3
		c0.3,0,0.6-0.2,0.8-0.4c0.7-0.6,1.5-1.1,2.3-1.5c0.6-0.3,1.2-0.6,1.6-1.2c0,0.1,0.1,0.1,0.1,0.2c0.2,0.2,0.5,0.4,0.8,0.4
		c0.3,0,0.5-0.1,0.8-0.3c0.2-0.2,0.4-0.4,0.7-0.5c0.5-0.4,0.6-1.1,0.3-1.6c-0.1-0.1-0.2-0.2-0.3-0.2c0.1,0,0.1-0.1,0.2-0.1
		c0.7-0.4,1.3-0.9,1.5-1.7c0.3-1.3,0.9-2.4,1.4-3.5c0.2-0.4,0.3-0.8,0.3-1.3c0,0,0,0,0,0c0.6,0,1.1-0.5,1.1-1.1c0-0.3,0-0.6,0.1-0.9
		c0.1-0.6-0.3-1.2-1-1.3c-0.1,0-0.2,0-0.3,0c0,0,0-0.1,0-0.1c0.3-2.7-0.6-5.1-2.6-7c0,0-0.1,0-0.1-0.1c0.1-0.1,0.1-0.2,0.2-0.3
		c0.2-0.2,0.3-0.5,0.3-0.8c0-0.2-0.1-0.3-0.1-0.5c0.3,0,0.6-0.1,0.9-0.1c1.4-0.1,2.5-0.7,3.2-1.9c0.4-0.7,0.8-1.4,1.2-2.2
		c0.1,0,0.1,0.1,0.1,0.1c0.1,0,0.2,0.1,0.4,0.1c0.5,0,0.9-0.3,1.1-0.8c0.1-0.3,0.2-0.7,0.3-1c0.2-0.6-0.2-1.2-0.8-1.4
		c0,0-0.1,0-0.1,0c0.6-2.5,1.4-4.9,2.4-7.1c0,0,0,0,0.1,0.1c0.2,0.1,0.3,0.1,0.5,0.1c0.4,0,0.8-0.2,1-0.6c0.1-0.3,0.3-0.6,0.4-0.8
		c0.3-0.5,0.1-1.2-0.4-1.5c0,0-0.1,0-0.1,0c0.5-0.9,1.1-1.8,1.8-2.6c0.9-1.2,1.3-2.6,1.6-4c0.1,0,0.1,0,0.2,0.1c0,0,0,0,0,0
		c0.6,0,1.1-0.5,1.1-1.1l0-0.1c0-0.4,0-0.8-0.1-1.2C697.4,657,696.8,656.7,696.2,656.9z"/>
	<path class="st1" d="M424.4,492.2c0.2,0,0.4,0,0.5-0.1c0,0,0,0,0.1-0.1c0.4,0.6,0.7,1.3,1.1,1.9c1,1.7,2.6,2.4,4.6,2.3c0,0,0,0,0,0
		c0,0.1,0,0.2,0,0.4c0.1,0.6,0.6,1,1.1,1c0.1,0,0.1,0,0.2,0c0.3,0,0.7-0.1,1-0.2l-0.3-1.4c1-0.2,2.1-0.4,3.1-0.3
		c0.3,0,0.6-0.2,0.8-0.4c0.7-0.6,1.5-1.1,2.3-1.5c0.6-0.3,1.2-0.6,1.6-1.2c0,0,0,0,0,0c0,0,0,0.1,0.1,0.1c0.2,0.2,0.5,0.4,0.8,0.4
		c0.3,0,0.5-0.1,0.8-0.3c0.2-0.2,0.4-0.4,0.7-0.5c0.5-0.4,0.6-1.1,0.3-1.6c-0.1-0.1-0.1-0.1-0.2-0.2c0.1,0,0.1-0.1,0.2-0.1
		c0.7-0.4,1.3-0.9,1.5-1.7c0.3-1.3,0.9-2.4,1.4-3.5c0.2-0.4,0.3-0.9,0.3-1.4c0,0,0,0,0,0c0,0,0,0,0,0c0.6,0,1.1-0.5,1.1-1.1
		c0-0.3,0-0.6,0.1-0.9c0.1-0.6-0.3-1.2-1-1.3c-0.1,0-0.2,0-0.3,0c0.3-2.7-0.6-5.1-2.6-7c0,0,0,0-0.1-0.1c0.1-0.1,0.2-0.3,0.3-0.4
		c0.2-0.2,0.3-0.5,0.3-0.8c0-0.1,0-0.3-0.1-0.4c0.3,0,0.5-0.1,0.8-0.1c1.4-0.1,2.5-0.7,3.2-1.9c0.5-0.7,0.9-1.5,1.2-2.3
		c0.1,0,0.1,0.1,0.2,0.1c0.1,0,0.2,0.1,0.4,0.1c0.5,0,0.9-0.3,1.1-0.8c0.1-0.3,0.2-0.7,0.3-1c0.2-0.6-0.2-1.2-0.8-1.4
		c-0.1,0-0.2,0-0.2,0c0.6-2.5,1.4-4.9,2.5-7.2c0.1,0,0.1,0.1,0.2,0.1c0.2,0.1,0.3,0.1,0.5,0.1c0.4,0,0.8-0.2,1-0.6
		c0.1-0.3,0.3-0.6,0.4-0.8c0.3-0.5,0.1-1.2-0.4-1.5c-0.1,0-0.1,0-0.2-0.1c0.5-0.9,1.1-1.7,1.7-2.6c0.9-1.3,1.3-2.6,1.6-4
		c0.1,0,0.2,0.1,0.3,0.1c0,0,0,0,0,0c0.6,0,1.1-0.5,1.1-1.1l0-0.1c0-0.4,0-0.8-0.1-1.2c-0.2-0.6-0.8-1-1.4-0.8
		c-0.1,0-0.2,0.1-0.3,0.2c-0.4-0.5-1.1-0.8-2.1-1c-1.7-0.4-3.4-0.2-5.1,0.2c-0.2-0.5-0.8-0.8-1.3-0.6l-1,0.3
		c-0.6,0.2-0.9,0.7-0.7,1.3c-2.4,0.9-4.7,1.9-6.9,3.1c-0.3-0.4-0.9-0.6-1.4-0.3c-0.3,0.2-0.6,0.3-0.9,0.5c-0.5,0.3-0.6,0.9-0.4,1.4
		c-2.1,1.3-4.2,2.7-6.2,4.2c0,0,0,0.1-0.1,0.1c-0.4-0.2-0.9-0.1-1.3,0.2c-0.1,0.1-0.3,0.3-0.5,0.4c-0.5,0.3-0.7,1-0.4,1.5
		c-2.1,1.6-3.9,3.3-5.8,5.1c-0.4-0.2-0.8-0.1-1.1,0.1c-0.3,0.1-0.7,0.3-0.9,0.5c-0.4,0.4-0.4,1.1,0,1.6c-0.7,1-1.8,2.7-2,2.2
		c-0.5-1.6-0.9-3-0.4-4.8c0,0,0-0.1,0-0.1c0.1,0,0.2,0,0.2,0c0.5,0,0.9-0.3,1.1-0.8l0.3-1c0.2-0.6-0.1-1.1-0.7-1.3
		c0.1-0.3,0.2-0.6,0.3-0.9c0.1-0.3,0.2-0.5,0.3-0.8c0-0.1,0.1-0.2,0.1-0.4c0.7-1.9,1.5-3.7,2.7-5.1c0.2,0.2,0.5,0.3,0.7,0.3
		c0.2,0,0.5-0.1,0.7-0.2l0,0c0.5-0.3,0.8-0.8,0.9-1.4c0.1-0.6-0.3-1.2-0.9-1.3c-0.6-0.1-1.2,0.3-1.4,0.9l-0.1,0.1
		c-0.2,0.1-0.3,0.3-0.3,0.5c-0.5,0.5-0.9,1-1.3,1.6c-0.6,1.2-1.2,2.4-1.8,3.6c0,0-0.1,0-0.1-0.1c-0.6-0.2-1.2,0-1.5,0.6
		c-0.1,0.3-0.3,0.7-0.4,1c-0.2,0.6,0.1,1.2,0.7,1.4c0,0,0.1,0,0.1,0c0,0.1-0.1,0.3-0.1,0.4c-0.1,0.1-0.2,0.3-0.3,0.4l-0.3,1
		c-0.1,0.2,0,0.4,0,0.6c-0.2,0.8-0.3,1.6-0.4,2.4c0,0.2-0.6,0.6-0.8,0.3c-0.2-0.3-0.3-0.6-0.3-0.9c0-0.4,0-0.7,0-1.1
		c0.6-0.1,1-0.7,0.9-1.3c-0.1-0.4-0.1-0.7-0.2-1.1c-0.1-0.6-0.7-1-1.3-0.9c-0.2-0.7-0.4-1.3-0.6-2c0-0.2,0-0.3,0-0.5
		c-0.1-0.3-0.2-0.7-0.4-1c-0.1-0.2-0.2-0.3-0.3-0.4c-0.5-1.2-1.1-2.4-1.9-3.4c0.4-0.4,0.5-1.1,0.1-1.6c-0.2-0.3-0.5-0.6-0.8-0.8
		c-0.4-0.4-1.1-0.4-1.6,0c-0.2-0.2-0.3-0.4-0.5-0.3c-0.4,0.3-0.1,0.8,0,1.2c0.1,0.2,0.3,0.4,0.4,0.5c0,0,0,0.1,0.1,0.1
		c0.2,0.2,0.4,0.4,0.6,0.7c0.1,0.1,0.3,0.2,0.4,0.3c0.3,0.3,0.6,0.6,0.8,0.9c0.5,0.7,0.8,1.4,1.2,2.1c0,0,0,0,0,0
		c-0.6,0.2-0.9,0.9-0.7,1.5c0.1,0.3,0.2,0.6,0.3,0.9c0.2,0.5,0.6,0.7,1.1,0.7c0.1,0,0.2,0,0.4-0.1c0.2,0.6,0.3,1.1,0.5,1.7
		c-0.1,0.2-0.2,0.5-0.1,0.7c0.1,0.3,0.1,0.6,0.2,0.9c0.1,0.4,0.3,0.8,0.7,0.9c0.3,1.3,0,2.5-0.4,3.6c-0.2-0.1-0.4-0.1-0.6-0.1
		c-0.3-0.1-0.7,0-1,0.3c-1.8-2-3.7-3.8-5.8-5.6c0,0,0,0,0,0c0.4-0.5,0.3-1.2-0.1-1.6c-0.3-0.2-0.5-0.4-0.8-0.7
		c-0.5-0.4-1.2-0.3-1.6,0.2c0,0,0,0,0,0c-0.6-0.4-1.1-0.9-1.7-1.3c-1.6-1.2-3.1-2.3-4.8-3.4c0,0,0,0,0,0c0.3-0.5,0.2-1.2-0.3-1.6
		c-0.3-0.2-0.6-0.4-0.9-0.6c-0.5-0.3-1.2-0.2-1.6,0.4c0,0,0,0,0,0c-2.3-1.4-4.7-2.6-7.1-3.6c0,0,0,0,0,0c0.2-0.6,0-1.2-0.6-1.5
		c-0.3-0.1-0.7-0.3-1-0.4c-0.6-0.2-1.2,0.1-1.5,0.7c0,0,0,0,0,0c-0.3-0.1-0.7-0.3-1-0.4c-1.6-0.6-3.3-1-5.1-0.9
		c-0.6,0-1.2,0.1-1.7,0.3c0-0.1,0-0.1-0.1-0.2c-0.4-0.5-1.1-0.6-1.6-0.2c-0.4,0.3-0.7,0.7-0.9,1.1c-0.3,0.5-0.1,1.2,0.4,1.5
		c0.1,0,0.1,0.1,0.2,0.1c-0.1,0.4-0.1,0.7,0,1.1c0.1,1.3,0.5,2.7,1.2,3.9c0.5,0.8,0.9,1.6,1.4,2.3c-0.5,0.3-0.7,1-0.4,1.5l0.5,0.9
		c0.2,0.3,0.6,0.5,1,0.5c0.2,0,0.4-0.1,0.6-0.2c0.1,0.1,0.1,0.2,0.2,0.3c1.1,1.8,1.8,3.6,2.3,5.5c0.1,0.5,0.3,1.1,0.4,1.6
		c0,0,0,0,0,0c-0.6,0.2-0.9,0.8-0.8,1.4c0.1,0.3,0.2,0.7,0.3,1c0.2,0.5,0.6,0.8,1.1,0.8c0.1,0,0.2,0,0.3-0.1c0,0,0,0,0,0
		c0.2,0.7,0.5,1.4,0.8,2.1c0.7,1.6,1.9,2.5,3.6,2.6c0.4,0,0.8,0.1,1.1,0.1c0,0,0,0,0,0c0,0.5,0.3,0.9,0.7,1c-1.6,1-2.5,2.5-2.7,4.3
		c-0.1,0.9-0.3,1.8-0.4,2.7c0,0,0,0,0,0c-0.6,0-1.2,0.4-1.2,1.1c0,0.4,0,0.7,0,1.1c0,0.6,0.5,1.1,1.1,1.1c0,0,0,0,0,0c0,0,0,0,0,0
		c0.1,1.4,0.5,2.9,1.3,4.2c0.1,0.2,0.2,0.3,0.2,0.5c0.2,1.1,0.8,1.8,1.7,2.3c-0.3,0.5-0.2,1.2,0.3,1.5c0.3,0.2,0.5,0.3,0.6,0.5
		c0.2,0.2,0.5,0.3,0.8,0.3c0.3,0,0.5-0.1,0.7-0.3c0.6,0.7,1.3,1.2,2.1,1.7c1.5,1,3.1,1.6,4.9,1.9c0,0,0,0,0,0
		c-0.1,0.6,0.3,1.2,1,1.3l0.4,0.1c0.2,0,0.4,0.1,0.6,0.1c0.1,0,0.1,0,0.1,0c0.6,0,1-0.4,1.1-1c0,0,0,0,0,0c2.6,0.1,3.7-0.8,5.2-3.6
		c0.2-0.3,0.4-0.7,0.6-1c0,0,0,0,0,0c0.2,0.1,0.4,0.1,0.5,0.1c0.4,0,0.8-0.2,1-0.6c0.2-0.3,0.3-0.6,0.5-0.9c0.3-0.6,0.1-1.2-0.5-1.5
		c1.2-2.2,2.4-4.4,3.6-6.6c0-0.1,0.1-0.2,0.2-0.4c0,0,0,0,0,0c0.1,0.1,0.2,0.1,0.3,0.1c0.2,0.1,0.4,0.2,0.7,0.2c0,0,0.1,0,0.1,0
		c0,2.4,0,6.2,0.1,7.4c-0.2,0.1-0.3,0.2-0.4,0.3c-0.4,0.5-0.3,1.2,0.3,1.6c0.4,0.3,0.8,0.4,1.3,0.4c0.3,0,0.6-0.1,0.8-0.2
		c0.6-0.2,0.9-0.9,0.7-1.5c-0.1-0.3-0.4-0.5-0.6-0.6c0.2-1.3,0.1-5.3,0.2-7.7c0,0,0,0,0,0c0,0,0.1,0,0.1,0c0.2,0.1,0.4,0.2,0.6,0.2
		c0.2,0,0.5-0.1,0.7-0.2c0,0,0,0,0-0.1c1,1.4,2.3,3.3,2.6,3.8c0.5,1,1.1,2,1.6,2.9c0,0,0,0-0.1,0c-0.5,0.3-0.7,1-0.4,1.5l0.5,0.9
		C423.6,492,424,492.2,424.4,492.2z"/>
	<path class="st1" d="M505.4,538.4c-0.1,0-0.2,0.1-0.4,0.2c-0.4-0.5-1.1-0.8-2.1-1c-1.7-0.4-3.4-0.2-5.1,0.2
		c-0.2-0.5-0.8-0.8-1.3-0.6l-0.9,0.3l0,0c-0.6,0.2-0.8,0.7-0.7,1.3c-2.4,0.9-4.7,1.9-6.9,3.1c-0.3-0.4-0.9-0.6-1.4-0.3
		c-0.3,0.2-0.6,0.3-0.9,0.5c-0.5,0.3-0.6,0.9-0.4,1.4c-2.1,1.3-4.2,2.7-6.2,4.2c0,0,0,0.1-0.1,0.1c-0.4-0.2-0.9-0.1-1.3,0.2
		c-0.1,0.1-0.3,0.3-0.5,0.4c-0.5,0.3-0.7,1-0.4,1.5c-2.1,1.6-3.9,3.3-5.8,5.1c-0.4-0.2-0.8-0.1-1.1,0.1c-0.3,0.1-0.7,0.3-0.9,0.5
		c-0.4,0.4-0.4,1.1,0,1.6c-0.7,1-1.8,2.7-2,2.2c-0.5-1.6-0.9-3-0.4-4.8c0,0,0-0.1,0-0.1c0.1,0,0.2,0,0.2,0c0.5,0,0.9-0.3,1.1-0.8
		l0.3-1c0.2-0.6-0.1-1.1-0.7-1.3c0.1-0.3,0.2-0.6,0.3-0.9c0.1-0.3,0.2-0.5,0.3-0.8c0-0.1,0.1-0.2,0.1-0.4c0.7-1.9,1.5-3.7,2.7-5.1
		c0.2,0.2,0.5,0.3,0.7,0.3c0.2,0,0.5-0.1,0.7-0.2l0,0c0.5-0.3,0.8-0.8,0.9-1.4c0.1-0.6-0.3-1.2-0.9-1.3c-0.6-0.1-1.2,0.3-1.4,0.9
		l-0.1,0.1c-0.2,0.1-0.3,0.3-0.3,0.5c-0.5,0.5-0.9,1-1.3,1.6c-0.6,1.2-1.2,2.4-1.8,3.6c0,0-0.1,0-0.1-0.1c-0.6-0.2-1.2,0-1.5,0.6
		c-0.1,0.3-0.3,0.7-0.4,1c-0.2,0.6,0.1,1.2,0.7,1.4c0,0,0.1,0,0.1,0c0,0.1-0.1,0.3-0.1,0.4c-0.1,0.1-0.2,0.3-0.3,0.4l-0.3,1
		c-0.1,0.2,0,0.4,0,0.6c-0.2,0.8-0.3,1.6-0.4,2.4c0,0.2-0.6,0.6-0.8,0.3c-0.2-0.3-0.3-0.6-0.3-0.9c0-0.4,0-0.7,0-1.1
		c0.6-0.1,1-0.7,0.9-1.3c-0.1-0.4-0.1-0.7-0.2-1.1c-0.1-0.6-0.7-1-1.3-0.9c-0.2-0.7-0.4-1.3-0.6-2c0-0.2,0-0.3,0-0.5
		c-0.1-0.3-0.2-0.7-0.4-1c-0.1-0.2-0.2-0.3-0.3-0.4c-0.5-1.2-1.1-2.4-1.9-3.4c0.4-0.4,0.5-1.1,0.1-1.6c-0.2-0.3-0.5-0.6-0.8-0.8
		c-0.4-0.4-1.1-0.4-1.6,0c-0.2-0.2-0.3-0.4-0.5-0.3c-0.4,0.3-0.1,0.8,0,1.2c0.1,0.2,0.3,0.4,0.4,0.5c0,0,0,0.1,0.1,0.1
		c0.2,0.2,0.4,0.4,0.6,0.7c0.1,0.1,0.3,0.2,0.4,0.3c0.3,0.3,0.6,0.6,0.8,0.9c0.5,0.7,0.8,1.4,1.2,2.1c0,0,0,0,0,0
		c-0.6,0.2-0.9,0.9-0.7,1.5c0.1,0.3,0.2,0.6,0.3,0.9c0.2,0.5,0.6,0.7,1.1,0.7c0.1,0,0.2,0,0.4-0.1c0.2,0.6,0.3,1.1,0.5,1.7
		c-0.1,0.2-0.2,0.5-0.1,0.7c0.1,0.3,0.1,0.6,0.2,0.9c0.1,0.4,0.3,0.8,0.7,0.9c0.3,1.3,0,2.5-0.5,3.6c-0.2-0.1-0.5-0.2-0.7-0.1
		c-0.3-0.1-0.6,0-0.9,0.2c-1.8-2-3.7-3.8-5.7-5.5c0,0,0,0,0,0c0.4-0.5,0.3-1.2-0.1-1.6c-0.3-0.2-0.5-0.4-0.8-0.7
		c-0.5-0.4-1.2-0.3-1.6,0.2c0,0,0,0,0,0c-0.6-0.4-1.1-0.9-1.7-1.3c-1.6-1.2-3.1-2.3-4.8-3.4c0,0,0,0,0,0c0.3-0.5,0.2-1.2-0.3-1.6
		c-0.3-0.2-0.6-0.4-0.9-0.6c-0.5-0.3-1.2-0.2-1.6,0.4c0,0,0,0,0,0c-2.3-1.4-4.7-2.6-7.1-3.6c0,0,0,0,0,0c0.2-0.6,0-1.2-0.6-1.5
		c-0.3-0.1-0.7-0.3-1-0.4c-0.6-0.2-1.2,0.1-1.5,0.7c0,0,0,0,0,0c-0.3-0.1-0.7-0.3-1-0.4c-1.6-0.6-3.3-1-5.1-0.9
		c-0.6,0-1.2,0.1-1.7,0.3c0-0.1,0-0.1-0.1-0.2c-0.4-0.5-1.1-0.6-1.6-0.2c-0.4,0.3-0.7,0.7-0.9,1.1c-0.3,0.5-0.1,1.2,0.4,1.5
		c0.1,0,0.1,0.1,0.2,0.1c-0.1,0.4-0.1,0.7,0,1.1c0.1,1.3,0.5,2.7,1.2,3.9c0.5,0.8,0.9,1.6,1.4,2.3c-0.5,0.3-0.7,1-0.4,1.5l0.5,0.9
		c0.2,0.3,0.6,0.5,1,0.5c0.2,0,0.4-0.1,0.6-0.2c0.1,0.1,0.1,0.2,0.2,0.3c1.1,1.8,1.8,3.6,2.3,5.5c0.1,0.5,0.3,1.1,0.4,1.6
		c0,0,0,0,0,0c-0.6,0.2-0.9,0.8-0.8,1.4c0.1,0.3,0.2,0.7,0.3,1c0.2,0.5,0.6,0.8,1.1,0.8c0.1,0,0.2,0,0.3-0.1c0,0,0,0,0,0
		c0.2,0.7,0.5,1.4,0.8,2.1c0.7,1.6,1.9,2.5,3.6,2.6c0.4,0,0.8,0.1,1.1,0.1c0,0,0,0,0,0c0,0.5,0.3,0.9,0.7,1c-1.6,1-2.5,2.5-2.7,4.3
		c-0.1,0.9-0.3,1.8-0.4,2.7c0,0,0,0,0,0c-0.6,0-1.2,0.4-1.2,1.1c0,0.4,0,0.7,0,1.1c0,0.6,0.5,1.1,1.1,1.1c0,0,0,0,0,0c0,0,0,0,0,0
		c0.1,1.4,0.5,2.9,1.3,4.2c0.1,0.2,0.2,0.3,0.2,0.5c0.2,1.1,0.8,1.8,1.7,2.3c-0.3,0.5-0.2,1.2,0.3,1.5c0.3,0.2,0.5,0.3,0.6,0.5
		c0.2,0.2,0.5,0.3,0.8,0.3c0.3,0,0.5-0.1,0.7-0.3c0.6,0.7,1.3,1.2,2.1,1.7c1.5,1,3.1,1.6,4.9,1.9c0,0,0,0,0,0
		c-0.1,0.6,0.3,1.2,1,1.3l0.4,0.1c0.2,0,0.4,0.1,0.6,0.1c0.1,0,0.1,0,0.1,0c0.6,0,1-0.4,1.1-1c0,0,0,0,0,0c2.6,0.1,3.7-0.8,5.2-3.6
		c0.2-0.3,0.4-0.7,0.6-1c0,0,0,0,0,0c0.2,0.1,0.4,0.1,0.5,0.1c0.4,0,0.8-0.2,1-0.6c0.2-0.3,0.3-0.6,0.5-0.9c0.3-0.6,0.1-1.2-0.5-1.5
		c1.2-2.2,2.4-4.4,3.6-6.6c0-0.1,0.1-0.2,0.2-0.4c0,0,0,0,0,0c0.1,0.1,0.2,0.1,0.3,0.1c0.2,0.1,0.4,0.2,0.7,0.2c0,0,0.1,0,0.1,0
		c0,2.4,0,6.2,0.1,7.4c-0.2,0.1-0.3,0.2-0.4,0.3c-0.4,0.5-0.3,1.2,0.3,1.6c0.4,0.3,0.8,0.4,1.3,0.4c0.3,0,0.6-0.1,0.8-0.2
		c0.6-0.2,0.9-0.9,0.7-1.5c-0.1-0.3-0.4-0.5-0.6-0.6c0.2-1.3,0.1-5.3,0.2-7.7c0,0,0,0,0,0c0,0,0.1,0,0.1,0c0.2,0.1,0.4,0.2,0.6,0.2
		c0.2,0,0.5-0.1,0.7-0.2c0,0,0,0,0-0.1c1,1.4,2.3,3.3,2.6,3.8c0.5,1,1.1,2,1.6,2.9c0,0,0,0-0.1,0c-0.5,0.3-0.7,1-0.4,1.5l0.5,0.9
		c0.2,0.4,0.6,0.6,1,0.6c0.2,0,0.4,0,0.5-0.1c0,0,0,0,0.1-0.1c0.4,0.6,0.7,1.3,1.1,1.9c1,1.7,2.6,2.4,4.6,2.3c0,0,0,0,0,0
		c0,0.1,0,0.2,0,0.4c0.1,0.6,0.6,1,1.1,1c0.1,0,0.1,0,0.2,0c0.3,0,0.7-0.1,1-0.2l-0.3-1.4c1-0.2,2.1-0.4,3.1-0.3
		c0.3,0,0.6-0.2,0.8-0.4c0.7-0.6,1.5-1.1,2.3-1.5c0.6-0.3,1.2-0.6,1.6-1.2c0,0,0,0,0,0c0,0,0,0.1,0.1,0.1c0.2,0.2,0.5,0.4,0.8,0.4
		c0.3,0,0.5-0.1,0.8-0.3c0.2-0.2,0.4-0.4,0.7-0.5c0.5-0.4,0.6-1.1,0.3-1.6c-0.1-0.1-0.1-0.1-0.2-0.2c0.1,0,0.1-0.1,0.2-0.1
		c0.7-0.4,1.3-0.9,1.5-1.7c0.3-1.3,0.9-2.4,1.4-3.5c0.2-0.4,0.3-0.9,0.3-1.4c0,0,0,0,0,0c0,0,0,0,0,0c0.6,0,1.1-0.5,1.1-1.1
		c0-0.3,0-0.6,0.1-0.9c0.1-0.6-0.3-1.2-1-1.3c-0.1,0-0.2,0-0.3,0c0.3-2.7-0.6-5.1-2.6-7c0,0,0,0-0.1-0.1c0.1-0.1,0.2-0.3,0.3-0.4
		c0.2-0.2,0.3-0.5,0.3-0.8c0-0.1,0-0.3-0.1-0.4c0.3,0,0.5-0.1,0.8-0.1c1.4-0.1,2.5-0.7,3.2-1.9c0.5-0.7,0.9-1.5,1.2-2.3
		c0.1,0,0.1,0.1,0.2,0.1c0.1,0,0.2,0.1,0.4,0.1c0.5,0,0.9-0.3,1.1-0.8c0.1-0.3,0.2-0.7,0.3-1c0.2-0.6-0.2-1.2-0.8-1.4
		c-0.1,0-0.2,0-0.2,0c0.6-2.5,1.4-4.9,2.5-7.2c0.1,0,0.1,0.1,0.2,0.1c0.2,0.1,0.3,0.1,0.5,0.1c0.4,0,0.8-0.2,1-0.6
		c0.1-0.3,0.3-0.6,0.4-0.8c0.3-0.5,0.1-1.2-0.4-1.5c-0.1,0-0.1,0-0.2-0.1c0.5-0.9,1.1-1.7,1.7-2.6c0.9-1.3,1.3-2.6,1.6-4
		c0.1,0,0.2,0.1,0.3,0.1c0,0,0,0,0,0c0.6,0,1.1-0.5,1.1-1.1l0-0.1c0-0.4,0-0.8-0.1-1.2C506.6,538.5,506,538.2,505.4,538.4z"/>
	<path class="st1" d="M376.4,377.4c0.1,0,0.2,0,0.3-0.1c0,0,0,0,0,0c0.2,0.7,0.5,1.4,0.8,2c0.7,1.6,1.9,2.5,3.6,2.6
		c0.4,0,0.8,0.1,1.1,0.1c0,0,0,0,0,0c0,0.5,0.3,0.9,0.7,1c-1.6,1-2.5,2.5-2.7,4.3c-0.1,0.9-0.3,1.8-0.4,2.7c0,0,0,0,0,0
		c-0.6,0-1.2,0.4-1.2,1.1c0,0.4,0,0.7,0,1.1c0,0.6,0.5,1.1,1.1,1.1c0,0,0,0,0,0c0,0,0,0,0,0c0.1,1.4,0.5,2.9,1.3,4.2
		c0.1,0.2,0.2,0.3,0.2,0.5c0.2,1.1,0.8,1.8,1.7,2.3c-0.3,0.5-0.2,1.2,0.3,1.5c0.3,0.2,0.5,0.3,0.6,0.5c0.2,0.2,0.5,0.3,0.8,0.3
		c0.3,0,0.5-0.1,0.7-0.3c0.6,0.7,1.3,1.2,2.1,1.7c1.5,1,3.1,1.6,4.9,1.9c0,0,0,0,0,0c-0.1,0.6,0.3,1.2,1,1.3l0.4,0.1
		c0.2,0,0.4,0.1,0.6,0.1c0.1,0,0.1,0,0.1,0c0.6,0,1-0.4,1.1-1c0,0,0,0,0,0c2.5,0.1,3.7-0.8,5.2-3.6c0.2-0.3,0.4-0.7,0.6-1
		c0,0,0,0,0,0c0.2,0.1,0.4,0.1,0.5,0.1c0.4,0,0.8-0.2,1-0.6c0.2-0.3,0.3-0.6,0.5-0.9c0.3-0.6,0.1-1.2-0.5-1.5
		c1.2-2.2,2.4-4.4,3.6-6.6c0.1-0.1,0.1-0.3,0.2-0.5c0.1,0.1,0.2,0.1,0.3,0.1c0.2,0.1,0.4,0.2,0.7,0.2c0,0,0.1,0,0.1,0
		c0,2.4,0,6.3,0.1,7.5c-0.2,0.1-0.3,0.2-0.4,0.3c-0.4,0.5-0.3,1.2,0.2,1.6c0.4,0.3,0.8,0.4,1.2,0.4c0.3,0,0.6-0.1,0.8-0.2
		c0.6-0.2,0.9-0.9,0.7-1.5c-0.1-0.3-0.4-0.5-0.6-0.6c0.2-1.3,0.1-5.3,0.2-7.7c0,0,0,0,0,0c0,0,0.1,0,0.1,0c0.2,0.1,0.4,0.2,0.6,0.2
		c0.2,0,0.5-0.1,0.7-0.2c0,0,0,0,0-0.1c1,1.4,2.3,3.3,2.6,3.8c0.5,1,1.1,2,1.6,2.9c0,0,0,0-0.1,0c-0.5,0.3-0.7,1-0.4,1.5l0.5,0.9
		c0.2,0.4,0.6,0.6,1,0.6c0.2,0,0.4,0,0.5-0.1c0,0,0,0,0.1-0.1c0.4,0.6,0.7,1.3,1.1,1.9c1,1.7,2.6,2.4,4.6,2.3c0,0,0,0,0,0
		c0,0.1,0,0.2,0,0.4c0.1,0.6,0.6,1,1.1,1c0.1,0,0.1,0,0.2,0c0.3,0,0.7-0.1,1-0.2l-0.3-1.4c1-0.2,2.1-0.4,3.1-0.3
		c0.3,0,0.6-0.2,0.8-0.4c0.7-0.6,1.5-1.1,2.3-1.5c0.6-0.3,1.2-0.6,1.6-1.2c0,0,0,0,0,0c0,0,0,0.1,0.1,0.1c0.2,0.2,0.5,0.4,0.8,0.4
		c0.3,0,0.5-0.1,0.8-0.3c0.2-0.2,0.4-0.4,0.7-0.5c0.5-0.4,0.6-1.1,0.3-1.6c-0.1-0.1-0.1-0.1-0.2-0.2c0.1,0,0.1-0.1,0.2-0.1
		c0.7-0.4,1.3-0.9,1.5-1.7c0.3-1.3,0.9-2.4,1.4-3.5c0.2-0.4,0.3-0.9,0.3-1.4c0,0,0,0,0,0c0,0,0,0,0,0c0.6,0,1.1-0.5,1.1-1.1
		c0-0.3,0-0.6,0.1-0.9c0.1-0.6-0.3-1.2-1-1.3c-0.1,0-0.2,0-0.3,0c0.3-2.7-0.6-5.1-2.6-7c0,0,0,0-0.1-0.1c0.1-0.1,0.2-0.3,0.3-0.4
		c0.2-0.2,0.3-0.5,0.3-0.8c0-0.1,0-0.3-0.1-0.4c0.3,0,0.5-0.1,0.8-0.1c1.4-0.1,2.5-0.7,3.2-1.9c0.5-0.7,0.9-1.5,1.2-2.3
		c0.1,0,0.1,0.1,0.2,0.1c0.1,0,0.2,0.1,0.4,0.1c0.5,0,0.9-0.3,1.1-0.8c0.1-0.3,0.2-0.7,0.3-1c0.2-0.6-0.2-1.2-0.8-1.4
		c-0.1,0-0.2,0-0.2,0c0.6-2.5,1.4-4.9,2.5-7.2c0.1,0,0.1,0.1,0.2,0.1c0.2,0.1,0.3,0.1,0.5,0.1c0.4,0,0.8-0.2,1-0.6
		c0.1-0.3,0.3-0.6,0.4-0.8c0.3-0.5,0.1-1.2-0.4-1.5c-0.1,0-0.1,0-0.2-0.1c0.5-0.9,1.1-1.7,1.7-2.6c0.9-1.3,1.3-2.6,1.6-4
		c0.1,0,0.2,0.1,0.3,0.1c0,0,0,0,0,0c0.6,0,1.1-0.5,1.1-1.1l0-0.1c0-0.4,0-0.8-0.1-1.2c-0.2-0.6-0.8-1-1.4-0.8
		c-0.1,0-0.2,0.1-0.3,0.2c-0.4-0.5-1.1-0.8-2.1-1c-1.7-0.4-3.4-0.2-5.1,0.2c-0.2-0.5-0.8-0.8-1.3-0.6l-1,0.3
		c-0.5,0.2-0.8,0.7-0.7,1.3c-2.4,0.9-4.7,1.9-6.9,3.1c-0.3-0.4-0.9-0.6-1.4-0.3c-0.3,0.2-0.6,0.3-0.9,0.5c-0.5,0.3-0.6,0.9-0.4,1.4
		c-2.1,1.3-4.2,2.7-6.2,4.2c0,0,0,0.1-0.1,0.1c-0.4-0.2-0.9-0.1-1.3,0.2c-0.1,0.1-0.3,0.2-0.5,0.4c-0.5,0.3-0.7,1-0.4,1.5
		c-2.1,1.6-3.9,3.3-5.8,5.1c-0.4-0.2-0.8-0.1-1.1,0.1c-0.3,0.1-0.7,0.3-0.9,0.5c-0.4,0.4-0.4,1.1,0,1.6c-0.7,1-1.8,2.7-2,2.2
		c-0.5-1.6-0.9-3-0.4-4.8c0,0,0-0.1,0-0.1c0.1,0,0.2,0,0.2,0c0.5,0,0.9-0.3,1.1-0.8l0.3-1c0.2-0.6-0.1-1.1-0.7-1.3
		c0.1-0.3,0.2-0.6,0.3-0.9c0.1-0.3,0.2-0.5,0.3-0.8c0-0.1,0.1-0.2,0.1-0.4c0.7-1.9,1.5-3.7,2.7-5.1c0.2,0.2,0.5,0.3,0.7,0.3
		c0.3,0,0.5-0.1,0.7-0.3c0.5-0.3,0.8-0.8,0.9-1.4c0.1-0.6-0.3-1.2-0.9-1.3c-0.6-0.1-1.2,0.3-1.4,0.9l-0.1,0.1
		c-0.1,0.1-0.2,0.3-0.3,0.4c-0.5,0.5-0.9,1-1.3,1.6c-0.6,1.2-1.2,2.4-1.8,3.6c0,0-0.1,0-0.1-0.1c-0.6-0.2-1.2,0-1.5,0.6
		c-0.1,0.3-0.3,0.7-0.4,1c-0.2,0.6,0.1,1.2,0.7,1.4c0,0,0.1,0,0.1,0c0,0.1-0.1,0.3-0.1,0.4c-0.1,0.1-0.2,0.3-0.3,0.4l-0.3,1
		c-0.1,0.2,0,0.4,0,0.6c-0.2,0.8-0.3,1.6-0.4,2.4c0,0.2-0.6,0.6-0.8,0.3s-0.3-0.6-0.3-0.9c0-0.4,0-0.7,0-1.1c0.6-0.1,1-0.7,0.9-1.3
		c-0.1-0.4-0.1-0.7-0.2-1.1c-0.1-0.6-0.7-1-1.3-0.9c-0.2-0.7-0.4-1.3-0.6-2c0-0.2,0-0.3,0-0.5c-0.1-0.3-0.2-0.7-0.4-1
		c-0.1-0.2-0.2-0.3-0.3-0.4c-0.5-1.2-1.1-2.4-1.9-3.4c0.4-0.4,0.5-1.1,0.1-1.6c-0.2-0.3-0.5-0.6-0.8-0.8c-0.4-0.4-1.1-0.4-1.6,0
		c-0.2-0.2-0.3-0.4-0.5-0.3c-0.4,0.3-0.1,0.8,0,1.2c0.1,0.2,0.3,0.4,0.4,0.5c0,0,0,0.1,0.1,0.1c0.2,0.2,0.4,0.4,0.6,0.7
		c0.1,0.1,0.3,0.2,0.4,0.3c0.3,0.3,0.6,0.6,0.8,0.9c0.5,0.7,0.8,1.4,1.2,2.1c0,0,0,0,0,0c-0.6,0.2-0.9,0.9-0.7,1.5
		c0.1,0.3,0.2,0.6,0.3,0.9c0.2,0.5,0.6,0.7,1.1,0.7c0.1,0,0.2,0,0.4-0.1c0.2,0.6,0.3,1.1,0.5,1.7c-0.1,0.2-0.2,0.5-0.1,0.7
		c0.1,0.3,0.1,0.6,0.2,0.9c0.1,0.4,0.3,0.7,0.7,0.9c0.3,1.3,0,2.4-0.4,3.5c-0.2-0.1-0.5-0.2-0.8-0.1c-0.3-0.1-0.7,0-1,0.3
		c-1.7-1.9-3.7-3.7-5.7-5.5c0,0,0,0,0,0c0.4-0.5,0.3-1.2-0.1-1.6c-0.3-0.2-0.5-0.4-0.8-0.7c-0.5-0.4-1.2-0.3-1.6,0.2c0,0,0,0,0,0
		c-0.6-0.4-1.1-0.9-1.7-1.3c-1.6-1.2-3.1-2.3-4.8-3.4c0,0,0,0,0,0c0.3-0.5,0.2-1.2-0.3-1.6c-0.3-0.2-0.6-0.4-0.9-0.6
		c-0.5-0.3-1.2-0.2-1.6,0.4c0,0,0,0,0,0c-2.3-1.4-4.7-2.6-7.1-3.6c0,0,0,0,0,0c0.2-0.6,0-1.2-0.6-1.5c-0.3-0.1-0.6-0.3-1-0.4
		c-0.6-0.2-1.2,0.1-1.5,0.7c0,0,0,0,0,0c-0.3-0.1-0.7-0.3-1-0.4c-1.6-0.6-3.3-1-5.1-0.9c-0.6,0-1.2,0.1-1.7,0.3c0-0.1,0-0.1-0.1-0.2
		c-0.4-0.5-1.1-0.6-1.6-0.2c-0.4,0.3-0.7,0.7-0.9,1.1c-0.3,0.5-0.1,1.2,0.4,1.5c0.1,0,0.1,0.1,0.2,0.1c-0.1,0.3-0.1,0.7,0,1.1
		c0.1,1.3,0.5,2.7,1.2,3.9c0.5,0.8,0.9,1.6,1.4,2.3c-0.5,0.3-0.7,1-0.4,1.5l0.5,0.9c0.2,0.3,0.6,0.5,1,0.5c0.2,0,0.4-0.1,0.6-0.2
		c0.1,0.1,0.1,0.2,0.2,0.3c1.1,1.8,1.8,3.6,2.3,5.5c0.1,0.5,0.3,1.1,0.4,1.6c0,0,0,0,0,0c-0.6,0.2-0.9,0.8-0.8,1.4
		c0.1,0.3,0.2,0.7,0.3,1C375.5,377.1,376,377.4,376.4,377.4z"/>
	<path class="st1" d="M378.2,271.5c0.1,0,0.1,0.1,0.2,0.1c0,0.3-0.1,0.7,0,1c0.1,1.3,0.5,2.7,1.2,3.9c0.5,0.8,1,1.6,1.5,2.4
		c0,0,0,0-0.1,0c-0.5,0.3-0.7,1-0.4,1.5l0.5,0.9c0.2,0.3,0.6,0.5,1,0.5c0.2,0,0.4-0.1,0.6-0.2c0,0,0,0,0,0c0,0.1,0.1,0.1,0.1,0.2
		c1.1,1.8,1.8,3.6,2.3,5.5c0.1,0.6,0.3,1.1,0.5,1.7c0,0,0,0,0,0c-0.6,0.2-0.9,0.8-0.8,1.4c0.1,0.3,0.2,0.7,0.3,1
		c0.2,0.5,0.6,0.8,1.1,0.8c0.1,0,0.2,0,0.3-0.1c0,0,0,0,0.1,0c0.2,0.7,0.5,1.3,0.8,2c0.7,1.6,1.9,2.5,3.6,2.6c0.4,0,0.8,0.1,1.1,0.1
		c0,0,0,0.1,0,0.1c0,0.4,0.3,0.8,0.6,1c-1.5,1-2.4,2.5-2.7,4.2c-0.1,0.9-0.3,1.9-0.4,2.8c0,0,0,0,0,0c-0.6,0-1.2,0.4-1.2,1.1
		c0,0.4,0,0.7,0,1.1c0,0.6,0.5,1.1,1.1,1.1c0,0,0,0,0,0c0,0,0,0,0,0c0.1,1.4,0.5,2.8,1.3,4.1c0.1,0.2,0.2,0.3,0.2,0.5
		c0.2,1.1,0.8,1.8,1.8,2.3c0,0,0,0,0,0c-0.3,0.5-0.2,1.2,0.3,1.6c0.3,0.2,0.5,0.3,0.6,0.5c0.2,0.2,0.5,0.3,0.8,0.3
		c0.3,0,0.5-0.1,0.8-0.3c0.6,0.7,1.3,1.2,2.1,1.7c1.5,1,3.1,1.6,4.9,1.9c0,0,0,0.1,0,0.1c-0.1,0.6,0.3,1.2,0.9,1.3l0.4,0.1
		c0.2,0,0.4,0.1,0.6,0.1c0.1,0,0.1,0,0.1,0c0.6,0,1-0.4,1.1-1c0,0,0-0.1,0-0.1c2.6,0.1,3.7-0.7,5.2-3.6c0.2-0.3,0.3-0.6,0.5-1
		c0,0,0,0,0.1,0.1c0.2,0.1,0.4,0.1,0.5,0.1c0.4,0,0.8-0.2,1-0.6c0.2-0.3,0.3-0.6,0.5-0.9c0.3-0.6,0.1-1.2-0.5-1.5c0,0,0,0,0,0
		c1.2-2.2,2.4-4.5,3.6-6.7c0-0.1,0.1-0.2,0.2-0.4c0,0,0,0,0,0c0.1,0.1,0.2,0.1,0.3,0.1c0.2,0.1,0.4,0.2,0.7,0.2c0,0,0.1,0,0.1,0
		c0,2.5,0,6.4,0.2,7.5c-0.2,0.1-0.3,0.2-0.5,0.3c-0.4,0.5-0.3,1.2,0.2,1.6c0.4,0.3,0.8,0.4,1.2,0.4c0.3,0,0.6-0.1,0.8-0.2
		c0.6-0.2,0.9-0.9,0.7-1.5c-0.1-0.3-0.4-0.5-0.7-0.6c0.2-1.2,0.1-5.2,0.2-7.7c0,0,0,0,0,0c0,0,0.1,0,0.1,0c0.2,0.1,0.4,0.2,0.6,0.2
		c0.2,0,0.5-0.1,0.7-0.2c0,0,0.1-0.1,0.1-0.1c1,1.4,2.2,3.3,2.5,3.7c0.5,1,1.1,2,1.6,3c0,0-0.1,0-0.1,0c-0.5,0.3-0.7,1-0.4,1.5
		l0.5,0.9c0.2,0.4,0.6,0.6,1,0.6c0.2,0,0.4,0,0.5-0.1c0,0,0.1-0.1,0.1-0.1c0.4,0.6,0.7,1.3,1.1,1.9c1,1.7,2.6,2.4,4.6,2.3
		c0,0,0,0,0,0c0,0.1-0.1,0.3,0,0.5c0.1,0.6,0.6,1,1.1,1c0.1,0,0.1,0,0.2,0c0.3-0.1,0.7-0.1,1-0.2c0.6-0.1,1-0.7,0.9-1.3
		c0-0.1-0.1-0.3-0.2-0.4c0.7-0.1,1.4-0.2,2.1-0.1c0.3,0,0.6-0.2,0.8-0.4c0.7-0.6,1.5-1.1,2.3-1.5c0.6-0.3,1.2-0.6,1.6-1.2
		c0,0.1,0.1,0.1,0.1,0.2c0.2,0.2,0.5,0.4,0.8,0.4c0.3,0,0.5-0.1,0.8-0.3c0.2-0.2,0.4-0.4,0.7-0.5c0.5-0.4,0.6-1.1,0.3-1.6
		c-0.1-0.1-0.2-0.2-0.3-0.2c0.1,0,0.1-0.1,0.2-0.1c0.7-0.4,1.3-0.9,1.5-1.7c0.3-1.3,0.9-2.4,1.4-3.5c0.2-0.4,0.3-0.8,0.3-1.3
		c0,0,0,0,0,0c0.6,0,1.1-0.5,1.1-1.1c0-0.3,0-0.6,0.1-0.9c0.1-0.6-0.3-1.2-1-1.3c-0.1,0-0.2,0-0.3,0c0,0,0-0.1,0-0.1
		c0.3-2.7-0.6-5.1-2.6-7c0,0,0,0,0,0c0.1-0.1,0.2-0.2,0.2-0.4c0.2-0.2,0.3-0.5,0.3-0.8c0-0.2-0.1-0.4-0.1-0.5c0.3,0,0.6-0.1,0.8-0.1
		c1.4-0.1,2.5-0.7,3.2-1.9c0.4-0.7,0.8-1.4,1.2-2.2c0.1,0.1,0.2,0.1,0.3,0.2c0.1,0,0.2,0.1,0.4,0.1c0.5,0,0.9-0.3,1.1-0.8
		c0.1-0.3,0.2-0.7,0.3-1c0.2-0.6-0.2-1.2-0.8-1.4c-0.1,0-0.2,0-0.3,0c0.6-2.5,1.4-4.9,2.4-7.2c0.1,0.1,0.1,0.1,0.2,0.1
		c0.2,0.1,0.3,0.1,0.5,0.1c0.4,0,0.8-0.2,1-0.6c0.1-0.3,0.3-0.6,0.4-0.8c0.3-0.5,0.1-1.2-0.4-1.5c-0.1,0-0.2-0.1-0.2-0.1
		c0.5-0.9,1.1-1.8,1.8-2.7c0.8-1.2,1.2-2.5,1.5-3.9c0.1,0,0.2,0.1,0.3,0.1c0,0,0,0,0,0c0.6,0,1.1-0.5,1.1-1.1l0-0.1
		c0-0.4,0-0.8-0.1-1.2c-0.2-0.6-0.8-1-1.4-0.8c-0.1,0-0.2,0.1-0.3,0.1c-0.4-0.5-1.1-0.9-2.1-1.1c-1.7-0.4-3.5-0.2-5.2,0.2
		c-0.2-0.5-0.8-0.7-1.3-0.6l-1,0.3c-0.5,0.2-0.8,0.7-0.7,1.2c-2.4,0.9-4.7,1.9-6.9,3.2c-0.4-0.4-0.9-0.5-1.4-0.2
		c-0.3,0.2-0.6,0.3-0.9,0.5c-0.5,0.3-0.6,0.8-0.5,1.3c-2.1,1.3-4.2,2.7-6.2,4.2c0,0-0.1,0.1-0.1,0.2c-0.4-0.2-0.9-0.1-1.2,0.3
		c-0.1,0.1-0.3,0.2-0.5,0.4c-0.5,0.3-0.7,0.9-0.4,1.4c-2.1,1.6-4,3.3-5.8,5.1c0,0,0,0,0,0c-0.3-0.1-0.7-0.1-1,0.1
		c-0.3,0.1-0.7,0.3-0.9,0.5c-0.4,0.4-0.4,1.1,0,1.5c-0.7,1-1.8,2.6-2,2.2c-0.5-1.6-0.9-3-0.4-4.8c0,0,0,0,0,0c0.1,0,0.2,0,0.3,0
		c0.5,0,0.9-0.3,1.1-0.8l0.3-1c0.2-0.6-0.2-1.2-0.7-1.4c0.1-0.2,0.1-0.5,0.2-0.7c0,0,0-0.1,0-0.1c0.1-0.3,0.2-0.6,0.4-0.9
		c0.1-0.2,0.1-0.3,0.1-0.5c0.7-1.9,1.5-3.7,2.7-5c0.2,0.2,0.5,0.4,0.8,0.4c0.3,0,0.5-0.1,0.7-0.3c0.5-0.3,0.8-0.8,0.9-1.4
		c0.1-0.6-0.3-1.2-0.9-1.3c-0.6-0.1-1.2,0.3-1.4,0.9l-0.1,0.1c-0.1,0.1-0.1,0.1-0.2,0.2c-0.5,0.5-1,1.1-1.4,1.8
		c-0.6,1.2-1.3,2.5-1.8,3.7c0,0,0,0-0.1,0c-0.6-0.2-1.2,0-1.5,0.6c-0.1,0.3-0.3,0.7-0.4,1c-0.2,0.6,0.1,1.2,0.7,1.4c0,0,0.1,0,0.1,0
		c0,0.1-0.1,0.3-0.1,0.4c-0.1,0.1-0.2,0.3-0.2,0.4l-0.3,1c-0.1,0.2,0,0.4,0,0.6c-0.2,0.8-0.3,1.6-0.4,2.3c0,0.2-0.6,0.6-0.8,0.3
		s-0.3-0.6-0.3-0.9c0-0.3,0-0.7,0-1c0.6-0.1,1-0.7,0.9-1.3c-0.1-0.4-0.1-0.7-0.2-1.1c-0.1-0.6-0.7-0.9-1.2-0.9
		c-0.2-0.7-0.4-1.4-0.6-2c0-0.2,0-0.3-0.1-0.5c-0.1-0.3-0.2-0.7-0.4-1c-0.1-0.2-0.2-0.3-0.3-0.4c-0.5-1.2-1.1-2.4-1.9-3.5
		c0.4-0.4,0.4-1.1,0.1-1.5c-0.2-0.3-0.5-0.6-0.8-0.8c-0.4-0.4-1.1-0.4-1.5,0c-0.2-0.2-0.4-0.5-0.6-0.3c-0.4,0.3-0.1,0.8,0,1.2
		c0.1,0.1,0.2,0.2,0.3,0.4c0.1,0.1,0.1,0.3,0.3,0.4c0.2,0.2,0.4,0.4,0.6,0.7c0.1,0.2,0.3,0.3,0.5,0.3c0.3,0.3,0.5,0.5,0.7,0.8
		c0.5,0.7,0.9,1.4,1.2,2.2c0,0,0,0,0,0c-0.6,0.2-0.9,0.9-0.7,1.5c0.1,0.3,0.2,0.6,0.3,0.9c0.2,0.5,0.6,0.7,1.1,0.7
		c0.1,0,0.3,0,0.4-0.1c0,0,0,0,0,0c0.2,0.5,0.3,1.1,0.5,1.6c-0.1,0.2-0.2,0.5-0.1,0.8c0.1,0.3,0.1,0.6,0.2,0.9
		c0.1,0.4,0.4,0.8,0.7,0.9c0.2,1.3,0,2.4-0.5,3.5c-0.2-0.1-0.5-0.2-0.7-0.1c-0.3-0.1-0.6,0-0.9,0.2c-1.7-1.9-3.7-3.8-5.7-5.5
		c0.4-0.5,0.3-1.1-0.2-1.5c-0.3-0.2-0.5-0.4-0.8-0.7c-0.5-0.4-1.1-0.3-1.5,0.1c-0.6-0.5-1.2-0.9-1.8-1.4c-1.5-1.2-3.1-2.3-4.7-3.4
		c0.3-0.5,0.1-1.2-0.4-1.5c-0.3-0.2-0.6-0.4-0.9-0.6c-0.5-0.3-1.2-0.2-1.5,0.3c-2.3-1.4-4.7-2.6-7.1-3.6c0.2-0.6-0.1-1.2-0.6-1.4
		c-0.3-0.1-0.6-0.3-1-0.4c-0.6-0.2-1.2,0.1-1.4,0.6c-0.4-0.1-0.7-0.3-1.1-0.4c-1.6-0.6-3.3-1-5.1-0.9c-0.7,0-1.2,0.1-1.7,0.3
		c0,0,0-0.1,0-0.1c-0.4-0.5-1.1-0.6-1.6-0.2c-0.4,0.3-0.7,0.7-0.9,1.1C377.5,270.5,377.7,271.2,378.2,271.5z"/>
	<path class="st1" d="M506.1,180.6c-0.1,0-0.2,0.1-0.3,0.2c-0.4-0.5-1.1-0.8-2.1-1c-1.7-0.4-3.4-0.2-5.1,0.2
		c-0.2-0.5-0.8-0.8-1.3-0.6l-1,0.3c-0.5,0.2-0.8,0.7-0.7,1.3c-2.4,0.9-4.7,1.9-6.9,3.1c-0.3-0.4-0.9-0.6-1.4-0.3
		c-0.3,0.2-0.6,0.3-0.9,0.5c-0.5,0.3-0.6,0.9-0.4,1.4c-2.1,1.3-4.2,2.7-6.2,4.2c0,0,0,0.1-0.1,0.1c-0.4-0.2-0.9-0.1-1.3,0.2
		c-0.1,0.1-0.3,0.2-0.5,0.4c-0.5,0.3-0.7,1-0.4,1.5c-2.1,1.6-3.9,3.3-5.8,5.1c-0.4-0.2-0.8-0.1-1.1,0.1c-0.3,0.1-0.7,0.3-0.9,0.5
		c-0.4,0.4-0.4,1.1,0,1.6c-0.7,1-1.8,2.7-2,2.2c-0.5-1.6-0.9-3-0.4-4.8c0,0,0-0.1,0-0.1c0.1,0,0.2,0,0.2,0c0.5,0,0.9-0.3,1.1-0.8
		l0.3-1c0.2-0.6-0.1-1.1-0.7-1.3c0.1-0.3,0.2-0.6,0.3-0.9c0.1-0.3,0.2-0.5,0.3-0.8c0-0.1,0.1-0.2,0.1-0.4c0.7-1.9,1.5-3.7,2.7-5.1
		c0.2,0.2,0.5,0.3,0.7,0.3c0.3,0,0.5-0.1,0.7-0.3l0,0c0.5-0.3,0.8-0.8,1-1.4c0.1-0.6-0.3-1.2-0.9-1.3c-0.6-0.1-1.2,0.3-1.4,0.9
		l-0.1,0.1c-0.2,0.1-0.2,0.3-0.3,0.5c-0.5,0.5-0.9,1-1.3,1.6c-0.6,1.2-1.2,2.4-1.8,3.6c0,0-0.1,0-0.1-0.1c-0.6-0.2-1.2,0-1.5,0.6
		c-0.1,0.3-0.3,0.7-0.4,1c-0.2,0.6,0.1,1.2,0.7,1.4c0,0,0.1,0,0.1,0c0,0.1-0.1,0.3-0.1,0.4c-0.1,0.1-0.2,0.3-0.3,0.4l-0.3,1
		c-0.1,0.2,0,0.4,0,0.6c-0.2,0.8-0.3,1.6-0.4,2.4c0,0.2-0.6,0.6-0.8,0.3c-0.2-0.3-0.3-0.6-0.3-0.9c0-0.4,0-0.7,0-1.1
		c0.6-0.1,1-0.7,0.9-1.3c-0.1-0.4-0.1-0.7-0.2-1.1c-0.1-0.6-0.7-1-1.3-0.9c-0.2-0.7-0.4-1.3-0.6-2c0-0.2,0-0.3,0-0.5
		c-0.1-0.3-0.2-0.7-0.4-1c-0.1-0.2-0.2-0.3-0.3-0.4c-0.5-1.2-1.1-2.4-1.9-3.4c0.4-0.4,0.5-1.1,0.1-1.6c-0.2-0.3-0.5-0.6-0.8-0.8
		c-0.4-0.4-1.1-0.4-1.6,0c-0.2-0.2-0.3-0.4-0.5-0.3c-0.4,0.3-0.1,0.8,0,1.2c0.1,0.2,0.3,0.4,0.4,0.5c0,0,0,0.1,0.1,0.1
		c0.2,0.2,0.4,0.4,0.6,0.7c0.1,0.1,0.3,0.2,0.4,0.3c0.3,0.3,0.6,0.6,0.8,0.9c0.5,0.7,0.8,1.4,1.2,2.1c0,0,0,0,0,0
		c-0.6,0.2-0.9,0.9-0.7,1.5c0.1,0.3,0.2,0.6,0.3,0.9c0.2,0.5,0.6,0.7,1.1,0.7c0.1,0,0.2,0,0.4-0.1c0.2,0.6,0.3,1.1,0.5,1.7
		c-0.1,0.2-0.2,0.5-0.1,0.7c0.1,0.3,0.1,0.6,0.2,0.9c0.1,0.4,0.3,0.8,0.7,0.9c0.3,1.3,0,2.5-0.4,3.6c-0.2-0.1-0.4-0.1-0.6-0.1
		c-0.3-0.1-0.7,0-1,0.3c-1.8-2-3.7-3.8-5.8-5.6c0,0,0,0,0,0c0.4-0.5,0.3-1.2-0.1-1.6c-0.3-0.2-0.5-0.4-0.8-0.7
		c-0.5-0.4-1.2-0.3-1.6,0.2c0,0,0,0,0,0c-0.6-0.4-1.1-0.9-1.7-1.3c-1.6-1.2-3.1-2.3-4.8-3.4c0,0,0,0,0,0c0.3-0.5,0.2-1.2-0.3-1.6
		c-0.3-0.2-0.6-0.4-0.9-0.6c-0.5-0.3-1.2-0.2-1.6,0.4c0,0,0,0,0,0c-2.3-1.4-4.7-2.6-7.1-3.6c0,0,0,0,0,0c0.2-0.6,0-1.2-0.6-1.5
		c-0.3-0.1-0.6-0.3-1-0.4c-0.6-0.2-1.2,0.1-1.5,0.7c0,0,0,0,0,0c-0.3-0.1-0.7-0.3-1-0.4c-1.6-0.6-3.3-1-5.1-0.9
		c-0.6,0-1.2,0.1-1.7,0.3c0-0.1,0-0.1-0.1-0.2c-0.4-0.5-1.1-0.6-1.6-0.2c-0.4,0.3-0.7,0.7-0.9,1.1c-0.3,0.5-0.1,1.2,0.4,1.5
		c0.1,0,0.1,0.1,0.2,0.1c-0.1,0.4-0.1,0.7,0,1.1c0.1,1.3,0.5,2.7,1.2,3.9c0.5,0.8,0.9,1.6,1.4,2.3c-0.5,0.3-0.7,1-0.4,1.5l0.5,0.9
		c0.2,0.3,0.6,0.5,1,0.5c0.2,0,0.4-0.1,0.6-0.2c0,0,0,0,0,0c0.1,0.1,0.1,0.2,0.2,0.3c1.1,1.8,1.8,3.6,2.3,5.5
		c0.1,0.5,0.3,1.1,0.4,1.6c0,0,0,0,0,0c-0.6,0.2-0.9,0.8-0.8,1.4c0.1,0.3,0.2,0.7,0.3,1c0.2,0.5,0.6,0.8,1.1,0.8
		c0.1,0,0.2,0,0.3-0.1c0,0,0,0,0,0c0.2,0.7,0.5,1.4,0.8,2.1c0.7,1.6,1.9,2.5,3.6,2.6c0.4,0,0.8,0.1,1.1,0.1c0,0,0,0,0,0
		c0,0.5,0.3,0.9,0.7,1c-1.6,1-2.5,2.5-2.7,4.3c-0.1,0.9-0.3,1.8-0.4,2.7c0,0,0,0,0,0c-0.6,0-1.2,0.4-1.2,1.1c0,0.4,0,0.7,0,1.1
		c0,0.6,0.5,1.1,1.1,1.1c0,0,0,0,0,0c0,0,0,0,0,0c0.1,1.4,0.5,2.9,1.3,4.2c0.1,0.2,0.2,0.3,0.2,0.5c0.2,1.1,0.8,1.8,1.7,2.3
		c-0.3,0.5-0.2,1.2,0.3,1.5c0.3,0.2,0.5,0.3,0.6,0.5c0.2,0.2,0.5,0.3,0.8,0.3c0.3,0,0.5-0.1,0.7-0.3c0.6,0.7,1.3,1.2,2.1,1.7
		c1.5,1,3.1,1.6,4.9,1.9c0,0,0,0,0,0c-0.1,0.6,0.3,1.2,0.9,1.3l0.4,0.1c0.2,0,0.4,0.1,0.6,0.1c0.1,0,0.1,0,0.1,0c0.6,0,1-0.4,1.1-1
		c0,0,0,0,0,0c2.5,0.1,3.7-0.8,5.2-3.6c0.2-0.3,0.4-0.7,0.6-1c0,0,0,0,0,0c0.2,0.1,0.4,0.1,0.5,0.1c0.4,0,0.8-0.2,1-0.6
		c0.2-0.3,0.3-0.6,0.5-0.9c0.3-0.6,0.1-1.2-0.5-1.5c1.2-2.2,2.4-4.4,3.6-6.6c0-0.1,0.1-0.2,0.2-0.4c0,0,0,0,0,0
		c0.1,0.1,0.2,0.1,0.3,0.1c0.2,0.1,0.4,0.2,0.7,0.2c0,0,0.1,0,0.1,0c0,2.4,0,6.2,0.1,7.4c-0.2,0.1-0.3,0.2-0.4,0.3
		c-0.4,0.5-0.3,1.2,0.2,1.6c0.4,0.3,0.8,0.4,1.2,0.4c0.3,0,0.6-0.1,0.8-0.2c0.6-0.2,0.9-0.9,0.7-1.5c-0.1-0.3-0.4-0.5-0.6-0.6
		c0.2-1.3,0.1-5.3,0.2-7.7c0,0,0,0,0,0c0,0,0.1,0,0.1,0c0.2,0.1,0.4,0.2,0.6,0.2c0.2,0,0.5-0.1,0.7-0.2c0,0,0,0,0-0.1
		c1,1.4,2.3,3.3,2.6,3.8c0.5,1,1.1,2,1.6,2.9c0,0,0,0-0.1,0c-0.5,0.3-0.7,1-0.4,1.5l0.5,0.9c0.2,0.4,0.6,0.6,1,0.6
		c0.2,0,0.4,0,0.5-0.1c0,0,0,0,0.1-0.1c0.4,0.6,0.7,1.3,1.1,1.9c1,1.7,2.6,2.4,4.6,2.3c0,0,0,0,0,0c0,0.1,0,0.2,0,0.4
		c0.1,0.6,0.6,1,1.1,1c0.1,0,0.1,0,0.2,0c0.3-0.1,0.7-0.1,1-0.2c0.6-0.1,1-0.7,0.9-1.3c0-0.1-0.1-0.2-0.1-0.3
		c0.7-0.1,1.4-0.2,2.1-0.1c0.3,0,0.6-0.2,0.8-0.4c0.7-0.6,1.5-1.1,2.3-1.5c0.6-0.3,1.2-0.6,1.6-1.2c0,0,0,0,0,0c0,0,0,0.1,0.1,0.1
		c0.2,0.2,0.5,0.4,0.8,0.4c0.3,0,0.5-0.1,0.8-0.3c0.2-0.2,0.4-0.4,0.7-0.5c0.5-0.4,0.6-1.1,0.3-1.6c-0.1-0.1-0.1-0.1-0.2-0.2
		c0.1,0,0.1-0.1,0.2-0.1c0.7-0.4,1.3-0.9,1.5-1.7c0.3-1.3,0.9-2.4,1.4-3.5c0.2-0.4,0.3-0.9,0.3-1.4c0,0,0,0,0,0c0,0,0,0,0,0
		c0.6,0,1.1-0.5,1.1-1.1c0-0.3,0-0.6,0.1-0.9c0.1-0.6-0.3-1.2-1-1.3c-0.1,0-0.2,0-0.3,0c0,0,0,0,0,0c0.3-2.7-0.6-5.1-2.6-7
		c0,0,0,0-0.1-0.1c0.1-0.1,0.2-0.3,0.3-0.4c0.2-0.2,0.3-0.5,0.3-0.8c0-0.1,0-0.3-0.1-0.4c0.3,0,0.5-0.1,0.8-0.1
		c1.4-0.1,2.5-0.7,3.2-1.9c0.5-0.7,0.9-1.5,1.2-2.3c0.1,0,0.1,0.1,0.2,0.1c0.1,0,0.2,0.1,0.4,0.1c0.5,0,0.9-0.3,1.1-0.8
		c0.1-0.3,0.2-0.7,0.3-1c0.2-0.6-0.2-1.2-0.8-1.4c-0.1,0-0.2,0-0.2,0c0.6-2.5,1.4-4.9,2.5-7.2c0.1,0,0.1,0.1,0.2,0.1
		c0.2,0.1,0.3,0.1,0.5,0.1c0.4,0,0.8-0.2,1-0.6c0.1-0.3,0.3-0.6,0.4-0.8c0.3-0.5,0.1-1.2-0.4-1.5c-0.1,0-0.1,0-0.2-0.1
		c0.5-0.9,1.1-1.7,1.7-2.6c0.9-1.3,1.3-2.6,1.6-4c0.1,0,0.2,0.1,0.3,0.1c0,0,0,0,0,0c0.6,0,1.1-0.5,1.1-1.1l0-0.1
		c0-0.4,0-0.8-0.1-1.2C507.3,180.7,506.7,180.4,506.1,180.6z"/>
	<path class="st1" d="M510.1,127.4c0.1,0.6,0.3,1.1,0.4,1.7c-0.5,0.2-0.9,0.8-0.7,1.4c0.1,0.3,0.2,0.7,0.3,1
		c0.2,0.5,0.6,0.8,1.1,0.8c0.1,0,0.2,0,0.3,0c0.2,0.7,0.5,1.4,0.8,2c0.7,1.6,1.9,2.5,3.6,2.6c0.4,0.1,0.8,0.1,1.2,0.1c0,0,0,0,0,0
		c0,0.4,0.3,0.8,0.7,1c-1.6,1-2.5,2.5-2.8,4.3c-0.1,0.9-0.3,1.8-0.4,2.7c-0.6,0-1.1,0.4-1.1,1c0,0.4,0,0.7,0,1.1
		c0,0.6,0.5,1.1,1.1,1.1c0.1,1.4,0.5,2.9,1.3,4.2c0.1,0.2,0.2,0.3,0.2,0.5c0.2,1.2,0.9,1.8,1.8,2.3c-0.3,0.5-0.1,1.1,0.3,1.5
		c0.3,0.2,0.5,0.3,0.6,0.5c0.2,0.2,0.5,0.3,0.8,0.3c0.2,0,0.5-0.1,0.6-0.2c0.6,0.7,1.3,1.2,2.1,1.7c1.5,1,3.2,1.6,4.9,2c0,0,0,0,0,0
		c-0.1,0.6,0.3,1.2,0.9,1.3l0.4,0.1c0.2,0,0.4,0.1,0.6,0.1c0.1,0,0.1,0,0.1,0c0.6,0,1-0.4,1.1-1c0,0,0,0,0,0
		c2.5,0.1,3.6-0.8,5.1-3.6c0.2-0.4,0.4-0.7,0.6-1.1c0,0,0.1,0.1,0.1,0.1c0.2,0.1,0.4,0.1,0.5,0.1c0.4,0,0.8-0.2,1-0.6
		c0.2-0.3,0.3-0.6,0.5-0.9c0.3-0.6,0.1-1.2-0.5-1.5c0,0,0,0-0.1,0c1.2-2.2,2.4-4.4,3.6-6.6c0.1-0.1,0.1-0.2,0.2-0.4
		c0.1,0,0.2,0.1,0.3,0.1c0.2,0.1,0.4,0.2,0.7,0.2c0,0,0.1,0,0.1,0c0,2.5,0,6.5,0.2,7.5c-0.1,0.1-0.3,0.2-0.4,0.3
		c-0.4,0.5-0.3,1.2,0.2,1.6c0.4,0.3,0.8,0.4,1.2,0.4c0.3,0,0.6-0.1,0.8-0.2c0.6-0.2,0.9-0.9,0.7-1.5c-0.2-0.3-0.4-0.6-0.8-0.6
		c0.2-1.2,0.1-5.2,0.2-7.8c0.1,0,0.1,0,0.1,0.1c0,0,0.1,0,0.1,0c0.2,0.1,0.4,0.2,0.6,0.2c0.2,0,0.5-0.1,0.7-0.2c0,0,0,0,0,0
		c1,1.4,2.2,3.2,2.5,3.7c0.6,1,1.1,2,1.7,3.1c0,0,0,0,0,0c-0.5,0.3-0.7,1-0.4,1.5l0.5,0.9c0.2,0.4,0.6,0.6,1,0.6
		c0.2,0,0.4,0,0.5-0.1c0,0,0,0,0,0c0.3,0.6,0.7,1.2,1,1.8c1,1.7,2.6,2.4,4.6,2.3c0.1,0,0.1,0,0.2,0c0,0.1-0.1,0.3,0,0.5
		c0.1,0.6,0.6,1,1.1,1c0.1,0,0.1,0,0.2,0c0.3-0.1,0.7-0.1,1-0.2c0.6-0.1,1-0.7,0.9-1.3c0-0.1-0.1-0.3-0.2-0.4c0.7-0.1,1.3-0.2,2-0.1
		c0.3,0,0.6-0.2,0.8-0.4c0.7-0.6,1.5-1.1,2.3-1.5c0.6-0.3,1.2-0.6,1.6-1.2c0,0,0,0,0,0c0,0.1,0.1,0.2,0.2,0.3
		c0.2,0.2,0.5,0.4,0.8,0.4c0.3,0,0.5-0.1,0.8-0.3c0.2-0.2,0.4-0.4,0.7-0.5c0.5-0.4,0.6-1.1,0.3-1.6c-0.1-0.1-0.2-0.2-0.3-0.3
		c0.1,0,0.1-0.1,0.2-0.1c0.7-0.4,1.3-0.9,1.5-1.7c0.3-1.3,0.9-2.4,1.4-3.5c0.2-0.4,0.3-0.8,0.3-1.3c0,0,0.1,0,0.1,0c0,0,0,0,0,0
		c0.6,0,1.1-0.5,1.1-1.1c0-0.3,0-0.6,0.1-0.9c0.1-0.6-0.3-1.2-1-1.3c-0.1,0-0.3,0-0.4,0c0,0,0-0.1,0-0.1c0.3-2.7-0.6-5.1-2.6-7
		c0,0,0,0,0,0c0.1-0.1,0.2-0.2,0.2-0.4c0.2-0.2,0.3-0.5,0.3-0.8c0-0.2-0.1-0.4-0.1-0.5c0.3,0,0.6-0.1,0.8-0.1
		c1.4-0.1,2.5-0.7,3.2-1.9c0.5-0.7,0.9-1.5,1.2-2.3c0.1,0,0.1,0.1,0.2,0.1c0.1,0,0.2,0.1,0.4,0.1c0.5,0,0.9-0.3,1.1-0.8
		c0.1-0.3,0.2-0.7,0.3-1c0.2-0.6-0.2-1.2-0.8-1.4c-0.1,0-0.2,0-0.2,0c0.6-2.5,1.4-4.9,2.5-7.2c0.1,0,0.1,0.1,0.2,0.1
		c0.2,0.1,0.3,0.1,0.5,0.1c0.4,0,0.8-0.2,1-0.6c0.1-0.3,0.3-0.6,0.4-0.8c0.3-0.5,0.1-1.2-0.4-1.5c-0.1,0-0.1,0-0.2-0.1
		c0.5-0.9,1.1-1.7,1.7-2.6c0.9-1.3,1.3-2.6,1.6-4c0.1,0,0.2,0.1,0.3,0.1c0,0,0,0,0,0c0.6,0,1.1-0.5,1.1-1.1l0-0.1
		c0-0.4,0-0.8-0.1-1.2c-0.2-0.6-0.8-1-1.4-0.8c-0.1,0-0.2,0.1-0.3,0.2c-0.4-0.5-1.1-0.8-2.1-1c-1.7-0.4-3.4-0.2-5.1,0.2
		c-0.2-0.5-0.8-0.8-1.3-0.6l-1,0.3c-0.5,0.2-0.8,0.7-0.7,1.3c-2.4,0.9-4.7,1.9-6.9,3.1c-0.3-0.4-0.9-0.6-1.4-0.3
		c-0.3,0.2-0.6,0.3-0.9,0.5c-0.5,0.3-0.6,0.9-0.4,1.4c-2.1,1.3-4.2,2.7-6.2,4.2c0,0,0,0.1-0.1,0.1c-0.4-0.2-0.9-0.1-1.3,0.2
		c-0.1,0.1-0.3,0.2-0.5,0.4c-0.5,0.3-0.7,1-0.4,1.5c-2.1,1.6-3.9,3.3-5.7,5.1c-0.3-0.1-0.7-0.1-1,0.1c-0.3,0.1-0.7,0.3-0.9,0.5
		c-0.4,0.4-0.4,1.1-0.1,1.5c-0.7,1-1.9,2.8-2,2.3c-0.5-1.6-0.9-3-0.4-4.8c0,0,0-0.1,0-0.1c0,0,0,0,0,0c0.1,0,0.2,0,0.3,0
		c0.5,0,0.9-0.3,1.1-0.8l0.3-1c0.2-0.6-0.2-1.2-0.8-1.4c0-0.1,0.1-0.3,0.1-0.4c0.1-0.1,0.1-0.2,0.2-0.3c0.1-0.3,0.2-0.6,0.4-0.9
		c0.1-0.2,0.1-0.4,0.1-0.6c0.7-1.9,1.5-3.6,2.7-4.9c0.2,0.2,0.5,0.4,0.8,0.4c0.2,0,0.5-0.1,0.7-0.3l0,0c0.5-0.3,0.8-0.8,0.9-1.4
		c0.1-0.6-0.3-1.2-0.9-1.3c-0.6-0.1-1.2,0.3-1.4,0.9l-0.1,0.1c-0.1,0.1-0.1,0.1-0.2,0.2c-0.6,0.6-1.1,1.1-1.5,1.9
		c-0.6,1.2-1.2,2.4-1.8,3.6c0,0,0,0,0,0c-0.6-0.2-1.2,0-1.5,0.6c-0.1,0.3-0.3,0.7-0.4,1c-0.2,0.6,0.1,1.2,0.7,1.4c0,0,0,0,0,0
		c-0.1,0.2-0.1,0.5-0.2,0.7c0,0.1-0.1,0.1-0.1,0.2l-0.3,1c0,0.1,0,0.2,0,0.4c-0.2,0.9-0.4,1.8-0.4,2.7c0,0.2-0.6,0.6-0.8,0.3
		c-0.2-0.3-0.3-0.6-0.3-0.9c0-0.4,0-0.7,0-1.1c0,0,0,0,0,0c0.6-0.1,1-0.7,1-1.3c-0.1-0.4-0.1-0.7-0.2-1.1c-0.1-0.6-0.7-1-1.3-0.9
		c0,0,0,0,0,0c-0.2-0.6-0.3-1.2-0.5-1.8c0.1-0.2,0.1-0.5,0-0.7c-0.1-0.3-0.2-0.7-0.4-1c-0.1-0.2-0.3-0.4-0.5-0.5
		c-0.5-1.2-1.1-2.3-1.8-3.3c0,0,0,0,0,0c0.5-0.4,0.5-1.1,0.1-1.6c-0.2-0.3-0.5-0.6-0.8-0.8c-0.4-0.4-1.2-0.4-1.6,0c0,0,0,0,0,0
		c-0.2-0.2-0.4-0.5-0.6-0.3c-0.4,0.3-0.1,0.8,0,1.2c0.1,0.2,0.3,0.4,0.5,0.6c0.2,0.2,0.5,0.5,0.7,0.7c0,0,0,0,0.1,0.1c0,0,0,0,0,0
		c0.4,0.4,0.8,0.8,1.1,1.2c0.5,0.7,0.9,1.4,1.2,2.1c-0.5,0.2-0.8,0.9-0.6,1.4c0.1,0.3,0.2,0.6,0.3,0.9c0.2,0.5,0.6,0.7,1.1,0.7
		c0.1,0,0.2,0,0.3,0c0.2,0.6,0.4,1.2,0.5,1.8c-0.1,0.2-0.1,0.4-0.1,0.6c0.1,0.3,0.1,0.6,0.2,0.9c0.1,0.4,0.3,0.7,0.6,0.8
		c0.3,1.4,0,2.5-0.4,3.7c-0.2-0.1-0.4-0.1-0.6-0.1c-0.3-0.1-0.7,0-1,0.3c-1.8-2-3.7-3.8-5.7-5.5c0,0,0,0,0.1,0
		c0.4-0.5,0.3-1.2-0.1-1.6c-0.3-0.2-0.5-0.4-0.8-0.7c-0.5-0.4-1.2-0.3-1.6,0.2c0,0,0,0,0,0.1c-0.6-0.5-1.2-0.9-1.8-1.4
		c-1.5-1.2-3.1-2.3-4.7-3.4c0,0,0,0,0-0.1c0.3-0.5,0.2-1.2-0.3-1.6c-0.3-0.2-0.6-0.4-0.9-0.6c-0.5-0.3-1.2-0.2-1.6,0.4
		c0,0,0,0,0,0.1c-2.3-1.4-4.7-2.6-7.1-3.6c0,0,0,0,0-0.1c0.2-0.6,0-1.2-0.6-1.5c-0.3-0.1-0.6-0.3-1-0.4c-0.6-0.2-1.2,0.1-1.5,0.7
		c0,0,0,0,0,0.1c-0.4-0.1-0.7-0.3-1.1-0.4c-1.6-0.6-3.3-1-5.1-0.9c-0.6,0-1.1,0.1-1.6,0.3c0-0.1,0-0.1-0.1-0.2
		c-0.4-0.5-1.1-0.6-1.6-0.2c-0.4,0.3-0.7,0.7-0.9,1.1c-0.3,0.5-0.1,1.2,0.4,1.5c0,0,0.1,0,0.1,0c-0.1,0.4-0.1,0.7-0.1,1.2
		c0.1,1.3,0.5,2.7,1.2,3.9c0.5,0.8,1,1.6,1.5,2.4c-0.5,0.3-0.6,1-0.3,1.5l0.5,0.9c0.2,0.3,0.6,0.5,1,0.5c0.2,0,0.3,0,0.5-0.1
		c0,0.1,0.1,0.2,0.1,0.2C508.9,123.7,509.6,125.5,510.1,127.4z"/>
	<path class="st1" d="M614.9,102.7c0.1,0.2,0.2,0.3,0.2,0.5c0.2,1.1,0.8,1.8,1.7,2.3c-0.3,0.5-0.2,1.2,0.3,1.5
		c0.3,0.2,0.5,0.3,0.6,0.5c0.2,0.2,0.5,0.3,0.8,0.3c0.3,0,0.5-0.1,0.7-0.3c0.6,0.7,1.3,1.2,2.1,1.7c1.5,1,3.1,1.6,4.9,1.9
		c0,0,0,0,0,0c-0.1,0.6,0.3,1.2,0.9,1.3l0.4,0.1c0.2,0,0.4,0.1,0.6,0.1c0.1,0,0.1,0,0.1,0c0.6,0,1-0.4,1.1-1c0,0,0,0,0,0
		c2.5,0.1,3.7-0.8,5.2-3.6c0.2-0.3,0.4-0.7,0.6-1c0,0,0,0,0,0c0.2,0.1,0.4,0.1,0.5,0.1c0.4,0,0.8-0.2,1-0.6c0.2-0.3,0.3-0.6,0.5-0.9
		c0.3-0.6,0.1-1.2-0.5-1.5c1.2-2.2,2.4-4.4,3.6-6.6c0-0.1,0.1-0.2,0.2-0.4c0.1,0,0.2,0.1,0.3,0.1c0.2,0.1,0.4,0.2,0.7,0.2
		c0.1,0,0.1,0,0.2,0c0,2.5,0,6.4,0.2,7.5c-0.2,0.1-0.3,0.2-0.5,0.3c-0.4,0.5-0.3,1.2,0.2,1.6c0.4,0.3,0.8,0.4,1.2,0.4
		c0.3,0,0.6-0.1,0.8-0.2c0.6-0.2,0.9-0.9,0.7-1.5c-0.1-0.3-0.4-0.5-0.7-0.6c0.2-1.2,0.1-5.2,0.2-7.7c0,0,0,0,0,0c0,0,0.1,0,0.1,0
		c0.2,0.1,0.4,0.2,0.6,0.2c0.2,0,0.5-0.1,0.7-0.2c0,0,0.1-0.1,0.1-0.1c1,1.4,2.2,3.3,2.5,3.7c0.5,1,1.1,2,1.6,3c0,0-0.1,0-0.1,0
		c-0.5,0.3-0.7,1-0.4,1.5l0.5,0.9c0.2,0.4,0.6,0.6,1,0.6c0.2,0,0.4,0,0.5-0.1c0,0,0.1-0.1,0.1-0.1c0.4,0.6,0.7,1.3,1.1,1.9
		c1,1.7,2.6,2.4,4.6,2.3c0,0,0,0,0,0c0,0.1-0.1,0.3,0,0.5c0.1,0.6,0.6,1,1.1,1c0.1,0,0.1,0,0.2,0c0.3-0.1,0.7-0.1,1-0.2
		c0.6-0.1,1-0.7,0.9-1.3c0-0.1-0.1-0.3-0.2-0.4c0.7-0.1,1.4-0.2,2.1-0.1c0.3,0,0.6-0.2,0.8-0.4c0.7-0.6,1.5-1.1,2.3-1.5
		c0.6-0.3,1.2-0.6,1.6-1.2c0,0.1,0.1,0.1,0.1,0.2c0.2,0.2,0.5,0.4,0.8,0.4c0.3,0,0.5-0.1,0.8-0.3c0.2-0.2,0.4-0.4,0.7-0.5
		c0.5-0.4,0.6-1.1,0.3-1.6c-0.1-0.1-0.2-0.2-0.3-0.2c0.1,0,0.1-0.1,0.2-0.1c0.7-0.4,1.3-0.9,1.5-1.7c0.3-1.3,0.9-2.4,1.4-3.5
		c0.2-0.4,0.3-0.8,0.3-1.3c0,0,0,0,0,0c0.6,0,1.1-0.5,1.1-1.1c0-0.3,0-0.6,0.1-0.9c0.1-0.6-0.3-1.2-1-1.3c-0.1,0-0.2,0-0.3,0
		c0,0,0-0.1,0-0.1c0.3-2.7-0.6-5.1-2.6-7c0,0-0.1,0-0.1-0.1c0.1-0.1,0.1-0.2,0.2-0.3c0.2-0.2,0.3-0.5,0.3-0.8c0-0.2-0.1-0.3-0.1-0.5
		c0.3,0,0.6-0.1,0.9-0.1c1.4-0.1,2.5-0.7,3.2-1.9c0.4-0.7,0.8-1.4,1.2-2.2c0.1,0,0.1,0.1,0.1,0.1c0.1,0,0.2,0.1,0.4,0.1
		c0.5,0,0.9-0.3,1.1-0.8c0.1-0.3,0.2-0.7,0.3-1c0.2-0.6-0.2-1.2-0.8-1.4c0,0-0.1,0-0.1,0c0.6-2.5,1.4-4.9,2.4-7.1c0,0,0,0,0.1,0.1
		c0.2,0.1,0.3,0.1,0.5,0.1c0.4,0,0.8-0.2,1-0.6c0.1-0.3,0.3-0.6,0.4-0.8c0.3-0.5,0.1-1.2-0.4-1.5c0,0-0.1,0-0.1,0
		c0.5-0.9,1.1-1.8,1.8-2.6c0.9-1.2,1.3-2.6,1.6-4c0.1,0,0.1,0,0.2,0c0,0,0,0,0,0c0.6,0,1.1-0.5,1.1-1.1l0-0.1c0-0.4,0-0.8-0.1-1.2
		c-0.2-0.6-0.8-1-1.4-0.8c-0.1,0-0.2,0.1-0.3,0.1c-0.4-0.5-1.1-0.8-2-1c-1.8-0.4-3.5-0.2-5.2,0.3c-0.2-0.5-0.8-0.8-1.4-0.7l-1,0.3
		c-0.6,0.2-0.9,0.8-0.7,1.3c-2.4,0.9-4.7,1.9-6.9,3.1c-0.3-0.5-1-0.6-1.5-0.3c-0.3,0.2-0.6,0.3-0.9,0.5c-0.5,0.3-0.7,0.9-0.4,1.4
		c-2.1,1.3-4.1,2.7-6.1,4.1c0,0-0.1,0.1-0.1,0.1c-0.4-0.2-1-0.2-1.3,0.2c-0.1,0.1-0.3,0.2-0.5,0.4c-0.5,0.3-0.7,1-0.4,1.5
		c0,0,0,0,0,0c-2.1,1.6-3.9,3.3-5.7,5.1c0,0,0,0,0,0c-0.3-0.1-0.7-0.1-1,0.1c-0.3,0.1-0.7,0.3-0.9,0.5c-0.4,0.4-0.4,1.1,0,1.5
		c-0.7,1-1.8,2.6-2,2.2c-0.5-1.6-0.9-3-0.4-4.8c0,0,0,0,0,0c0.1,0,0.2,0,0.3,0c0.5,0,0.9-0.3,1.1-0.8l0.3-1c0.2-0.6-0.2-1.2-0.7-1.4
		c0.1-0.2,0.1-0.5,0.2-0.7c0,0,0-0.1,0-0.1c0.1-0.3,0.2-0.6,0.4-0.9c0.1-0.2,0.1-0.3,0.1-0.5c0.7-1.9,1.5-3.7,2.7-5
		c0.2,0.2,0.5,0.4,0.8,0.4c0.2,0,0.5-0.1,0.7-0.2l0,0c0.5-0.3,0.8-0.8,0.9-1.4c0.1-0.6-0.3-1.2-0.9-1.3c-0.6-0.1-1.2,0.3-1.4,0.9
		l-0.1,0.1c-0.1,0.1-0.1,0.1-0.2,0.2c-0.5,0.5-1,1.1-1.4,1.8c-0.6,1.2-1.3,2.5-1.8,3.7c0,0,0,0-0.1,0c-0.6-0.2-1.2,0-1.5,0.6
		c-0.1,0.3-0.3,0.7-0.4,1c-0.2,0.6,0.1,1.2,0.7,1.4c0,0,0.1,0,0.1,0c0,0.1-0.1,0.3-0.1,0.4c-0.1,0.1-0.2,0.3-0.2,0.4l-0.3,1
		c-0.1,0.2,0,0.4,0,0.6c-0.2,0.8-0.3,1.6-0.4,2.3c0,0.2-0.6,0.6-0.8,0.3s-0.3-0.6-0.3-0.9c0-0.3,0-0.7,0-1c0.6-0.1,1-0.7,0.9-1.3
		c-0.1-0.4-0.1-0.7-0.2-1.1c-0.1-0.6-0.7-0.9-1.2-0.9c-0.2-0.7-0.4-1.4-0.6-2c0-0.2,0-0.3-0.1-0.5c-0.1-0.3-0.2-0.7-0.4-1
		c-0.1-0.2-0.2-0.3-0.3-0.4c-0.5-1.2-1.1-2.4-1.9-3.5c0.4-0.4,0.4-1.1,0.1-1.5c-0.2-0.3-0.5-0.6-0.8-0.8c-0.4-0.4-1.1-0.4-1.5,0
		c-0.2-0.2-0.4-0.5-0.6-0.3c-0.4,0.3-0.1,0.8,0,1.2c0.1,0.1,0.2,0.2,0.3,0.4c0.1,0.1,0.1,0.3,0.3,0.4c0.2,0.2,0.4,0.4,0.6,0.7
		c0.1,0.2,0.3,0.3,0.5,0.3c0.3,0.3,0.5,0.5,0.7,0.8c0.5,0.7,0.9,1.4,1.2,2.2c0,0,0,0,0,0c-0.6,0.2-0.9,0.9-0.7,1.5
		c0.1,0.3,0.2,0.6,0.3,0.9c0.2,0.5,0.6,0.7,1.1,0.7c0.1,0,0.3,0,0.4-0.1c0,0,0,0,0,0c0.2,0.5,0.3,1.1,0.5,1.6
		c-0.1,0.2-0.2,0.5-0.1,0.8c0.1,0.3,0.1,0.6,0.2,0.9c0.1,0.4,0.4,0.8,0.7,0.9c0.2,1.3,0,2.4-0.5,3.5c-0.2-0.1-0.5-0.2-0.7-0.1
		c-0.3-0.1-0.6,0-0.9,0.2c-1.8-2-3.7-3.8-5.7-5.5c0,0,0,0,0,0c0.4-0.5,0.3-1.2-0.1-1.6c-0.3-0.2-0.5-0.4-0.8-0.7
		c-0.5-0.4-1.2-0.3-1.6,0.2c0,0,0,0,0,0c-0.6-0.4-1.1-0.9-1.7-1.3c-1.6-1.2-3.1-2.3-4.8-3.4c0,0,0,0,0,0c0.3-0.5,0.2-1.2-0.3-1.6
		c-0.3-0.2-0.6-0.4-0.9-0.6c-0.5-0.3-1.2-0.2-1.6,0.4c0,0,0,0,0,0c-2.3-1.4-4.7-2.6-7.1-3.6c0,0,0,0,0,0c0.2-0.6,0-1.2-0.6-1.5
		c-0.3-0.1-0.6-0.3-1-0.4c-0.6-0.2-1.2,0.1-1.5,0.7c0,0,0,0,0,0c-0.3-0.1-0.7-0.3-1-0.4c-1.6-0.6-3.3-1-5.1-0.9
		c-0.6,0-1.2,0.1-1.7,0.3c0-0.1,0-0.1-0.1-0.2c-0.4-0.5-1.1-0.6-1.6-0.2c-0.4,0.3-0.7,0.7-0.9,1.1c-0.3,0.5-0.1,1.2,0.4,1.5
		c0.1,0,0.1,0.1,0.2,0.1c-0.1,0.3-0.1,0.7,0,1.1c0.1,1.3,0.5,2.7,1.2,3.9c0.5,0.8,0.9,1.6,1.4,2.3l0,0c-0.5,0.3-0.7,1-0.4,1.5
		l0.5,0.9c0.2,0.3,0.6,0.5,1,0.5c0.2,0,0.4-0.1,0.6-0.2c0.1,0.1,0.1,0.2,0.2,0.3c1.1,1.8,1.8,3.6,2.3,5.5c0.1,0.5,0.3,1.1,0.4,1.6
		c0,0,0,0,0,0c-0.6,0.2-0.9,0.8-0.8,1.4c0.1,0.3,0.2,0.7,0.3,1c0.2,0.5,0.6,0.8,1.1,0.8c0.1,0,0.2,0,0.3-0.1c0,0,0,0,0,0
		c0.2,0.7,0.5,1.4,0.8,2.1c0.7,1.6,1.9,2.5,3.6,2.6c0.4,0,0.8,0.1,1.1,0.1c0,0,0,0,0,0c0,0.5,0.3,0.9,0.7,1c-1.6,1-2.5,2.5-2.7,4.3
		c-0.1,0.9-0.3,1.8-0.4,2.7c0,0,0,0,0,0c-0.6,0-1.2,0.4-1.2,1.1c0,0.4,0,0.7,0,1.1c0,0.6,0.5,1.1,1.1,1.1c0,0,0,0,0,0c0,0,0,0,0,0
		C613.7,99.9,614.1,101.3,614.9,102.7z"/>
	<path class="st1" d="M806.5,76.8c-0.1-0.4-0.4-0.6-0.8-0.7c-0.4-0.3-1-0.3-1.5,0.1c-0.2-0.3-0.5-0.6-0.9-0.9
		c-1.5-2.4-3.2-4-5.2-4.6c0,0,0-0.1,0-0.1c0.1-0.6-0.3-1.2-1-1.3c-0.4-0.1-0.8-0.1-1.2-0.1c-0.6,0-1.1,0.5-1.1,1.1c0,0,0,0.1,0,0.1
		c-1.1,0.5-2.2,2.7-3.2,2.7c-1.3,0-2.5,0.4-3.8,0.6c0-0.6-0.5-1-1.1-1c-0.2,0-0.4,0-0.6-0.1v0c-0.1,0-0.2,0-0.3,0
		c-0.6,0-1.2,0.4-1.2,1.3v0c0,0.2,0,0.3,0.1,0.4c-0.7,0.1-1.5,0-2,0c-2-0.1-4-0.7-5.9-1c0,0,0,0,0-0.1c0-0.6-0.4-1.2-1-1.2
		c-0.3,0-0.6,0-0.9,0l-0.2,0c-0.6,0-1.1,0.5-1.1,1.1c0,0.2,0.1,0.4,0.2,0.6c-0.1,0.1-0.1,0.1-0.2,0.2c-0.4,0.1-0.9-1.5-1.4-1.5
		c-1.8,0-3.3,1.5-4.8,2.9c-0.4-0.4-1-0.5-1.5-0.1c-0.2,0.2-0.5,0.4-0.8,0.5c-0.5,0.3-0.6,0.9-0.4,1.4c-0.1,0-0.3,0.1-0.4,0.1
		c-1,0.3-2.1,0-3,0.6c-1.4,0.9-2.7,1.9-3.5,3.1c0,0,0,0,0,0c-0.6-0.2-1.2,0.1-1.4,0.7c-0.2,0.4-0.3,0.8-0.3,1.3
		c-0.1,0.6,0.4,1.2,1,1.2c0,0,0,0,0.1,0c0,0.1,0,0.2,0.1,0.4c0.4,1.7,2.5,3.1,3.9,2.2c0.8-0.5,1.5-0.8,2.5-1.1
		c0.1,0.5,0.6,0.9,1.1,0.9c0.1,0,0.1,0,0.2,0c0.3-0.1,0.6-0.1,0.9-0.1c0.6-0.1,1.1-0.6,1-1.2c0,0,0,0,0,0c0.2,0,0.3,0,0.5-0.1
		c0.9-0.2,0.8-0.6,1.2,0.2c0.7,1.3,1.4,0.9,2.5-0.1c0.4-0.4,0.2-1.3,0.6-1.7c0.5-0.5,0.7-0.4,0.8,0c-0.5,0.2-0.9,0.7-0.7,1.3
		c0.1,0.3,0.2,0.6,0.3,0.9c0.1,0.2,0.1,0.3,0.2,0.5c0.2,0.3,0.6,0.5,0.9,0.5c0.2,0,0.4-0.1,0.6-0.2c0.1-0.1,0.2-0.2,0.3-0.3
		c1,0.3,2.2,0.2,2.9-0.4c0.5-0.5,0.9-0.9,1.4-1.3c1.1-0.9,1.7-1.6,2.3-0.8c-0.1,0.2-0.2,0.3-0.3,0.5c-0.3,0.6,0,1.2,0.5,1.5
		c0.2,0.1,0.3,0.1,0.5,0.1c0.4,0,0.8-0.2,1-0.6c0,0,0.1-0.1,0.3-0.3l-0.6-0.7l0,0l0-0.2c0.5,0.1,1.3,0.6,1.4,0.3
		c0.7-1.1,1.9-2.2,3-1.3c1.5,1.4,0.4,1.6,1.5-0.2c0.2-0.3,0.6-0.5,1-0.5c-0.1,0.5,0.2,1,0.7,1.2c0.2,0.1,0.3,0.1,0.5,0.2
		c0,0,0.1,0,0.1,0.1c0.3,0.2,0.5,0.2,0.7,0.2c0.6,0,1.1-0.5,1.1-1.1c0,0,0,0,0,0c0.3-0.1,0.5-0.3,0.7-0.6c0.4-0.4,0.7-0.9,1.3-0.9
		c1.4,0,2.3,0.4,3.3,1.5c0.2,0.2,0.7,0.4,1.1,0.5c0.2,0.3,0.6,0.5,0.9,0.5c0.2,0,0.3,0,0.5-0.1c0.1,0,0.1-0.1,0.2-0.1c0,0,0,0,0,0
		c0.8,0.4,2.2-0.8,2.8-1.1c0.4-0.2-0.8-0.9-1-1.3c0,0,0,0,0,0c0,0,0,0,0,0c0.5-0.4,0.6-1.1,0.3-1.6c-0.1-0.2-0.2-0.3-0.2-0.3
		c0.5,0,1,0.1,1.1,0.2c0.4,0.1,0.3,1,0.7,0.6c0.6-0.5,1.3-0.8,1.7-1.4c0.1,0,0.2,0,0.3-0.1c0.5-0.1,0.9-0.6,0.9-1.1c0,0,0,0,0,0
		C806.5,77.1,806.5,77,806.5,76.8z M782.3,84.7c-0.2,0.1-0.4,0.2-0.5,0.2c0,0,0,0,0,0s0,0,0,0l0-0.9l0,0L782.3,84.7z"/>
	<path class="st1" d="M971.3,212.8c-0.9,0.1-2,0.1-2.7,0.6c-1.6,1-2.8,2.5-3.4,4.2c0,0,0,0,0,0c-0.6-0.1-1.2,0.3-1.3,0.9
		c-0.1,0.4-0.1,0.8-0.1,1.2c0,0.6,0.5,1.1,1.1,1.1c0,0,0,0,0,0c0,0.1,0,0.2,0.1,0.4c0.4,1.7,1.3,0.9,2.7,0c0.9-0.5,2.7,0.5,3.8,0.2
		c0.1,0,0.3-0.1,0.4-0.1c0,0.6,0.5,1,1.1,1.1c0.2,0,0.4,0,0.6,0l0.5,0c0,0,0,0,0,0c0.6,0,1.1-0.5,1.1-1.1c0,0,0-0.1,0-0.1
		c0.9-0.1,1.9-0.6,2.3,0.2c0.6,1.3,0.8,2,1.9,1c0.4-0.4,1.1-0.4,1.5-0.8c0.1-0.1,0.2-0.2,0.3-0.3c0,0.1,0,0.2,0,0.2l0.1,0.2
		c0.2,0.4,0.4,0.8,0.6,1.1c0.2,0.3,0.6,0.4,0.9,0.4c0.2,0,0.5-0.1,0.7-0.2c0.2-0.1,0.3-0.3,0.3-0.4c0.2-0.1,0.5-0.2,0.8-0.4
		c0.4-0.4-0.1-1.9,0.4-2.3c1.2-1.1,2.3-0.3,3.1,1.1c0.2,0.3,0.3,0.5,0.4,0.6c0.1,0.1,0.1,0.2,0.2,0.3c0.2,0.2,0.5,0.3,0.8,0.3
		c0.3,0,0.5-0.1,0.8-0.3c0.6,0.1,1.1-0.3,1.2-0.8c0.1-0.3,0-0.6-0.1-0.8c0.8-0.9,2.1-1.5,3-0.8c1.6,1.4,2.1,2.9,3.2,1.1
		c0-0.1,0.1-0.2,0.1-0.2c0,0,0,0,0.1,0c0.1,0,0.2,0.1,0.4,0.1c0.5,0,0.9-0.3,1.1-0.8c0.2-0.4,0.2-0.6,0.3-0.6
		c0.2-0.2,0.2-0.5,0.2-0.7c0.3-0.4,1.5-1.4,2.1-1.4c1.3,0.1,2.7,1.1,3.7,2.2c0.1,0.1,0.1,0.1,0.2,0.1c0,0.1,0.1,0.2,0.2,0.3
		c0.2,0.4,0.6,0.6,1,0.7c0,0,0.1,0,0.1,0c0.2,0,0.4,0,0.6-0.2c0.3-0.1,0.6-0.2,0.8-0.4c0.4-0.4,0.4-0.9,0.2-1.3c0,0,0,0,0,0
		c0.6,0.3,0.7,0.2,1,0.1c0.1,0.1,0.1,0.1,0.2,0.2c0.2,0.1,0.3,0.1,0.5,0.1c0.3,0,0.9-0.1,1.3-0.9c0.3-0.6,0.1-1.2-0.5-1.5
		c-0.1,0-0.1-0.1-0.2-0.1c0,0,0.1-0.1,0.1-0.1c0.7-0.7,2.6-0.4,2.7-1.6c0-0.3,0.3-0.5,0.6-0.8c0,0.1,0.1,0.1,0.1,0.2
		c0.2,0.2,0.5,0.3,0.8,0.3c0.3,0,0.6-0.1,0.8-0.3c0.1-0.1,0.3-0.2,0.4-0.3c0.3-0.3,0.4-0.6,0.3-1c-0.1-0.4-0.3-0.7-0.6-0.8
		c-0.1-0.1-0.3-0.1-0.4-0.2c-0.4-0.3-1-0.2-1.4,0.2c0,0-0.1,0.1-0.1,0.1c-0.2-0.3-0.4-0.6-0.5-0.8c-1.4-2.2-3.6-2.9-6-3.1
		c0,0,0,0,0,0c0-0.6-0.5-1.1-1.1-1.1l-0.2,0c-0.3,0-0.6,0-0.9,0c-0.6,0-1.1,0.5-1.1,1.2c0,0,0,0,0,0c-0.1,0-0.2,0-0.3,0
		c-1.4,0.1-2.7-0.4-3.9-0.4c-1.3,0-2.5,0.9-3.7,1.3c-0.1-0.5-0.6-0.9-1.1-0.9c-0.1,0-0.2,0-0.3,0c-0.2-0.1-0.5-0.1-0.8,0
		c-0.6,0.1-1,0.7-0.9,1.3c0,0,0,0.1,0,0.1c-0.7,0.3-1.3,0-2,0c-2.1,0-4.1-0.3-6.2-0.4c0,0,0,0,0,0c0-0.6-0.5-1.1-1.1-1.1l-0.2,0
		c-0.3,0-0.5,0-0.8,0c0,0-0.1,0-0.2,0c-0.6,0.1-1.1,0.7-1,1.3c0,0.3,0.2,0.5,0.4,0.7c-0.1,0.2-0.2,0.4-0.4,0.4
		c-0.4,0.2-0.7-0.1-1.2-0.1c-2.1-0.1-4.1,0.9-6,1.7c-0.2-0.5-0.9-0.8-1.4-0.6c-0.3,0.1-0.6,0.2-0.9,0.3
		C971.5,211.7,971.1,212.3,971.3,212.8z"/>
	<path class="st1" d="M1040.6,460c-0.4-0.3-1-0.3-1.4,0c-0.2-0.3-0.3-0.6-0.5-0.8c-1.4-2.1-3-3.3-4.9-3.8c0,0,0,0,0-0.1
		c0.1-0.6-0.4-1.2-1-1.3c-0.3,0-0.7-0.1-1.1-0.1c-0.6,0-1.1,0.5-1.2,1.1c0,0,0,0,0,0c-0.1,0-0.2,0-0.3,0c-1.3,0.1-2.6-0.1-3.8-0.1
		c-1.1,0-2.1,0.8-3.2,1.5c-0.3-0.5-0.8-0.7-1.4-0.5c-0.2,0.1-0.4,0.1-0.5,0.1h0c-0.5,0-0.9,0.3-1,0.8c-0.3-0.2-0.6-0.5-0.7-0.5
		c-0.7,0.3-1.2,0.7-1.9,0.7c-1.5-0.1-3.1,0-4.6,0.2c-0.1-0.6-0.6-1.1-1.2-1l-1,0.1c-0.6,0-1.1,0.6-1,1.2c-0.2,0-0.3,0-0.5,0
		c-0.4,0-0.3,1-0.7,1.2c-0.4,0.2-1.2-1.6-1.7-1.6c-1.1,0-2.2,0.2-3.2,0.5c0,0,0,0,0,0c-0.2-0.6-0.9-0.9-1.4-0.7
		c-0.3,0.1-0.6,0.2-0.9,0.3c-0.6,0.2-0.9,0.8-0.7,1.4c-0.8,0.3-1.5,0.6-2.2,0.7c-1,0.3-1.4,2.4-2.3,3c-0.4,0.3-0.8,0.5-1.2,0.8
		c0,0,0,0,0,0c-0.4-0.5-1.1-0.5-1.6,0c-0.3,0.3-0.6,0.6-0.8,0.9c-0.4,0.5-0.2,1.2,0.3,1.6c0,0,0,0,0.1,0c-0.3,0.8-0.3,1.6-0.1,2.8
		c0.4,1.7,0.4,1.9,1.8,1c0.5-0.3,1.2-0.2,1.9,0c0,0,0,0.1,0,0.1c-0.1,0.6,0.4,1.2,1,1.2c0.1,0,0.3,0,0.4,0c0.3,0,0.5,0,0.8-0.1
		c0.1,0,0.2-0.1,0.3-0.1c0.6-0.2,0.9-0.9,0.7-1.5c0-0.1-0.1-0.1-0.1-0.1c0.7-0.4,1.2-0.8,2-1c0.8-0.1,0.3,0.8,0.7,1.6
		c0.6,1.2,1.7,0.6,2.8-0.3c0.1,0.4,0.4,0.8,0.8,0.9c0.1,0,0.3,0.1,0.4,0.1c0.2,0.1,0.3,0.1,0.5,0.2c0.1,0,0.2,0,0.3,0
		c0.5,0,0.9-0.3,1.1-0.8c0.1-0.2,0-0.5,0-0.7c0.6-0.8,0.1-1.4,0.6-0.2c0.5,1.2,2.2,2.5,3.2,1.6c0.3-0.2,0.1-0.9,0-1.6
		c0.1,0,0.1,0,0.2,0c0.2,0,0.3,0,0.5-0.1c0.1,0,0.2-0.1,0.2-0.1c0,0,0,0,0,0c0.1,0,0.2,0,0.3,0c0.1,0.2,0.2,0.4,0.3,0.6
		c0.6,1.1,1.6-0.4,2.6-1.3c0.2-0.2,1.7,0.9,1.9,0.6c0.6-0.9,0.2-0.6,0.8,0.1c0,0-0.1,0.1-0.1,0.1c-0.3,0.5-0.2,1.2,0.4,1.5
		c0.4,0.2,0.7,0.3,1.1,0.3c0.4,0,0.8-0.1,1.1-0.4c0.5-0.4,0.6-1.1,0.2-1.6c-0.1-0.1-0.2-0.2-0.3-0.3c0.3-0.5,0.5-1.1,0.9-1.7
		c0.5-0.8,1.4,0.6,2.3,1.2c0.7,0.5,1.3-1,1.7-1.8c0.2,0.3,0.5,0.5,0.9,0.5c0.1,0,0.1,0,0.2,0c0.2,0,0.5,0,0.8,0c0.5,0,1-0.4,1.1-0.9
		c0.8,0.3,1.2,1.1,2,2c0.4,0.3,2.5,1,3,0.7c0.4-0.2-0.1-1-0.5-1.7c0,0,0,0,0,0c0.4,0,0.8-0.2,1-0.6c0,0,0,0,0,0
		c0.2,0.1,0.3,0.2,0.5,0.2c0.8,0.3,2.1,1.8,2.7,1.5c0.2-0.1,0.2-0.7,0-1.2c0,0,0,0,0,0c0.6-0.2,0.9-0.9,0.6-1.5
		c-0.1-0.2-0.2-0.6-0.4-0.8c-0.1-0.1-0.2-0.2-0.3-0.3c0,0,0.1-0.1,0.1-0.1c0.5-0.5,2-0.7,2.7-1.2c0.3-0.1,0.7-0.3,0.8-0.6
		c0.1-0.2,0.1-0.4,0.1-0.7c0-0.2,0-0.3,0-0.5C1041.3,460.4,1041,460.1,1040.6,460z M1033.5,465.5
		C1033.5,465.5,1033.5,465.5,1033.5,465.5l-0.1,0.2l0,0L1033.5,465.5z M1033.2,466l0.2-0.3l0,0L1033.2,466
		C1033.2,466,1033.2,466,1033.2,466z M1033.8,466.1l-0.4-0.4l0.3-0.1c0.1,0,0.3,0.1,0.4,0.1C1034,465.8,1033.9,466,1033.8,466.1z"/>
	<path class="st1" d="M1012.6,268.9C1012.6,268.9,1012.6,268.9,1012.6,268.9c-0.3-0.5-1-0.7-1.6-0.3l-0.8,0.5
		c-0.5,0.3-0.7,1-0.3,1.6c-2.1,1.4-4.3,2.8-6.5,4c-0.3-0.5-1-0.7-1.5-0.5c-0.3,0.2-0.6,0.3-0.9,0.4c-0.5,0.3-0.7,0.9-0.5,1.4
		c-1.2,0.2-3.6,0.5-3.1,1.4c0.4,0.9,2.2,0.2,3.6-0.4c0.2,0.4,0.6,0.7,1,0.7c0.2,0,0.3,0,0.5-0.1c0.3-0.1,0.6-0.2,0.9-0.4
		c0.6-0.2,0.8-0.9,0.6-1.4c2.4-0.8,4.9-1.5,7.3-2.4c0,0,0,0,0,0c0.2,0.4,0.6,0.7,1,0.7c0.2,0,0.3,0,0.5-0.1c0.3-0.1,0.6-0.3,0.9-0.4
		c0.6-0.3,0.8-1,0.5-1.5c0,0,0,0,0,0c0.6-0.3,1.1-0.7,1.6-1.2c1.3-1.1,2.2-3,3.4-4.5c0.2,0.2,0.4,0.3,0.7,0.3c0.3,0,0.6-0.1,0.8-0.4
		c0.2-0.2,0.4-0.4,0.6-0.6c0.4-0.4,0.5-1,0.2-1.5c0,0,0,0,0-0.1c0.1-0.1,0.2-0.1,0.3-0.2c0.4-0.1,0.7,1.5,1,2
		c0.3,0.3,1.6,0.9,1.3,1.2c-0.7,0.7-1.6,1.2-2.5,1.6c0,0,0,0,0,0c-0.3-0.6-1-0.8-1.5-0.5c-0.3,0.2-0.6,0.3-0.9,0.5
		c-0.5,0.3-0.7,1-0.4,1.5c0,0,0,0.1,0.1,0.1c-0.1,0.1-0.2,0.1-0.3,0.2c-1.9,1.8-2.3,4.2-2.2,6.7c0,0,0,0,0,0c-0.6,0-1.1,0.6-1.1,1.2
		c0,0.3,0,0.7,0.1,1c0,0.6,0.5,1.1,1.1,1.1c0,0,0,0,0.1,0c0,0,0,0,0,0c0.1,1.3,0.2,2.5,0.1,3.6c-0.1,1.3-0.3,2.6-0.5,4
		c-0.6-0.1-1.2,0.3-1.3,0.9c-0.1,0.3-0.1,0.6-0.2,1c-0.1,0.6,0.3,1.2,0.9,1.3c-0.5,2.2-1.1,4.4-1.7,6.6c-0.1,0.2-0.2,0.5-0.4,0.8
		c-0.5-0.4-1.1-0.4-1.6,0.1c-0.4,0.5-0.8,0.9-0.9,1.3c-0.1,0.6,0.3,1.2,0.9,1.3c0.1,0,0.1,0,0.2,0c0,0,0.1,0,0.1,0
		c0.4,1.6,1.9,2,3.8,2c1.1,0.1,2,0,2.9-0.2c0,0,0,0.1,0,0.1c0.2,0.5,0.6,0.7,1.1,0.7c0.1,0,0.3,0,0.4-0.1c0.4-0.1,0.7-0.3,1-0.4
		c0.6-0.3,0.8-1,0.5-1.5c0,0,0,0-0.1-0.1c1.1-0.7,2.1-1.7,3.2-3c0.7-0.9,1.4-1.7,2.1-2.5c0,0,0,0,0,0c0.2,0.1,0.4,0.2,0.7,0.2
		c0.3,0,0.7-0.2,0.9-0.5c0.2-0.3,0.4-0.6,0.6-0.8c0.3-0.5,0.2-1.2-0.3-1.6c0,0,0,0,0,0c0.3-0.5,0.6-1,0.9-1.6
		c0.7-1.4,3.5-1.5,5.1-2.4c0,0.1,0.1,0.1,0.1,0.2c0.2,0.2,0.5,0.2,0.7,0.2c0.3,0,0.7-0.1,0.9-0.4c0.2-0.3,0.5-0.6,0.6-0.9
		c0.3-0.5,0.2-1.2-0.4-1.5c0,0-0.1,0-0.1,0c1-2.3,1.2-5,0.8-7.5c0,0,0,0,0.1,0c0.6-0.1,1-0.7,0.8-1.4c-0.1-0.4-0.2-0.7-0.3-1
		c-0.2-0.6-0.8-0.9-1.4-0.8c0,0,0,0-0.1,0c-0.9-2.3-2.6-4.4-4.5-6.1c0,0,0,0,0,0c0.4-0.5,0.3-1.2-0.2-1.6c-0.3-0.2-0.5-0.4-0.8-0.6
		c-0.5-0.4-1.2-0.3-1.6,0.2c0,0,0,0,0,0c-0.2-0.1-0.4-0.3-0.6-0.4c-1.6-1.1-1.8-3.4-3.1-4.7c-0.6-0.6,0.2,0,0.5-0.3
		c0,0,0.1-0.1,0.1-0.1c0.2,0.3,0.5,0.4,0.9,0.4c0.2,0,0.5-0.1,0.7-0.2c0.2-0.2,0.5-0.3,0.8-0.5c0.5-0.3,0.7-1,0.4-1.5
		c1.2-0.7,2.4-1.3,3.3-2.2c0.9-0.8,1.8-1.7,2.6-2.5c0,0,0,0,0,0c0.2,0.2,0.5,0.3,0.8,0.3c0.3,0,0.6-0.1,0.8-0.3l0.7-0.7
		c0.4-0.4,0.4-1.2,0-1.6c0,0,0,0,0,0c1.8-1.9,3.5-3.8,5.1-5.7c0,0,0,0,0,0c0.2,0.2,0.4,0.2,0.7,0.2c0.3,0,0.7-0.2,0.9-0.4l0.1-0.2
		c0.2-0.3,0.3-0.6,0.3-0.9c0-0.4-0.1-0.7-0.3-1.1c-0.3-0.5-1-0.7-1.5-0.3c-0.1,0-0.1,0.1-0.1,0.1c-0.5-0.4-1-0.8-1.4-1.1
		c-0.9-0.7-1.1-0.9-1.5-0.5c-1,1-1.9,2-2.9,3c0,0,0,0,0,0c-0.5-0.4-1.2-0.4-1.6,0l-0.7,0.7c-0.4,0.5-0.4,1.2,0,1.6c0,0,0,0,0,0
		c-1.7,1.9-3.5,3.7-5.2,5.6c-0.4-0.4-1.2-0.4-1.6,0l-0.7,0.7c-0.4,0.4-0.4,1.1,0,1.6c-1.8,1.8-3.7,3.5-5.7,5.1
		c-0.4-0.5-1.1-0.6-1.6-0.2c-0.3,0.2-0.5,0.4-0.8,0.6c-0.5,0.4-0.6,1.1-0.2,1.6c-0.8,0.5-1.6,1.1-2.4,1.6
		C1015.2,267.1,1013.9,268,1012.6,268.9z"/>
	<path class="st1" d="M862.8,58.6c-0.1,0-0.1,0.1-0.2,0.1c-0.4-0.7-1-1.3-1.4-1.6c-0.8-0.7-1,0.1-1.4,0.5c-0.9,0.9-1.8,1.8-2.8,2.7
		c-0.4-0.4-1.1-0.5-1.6,0l-0.7,0.7c-0.4,0.4-0.5,1.1,0,1.6c-1.9,1.8-3.8,3.6-5.8,5.3c-0.4-0.5-1.1-0.5-1.6-0.1l-0.8,0.7
		c-0.5,0.4-0.5,1.1-0.1,1.6c-2,1.7-4.1,3.3-6.2,4.8c-0.4-0.5-1-0.6-1.5-0.3l-0.8,0.6c-0.5,0.3-0.6,1-0.3,1.5c-0.7,0.4-1.3,0.9-2,1.3
		c-1.6,1-3.2,1.8-4.8,2.5c-0.3-0.6-0.9-0.8-1.5-0.6c-0.3,0.1-0.6,0.3-0.9,0.4c-0.6,0.2-0.8,0.9-0.6,1.5c-2.4,1-4.8,2-7.2,3.1
		c0,0,0,0,0,0c-0.3-0.6-0.9-0.8-1.5-0.5l-0.4,0.2c-0.3,0.1-0.6,0.4-0.8,0.8c-0.4,0.5-0.2,1.2,0.3,1.6c0,0,0.1,0,0.1,0.1
		c-0.3,0.9-0.5,1.9-0.2,2.5c0.5,1,2.7,3.2,4.2,2.6c0,0,0,0,0,0c0.2,0.4,0.6,0.6,1,0.6c0.2,0,0.4,0,0.5-0.1c0.3-0.2,0.6-0.4,0.9-0.5
		c0.5-0.3,0.7-1,0.4-1.6c0,0,0,0,0,0c2.1-1.5,4.1-3.2,6-5c0,0,0,0,0,0c0.2,0.2,0.5,0.4,0.8,0.4c0.3,0,0.5-0.1,0.8-0.3l0.7-0.7
		c0.5-0.4,0.5-1.1,0.1-1.6c0.3-0.3,0.6-0.5,0.9-0.8c1.7-1.5,4-1.6,6.3-2c0,0,0,0,0,0.1c0.1,0.3,0.3,0.5,0.5,0.6l-0.1,0
		c-0.3,0.1-0.5,0.2-0.8,0.3c-0.6,0.3-0.8,0.9-0.6,1.5c0,0,0,0,0,0.1c-0.4,0.2-0.7,0.5-1.1,0.8c-1.7,1.6-2.5,3.6-3,5.7c0,0,0,0,0,0
		c-0.6-0.1-1.2,0.3-1.3,0.9c-0.1,0.3-0.1,0.7-0.1,1c-0.1,0.6,0.4,1.2,1,1.2c0,0,0,0,0,0c-0.1,1.4-0.2,2.7-0.2,4.1
		c-0.1,1.3-0.2,2.5-0.4,3.7c-0.6-0.1-1.2,0.3-1.3,0.9c-0.1,0.3-0.1,0.6-0.2,1c-0.1,0.6,0.3,1.2,0.9,1.3c-0.4,2.2-1,4.4-1.6,6.6
		c-0.1,0.3,0,0.7,0.3,1c0,0,0,0,0,0c-0.5,0.4-0.6,1.1-0.2,1.6c0,0.1,0.2,0.2,0.2,0.3l0,0.2c0,0.6,0.4,1.1,1.1,1.2
		c-0.1,2.2-0.2,4.5,1.7,4.7c0.8,0.1,1.5,0,2.3-0.3c0,0,0,0.1,0,0.1c0.2,0.4,0.6,0.6,1,0.6c0.2,0,0.3,0,0.5-0.1
		c0.3-0.2,0.7-0.3,1-0.5c0.5-0.3,0.7-1,0.4-1.6c0,0,0,0,0,0c1.8-1.3,3.4-3.2,4.8-4.9c0.2-0.2,0.4-0.5,0.7-0.7
		c0.2,0.3,0.5,0.4,0.9,0.4c0.2,0,0.4-0.1,0.6-0.2c0.3-0.2,0.5-0.4,0.8-0.5c0.5-0.3,0.7-1,0.4-1.5c1.5-0.9,3-1.9,3.7-3.4
		c0.4-0.8,0.5-1.7,0.7-2.7c0.1,0,0.1,0,0.2,0c0.5,0,1-0.4,1.1-0.9c0.1-0.3,0.1-0.6,0.2-0.8c0.2-0.5,0-1.1-0.5-1.4
		c1.7-2.2,2.7-4.7,2.7-7.2c0,0,0.1,0,0.1,0c0.6-0.1,1.1-0.6,1-1.2c0-0.4-0.1-0.7-0.2-1.1c-0.1-0.6-0.7-1-1.3-0.9c0,0,0,0-0.1,0
		c-0.8-2.6-2.4-4.6-4.4-6.4c0,0,0,0,0,0c0.4-0.5,0.3-1.2-0.2-1.6c-0.3-0.2-0.5-0.4-0.8-0.7c-0.5-0.4-1.2-0.3-1.6,0.2c0,0,0,0,0,0
		c-0.3-0.2-0.5-0.4-0.8-0.6c-1.6-1.1-1.9-3.6-3.2-4.9c-0.4-0.5-0.1-0.5,0.2-0.6c0,0,0,0.1,0.1,0.1c0.2,0.2,0.5,0.3,0.8,0.3
		c0.3,0,0.6-0.1,0.8-0.3c0.2-0.2,0.5-0.5,0.7-0.7c0.4-0.5,0.4-1.2,0-1.6c0,0,0,0,0,0c1-1.1,2-2.2,3-3.3c0.8-0.8,1.7-1.5,2.6-2.2
		c0.2,0.3,0.6,0.4,0.9,0.4c0.2,0,0.5-0.1,0.7-0.2l0.8-0.6c0.5-0.4,0.6-1.1,0.3-1.6c2.2-1.6,4.3-3.1,6-5c0,0,0,0,0,0
		c0.2,0.2,0.5,0.3,0.7,0.3c0.3,0,0.7-0.1,0.9-0.4l0.2-0.3c0.2-0.3,0.3-0.6,0.3-1c0-0.2,0-0.4-0.1-0.6
		C864,58.7,863.4,58.4,862.8,58.6z M844.3,80.4c-0.5,0.5-1.1,0.9-1.7,1.2c-0.1-0.2-0.2-0.4-0.4-0.5c0.2-0.1,0.5-0.2,0.8-0.3
		c0.2-0.1,0.3-0.2,0.5-0.4c0.4-0.5,0.3-1.2-0.2-1.6c-0.1-0.1-0.1-0.1-0.2-0.1c0.4-1,0.8-2.1,1-1.8C844.4,77.3,844.6,80.1,844.3,80.4
		z"/>
	<path class="st1" d="M1011.9,496.8C1011.9,496.8,1011.9,496.8,1011.9,496.8c-0.1,0.2-0.2,0.3-0.3,0.4c-0.5-0.8-0.5-2.2-0.8-1.9
		c-1.1,1.1-2.1,2.2-3.1,3.4c0,0,0,0,0,0c-0.5-0.4-1.2-0.4-1.6,0.1l-0.7,0.8c-0.4,0.5-0.4,1.2,0.1,1.6c0,0,0,0,0,0
		c-1.7,2-3.3,3.9-5,5.9c-0.5-0.4-1.2-0.4-1.6,0.1c-0.2,0.2-0.4,0.5-0.6,0.7c-0.4,0.5-0.4,1.2,0.1,1.6c-1.7,1.9-3.5,3.6-5.4,5.3
		c-0.1,0-0.1,0.1-0.2,0.1c-0.4-0.5-1.1-0.5-1.6-0.1c-0.2,0.2-0.5,0.4-0.8,0.6c-0.5,0.4-0.6,1.1-0.2,1.6c-0.6,0.5-1.3,0.9-2,1.3
		c-1.5,0.9-3.2,1.6-4.9,2.2c-0.2-0.6-0.8-0.9-1.4-0.7c-0.3,0.1-0.6,0.2-0.9,0.3c-0.6,0.2-0.9,0.8-0.8,1.4c-2.5,0.7-5,1.4-7.3,2.3
		c0,0,0,0,0,0c-0.2-0.6-0.9-0.8-1.5-0.6c-0.3,0.1-0.6,0.3-1,0.5c-0.1,0-0.2,0.1-0.2,0.1c-0.5,0.4-0.5,1.1-0.1,1.6
		c0.2,0.3,0.5,0.4,0.9,0.4c0,0,0.1,0,0.1,0c0.3,0.5,0.7,1.1,1,1.7c0.5,1,0.1,3.5,1.6,2.8c0.6-0.3,1.1-0.6,1.7-0.8c0,0,0,0,0,0
		c0.2,0.4,0.6,0.6,1,0.6c0.2,0,0.3,0,0.5-0.1l0.9-0.5c0.6-0.3,0.8-1,0.5-1.5c0,0,0,0,0,0c2.3-1.2,4.5-2.5,6.6-4c0,0,0,0,0,0
		c0.2,0.3,0.6,0.4,0.9,0.4c0.2,0,0.5-0.1,0.7-0.2c0.3-0.2,0.5-0.4,0.8-0.6c0.5-0.4,0.6-1.1,0.2-1.6c0,0,0,0,0,0
		c1.3-1.3,2.3-3.1,3.6-4.4c0.3,0,0.6,0,0.8-0.2c0.3-0.2,0.5-0.4,0.8-0.6c0,0,0,0,0,0c0.1,0.1,0.2,0.2,0.3,0.2c0,0,0.1,0.1,0.3,0.4
		c0.2,0.3,0.6,0.5,0.9,0.5c0.2,0,0.4-0.1,0.6-0.2c0,0,0,0,0,0c0.5,0.6,1.5,1.6,1.3,1.9c-1.3,1.3-3.1,1.8-4.6,2.7c0,0,0-0.1-0.1-0.1
		c-0.4-0.5-1.1-0.5-1.6-0.1l-0.1,0.1c-0.2,0.2-0.4,0.4-0.6,0.6c-0.4,0.5-0.4,1.2,0,1.6c0,0,0,0,0,0c-1.7,2-3,4.3-3.8,6.7
		c0,0,0,0,0,0c-0.6-0.2-1.2,0.2-1.4,0.8c-0.1,0.3-0.2,0.7-0.3,1c-0.1,0.6,0.2,1.2,0.9,1.3c0,0,0,0,0,0c-0.1,0.5-0.2,1.1-0.2,1.6
		c-0.2,2.2,0.6,4.7,1.4,7.1l-1.1,0.4l0.3,0.9c0.1,0.5,0.6,0.8,1.1,0.8c0.1,0,0.2,0,0.3,0c0.5,1.8,0.7,3.6,0.2,5.3
		c-0.1,0.4-1,0.8-2,1.1c0,0,0,0,0,0c-0.2-0.6-0.8-0.9-1.4-0.7c-0.6,0.2-1.4,0.5-1.6,1.3c0,0.1,0,0.2,0,0.2c0,0,0,0.1,0,0.1v0
		c0,0.6,0.5,1.1,1.1,1.1c0.1,0,0.2,0,0.3,0c0.7,1,2.6,0.4,4.5,0.6c1,0.1,2,0.2,3,0.3c0,0,0,0,0,0c-0.1,0.6,0.4,1.2,1,1.3
		c0.3,0,0.7,0.1,1,0.1c0,0,0.1,0,0.1,0c0.6,0,1.1-0.4,1.1-1c0,0,0,0,0,0c1.8,0,3.5-0.3,4.8-1.9c0.5-0.6,1-1.2,1.6-1.7
		c0.2,0.2,0.5,0.4,0.8,0.4c0.3,0,0.5-0.1,0.8-0.3l0.7-0.7c0.5-0.4,0.5-1.1,0.1-1.6c0,0,0,0,0,0c0.9-0.9,1.8-1.8,2.3-2.9
		c0.6-1.1,0.3-2.6,0.3-3.9c0,0,0.1,0,0.1,0c0.5,0,0.9-0.3,1.1-0.8c0.1-0.2,0.1-0.3,0.2-0.5l-0.9-0.7c1.9-2.2,3.6-5.1,3.9-7.8
		c0,0,0,0,0,0c0,0,0,0,0.1,0c0.6,0,1.1-0.6,1.1-1.2c0-0.4-0.1-0.8-0.1-1.1c-0.1-0.6-0.7-1-1.3-0.9c0,0-0.1,0-0.1,0
		c-0.8-2.3-2.2-4.6-4-6.6c0,0,0,0,0,0c0.4-0.4,0.4-1.2,0-1.6c-0.2-0.2-0.5-0.5-0.8-0.7c-0.5-0.4-1.2-0.4-1.6,0.1c0,0,0,0,0,0
		c-0.5-0.4-1-0.8-1.6-1.2c-1.6-1.1-2.9-2-4.2-3.3c-0.1-0.1-0.2-0.2-0.2-0.3c0.1,0,0.1,0,0.2,0c0.3,0,0.6-0.1,0.8-0.3
		c0.2-0.2,0.5-0.5,0.7-0.7c0.4-0.5,0.4-1.2-0.1-1.6c0,0,0,0,0,0c1.1-1.4,2-2.9,3.3-4.1c0.6-0.6,1.2-1.1,1.8-1.7
		c0.2,0.2,0.5,0.4,0.8,0.4c0.3,0,0.5-0.1,0.8-0.3l0.7-0.7c0.5-0.4,0.5-1.1,0.1-1.6c0,0,0,0,0,0c1.9-1.7,3.8-3.5,5.5-5.4c0,0,0,0,0,0
		c0.2,0.2,0.5,0.3,0.7,0.3c0.3,0,0.6-0.1,0.9-0.4c0.2-0.3,0.4-0.5,0.6-0.8c0,0,0,0,0,0c0.4-0.5,0.3-1.2-0.2-1.6
		C1013,496.2,1012.3,496.3,1011.9,496.8z M982.8,551.9L982.8,551.9C982.8,551.9,982.8,551.9,982.8,551.9L982.8,551.9z"/>
	<path class="st1" d="M860.4,668.3C860.3,668.2,860.3,668.2,860.4,668.3c-0.2-0.2-0.5-0.3-0.7-0.4c0.2-0.5,0.4-1,0.2-1.2
		c-1.3-2-3.3-2.4-5.4-2.4c0,0,0,0,0,0c0-0.6-0.6-1.1-1.2-1.1c-0.3,0-0.7,0-1,0.1c-0.6,0.1-1.1,0.6-1,1.2c0,0,0,0,0,0
		c-0.4,0-0.8,0.1-1.2,0.1c-1.3,0-2.6,1.5-3.8,1.5c-0.8,0-1.6-0.3-2.3-0.7c0,0,0,0,0,0c0.3-0.5,0.1-1.2-0.5-1.5
		c-0.3-0.2-0.6-0.3-1-0.5c-0.6-0.3-1.2,0-1.5,0.6c0,0,0,0.1,0,0.1c-0.1,0-0.1,0-0.2,0c-0.3-0.1-0.8,1.9-1.1,2
		c-0.8,0.3-1.7-1.4-2.4-1.4c-0.8,0-1.6,0-2.4,0.1c0,0,0,0,0,0c-0.1-0.6-0.6-1.1-1.3-1l-1,0.1c-0.6,0.1-1,0.6-1,1.2
		c-0.9,0.1-1.9,0.2-2.8,0.2c-0.4,0-1.1-0.4-1.5-0.2c-0.4,0.1-0.4,1.2-0.9,1.2c-0.6,0-1.2,0-1.8,0.1c0,0,0,0,0,0
		c-0.1-0.6-0.7-1-1.3-0.9c-0.3,0.1-0.7,0.1-1,0.2c-0.6,0.1-1,0.8-0.8,1.4c-1.1,0.3-2.3,0.7-3.4,1c-1,0.2-2.5,0.4-3.4,1
		c-0.2,0.1-0.4,0.2-0.5,0.4c-0.4-0.5-1.1-0.5-1.6-0.1c-0.3,0.2-0.5,0.5-0.8,0.8c-0.4,0.5-0.4,1.2,0.1,1.6c-1.2,1.6-2,3.5-1.5,5.4
		c0.2,0.9,0.8,1.2,1.6,1.2c0,0.1,0,0.1,0,0.2c0.2,0.5,0.6,0.8,1.1,0.8c0.1,0,0.2,0,0.3-0.1c0.4-0.1,0.8-0.3,1.1-0.5
		c0.5-0.3,0.7-1,0.5-1.5c0.8-0.2,1.8-0.2,2.6-0.4c1.2-0.4,2.6,1,3.8,0.8c0.9-0.1,0.5-0.6,0.8,0c-0.2,0.2-0.3,0.4-0.3,0.7
		c0,0.6,0.4,1.2,1,1.2c0,0,0.1,0,0.1,0c0,0,0,0,0,0c0.6,0,1.2-0.4,1.5-0.7c0.5-0.4,0.6-1.1,0.2-1.6c0,0-0.1-0.1-0.1-0.1
		c0,0,0,0,0.1,0c0.4-0.3,2.1,0.7,2.5,0.3c1-1,1.1-1.8,1.6-0.5c0.5,1.3,0.8,1.7,1.7,0.9c0.1,0.5,0.5,0.9,1,0.9l0.2,0
		c0.2,0,0.3,0,0.5,0h0c0,0,0,0,0,0c0.2,0,0.4,0,0.6-0.1c0.4-0.1,0.7-0.4,0.8-0.8c1,0.7,2.9,1,3.7,0.3c0.2-0.1-0.3-0.7-0.8-1.3
		c0.2-0.1,0.3-0.2,0.5-0.3c0,0,0,0,0,0c0.4,0,0.8-0.2,1-0.6c0.4,0.3,0.7,0.6,1.1,0.8c1.5,1.4,1.7,0.3,2.8-1.5c0.3-0.5,1.1-1,1.9-1.1
		c0,0.5,0.3,0.9,0.8,1.1c0.1,0,0.1,0.1,0.2,0.1c0,0.1,0.1,0.1,0.1,0.2c0.2,0.2,0.5,0.3,0.8,0.3c0.3,0,0.6-0.1,0.8-0.3
		c0.4-0.4,0.4-1.1,0-1.6c0.4-0.6,0.9-1.2,1.3-1.2c1.1,0,2.6,0.7,3.6,1.6c0.1,0.2,0.2,0.4,0.2,0.5c0.2,0.4,0.6,0.6,1,0.6
		c0.2,0,0.3,0,0.5-0.1c0.1,0,0.1-0.1,0.2-0.1c0.2,0.4,0.3,0.7,0.5,0.7c0.8,0.3,1.4-1.3,1.9-1.8c0.2,0.3,0.5,0.5,0.9,0.5
		c0.3,0,0.6-0.1,0.8-0.4c0.4-0.3,0.6-0.7,0.5-1.2c0-0.1-0.1-0.2-0.1-0.3c0-0.1-0.1-0.1-0.1-0.2c0.6-0.5,1.7-0.8,2.2-1.5
		c0.4,0,0.7-0.2,0.9-0.6c0.1-0.2,0.1-0.4,0.1-0.7c0-0.2,0-0.3,0-0.5C860.9,668.7,860.7,668.4,860.4,668.3z"/>
	<path class="st1" d="M776.9,651.8c-0.6-0.1-1.2,0.4-1.2,1c0,0.1,0,0.2,0,0.3c-0.2,0.1-0.4,0.2-0.5,0.3c-1.7,1.7-3.4,3.3-5.1,4.8
		c-0.4-0.5-1.1-0.5-1.6-0.1l-0.7,0.7c-0.5,0.4-0.5,1.1-0.1,1.6c-1.9,1.7-3.9,3.3-5.9,4.8c-0.4-0.5-1.1-0.6-1.6-0.2l-0.8,0.6
		c-0.5,0.4-0.6,1.1-0.2,1.6c0,0,0,0,0,0c-2,1.5-4.1,2.9-6.2,4.3c0,0,0,0,0,0c-0.3-0.5-1-0.7-1.6-0.3l-0.8,0.5
		c-0.5,0.3-0.7,1-0.4,1.6c0,0,0,0,0,0c-2.2,1.4-4.2,2.9-6.2,4.4c0,0,0,0,0,0c-0.4-0.5-1.1-0.6-1.6-0.2l-0.8,0.6
		c-0.5,0.4-0.6,1.1-0.2,1.6c0,0,0,0,0,0c-1.8,1.3-3.7,2.6-5.7,3.6c-0.3,0.1-0.4,0.4-0.4,0.7c0,0,0,0-0.1,0c-0.6,0.3-0.8,0.9-0.5,1.5
		c0,0.1,0.1,0.2,0.2,0.3c0.1,0.1,0.1,0.3,0.2,0.5c0.2,0.4,0.6,0.7,1.1,0.7c0.1,0,0.2,0,0.3-0.1c0.3,0.7,0.8,1.2,1.6,0.8
		c1.7-0.8,3.5-1.6,5.2-2.4c0.2,0.4,0.6,0.6,1,0.6c0.2,0,0.3,0,0.5-0.1c0.3-0.1,0.6-0.3,0.9-0.4c0.6-0.3,0.8-0.9,0.5-1.5
		c2-1,3.9-2.1,5.6-3.5c0.3-0.2,0.5-0.5,0.7-0.8c0,0,0,0,0.1,0.1c0.2,0.1,0.4,0.2,0.6,0.2c0.4,0,0.7-0.2,1-0.5
		c0.2-0.3,0.4-0.6,0.5-0.9c0.3-0.5,0.1-1.2-0.5-1.5c0,0,0,0-0.1,0c0.9-1.7,1.7-3.4,3.3-4c0.2,0,0.1,0.4,0,1c-0.5,0.1-0.8,0.5-0.9,1
		c0,0.3-0.1,0.5-0.1,0.6c-0.1,0.2-0.1,0.5-0.1,0.7c-0.5,1.5-0.8,3.2-1.8,4.2c-0.2,0.2-0.4,0.4-0.5,0.6c0,0,0,0-0.1-0.1
		c-0.6-0.3-1.2-0.1-1.5,0.5c-0.2,0.3-0.3,0.7-0.5,1c-0.2,0.6,0.1,1.2,0.7,1.4c0,0,0,0,0,0c-0.5,2.4-0.1,5.1,0,7.6
		c-0.6,0.1-1,0.5-1,1.1c0,0.3,0,0.6,0,0.9l1,0.1c0,0,0,0.1,0,0.1c-0.2,2.8-1.2,5.6-2.2,8.3c-0.6-0.2-1.2,0.1-1.4,0.7l-0.4,0.9
		c-0.2,0.6,0.1,1.2,0.6,1.4c-0.2,0.7-0.5,1.4-0.7,2.1c-0.2,0.9,2.8,2.3,2.7,2.8c0,0.1,0,0.2,0,0.3c-0.6,0-1.1,0.5-1.1,1.1
		c0,0.4,0.2,0.7,0.5,0.9c0.1,0.5,0.5,0.8,1.1,0.8h0.5c0.5,0,1-0.4,1.1-0.9c2.8,0.2,5.3,0.3,7.5-1.4c0,0,0,0.1,0.1,0.1
		c0.2,0.2,0.5,0.3,0.8,0.3c0.3,0,0.6-0.1,0.8-0.4c0.1-0.1,0.3-0.3,0.4-0.4c0.1-0.1,0.2-0.3,0.3-0.4c0.4-0.5,0.3-1.2-0.2-1.6
		c0,0-0.1,0-0.1,0c1.2-1.9,1.9-4,2.9-6.2c0.1-0.2,0.3-0.4,0.4-0.6c0.2,0.2,0.5,0.4,0.8,0.4c0.2,0,0.5-0.1,0.7-0.2
		c0.2-0.2,0.5-0.3,0.7-0.5c0.5-0.3,0.7-1,0.4-1.5c0.6-0.4,1.3-0.8,1.7-1.4c1-1.3,2.1-2.9,2.8-4.6c0,0,0,0,0.1,0
		c0.1,0,0.3,0.1,0.4,0.1c0.5,0,0.9-0.3,1.1-0.7c0.1-0.3,0.2-0.7,0.3-1c0.2-0.6-0.2-1.2-0.8-1.4c0,0-0.1,0-0.1,0
		c0.2-1.2,0.2-2.4-0.1-3.5c-0.4-1.3-1.2-2.3-2.3-3.1c0,0,0.1-0.1,0.1-0.1c0.3-0.5,0.2-1.2-0.3-1.6c-0.3-0.2-0.6-0.4-0.9-0.5
		c-0.5-0.3-1.2-0.1-1.5,0.4c0,0,0,0.1-0.1,0.2c-1.8-0.9-3.7-1.8-5.3-2.8c-0.4-0.3-0.7-0.8-1-1.4c0,0,0,0,0.1,0
		c0.6-0.2,0.9-0.8,0.8-1.4c-0.1-0.2-0.1-0.4-0.2-0.6l-0.1-0.3c-0.2-0.6-0.8-0.9-1.4-0.8c-0.1,0-0.1,0.1-0.1,0.1
		c-0.2-0.5-0.4-1-0.7-1.3c-0.5-0.7-0.9-2.5-0.6-2.8c0.8-0.7,1.8-1.1,2.9-1.4c0.2,0.4,0.6,0.7,1,0.7c0.1,0,0.2,0,0.4-0.1
		c0.3-0.1,0.7-0.2,1-0.4c0.6-0.2,0.9-0.9,0.6-1.5c0,0,0,0,0,0c0.3-0.2,0.7-0.4,0.9-0.7c1.5-1.5,3-3.1,4.4-4.8c0,0,0,0,0,0
		c0.2,0.2,0.5,0.3,0.7,0.3c0.3,0,0.6-0.1,0.9-0.4l0.6-0.8c0.4-0.5,0.3-1.2-0.2-1.6c0,0,0,0,0,0c1.2-1.5,2.5-3.1,3.7-4.6
		c0.3-0.4,0.6-0.9,0.7-1.3c0.2-0.1,0.4-0.2,0.5-0.4c0.4-0.5,0.2-1.2-0.3-1.6C777.9,652,777.4,651.8,776.9,651.8z"/>
	<path class="st1" d="M730.8,73.1L730.8,73.1c0-0.1,0-0.2,0-0.3c0-0.1,0-0.2,0-0.3c0-0.2,0-0.4-0.1-0.5c0-0.1,0-0.2-0.1-0.4
		c0-0.1,0-0.3-0.1-0.4c0-0.1,0-0.1,0-0.2c0.1-0.2,0.1-0.5,0.1-0.6c0-0.1,0-0.2,0-0.2v0c0,0,0,0,0,0c0-0.1,0-0.3-0.1-0.4
		c0,0,0,0,0-0.1c0,0,0-0.1,0-0.2c-0.1-0.2-0.2-0.4-0.4-0.6c0,0,0-0.1,0-0.1c0-0.1,0-0.2,0-0.3c0-0.2,0-0.4,0-0.6v0
		c0-0.1,0-0.3-0.1-0.4c0,0,0,0,0,0c-0.1-0.1-0.1-0.2-0.2-0.3c-0.1-0.1-0.3-0.2-0.5-0.3c0-0.2-0.1-0.4-0.3-0.5h0
		c-0.2-0.2-0.5-0.4-1-0.4c-0.1,0-0.3,0-0.5,0.1c0,0-0.1,0-0.1,0c-0.2-0.2-0.5-0.3-0.7-0.3c-0.2-0.3-0.6-0.5-0.9-0.5h0
		c-0.4,0-0.8,0-1.3,0.2c-0.5,0.1-0.8,0.6-0.8,1.1c0,0.1,0,0.2,0,0.3c0,0,0,0,0,0.1c-0.5,0.2-1,0.4-1.6,0.7c-0.2,0.1-0.3,0.2-0.4,0.3
		c-0.1-0.1-0.2-0.2-0.3-0.2c-0.3-0.2-0.8-0.2-1.1-0.1l-0.3,0.2c-0.1,0-0.2,0.1-0.3,0.2c-0.1,0.1-0.2,0.1-0.3,0.2
		c-0.1,0.1-0.1,0.2-0.2,0.2c0,0,0,0,0,0c-0.2,0.1-0.3,0.2-0.4,0.4c0,0,0,0,0,0l0.1,0l-0.1,0c0,0,0,0,0,0v0c0,0,0,0,0,0c0,0,0,0,0,0
		c0,0.1,0,0.1-0.1,0.2c-0.3,0.1-0.5,0.3-0.7,0.5c-0.1,0.1-0.2,0.2-0.2,0.2c0,0,0,0,0,0c0,0,0,0,0,0c-0.1,0.1-0.2,0.3-0.3,0.4l0,0
		c-0.4,0.1-0.7,0.5-0.8,0.9c0,0,0,0,0,0c0,0.1-0.1,0.2-0.1,0.5c0,0,0,0.1-0.1,0.2c-0.1,0.1-0.1,0.3-0.1,0.5c0,0.2,0,0.3,0.1,0.5
		c-0.3,0.5-0.2,1.2,0.2,1.5c0,0.1-0.1,0.2-0.1,0.4c-0.1,0-0.1-0.1-0.2-0.1c-0.6-0.1-1.2,0.2-1.4,0.9c0,0.2,0,0.3,0,0.4c0,0,0,0,0,0
		v0.3c0,0.1-0.1,0.3-0.1,0.5c0,0.2,0,0.4,0.1,0.5l0,0c0.2,0.4,0.6,0.6,1,0.6c0.1,0,0.2,0,0.4-0.1c0,0,0,0.1,0,0.1
		c0,0.2,0.1,0.2,0.2,0.3c0.2,0.2,0.4,0.3,0.5,0.5c0.1,0.1,0.2,0.3,0.2,0.4c0,0.2,0.2,0.2,0.2,0.4c0,0.1,0.1,0.1,0.1,0.1
		c0.3,0.1,0.6,0.1,0.9,0.3c0.1,0.1,0.2,0.1,0.3,0.2c0.1,0.1,0.1,0.1,0.2,0.2c0.1,0.1,0.2,0.1,0.2,0.2c0,0.2,0.1,0.5,0.1,0.7
		c0.1,0.2,0.2,0.3,0.4,0.3c0.1,0,0.1,0,0.2,0.1c0.1,0.1,0.2,0.2,0.3,0.2s0.3-0.1,0.5-0.1s0.5,0,0.7,0c0.2,0,0.4,0,0.5,0.1
		c0,0.1,0,0.2,0,0.2c0,0.6,0.5,1.1,1.1,1.1c0,0,0,0,0.1,0c0.1,0,0.3,0.1,0.5,0.1h0c0.1,0,0.3,0,0.5,0c0.6,0,1.1-0.5,1.1-1.1
		c0,0,0,0,0-0.1c0-0.1,0-0.1,0-0.1c0.3-0.1,0.6-0.2,1-0.4c0.3-0.2,0.7-0.3,0.9-0.6c0.3-0.3,0.6-0.7,0.9-1.1c0.5-0.7,0.9-1.5,1.3-2.3
		c0.3,0,0.6-0.1,0.8-0.3h0c0,0,0,0,0,0c0,0,0.1-0.1,0.3-0.4c0.1-0.3,0.1-0.5,0.1-0.6v0c0,0,0,0,0,0c0,0,0,0,0,0c0-0.1,0-0.1,0-0.2
		c0.4-0.1,0.6-0.5,0.7-0.8c0.1-0.4,0.1-0.7,0.2-1.1c0,0,0-0.1,0-0.1c0-0.3-0.1-0.5-0.3-0.7C730.8,73.2,730.8,73.1,730.8,73.1z
		 M725.8,69.3C725.8,69.3,725.8,69.3,725.8,69.3c-0.1,0.1-0.1,0.2-0.2,0.3c-0.1,0.1-0.1,0.1-0.2,0.2c0,0-0.1-0.1-0.1-0.1
		c0,0,0,0,0,0c0,0,0.1-0.1,0.2-0.2C725.6,69.4,725.7,69.3,725.8,69.3C725.8,69.3,725.8,69.3,725.8,69.3z"/>
	<path class="st1" d="M955.2,183.2v0.3c0,0.1-0.1,0.3-0.1,0.5c0,0.2,0,0.3,0.1,0.5l0,0c0.2,0.4,0.6,0.6,1,0.6c0.1,0,0.2,0,0.4-0.1
		c0,0,0,0.1,0,0.1c0,0.2,0.1,0.2,0.2,0.3c0.2,0.2,0.4,0.3,0.5,0.5c0.1,0.1,0.2,0.3,0.2,0.4c0,0.2,0.2,0.2,0.2,0.4
		c0,0.1,0.1,0.1,0.1,0.1c0.3,0.1,0.6,0.1,0.9,0.3c0.1,0.1,0.2,0.1,0.3,0.2c0.1,0.1,0.1,0.1,0.2,0.2c0.1,0.1,0.2,0.1,0.2,0.2
		c0,0.2,0.1,0.5,0.1,0.7c0.1,0.2,0.2,0.3,0.4,0.3c0.1,0,0.1,0,0.2,0.1s0.2,0.2,0.3,0.2s0.3-0.1,0.5-0.1s0.5,0,0.7,0
		c0.2,0,0.4,0,0.5,0.1c0,0.1,0,0.2,0,0.2c0,0.6,0.5,1.1,1.1,1.1l0.1,0c0.1,0,0.3,0.1,0.5,0.1h0c0.1,0,0.3,0,0.5,0
		c0.6,0,1.1-0.5,1.1-1.1c0,0,0,0,0-0.1c0-0.1,0-0.1,0-0.1c0.3-0.1,0.6-0.2,1-0.4c0.3-0.2,0.7-0.3,0.9-0.6c0.3-0.3,0.6-0.7,0.9-1.1
		c0.5-0.7,0.9-1.5,1.3-2.3c0.3,0,0.6-0.1,0.8-0.3c0,0,0,0,0,0c0,0,0,0,0,0c0-0.1,0.1-0.1,0.3-0.4c0.1-0.3,0.1-0.5,0.1-0.6
		c0,0,0,0,0,0v0c0-0.1,0-0.2,0-0.2c0.4-0.1,0.6-0.5,0.7-0.8c0.1-0.4,0.1-0.7,0.2-1.1c0,0,0-0.1,0-0.1c0-0.3-0.1-0.5-0.3-0.7
		c0,0,0,0,0,0c0,0,0,0,0,0c0,0,0,0,0,0v-0.1c0-0.1,0-0.2,0-0.3c0-0.1,0-0.2,0-0.4c0-0.2,0-0.4-0.1-0.6c0-0.1,0-0.1-0.1-0.2
		c0-0.1,0-0.3-0.1-0.4c0-0.1,0-0.2-0.1-0.3c0.1-0.2,0.1-0.3,0.1-0.4c0-0.1,0-0.2,0-0.2v0c0,0,0,0,0,0c0-0.1,0-0.3-0.1-0.4
		c0,0,0,0,0-0.1c0,0,0-0.1,0-0.2c-0.1-0.2-0.2-0.4-0.3-0.6c0,0,0,0,0,0c0-0.2,0-0.4-0.1-0.6c0,0,0-0.1,0-0.1c0-0.1,0-0.2,0-0.3
		c0-0.3-0.1-0.6-0.3-0.8c-0.1-0.1-0.2-0.1-0.2-0.2c0,0-0.1,0-0.1-0.1c0-0.2-0.2-0.4-0.3-0.6v0c-0.1-0.1-0.4-0.4-0.9-0.4
		c-0.2,0-0.3,0-0.5,0.1c0,0-0.1,0-0.1,0c-0.2-0.2-0.5-0.3-0.7-0.3c-0.2-0.3-0.6-0.5-0.9-0.5h0c-0.4,0-0.8,0-1.3,0.2
		c-0.5,0.1-0.8,0.6-0.8,1.1c0,0.1,0,0.2,0,0.3c0,0,0,0,0,0.1c-0.5,0.2-1,0.4-1.6,0.7c-0.2,0.1-0.3,0.2-0.5,0.3
		c-0.1-0.1-0.2-0.3-0.3-0.3c-0.3-0.2-0.8-0.2-1.1,0l-0.2,0.1c0,0,0,0-0.1,0c-0.1,0.1-0.2,0.1-0.3,0.2c0,0,0,0,0,0l0,0c0,0,0,0,0,0
		c0,0,0,0,0,0l0,0c0,0,0,0,0,0c0,0,0,0,0,0l0,0c-0.1,0.1-0.1,0.2-0.2,0.2l-0.2,0.2c0,0-0.1,0.1-0.1,0.1c0,0,0,0.1-0.1,0.1l0,0
		c0,0,0,0,0,0c-0.2,0.2-0.3,0.4-0.3,0.6c-0.3,0.1-0.5,0.3-0.7,0.5c-0.1,0.1-0.2,0.2-0.2,0.2c0,0,0,0,0,0c0,0,0,0,0,0
		c-0.1,0.1-0.2,0.3-0.3,0.4l0,0c-0.4,0.1-0.7,0.4-0.8,0.8c0,0,0,0,0,0s0,0,0,0c0,0,0,0,0,0c0,0,0,0,0,0c0,0.1-0.1,0.2-0.1,0.4
		c0,0,0,0.1-0.1,0.2c-0.1,0.2-0.1,0.3-0.1,0.5c0,0.1,0,0.3,0.1,0.4h0v0l0,0c0,0,0,0,0,0v0c0,0,0,0,0,0l0,0c0,0,0,0,0,0
		c0,0.1-0.1,0.2-0.1,0.3v0c0,0,0,0,0,0c0,0,0,0,0,0c0,0,0,0,0,0h0.1l-0.1,0v0l0,0c0,0,0,0,0,0v0.1c0,0.3,0.1,0.6,0.3,0.8
		c0,0,0.1,0.1,0.1,0.1c0,0.1-0.1,0.3-0.1,0.4c-0.1,0-0.1-0.1-0.2-0.1c-0.6-0.1-1.2,0.2-1.3,0.8C955.2,183,955.2,183.1,955.2,183.2z
		 M965.9,176.8c-0.1,0.1-0.1,0.1-0.2,0.2c0,0-0.1-0.1-0.1-0.1c0,0,0,0,0,0v0c0,0,0,0,0,0c0,0,0,0,0.1-0.1c0.1,0,0.2-0.1,0.3-0.1
		C966,176.7,965.9,176.8,965.9,176.8z"/>
	<path class="st1" d="M1023.2,416.5c-0.6-0.1-1.2,0.2-1.4,0.8c0,0.2,0,0.3,0,0.4v0.3c0,0.1-0.1,0.3-0.1,0.5c0,0.2,0,0.3,0.1,0.5l0,0
		c0.2,0.4,0.6,0.6,1,0.6c0.1,0,0.2,0,0.4-0.1c0,0,0,0.1,0,0.1c0,0.2,0.1,0.2,0.2,0.3c0.2,0.2,0.4,0.3,0.5,0.5
		c0.1,0.1,0.2,0.3,0.2,0.4c0,0.2,0.2,0.2,0.2,0.4c0,0.1,0.1,0.1,0.1,0.1c0.3,0.1,0.6,0.1,0.9,0.3c0.1,0.1,0.2,0.1,0.3,0.2
		c0.1,0.1,0.1,0.1,0.2,0.2c0.1,0.1,0.2,0.1,0.2,0.2c0,0.2,0.1,0.5,0.1,0.7c0.1,0.2,0.2,0.3,0.4,0.3c0.1,0,0.1,0,0.2,0.1
		c0.1,0.1,0.2,0.2,0.3,0.2s0.3-0.1,0.5-0.1s0.5,0,0.7,0c0.2,0,0.4,0,0.5,0.1c0,0.1,0,0.2,0,0.2c0,0.6,0.5,1.1,1.1,1.1c0,0,0,0,0,0h0
		c0.1,0,0.3,0.1,0.5,0.1c0.1,0,0.3,0,0.5,0c0.6,0,1.1-0.5,1.1-1.1c0,0,0,0,0-0.1c0-0.1,0-0.1,0-0.1c0.3-0.1,0.6-0.2,0.9-0.4
		c0.3-0.2,0.7-0.3,0.9-0.6c0.3-0.3,0.6-0.7,0.9-1.1c0.5-0.7,0.9-1.5,1.3-2.3c0.3,0,0.6-0.1,0.8-0.3c0,0,0,0,0,0l0,0
		c0-0.1,0.1-0.1,0.3-0.4c0.1-0.3,0.1-0.5,0.1-0.6c0,0,0,0,0,0v0c0-0.1,0-0.2,0-0.2c0.4-0.1,0.6-0.5,0.7-0.8c0.1-0.3,0.1-0.7,0.2-1.1
		c0,0,0-0.1,0-0.1c0-0.2-0.1-0.4-0.2-0.6c0,0,0-0.1,0-0.2v0c0,0,0,0,0,0c0,0,0,0,0,0l0,0c0,0,0,0,0,0v-0.1c0-0.2,0-0.3-0.1-0.5
		c0-0.1,0-0.1,0-0.2c0-0.2,0-0.4-0.1-0.6c0-0.1,0-0.1-0.1-0.2c0-0.1,0-0.3-0.1-0.4c0-0.1,0-0.1,0-0.2c0.1-0.2,0.1-0.5,0.1-0.6
		c0-0.1,0-0.2,0-0.2v0c0,0,0,0,0,0c0-0.2,0-0.3-0.1-0.4l0-0.1c0,0,0-0.1,0-0.2c-0.1-0.2-0.2-0.5-0.4-0.6l0,0c0-0.1,0-0.1,0-0.2
		c0-0.2-0.1-0.4-0.1-0.5c0-0.1,0-0.2,0-0.3c0-0.3-0.1-0.6-0.3-0.8c-0.1-0.1-0.3-0.2-0.5-0.3c-0.1-0.2-0.2-0.4-0.3-0.5
		c-0.2-0.2-0.5-0.4-0.9-0.4h0c-0.2,0-0.3,0-0.5,0.1c0,0-0.1,0-0.1,0c-0.2-0.2-0.5-0.3-0.7-0.3c-0.2-0.3-0.6-0.5-0.9-0.5h0
		c-0.4,0-0.8,0-1.3,0.2c-0.5,0.1-0.8,0.6-0.8,1.1c0,0.1,0,0.2,0,0.3c0,0,0,0,0,0.1c-0.5,0.2-1,0.4-1.6,0.7c-0.1,0.1-0.3,0.2-0.4,0.2
		c-0.1-0.1-0.2-0.2-0.3-0.3c-0.3-0.2-0.8-0.2-1.1-0.1l-0.3,0.2c0,0,0,0,0,0l0,0c-0.1,0.1-0.2,0.1-0.3,0.2c0,0-0.1,0.1-0.1,0.2
		c-0.1,0.1-0.3,0.2-0.3,0.4c-0.3,0.2-0.5,0.5-0.6,0.8c-0.3,0.1-0.5,0.3-0.7,0.5c-0.1,0.1-0.2,0.2-0.2,0.3c0,0,0,0,0,0c0,0,0,0,0,0
		c-0.1,0.1-0.2,0.3-0.3,0.4c0,0,0,0,0,0c-0.4,0.1-0.7,0.4-0.8,0.9c0,0,0,0,0,0c0,0,0,0,0,0c0,0.1-0.1,0.2-0.1,0.5c0,0,0,0.1-0.1,0.2
		c-0.1,0.2-0.1,0.3-0.1,0.5c0,0.1,0,0.3,0.1,0.4c0,0.1-0.1,0.1-0.1,0.2l0,0v0l0,0v0c0,0.1,0,0.2,0,0.3c0,0,0,0,0,0v0.1
		c0,0.3,0.1,0.6,0.3,0.8c0,0,0.1,0.1,0.1,0.1c0,0.1-0.1,0.3-0.2,0.4C1023.3,416.5,1023.3,416.5,1023.2,416.5z M1032.8,410.9
		C1032.8,410.9,1032.8,410.9,1032.8,410.9c0,0.1-0.1,0.1-0.1,0.1c-0.1,0.1-0.1,0.2-0.2,0.3c-0.1,0.1-0.1,0.1-0.2,0.2c0,0,0,0-0.1,0
		c0,0,0,0,0,0l0,0c0,0,0,0,0,0c0,0,0.1-0.1,0.2-0.3C1032.6,411,1032.7,411,1032.8,410.9C1032.8,410.9,1032.8,410.9,1032.8,410.9z"/>
	<path class="st1" d="M899.7,644.5c0-0.1,0-0.2,0-0.3c0-0.1,0-0.2,0-0.4c0-0.2,0-0.4-0.1-0.6c0-0.1,0-0.1-0.1-0.2
		c0-0.1-0.1-0.3-0.1-0.4c0-0.1,0-0.3-0.1-0.4c0.1-0.2,0.1-0.3,0.1-0.4c0-0.1,0-0.2,0-0.2v0c0,0,0,0,0,0c0-0.1,0-0.3-0.1-0.4
		c0,0,0-0.1,0-0.2c-0.1-0.2-0.2-0.5-0.4-0.6c0-0.1,0-0.2,0-0.3c0-0.2,0-0.4,0-0.6v0c0-0.4-0.2-0.8-0.6-1c0,0-0.1-0.1-0.1-0.1
		c0-0.2-0.2-0.4-0.3-0.5c-0.1-0.1-0.5-0.4-1-0.4h0c-0.2,0-0.3,0-0.5,0.1c0,0-0.1,0-0.1,0c-0.2-0.2-0.4-0.3-0.7-0.3
		c-0.2-0.4-0.6-0.6-1-0.6h0c-0.4,0-0.8,0-1.3,0.2c-0.5,0.1-0.8,0.6-0.8,1.1c0,0.1,0,0.2,0,0.3c0,0,0,0,0,0.1c-0.5,0.2-1,0.4-1.6,0.7
		c-0.2,0.1-0.4,0.2-0.5,0.3c-0.1-0.1-0.2-0.2-0.3-0.3c-0.3-0.2-0.8-0.2-1.1,0l-0.3,0.1c0,0,0,0-0.1,0c-0.3,0.1-0.5,0.3-0.6,0.6
		c0,0,0,0-0.1,0.1c0,0-0.1,0.1-0.1,0.1c0,0-0.1,0.1-0.1,0.1c-0.2,0.2-0.4,0.4-0.4,0.7c-0.4,0.1-0.6,0.4-0.7,0.5
		c-0.1,0.1-0.2,0.2-0.2,0.2c0,0,0,0,0,0c0,0,0,0,0,0c-0.1,0.1-0.2,0.3-0.3,0.5c-0.4,0.1-0.7,0.4-0.8,0.8v0c0,0,0,0,0,0c0,0,0,0,0,0
		c0,0.1-0.1,0.2-0.1,0.4c0,0,0,0.1-0.1,0.2c-0.1,0.2-0.1,0.3-0.1,0.5c0,0.2,0,0.3,0.1,0.5c-0.3,0.5-0.2,1.2,0.2,1.5c0,0,0,0,0,0
		c0,0.1-0.1,0.2-0.1,0.4c-0.1,0-0.1-0.1-0.2-0.1c-0.6-0.1-1.2,0.2-1.4,0.8c0,0.2,0,0.3,0,0.4v0.3c0,0.1-0.1,0.3-0.1,0.5
		c0,0.2,0,0.4,0.1,0.5l0,0c0.2,0.4,0.6,0.6,1,0.6c0.1,0,0.2,0,0.4-0.1c0,0,0,0.1,0,0.1c0,0.2,0.1,0.2,0.2,0.3
		c0.2,0.2,0.4,0.3,0.5,0.5c0.1,0.1,0.2,0.3,0.2,0.4c0,0.2,0.2,0.2,0.2,0.4c0,0.1,0.1,0.1,0.1,0.1c0.3,0.1,0.6,0.1,0.9,0.3
		c0.1,0.1,0.2,0.1,0.3,0.2c0.1,0.1,0.1,0.1,0.2,0.2c0.1,0.1,0.2,0.1,0.2,0.2c0,0.2,0.1,0.5,0.1,0.7c0.1,0.2,0.2,0.3,0.4,0.3
		c0.1,0,0.1,0,0.2,0.1c0.1,0.1,0.2,0.2,0.3,0.2s0.3-0.1,0.5-0.1s0.5,0,0.7,0c0.2,0,0.4,0,0.5,0.1c0,0.1,0,0.1,0,0.2
		c0,0.6,0.5,1.1,1.1,1.1l0.1,0c0.1,0,0.3,0.1,0.5,0.1h0.1c0.1,0,0.3,0,0.4,0c0.6,0,1.1-0.5,1.1-1.1c0,0,0,0,0-0.1c0-0.1,0-0.1,0-0.1
		c0.3-0.1,0.6-0.2,0.9-0.4c0.3-0.2,0.7-0.3,0.9-0.6c0.3-0.3,0.6-0.7,0.9-1.1c0.5-0.7,0.9-1.4,1.2-2.2c0.3,0,0.6-0.1,0.9-0.3
		c0,0,0,0,0,0c0,0,0,0,0,0c0,0,0.1-0.1,0.3-0.3c0.1-0.3,0.1-0.5,0.1-0.6h0c0,0,0,0,0,0c0-0.1,0-0.2,0-0.3c0.4-0.1,0.7-0.5,0.7-0.8
		c0.1-0.4,0.1-0.7,0.2-1.1c0,0,0-0.1,0-0.1c0-0.3-0.1-0.5-0.3-0.7C899.7,644.6,899.7,644.5,899.7,644.5z M894.8,640.6
		C894.8,640.7,894.7,640.7,894.8,640.6c-0.2,0.2-0.2,0.3-0.3,0.4c-0.1,0.1-0.1,0.1-0.2,0.2c0,0-0.1-0.1-0.1-0.1l0,0
		c0,0,0.1-0.1,0.2-0.2C894.5,640.8,894.7,640.7,894.8,640.6C894.8,640.6,894.8,640.6,894.8,640.6z"/>
</g>
</svg>
