<svg width="107" height="99" viewBox="0 0 107 99" fill="none" xmlns="http://www.w3.org/2000/svg">
<path d="M80.2004 47.8287C80.2018 47.8294 80.2034 47.8287 80.2039 47.8272C80.9807 45.5056 83.3803 44.208 85.7413 44.7736C86.0385 44.8455 86.37 44.7759 86.704 44.7147C86.8938 44.68 87.0325 44.838 87.0402 45.0308V45.0308V45.0308C87.0651 46.0768 88.2186 46.9654 89.1321 46.4551C89.3205 46.3499 89.4872 46.2258 89.6207 46.0724C90.0943 45.5299 90.2651 44.7249 90.4854 43.8957C90.5955 43.4812 90.3647 43.0402 89.9528 42.9205C89.8272 42.8839 89.7051 42.8485 89.5838 42.8132C89.3192 42.7363 89.0678 42.3048 89.325 42.2059V42.2059C91.9784 41.2114 94.6147 40.1654 97.311 39.3124C97.9625 39.1066 99.1114 39.2824 99.5315 39.7411C100.563 40.8672 101.173 40.3967 101.911 39.6757C102.116 39.4754 102.088 39.1425 101.83 39.0184V39.0184C101.472 38.8466 101.51 38.2862 101.898 38.2006C102.656 38.0333 103.348 37.8879 104.041 37.8935C104.257 37.8949 104.473 37.9531 104.688 38.041C105.408 38.3352 105.815 39.5014 105.16 39.9211V39.9211C105.026 40.0052 104.852 40.0246 104.648 40.0461C104.188 40.0945 104.038 40.5466 104.418 40.8105V40.8105C104.857 41.116 104.829 41.8598 104.312 41.9951C104.238 42.0142 104.165 42.0333 104.092 42.0525C103.667 42.1635 103.451 42.6217 103.498 43.0577C103.634 44.2978 102.821 45.1776 101.748 45.9267C100.269 46.9598 99.4114 48.7044 97.191 48.9702C96.1622 49.0945 95.3948 50.9506 94.3961 51.898C89.1749 56.8576 83.9281 61.783 78.6726 66.704C77.4038 67.8915 76.2078 69.2375 74.7375 70.1034C74.1321 70.4596 73.5079 70.7837 72.8731 71.0886C70.5986 72.1811 68.3314 75.5137 67.1159 77.725V77.725C66.1256 79.5254 64.7968 81.1629 63.4851 82.7661C59.7686 87.3099 55.2762 90.9407 50.0893 93.667C47.1915 95.1931 44.2509 96.672 41.1988 97.8465C40.0328 98.2923 38.5154 97.8465 37.1608 97.7436C36.9379 97.7265 36.5521 97.4007 36.5521 97.2164C36.5453 95.5943 35.8747 93.9315 36.3802 92.2755C36.5051 91.8664 36.974 92.0362 36.9502 92.4633V92.4633C36.9396 92.6544 37.058 92.8041 37.2397 92.864C39.2235 93.5177 39.9589 93.1006 40.5387 91.1979C42.1719 85.8311 43.8222 80.4685 45.4254 75.0887C45.5749 74.5871 45.5353 74.0324 45.547 73.324C45.5502 73.1252 45.3198 73.0011 45.1454 73.0966V73.0966C44.8927 73.2348 44.6614 72.9031 44.859 72.6935C45.0464 72.4947 45.2162 72.3148 45.382 72.1398C45.4673 72.0498 45.4699 71.9096 45.3882 71.8164V71.8164C45.3108 71.7283 45.181 71.7092 45.0815 71.7713C44.9034 71.8824 44.7283 71.9916 44.5662 72.0924C44.2089 72.3148 43.7487 72.274 43.4342 71.9943C43.2316 71.8141 43.0312 71.6359 42.8325 71.4592C41.9777 70.699 40.6648 70.7878 39.9213 71.657C39.7641 71.8407 39.607 72.0244 39.4499 72.2081V72.2081C39.4556 72.1996 39.4688 72.2029 39.4696 72.2132C39.5075 72.6933 39.4534 73.2119 39.617 73.6484C39.9837 74.6105 40.0273 75.419 39.5486 75.992C39.1876 76.4242 38.532 76.275 38.1221 75.8888C37.6427 75.4372 37.2018 75.0206 36.7616 74.6066C36.7491 74.5948 36.7515 74.5743 36.7664 74.5658V74.5658C31.2838 76.7477 25.8398 79.0324 20.3014 81.0686C17.7723 81.9988 15.0589 82.6847 12.4912 80.9014C12.324 80.7857 12.0025 80.7085 11.8439 80.7942C10.0349 81.7545 9.12615 80.417 8.06734 79.3797C7.16715 78.5009 6.10406 77.7679 5.30246 76.812C4.5523 75.916 3.93073 74.8701 3.47206 73.7942C1.54736 69.2546 0.870071 64.325 1.0201 59.5711C1.23015 52.9225 3.6521 46.9212 10.1121 43.569C11.0895 43.0609 12.1976 42.7997 13.3145 42.4745C13.7108 42.3592 14.0475 41.8586 13.7686 41.5543V41.5543C10.9137 38.4122 11.4924 34.9229 12.8727 31.4507C14.3644 27.6913 16.2334 24.0691 17.558 20.254C18.4967 17.5534 18.7754 14.6299 19.4141 11.8179C19.9714 9.37019 20.5758 6.92681 21.2616 4.51342C21.5274 3.58322 22.2947 3.3346 23.2163 3.76755C23.313 3.81282 23.411 3.85487 23.5137 3.8907C24.0477 4.07693 24.2676 3.45207 23.9579 2.97881V2.97881V2.97881C23.7005 2.58232 24.156 1.97064 24.579 2.1818C24.6261 2.20531 24.6707 2.23211 24.7124 2.26294C24.9192 2.41658 25.0953 2.61186 25.2613 2.82132C25.6443 3.30436 25.8319 3.9132 25.9481 4.51859C26.1773 5.71294 26.728 6.35657 27.5497 6.35497C28.3005 6.35351 28.343 5.35731 27.7305 4.92312C27.3735 4.67004 27.0214 4.42014 26.6716 4.17168C26.3395 3.9357 26.338 3.44323 26.7354 3.35353V3.35353C27.1074 3.26958 27.3345 2.77795 27.0521 2.52181C26.906 2.38935 26.7662 2.26259 26.6303 2.13943C26.2239 1.77115 26.3301 1.10709 26.8735 1.03222C28.5492 0.801313 30.3081 1.81104 32.0542 4.07656C32.4565 4.59852 31.8839 5.20829 31.3339 4.84535V4.84535C31.016 4.63559 30.5458 4.73739 30.4567 5.10769C30.2016 6.16882 30.7095 6.81512 31.7039 6.98682C34.9532 7.5398 36.8607 9.58881 38.0996 12.4137C39.9814 16.7046 41.8032 21.017 43.6122 25.3379C43.8522 25.9081 44.0366 26.5982 43.9423 27.1855C43.8835 27.5653 43.4029 27.8807 43.0587 28.2166C43.0028 28.2712 42.9166 28.2833 42.8502 28.2421V28.2421C42.7354 28.1707 42.5899 28.2619 42.6033 28.3964C42.6476 28.8418 42.6911 29.2883 42.7348 29.7401C42.7867 30.2759 43.3134 30.5915 43.8128 30.3905C44.1362 30.2604 44.4072 30.1752 44.4781 30.259C44.9282 30.7906 45.224 31.5536 45.314 32.2609C45.524 33.8984 45.4897 35.5702 45.7298 37.1991C45.927 38.5408 46.5271 39.8311 46.69 41.1728C47.3201 46.4539 47.8431 51.7522 48.4218 57.042C48.5847 58.5294 48.7133 60.0297 49.0219 61.4915C49.3734 63.1676 47.9717 63.7548 47.0887 63.8706C45.4383 64.0892 45.2454 65.088 45.0054 66.2797V66.2797C44.7995 67.2888 45.6978 68.0265 46.4259 67.2981C47.9654 65.758 48.8948 63.6288 51.0607 63.091C51.5173 62.9777 51.8163 62.4271 51.4998 62.0791V62.0791C51.22 61.7714 51.3404 61.2035 51.7399 61.0884C52.0849 60.9889 52.3721 60.9296 52.5284 61.0457C54.3245 62.396 55.7048 61.5129 57.2566 60.5313C62.0962 57.4663 67.013 54.5171 71.8869 51.5036C72.7699 50.9592 73.6273 50.3548 74.4332 49.6989C75.8431 48.5489 77.4601 48.082 79.1687 47.8905C79.595 47.8427 79.8618 48.3198 79.615 48.6707C79.5978 48.6952 79.5805 48.7198 79.5633 48.7443C79.4667 48.8817 79.4691 49.0655 79.5705 49.1994V49.1994C79.6895 49.3568 79.9075 49.4018 80.0786 49.3034C80.7209 48.934 81.3652 48.5645 82.0076 48.195C82.1901 48.0901 82.2634 47.8637 82.1777 47.6714V47.6714C82.097 47.4902 81.8976 47.3937 81.7053 47.4424C81.2041 47.5693 80.7011 47.6981 80.2009 47.824C80.1987 47.8246 80.1983 47.8276 80.2004 47.8287V47.8287ZM33.0413 33.6139C33.0413 33.6108 33.0447 33.6088 33.0474 33.6103C33.3625 33.7885 33.6792 33.9667 34.0003 34.1478C34.3376 34.338 34.7678 34.1894 34.8727 33.8166C35.864 30.2932 34.0058 25.802 30.9194 24.5321C30.1693 24.2234 28.8404 24.0991 28.416 24.5235C27.8116 25.1322 27.503 26.3624 27.6187 27.2584C27.7302 28.12 28.4418 28.9859 29.0719 29.6846V29.6846C29.4308 30.082 28.9463 30.6655 28.5028 30.3654C28.039 30.0515 27.572 29.7423 27.1 29.4403C26.247 28.8959 25.2225 28.2314 24.3094 28.2786C23.3878 28.3257 22.2176 28.9816 21.6989 29.7446C21.2874 30.3447 21.3774 31.7122 21.8103 32.3766C22.509 33.4526 23.615 34.2927 24.6352 35.1286C26.0522 36.2915 27.484 37.4369 28.9185 38.5784C29.2296 38.826 28.9055 39.3008 28.5661 39.0938V39.0938C26.097 37.5892 23.675 36.0031 21.163 34.5714C19.6241 33.6926 18.2353 34.0827 17.3779 35.3773C15.869 37.6578 15.8776 37.9621 17.588 39.6168C17.9609 39.9768 18.3639 40.3069 18.7711 40.6327C22.3804 43.5347 26.0627 46.3554 29.582 49.3646C31.4596 50.9678 32.9084 53.0854 34.8246 54.6329C37.1994 56.5533 39.8357 58.1522 42.3991 59.8283C43.4879 60.5399 44.7139 62.0916 45.9784 60.7156C46.6943 59.9397 46.7157 58.2979 46.6514 57.072C46.2871 50.4405 44.2252 44.1649 42.6048 37.7778C42.1851 36.1208 41.3422 35.0974 40.3119 34.317C38.579 33.0044 35.732 34.4332 36.1149 36.5732V36.5732C37.1737 42.4331 39.5699 47.8385 42.0476 53.2097V53.2097C42.3469 53.86 41.7782 54.1199 41.4818 53.4684C41.2847 53.0353 41.0879 52.6025 40.8859 52.1723C39.7537 49.7664 38.9859 47.136 37.3801 45.0092C37.145 44.6977 36.893 42.2011 36.8307 41.8158V41.8158C36.3336 38.7171 35.125 35.9697 33.0424 33.6166C33.0417 33.6159 33.0413 33.6149 33.0413 33.6139V33.6139ZM75.3676 55.0653C75.3676 55.0656 75.3677 55.066 75.3679 55.0663C75.5177 55.3835 75.5864 55.8846 75.822 55.9832C78.1197 56.9691 82.042 55.996 83.5937 54.0199V54.0199C84.229 53.2147 83.3996 51.5204 82.4074 51.7805C82.3911 51.7848 82.375 51.7896 82.3592 51.7951C80.7868 52.3308 79.2624 52.9992 77.7333 53.6537C77.2347 53.8671 77.2316 53.0417 76.6965 52.9525V52.9525C75.6077 52.7639 74.2488 52.1895 73.4387 52.6181C67.2487 55.8889 61.1531 59.3439 55.0575 62.7946C54.3245 63.2104 53.6387 63.8449 53.1671 64.5393C52.9614 64.8436 53.2229 65.9196 53.4929 66.0139C55.3276 66.6655 57.1923 67.3513 59.1084 67.6471C62.2977 68.1358 65.5898 68.0801 68.7362 68.7402C71.4539 69.3103 73.3958 68.8774 75.0376 66.5797C76.3493 64.7451 76.1907 63.8963 74.0431 63.1333C71.7869 62.3334 69.5397 61.5095 67.2914 60.6892C66.714 60.4785 66.7488 59.4562 67.2445 59.8197V59.8197C69.8122 61.7187 72.8985 61.6715 75.8306 62.1902C77.5538 62.4946 78.9341 61.8087 79.9029 60.4327C80.3744 59.7683 81.026 58.7052 80.7902 58.1993C80.4902 57.5521 79.4142 57.0462 78.5998 56.9005C77.3694 56.6809 76.1179 56.5943 74.7861 56.5029C74.2564 56.4666 74.1025 55.7741 74.565 55.5132C74.8391 55.3586 75.1017 55.2107 75.3643 55.0634C75.3658 55.0626 75.3676 55.0636 75.3676 55.0653V55.0653ZM27.3187 66.6294C27.3187 66.6304 27.318 66.6313 27.3169 66.6316C26.545 66.816 25.1657 67.1415 23.7865 67.4799C21.626 68.0072 19.427 68.4359 17.3136 69.1089C15.6761 69.6318 14.0215 70.292 12.6283 71.2607C12.1268 71.6123 12.3197 73.0354 12.2897 73.9742C12.234 75.7317 12.6155 75.9932 14.3644 75.4745C14.8617 75.3288 15.3418 75.1144 15.8433 74.9687C19.4998 73.9099 23.1263 72.7396 26.8214 71.8352C30.4651 70.9435 34.1902 70.3734 37.8509 69.5504C37.891 69.5414 37.9304 69.5297 37.9693 69.5155C38.8493 69.1941 38.6252 67.4514 37.6923 67.3642V67.3642C34.4695 67.0728 31.238 66.8927 27.3211 66.6271C27.3198 66.627 27.3187 66.628 27.3187 66.6294V66.6294ZM38.1759 66.1096C38.9621 66.209 40.0115 66.3687 40.4315 65.6967V65.6967C40.5773 65.4609 40.2858 64.8436 40.0457 64.5007C39.7499 64.0849 39.3341 63.7377 38.914 63.4376C36.6593 61.8216 34.4645 60.1026 32.094 58.6795C31.1166 58.0922 29.4577 57.6078 28.6175 58.0493C27.0229 58.8895 25.5954 58.8681 24.1465 58.2594C22.0075 57.3549 20.0828 57.865 18.141 58.7437C16.8464 59.331 16.7049 60.2312 17.8923 61.02C18.7968 61.6244 19.8299 62.0488 20.833 62.4946C26.2908 64.914 32.1519 65.3477 38.1759 66.1096ZM39.4799 70.6368C39.4799 70.6356 39.4795 70.6344 39.4787 70.6334L39.3306 70.4445C39.1498 70.2137 38.8445 70.1199 38.5658 70.2112C38.1844 70.3362 37.8023 70.462 37.418 70.5749C33.8172 71.6294 30.2379 72.7482 26.6157 73.717C23.0406 74.6729 19.4227 75.4874 15.8219 76.3533C14.8445 76.589 14.2058 76.9706 14.6131 78.1537C15.1575 79.7269 17.6094 81.2829 19.1055 80.6871C24.7981 78.4109 30.4779 76.1004 36.0763 73.6013C37.3873 73.0143 38.3557 71.648 39.4781 70.6408C39.4792 70.6398 39.4799 70.6383 39.4799 70.6368V70.6368ZM23.032 65.7095V65.7095C23.0677 65.3066 22.8372 64.9279 22.4673 64.7641C20.2472 63.781 18.0613 62.5598 15.4704 63.0733C13.267 63.5105 11.128 64.2992 8.98897 65.0194C8.56888 65.1609 7.9216 65.8124 7.99447 66.0182C8.48744 67.4542 8.93753 69.0017 9.85916 70.1419C10.1849 70.5449 11.8567 70.0733 12.8084 69.7218C15.7233 68.6502 18.5911 67.4413 21.476 66.2925C21.989 66.0873 22.5106 65.9034 23.028 65.7068C23.0299 65.706 23.032 65.7075 23.032 65.7095V65.7095ZM24.0386 56.86C24.9922 57.2532 26.8551 57.6936 26.9286 56.6647V56.6647C26.9586 56.2532 26.6842 55.6702 26.3456 55.4045C23.5678 53.2354 20.8158 51.0235 17.9181 49.0259C15.4404 47.3241 15.3161 47.4484 12.7827 49.3046C12.7355 49.3389 12.6669 49.3517 12.6369 49.3946C12.354 49.7761 11.8224 50.2048 11.8696 50.5434C11.9253 50.9249 12.4569 51.3236 12.8684 51.5508C14.8445 52.6181 16.8164 53.6984 18.8525 54.6414C20.5686 55.4383 22.3255 56.1535 24.0386 56.86ZM40.958 93.0498C40.957 93.0498 40.9567 93.0484 40.9575 93.0479C42.8425 91.9046 44.6242 91.2997 45.2711 89.3247C46.2571 86.3112 47.483 83.3448 48.1475 80.2584C48.5904 78.1963 48.4737 76.0359 47.9745 73.79C47.8412 73.1904 46.833 72.7149 46.6643 73.3055V73.3055C44.7868 79.7181 42.9436 86.1435 40.959 93.049C40.9588 93.0495 40.9585 93.0498 40.958 93.0498V93.0498ZM48.9233 72.1009C48.9233 72.1001 48.9245 72.1 48.9246 72.1008C49.0269 72.7674 49.1083 73.5143 49.262 74.2485C49.7507 76.5762 50.1836 78.9253 51.9754 80.7171C53.2143 81.9516 54.2173 81.8016 54.8904 80.1855C55.4862 78.7538 56.1635 77.3606 55.1733 75.736C54.8861 75.2688 55.4176 74.3557 55.4133 73.6484C55.409 73.0054 55.3705 71.9466 55.0232 71.7923C53.6129 71.1622 52.0997 70.6949 50.578 70.3906C49.4763 70.1677 48.829 70.8192 48.9233 72.1009V72.1009ZM19.2641 57.2396C19.2641 57.2393 19.2641 57.239 19.2642 57.2387C19.2737 57.1945 19.2833 57.1504 19.2929 57.1063C19.4128 56.5551 19.1543 55.9915 18.6604 55.7191C16.0466 54.2772 13.4682 52.7602 10.7636 51.5165C9.01469 50.7149 7.33862 52.0566 7.0214 54.1099C6.78135 55.6402 7.89588 56.8833 9.63626 57.0977C11.1237 57.282 12.6026 57.6849 14.0901 57.6978C15.812 57.7107 17.5383 57.4068 19.2602 57.2438C19.2624 57.2436 19.2641 57.2418 19.2641 57.2396V57.2396ZM8.80036 57.4578C7.39006 57.5864 6.68705 58.0536 6.26696 59.4853C5.82972 60.9899 6.49415 61.9673 7.01712 63.1804C7.55295 64.4193 8.23024 64.5179 9.30619 64.1021C10.7636 63.5405 12.2597 63.0775 13.6914 62.4646V62.4646C14.8104 61.983 15.1324 60.2032 14.2076 59.4102C14.0951 59.3137 13.9753 59.2326 13.8457 59.1724C12.2481 58.4271 10.4921 58.0114 8.80015 57.4591C8.79941 57.4588 8.79959 57.4578 8.80036 57.4578V57.4578ZM45.0825 91.4559C45.0825 91.4579 45.084 91.4597 45.086 91.46C47.0566 91.7886 49.0008 91.0471 49.5406 89.6719C50.2351 87.9015 50.8352 86.084 51.311 84.2407V84.2407C51.8661 82.0776 48.6335 82.615 47.8012 84.6874C46.885 86.969 45.9882 89.2032 45.0828 91.4544C45.0826 91.4549 45.0825 91.4554 45.0825 91.4559V91.4559ZM57.1059 72.889C57.1063 72.8894 57.1064 72.89 57.1062 72.8905C56.8102 73.5248 56.155 74.2959 56.3307 74.6686C56.7679 75.5988 57.5095 76.4304 58.2768 77.1463C58.8512 77.6821 59.7 77.9093 60.343 78.3809C61.9933 79.594 61.9933 79.6111 63.065 77.785C63.3007 77.3864 63.5451 76.992 63.8366 76.6362C64.5439 75.7617 64.2438 75.0244 63.3522 74.7158C61.4545 74.0604 59.4926 73.5719 57.1072 72.8868C57.1059 72.8864 57.1049 72.888 57.1059 72.889V72.889ZM38.0438 13.9265C38.0438 13.9267 38.0437 13.9269 38.0435 13.9269C37.9595 13.9269 37.8756 13.9269 37.7917 13.9269C37.6696 13.9269 37.5646 14.0142 37.5369 14.133C37.4917 14.327 37.4428 14.5215 37.4523 14.7113C37.5294 16.8675 37.4051 17.0133 35.3304 17.1076C34.1516 17.159 33.3414 18.5436 33.8515 19.5981C34.5932 21.1273 35.6956 21.4985 37.0246 21.0832C37.5336 20.9241 38.1125 21.0836 38.371 21.55C38.5632 21.8968 38.752 22.2375 38.9386 22.5741C39.2581 23.1507 39.7222 22.9928 39.4584 22.3887V22.3887C39.22 21.8411 39.014 21.2772 38.7981 20.7197C38.7432 20.5782 38.8065 20.4177 38.9434 20.352V20.352C39.0718 20.2905 39.2255 20.333 39.2977 20.4557C39.4664 20.7425 39.6214 21.0462 39.8614 21.2485C40.3501 21.6557 40.9116 21.9772 41.4774 22.2644C41.546 22.2987 42.0261 21.8229 41.9833 21.7243C41.7261 21.1327 41.4946 20.2411 41.0359 20.0868C39.2998 19.4867 38.9055 18.1021 38.584 16.5975C38.3956 15.7114 38.2244 14.8168 38.0446 13.9264C38.0445 13.926 38.0438 13.926 38.0438 13.9265V13.9265ZM56.1078 78.9853C54.8067 82.303 61.8724 84.7528 61.3246 81.2315V81.2315C61.016 79.2296 59.1127 78.9596 57.6467 78.2523C56.8193 77.8536 56.4335 78.158 56.1078 78.9853V78.9853ZM50.1408 89.4375C50.1408 89.437 50.1413 89.4368 50.1416 89.4371C50.2745 89.5895 50.4074 89.7443 50.5403 89.8978C50.6138 89.9827 50.738 90.0012 50.8336 89.9424C52.1897 89.1089 53.6045 88.3512 54.8689 87.3957C56.1463 86.4269 56.1292 84.6265 55.0232 83.4391C54.093 82.4403 52.7256 82.5432 52.1983 83.7949C51.4186 85.6373 50.8186 87.5524 50.1417 89.4377C50.1415 89.4382 50.1408 89.4381 50.1408 89.4375V89.4375ZM18.5989 47.8378C18.5993 47.8382 18.5996 47.8389 18.5994 47.8396C18.581 47.9411 18.5625 48.0426 18.5437 48.1441C18.4989 48.3862 18.6049 48.632 18.8121 48.765C22.596 51.1941 25.9713 54.2541 30.1545 56.4723C30.4535 56.6308 31.0484 56.278 30.7823 56.0689V56.0689C27.5073 53.3169 24.2666 50.5305 20.9058 47.8857C20.4225 47.505 19.3842 47.8329 18.6003 47.8342C18.5984 47.8342 18.5976 47.8365 18.5989 47.8378V47.8378ZM32.6005 18.4186C32.6001 18.419 32.5995 18.4191 32.599 18.4188C30.8976 17.2788 29.7619 16.3916 28.5061 15.7401C28.0688 15.513 27.04 15.6673 26.7957 16.0102C26.4013 16.5675 26.0584 17.7077 26.3585 18.0935C26.9243 18.8265 27.9531 19.611 28.7976 19.6238C29.9323 19.641 31.0756 18.9437 32.5992 18.4167C32.6004 18.4163 32.6014 18.4177 32.6005 18.4186V18.4186ZM56.8108 70.7549C56.8793 71.2436 56.8665 71.4322 56.9179 71.4494C59.0655 72.221 61.2131 73.0054 63.3908 73.6956C63.5622 73.7513 64.1924 73.1212 64.1709 72.834C64.1495 72.4696 63.7337 71.8823 63.4036 71.8223C61.2745 71.411 59.1239 71.1154 56.815 70.7599C56.8126 70.7595 56.8108 70.7574 56.8108 70.7549V70.7549ZM91.232 47.5037C91.0663 47.3756 90.965 47.3759 90.7558 47.386C89.2637 47.4582 88.2886 48.4156 88.4248 49.4889C88.4805 49.9176 89.415 50.6463 89.4964 50.5906C90.1472 50.1407 90.7607 49.6385 91.3688 49.1259C91.852 48.7187 91.7321 47.89 91.232 47.5037V47.5037ZM39.2355 26.6839C38.8636 28.5376 42.2766 27.036 40.5791 26.2037C40.5141 26.1718 40.4449 26.146 40.3715 26.1267C40.0457 26.0409 39.2913 26.4139 39.2355 26.6839V26.6839ZM24.8153 18.6397C24.8153 18.6386 24.8147 18.6375 24.8139 18.6367C24.0432 17.9857 23.6361 17.4333 23.1263 17.3048V17.3048C22.3291 17.1021 22.4411 19.0085 23.2072 19.3082C23.23 19.3172 23.253 19.3252 23.2764 19.3324C23.589 19.4266 24.0556 19.0074 24.813 18.6433C24.8144 18.6426 24.8153 18.6412 24.8153 18.6397V18.6397ZM12.1089 45.2914C12.9409 45.2444 12.8533 43.4338 12.0325 43.5776V43.5776C11.996 43.5839 11.9602 43.5938 11.9248 43.6069C11.2471 43.8591 11.3652 45.308 12.0882 45.2923V45.2923C12.0951 45.2921 12.102 45.2918 12.1089 45.2914ZM20.1643 25.9552C20.8743 26.1581 20.6874 24.4377 19.9697 24.2637C19.9142 24.2503 19.8592 24.2423 19.8042 24.2406V24.2406C19.1662 24.2193 19.3404 25.4936 19.884 25.8281C19.9739 25.8834 20.0668 25.9275 20.1643 25.9552V25.9552ZM35.952 25.3956C35.7903 25.1932 35.4931 25.1652 35.2972 25.3348V25.3348C35.1005 25.5052 35.0838 25.8054 35.2603 25.9966C35.6812 26.4526 36.1017 26.909 36.5521 27.3355V27.3355C36.8539 27.6071 36.9576 26.6531 36.7041 26.336C36.4534 26.0225 36.2027 25.7094 35.952 25.3956ZM22.9708 24.4806C22.9716 24.4806 22.9724 24.4804 22.973 24.4801C23.0294 24.4519 23.0857 24.4236 23.1421 24.3952C23.5437 24.1926 23.7062 23.6976 23.4993 23.2981C23.3194 22.9508 23.1326 22.6072 22.9206 22.2816V22.2816C22.645 21.8683 22.2563 22.994 22.471 23.442C22.6364 23.7872 22.8021 24.1325 22.9664 24.4778C22.9672 24.4795 22.9689 24.4806 22.9708 24.4806V24.4806Z" stroke="#FF512B" stroke-width="2" stroke-linecap="round" stroke-linejoin="round" stroke-dasharray="0.5 7.5"/>
<path d="M36.7446 74.5701C36.7449 74.5701 36.7451 74.5703 36.7453 74.5705C37.8039 75.8672 37.7546 77.1053 36.7536 78.3932C36.615 78.5715 36.3478 78.5808 36.1777 78.4321V78.4321C35.9352 78.2201 35.5605 78.3616 35.5061 78.6791C35.4188 79.1885 35.3272 79.7219 35.2199 80.3445C35.158 80.704 34.6261 80.6983 34.4398 80.3847V80.3847C34.2435 80.0544 33.7935 80.2675 33.7658 80.6508C33.7339 81.0934 33.7036 81.512 33.6721 81.9373C33.6514 82.2157 33.3298 82.372 33.079 82.2495V82.2495C32.7952 82.1109 32.4994 82.3581 32.543 82.6709C32.5679 82.8499 32.5928 83.0283 32.6183 83.2124C32.6642 83.5427 32.3124 83.8477 31.9795 83.8673V83.8673C31.773 83.8794 31.6951 83.9959 31.6045 84.1818C31.3196 84.7671 31.0579 85.3036 30.7995 85.8335C30.7237 85.9889 30.5645 86.0862 30.3916 86.0828V86.0828C30.1743 86.0786 29.992 85.9176 29.9438 85.7057C29.814 85.1352 29.6163 84.5439 29.7535 84.0479C30.6966 80.6271 32.3512 77.6394 35.3862 75.5861C35.862 75.2646 36.3121 74.9002 36.7707 74.553L36.744 74.5682C36.7431 74.5687 36.7435 74.5701 36.7446 74.5701V74.5701Z" stroke="#FF512B" stroke-width="2" stroke-linecap="round" stroke-linejoin="round" stroke-dasharray="0.5 7.5"/>
<path d="M39.4671 72.1844C39.4645 72.1884 39.4694 72.1932 39.4733 72.1904C39.7035 72.029 39.9486 71.8902 40.1571 71.7067C40.8258 71.1194 41.5246 70.4121 42.3647 71.3337C43.2178 72.2725 42.982 73.2541 42.1032 74.0815C42.0485 74.1333 41.9917 74.1829 41.9327 74.2312C41.4153 74.6548 40.62 74.4294 40.316 73.8337C40.0286 73.2704 39.7516 72.7283 39.4746 72.1848C39.4731 72.1818 39.469 72.1816 39.4671 72.1844V72.1844Z" stroke="#FF512B" stroke-width="2" stroke-linecap="round" stroke-linejoin="round" stroke-dasharray="0.5 7.5"/>
</svg>
