<?xml version="1.0" encoding="utf-8"?>
<!-- Generator: Adobe Illustrator 27.0.0, SVG Export Plug-In . SVG Version: 6.00 Build 0)  -->
<svg version="1.1" id="Layer_2_00000170276911844773590620000004207833369677849791_"
	 xmlns="http://www.w3.org/2000/svg" xmlns:xlink="http://www.w3.org/1999/xlink" x="0px" y="0px" viewBox="0 0 23.7 16"
	 style="enable-background:new 0 0 23.7 16;" xml:space="preserve">
<style type="text/css">
	.st0{fill:#F15533;}
</style>
<path class="st0" d="M23.7,2C23.6,2,23.6,2,23.7,2c0-0.1,0-0.2,0-0.3c0.1-0.7-0.1-1-0.7-1.1c-0.1,0-0.1,0-0.2,0c0,0,0,0,0-0.1
	c0-0.3-0.2-0.5-0.5-0.5c0,0-0.1,0-0.1,0c-0.3,0-0.4,0.3-0.4,0.5c0,0,0,0,0,0c-0.2,0.1-0.5,0.1-0.8,0.2c-0.4,0.1-0.8,0.3-1.2,0.4
	c0,0,0,0,0,0C19.7,1,19.4,0.9,19.1,1L19,1c-0.2,0.1-0.3,0.4-0.2,0.6c0,0,0,0,0,0c-0.6,0.3-1.2,0.7-1.8,1.1c0,0,0,0,0,0
	c-0.2-0.2-0.5-0.3-0.7-0.1c0,0,0,0,0,0c-0.2,0.2-0.3,0.5-0.1,0.7c0,0,0,0,0,0c0,0,0,0,0,0l-0.1,0.1c-0.1,0.2-0.2,0.3-0.4,0.4
	c-0.4,0.3-0.7,0.5-1,0.8c-0.2-0.2-0.5-0.2-0.7,0c0,0-0.1,0.1-0.1,0.1c-0.2,0.2-0.2,0.5,0,0.7c0,0,0,0,0,0c0,0,0,0-0.1,0.1
	c-0.1,0.1-0.1,0.4-0.2,0.3c-0.2,0-0.2,0.1-0.3,0.2c-0.2,0.2-0.5,0.8-0.6,0.7c0-0.1,0-0.2,0-0.2c0.3,0,0.4-0.3,0.4-0.5l-0.5,0
	c0,0,0,0,0,0l0.5,0c0-0.2-0.2-0.4-0.3-0.4c0-0.1-0.1-0.1-0.1-0.2C12.9,4.6,13,4,13.3,3.5c0.1,0,0.1,0.1,0.2,0.1
	c0.2,0,0.4-0.1,0.4-0.3l0-0.1C14,3,14,2.8,13.9,2.7c0-0.1,0-0.2,0-0.2c0.1-0.1,0.2-0.2,0.3-0.3c0-0.1,0.1-0.2,0.1-0.3
	c0.1-0.1,0.1-0.2,0-0.2l-0.1,0.1C14,1.9,13.9,2,13.7,2.2c0,0,0,0,0,0c-0.2-0.1-0.5,0-0.7,0.2l0,0.1c-0.1,0.2-0.1,0.3,0,0.4
	c0,0.1,0,0.3,0.1,0.4c-0.3,0.6-0.5,1.1-0.6,1.7c0,0,0,0,0,0c-0.1,0-0.2,0-0.2,0c0.1-0.1,0.1-0.3,0-0.4c-0.1-0.2-0.2-0.3-0.3-0.3
	c0-0.1,0-0.2-0.1-0.4c0.3,0,0.4-0.3,0.4-0.6l0-0.1c0,0,0,0,0-0.1c-0.1-0.3-0.4-0.4-0.7-0.3c0,0,0,0,0,0c-0.1-0.3-0.3-0.6-0.5-0.8
	c0-0.1,0-0.3-0.1-0.4l-0.1-0.1c-0.1-0.1-0.2-0.1-0.4-0.1c0,0,0-0.1-0.1,0c0,0,0,0,0,0c-0.1,0-0.1,0.1-0.2,0.1
	c-0.2,0.2-0.2,0.5,0,0.7l0.1,0.1c0.1,0.1,0.2,0.1,0.4,0.1c0.1,0,0.2,0,0.3-0.1c0,0,0.1,0.1,0.1,0.1C11,2.8,11.1,3,11.2,3.2
	c0,0.1-0.1,0.3,0,0.4c0,0.2,0.1,0.3,0.2,0.3c0,0.1,0.1,0.3,0.1,0.4c0,0,0,0,0,0c-0.3,0.1-0.4,0.4-0.3,0.6c0,0,0,0.1,0,0.1
	c0.1,0.2,0.3,0.3,0.6,0.3c0,0,0,0,0,0.1c0,0,0,0,0,0.1l0,0.1c0,0.1,0,0.1,0,0.2c0,0.4-0.2,0.7-0.4,1c-0.1-0.1-0.1-0.2-0.2-0.3
	c0,0-0.1-0.1-0.2-0.1c0,0,0,0,0,0c0.2-0.2,0.2-0.5,0-0.7l-0.1-0.1c-0.2-0.2-0.5-0.2-0.7,0c0,0,0,0,0,0c-0.5-0.5-1-0.9-1.6-1.4
	c0,0,0,0,0,0C9,3.9,9,3.6,8.8,3.4c0,0,0,0-0.1-0.1C8.5,3.2,8.1,3.3,8,3.5c0,0,0,0,0,0C7.4,3.1,6.9,2.7,6.3,2.4c0,0,0,0,0,0
	c0.1-0.2,0.1-0.5-0.2-0.7l-0.1,0C5.9,1.5,5.5,1.6,5.4,1.8c0,0,0,0,0,0C4.8,1.5,4.2,1.2,3.6,1c0.1-0.2,0-0.5-0.2-0.6
	c0,0-0.1,0-0.1-0.1C3,0.2,2.7,0.3,2.6,0.6c0,0,0,0,0,0.1C2.3,0.6,2,0.5,1.7,0.5C1.2,0.6,0.9,0.7,0.7,1c0,0-0.1,0-0.2,0
	C0.3,1,0.1,1.2,0.1,1.5c0,0,0,0.1,0,0.1C0.1,1.9,0.3,2,0.6,2c0,0,0,0,0.1,0c0,0,0,0,0,0c0,0.3,0.1,0.5,0.2,0.7
	c0.2,0.4,0.4,0.7,0.7,1.1C1.3,3.9,1.3,4.2,1.4,4.5l0,0.1c0.1,0.2,0.2,0.2,0.4,0.2c0.1,0,0.2,0,0.2-0.1c0.2,0.4,0.3,0.7,0.5,1.1
	c0,0.3,0.1,0.6,0.2,0.9c0,0,0,0,0,0C2.4,6.7,2.2,7,2.3,7.3l0.5,0c0,0,0,0,0,0L2.3,7.4c0,0.2,0.3,0.4,0.5,0.4c0,0,0.1,0,0.1,0
	c0,0,0,0,0,0.1c0.2,0.4,0.5,0.7,1,0.7c0.1,0,0.2,0,0.3,0C4.1,8.7,4.1,8.9,4.2,9c0,0,0,0,0,0C4,9.3,3.9,9.6,3.8,10
	c0,0.3-0.1,0.7-0.1,1c0,0,0,0,0,0c-0.3,0-0.5,0.2-0.5,0.5c0,0,0,0.1,0,0.1c0,0.3,0.2,0.4,0.5,0.4c0,0,0,0,0,0c0,0,0,0,0,0
	c0,0.3,0.1,0.6,0.3,1c0.1,0,0.1,0,0.1,0.1c0,0.4,0.2,0.6,0.4,0.7c-0.1,0.2-0.1,0.5,0.1,0.6L5,14.1l0,0l-0.4,0.3
	c0.1,0.1,0.2,0.2,0.4,0.2c0.1,0,0.2,0,0.3-0.1c0.2,0.2,0.3,0.3,0.6,0.4c0.4,0.2,0.8,0.4,1.2,0.5c0,0,0,0,0,0c0,0.3,0.1,0.5,0.4,0.6
	l0.1,0c0,0,0,0,0.1,0c0.2,0,0.4-0.2,0.5-0.4c0,0,0,0,0,0c0.7,0,1-0.2,1.5-1l0,0l0.5,0.2l0-0.1c0.1-0.2,0-0.5-0.2-0.6
	c0.3-0.6,0.6-1.2,1-1.8c0,0,0,0,0,0c0.1,0,0.1,0.1,0.2,0.1c0.2,0,0.4-0.1,0.4-0.3l-0.4-0.3l0.4,0.2c0,0,0,0,0,0c0,0.2,0,0.4,0,0.6
	c0,0,0,0,0,0c-0.3,0-0.5,0.2-0.5,0.5l0,0.1c0,0.3,0.2,0.4,0.5,0.4c0,0,0,0,0,0c0,0,0,0,0,0c0,0.1,0,0.1,0,0.2
	c0.1,0.1,0.1,0.2,0.3,0.2s0.3-0.1,0.3-0.2c0-0.2,0-0.6,0-1.1c0,0,0,0,0,0c0.3,0,0.5-0.2,0.5-0.5V12c0-0.3-0.2-0.5-0.5-0.5
	c0-0.3,0-0.5,0-0.6c0-0.1,0.5,0.6,0.9,1.1c-0.2,0.1-0.3,0.4-0.2,0.7l0,0.1c0.1,0.2,0.3,0.3,0.4,0.3c0.1,0,0.2,0,0.2-0.1
	c0.3,0.6,0.6,1.1,0.9,1.6c0,0,0.1,0.1,0.1,0.1c0,0-0.1,0-0.1,0.1c-0.2,0.2-0.1,0.5,0.1,0.7c0,0,0.1,0.1,0.1,0.1
	c0.1,0,0.2,0.1,0.2,0.1c0.2,0,0.3-0.1,0.4-0.3c0,0,0-0.1,0-0.1c0.1,0,0.2,0,0.4,0c0.5-0.1,1-0.2,1.5-0.2c0.1,0,0.1,0,0.2-0.1
	c0.1-0.1,0.2-0.1,0.4-0.2l0.3,0.4l-0.2-0.5c0,0,0,0,0,0l0.3,0.4c0.2-0.1,0.3-0.4,0.2-0.6c0.1,0,0.2-0.1,0.3-0.2
	c0.2-0.3,0.4-0.4,0.7-0.6c0.2-0.1,0.3-0.3,0.4-0.5c0,0,0,0,0,0c0.1,0,0.1,0,0.2,0c0.2,0,0.4-0.1,0.5-0.3l0-0.1
	c0.1-0.3,0-0.5-0.3-0.6c0,0,0,0,0,0c0,0,0,0,0,0c0.1-0.2,0.1-0.3,0.1-0.5c-0.1-0.2,0-0.5,0-0.8c0-0.3,0-0.5,0-0.7c0,0,0.1,0,0.1,0
	c0.3-0.1,0.4-0.4,0.3-0.7l0-0.1c-0.1-0.3-0.4-0.3-0.6-0.2c0,0,0,0,0,0C20,9.1,19.9,9,19.8,8.9c-0.1-0.1-0.3-0.2-0.4-0.4
	c0.2,0,0.5-0.1,0.7-0.1c0.1,0,0.2,0,0.3-0.1c0,0,0,0.1,0.1,0.1c0.1,0.1,0.2,0.1,0.4,0.1c0.1,0,0.3,0,0.3-0.1c0,0,0.1-0.1,0.1-0.1
	c0.2-0.2,0.1-0.5-0.1-0.7c0,0-0.1,0-0.1,0c0.2-0.3,0.3-0.7,0.4-1c0.1-0.3,0.2-0.6,0.3-0.9c0.1,0,0.1,0,0.2,0c0.2,0,0.4-0.1,0.5-0.3
	L22,5.1c0,0,0,0,0,0l0.5,0.2c0.1-0.3,0-0.5-0.3-0.6c0.3-0.6,0.6-1.2,1-1.7c0,0,0,0,0,0c0.1,0,0.1,0,0.2,0c0.2,0,0.4-0.1,0.5-0.3
	l0-0.1C24,2.4,23.9,2.1,23.7,2z M11.4,11.3C11.4,11.3,11.4,11.3,11.4,11.3c0-0.2,0.1-0.3,0.2-0.4c0,0.1,0,0.3,0,0.6
	C11.6,11.4,11.5,11.3,11.4,11.3z"/>
</svg>
