<?xml version="1.0" encoding="UTF-8"?>
<svg id="Layer_2" data-name="Layer 2" xmlns="http://www.w3.org/2000/svg" viewBox="0 0 98.37 79.27">
  <path d="M39.92,22.36c-3.14-1.84-3.78-6.67-3.97,.19" style="fill: none; stroke: #e0662c; stroke-dasharray: 0 0 0 2.45; stroke-linecap: round; stroke-linejoin: round; stroke-width: 1.16px;"/>
  <path d="M34.67,21.52c-1.66-2-4.25-3.6-4.39-4.7" style="fill: none; stroke: #e0662c; stroke-dasharray: 0 0 0 2.6; stroke-linecap: round; stroke-linejoin: round; stroke-width: 1.16px;"/>
  <path d="M33.08,15.04c1.34-.35,2.08-.26,2.11-2.01" style="fill: none; stroke: #e0662c; stroke-dasharray: 0 0 0 2.22; stroke-linecap: round; stroke-linejoin: round; stroke-width: 1.16px;"/>
  <path d="M36.94,10.41c1.44,.18,2.72,1.47-.61-.67" style="fill: none; stroke: #e0662c; stroke-dasharray: 0 0 0 2.69; stroke-linecap: round; stroke-linejoin: round; stroke-width: 1.16px;"/>
  <path d="M36.81,8.5c-.29,0-.64-.08-.94-.06" style="fill: none; stroke: #e0662c; stroke-dasharray: 0 0 0 1.89; stroke-linecap: round; stroke-linejoin: round; stroke-width: 1.16px;"/>
  <path d="M36.19,6.46c-.52,.43-.4,.8-.13,1.11" style="fill: none; stroke: #e0662c; stroke-dasharray: 0 0 0 2.59; stroke-linecap: round; stroke-linejoin: round; stroke-width: 1.16px;"/>
  <path d="M37.95,5.64c-.56-.32-.92-.43-1.18-.28" style="fill: none; stroke: #e0662c; stroke-dasharray: 0 0 0 2.53; stroke-linecap: round; stroke-linejoin: round; stroke-width: 1.16px;"/>
  <path d="M39.21,3.01c.02,.94-.47,1.06-.87,1.23" style="fill: none; stroke: #e0662c; stroke-dasharray: 0 0 0 3.31; stroke-linecap: round; stroke-linejoin: round; stroke-width: 1.16px;"/>
  <path d="M40.43,1.89c.3-.06,.62-.07,.9-.03" style="fill: none; stroke: #e0662c; stroke-dasharray: 0 0 0 1.82; stroke-linecap: round; stroke-linejoin: round; stroke-width: 1.16px;"/>
  <path d="M44.25,.58c-.32,.78-.8,.65-1.22,.62" style="fill: none; stroke: #e0662c; stroke-dasharray: 0 0 0 3.04; stroke-linecap: round; stroke-linejoin: round; stroke-width: 1.16px;"/>
  <path d="M46.45,1.03c.32-.02,.67-.03,1.14,.09" style="fill: none; stroke: #e0662c; stroke-dasharray: 0 0 0 2.3; stroke-linecap: round; stroke-linejoin: round; stroke-width: 1.16px;"/>
  <path d="M50.28,.71c.23,.18,.37,.56,.55,.82" style="fill: none; stroke: #e0662c; stroke-dasharray: 0 0 0 1.98; stroke-linecap: round; stroke-linejoin: round; stroke-width: 1.16px;"/>
  <path d="M52.65,2.15c.02-.34-.08-.56-.26-.65" style="fill: none; stroke: #e0662c; stroke-dasharray: 0 0 0 1.49; stroke-linecap: round; stroke-linejoin: round; stroke-width: 1.16px;"/>
  <path d="M53.52,2.93c.37-.24,.76-.48,1.05-.47" style="fill: none; stroke: #e0662c; stroke-dasharray: 0 0 0 2.34; stroke-linecap: round; stroke-linejoin: round; stroke-width: 1.16px;"/>
  <path d="M55.33,4.87c-.15,.28-.11,.45,.67,.34" style="fill: none; stroke: #e0662c; stroke-dasharray: 0 0 0 2.09; stroke-linecap: round; stroke-linejoin: round; stroke-width: 1.16px;"/>
  <path d="M58.08,7.49c1.28,3.76-1.2,2.5-.49,3.51" style="fill: none; stroke: #e0662c; stroke-dasharray: 0 0 0 2.69; stroke-linecap: round; stroke-linejoin: round; stroke-width: 1.16px;"/>
  <path d="M58.39,14.27c-.41-.76-.75-1.05-.85-1.25" style="fill: none; stroke: #e0662c; stroke-dasharray: 0 0 0 3.03; stroke-linecap: round; stroke-linejoin: round; stroke-width: 1.16px;"/>
  <path d="M56.98,14.5c.26,.05,.49,.04,.72,0" style="fill: none; stroke: #e0662c; stroke-dasharray: 0 0 0 1.45; stroke-linecap: round; stroke-linejoin: round; stroke-width: 1.16px;"/>
  <path d="M56.56,15.8c-.44,.11-.82,.21-.57,.54" style="fill: none; stroke: #e0662c; stroke-dasharray: 0 0 0 1.98; stroke-linecap: round; stroke-linejoin: round; stroke-width: 1.16px;"/>
  <path d="M55.14,18.09c-1.25-.23-2.65-.54-2.03,2.04" style="fill: none; stroke: #e0662c; stroke-dasharray: 0 0 0 2.66; stroke-linecap: round; stroke-linejoin: round; stroke-width: 1.16px;"/>
  <path d="M55.34,22.88c-.29-.36-.42-.89-.63-1.26" style="fill: none; stroke: #e0662c; stroke-dasharray: 0 0 0 2.82; stroke-linecap: round; stroke-linejoin: round; stroke-width: 1.16px;"/>
  <path d="M57.11,22.35c-.12-.85-.51-.9-.91-.6" style="fill: none; stroke: #e0662c; stroke-dasharray: 0 0 0 2.89; stroke-linecap: round; stroke-linejoin: round; stroke-width: 1.16px;"/>
  <path d="M59.04,22.77c.39,.2,.52,.87-.03,2.95" style="fill: none; stroke: #e0662c; stroke-dasharray: 0 0 0 2.07; stroke-linecap: round; stroke-linejoin: round; stroke-width: 1.16px;"/>
  <path d="M60.93,25.39c2.05-.43,2.87,2.25,4.05,4.48" style="fill: none; stroke: #e0662c; stroke-dasharray: 0 0 0 2.6; stroke-linecap: round; stroke-linejoin: round; stroke-width: 1.16px;"/>
  <path d="M64.65,32.83c-.54,1.34,.09,1.49,.53,2.98" style="fill: none; stroke: #e0662c; stroke-dasharray: 0 0 0 2.1; stroke-linecap: round; stroke-linejoin: round; stroke-width: 1.16px;"/>
  <path d="M64.16,38.37c.07,.72,1.48,1,.44,2.76" style="fill: none; stroke: #e0662c; stroke-dasharray: 0 0 0 2.05; stroke-linecap: round; stroke-linejoin: round; stroke-width: 1.16px;"/>
  <path d="M62.06,42.23c-.24-.12-.07-.18,.33,.7" style="fill: none; stroke: #e0662c; stroke-dasharray: 0 0 0 2.03; stroke-linecap: round; stroke-linejoin: round; stroke-width: 1.16px;"/>
  <path d="M60.4,43.71c-.16,.16,.13,.56-.21,1.15" style="fill: none; stroke: #e0662c; stroke-dasharray: 0 0 0 2.39; stroke-linecap: round; stroke-linejoin: round; stroke-width: 1.16px;"/>
  <path d="M57.5,46.26c-.26-.27-.52-.63-.77-.98" style="fill: none; stroke: #e0662c; stroke-dasharray: 0 0 0 2.5; stroke-linecap: round; stroke-linejoin: round; stroke-width: 1.16px;"/>
  <path d="M56.64,46.18c.11,1.29-.55,2.25-1.68,1.43" style="fill: none; stroke: #e0662c; stroke-dasharray: 0 0 0 2.02; stroke-linecap: round; stroke-linejoin: round; stroke-width: 1.16px;"/>
  <path d="M52.2,48.51c-1.42,.36-3.05-.09-3.39-1.38" style="fill: none; stroke: #e0662c; stroke-dasharray: 0 0 0 2.69; stroke-linecap: round; stroke-linejoin: round; stroke-width: 1.16px;"/>
  <path d="M47.45,47.12c-.22,.29-.44,.52-.8,.54" style="fill: none; stroke: #e0662c; stroke-dasharray: 0 0 0 2.01; stroke-linecap: round; stroke-linejoin: round; stroke-width: 1.16px;"/>
  <path d="M44.14,46.11c-.6-1.36,.4-3.06-.57-2.65" style="fill: none; stroke: #e0662c; stroke-dasharray: 0 0 0 2.07; stroke-linecap: round; stroke-linejoin: round; stroke-width: 1.16px;"/>
  <path d="M41.23,43.04c.04,.5,.15,.88,.37,1.06" style="fill: none; stroke: #e0662c; stroke-dasharray: 0 0 0 2.31; stroke-linecap: round; stroke-linejoin: round; stroke-width: 1.16px;"/>
  <path d="M39.79,41.04c-.12-.41-.15-.83-.03-1.24" style="fill: none; stroke: #e0662c; stroke-dasharray: 0 0 0 2.51; stroke-linecap: round; stroke-linejoin: round; stroke-width: 1.16px;"/>
  <path d="M39.32,36.73c-.68,.56-.7,1.05-.38,1.42" style="fill: none; stroke: #e0662c; stroke-dasharray: 0 0 0 3.34; stroke-linecap: round; stroke-linejoin: round; stroke-width: 1.16px;"/>
  <path d="M38.8,35.23c-.25-.26-.27-.55,.39-.91" style="fill: none; stroke: #e0662c; stroke-dasharray: 0 0 0 2.42; stroke-linecap: round; stroke-linejoin: round; stroke-width: 1.16px;"/>
  <path d="M39.34,31.88c.56-.84,1.84-1.81,2.05-3.29" style="fill: none; stroke: #e0662c; stroke-dasharray: 0 0 0 2.62; stroke-linecap: round; stroke-linejoin: round; stroke-width: 1.16px;"/>
  <path d="M42.92,25.98c1.06,.06,2.43,.59,3.47,.86" style="fill: none; stroke: #e0662c; stroke-dasharray: 0 0 0 2.39; stroke-linecap: round; stroke-linejoin: round; stroke-width: 1.16px;"/>
  <path d="M46.71,24.75c-.96-.72-2.51-.51-3.57-.95" style="fill: none; stroke: #e0662c; stroke-dasharray: 0 0 0 2.48; stroke-linecap: round; stroke-linejoin: round; stroke-width: 1.16px;"/>
  <path d="M42.25,22.99h0m5.32,3.99h0m-6.26,.31h0m-1,6.57h0m-.99,2.87h0m1.14,2.04h0m.78,4.27h0m1.45,.95h0m3.01,3.38h0m3.2-1.57h0m5.36,1.1h0m1.7-2.6h0m3.41,1.42h0m3.39-1.85h0m1.26-1.9h0m1.39-5.14h0m.24-5.84h0m-6.93-4.28h0m-1.61-4.36h0m-1.78,.54h0m-1.83-1.49h0m3.27-4.45h0m.21-2.44h0m1.41-.23h0m.12-2.29h0m-1.48-6.96h0m-1.99-1.62h0m-2.39-1.25h0m-.97-.55h0m-3.02-.07h0m-4.41-.95h0m-2.09,1.62h0m-2.95,.8h0m-1.26,2.63h0m-1.76,.82h0m.62,2.04h0m-1.6,.5h0m-.06,2.92h0m-4.09,3.98h0m4.87,7.87h0" style="fill: none; stroke: #e0662c; stroke-linecap: round; stroke-linejoin: round; stroke-width: 1.16px;"/>
  <path d="M52.4,23.5c1.05-1.08-1.41-3-2.82-4.95" style="fill: none; stroke: #e0662c; stroke-dasharray: 0 0 0 2.43; stroke-linecap: round; stroke-linejoin: round; stroke-width: 1.16px;"/>
  <path d="M49.19,19.8c.03,1.16,.03,2.33,.44,3.43" style="fill: none; stroke: #e0662c; stroke-dasharray: 0 0 0 2.31; stroke-linecap: round; stroke-linejoin: round; stroke-width: 1.16px;"/>
  <path d="M50.14,24.26h0m-1.18-6.75h0" style="fill: none; stroke: #e0662c; stroke-linecap: round; stroke-linejoin: round; stroke-width: 1.16px;"/>
  <path d="M47.82,36.45c-.1,.34-.17,.72-.2,1.09" style="fill: none; stroke: #e0662c; stroke-dasharray: 0 0 0 2.22; stroke-linecap: round; stroke-linejoin: round; stroke-width: 1.16px;"/>
  <path d="M49.24,37.5c.04-.35-.04-.72-.12-1.04" style="fill: none; stroke: #e0662c; stroke-dasharray: 0 0 0 2.11; stroke-linecap: round; stroke-linejoin: round; stroke-width: 1.16px;"/>
  <path d="M49.3,35.57h0m-1.62,3.08h0" style="fill: none; stroke: #e0662c; stroke-linecap: round; stroke-linejoin: round; stroke-width: 1.16px;"/>
  <path d="M44.64,16.2c-.52-.15-.98-.24-1.17-.12" style="fill: none; stroke: #e0662c; stroke-dasharray: 0 0 0 2.39; stroke-linecap: round; stroke-linejoin: round; stroke-width: 1.16px;"/>
  <path d="M45.21,17.34c.22,.14,.5,.2,.89,.08" style="fill: none; stroke: #e0662c; stroke-dasharray: 0 0 0 1.84; stroke-linecap: round; stroke-linejoin: round; stroke-width: 1.16px;"/>
  <path d="M46.9,16.98h0m-3.04,.12h0" style="fill: none; stroke: #e0662c; stroke-linecap: round; stroke-linejoin: round; stroke-width: 1.16px;"/>
  <path d="M50.1,37.26c0-.47,.17-.52,.44-.43" style="fill: none; stroke: #e0662c; stroke-dasharray: 0 0 0 1.59; stroke-linecap: round; stroke-linejoin: round; stroke-width: 1.16px;"/>
  <path d="M51.27,37.13c-.25,.21-.45,.42-.61,.51" style="fill: none; stroke: #e0662c; stroke-dasharray: 0 0 0 1.6; stroke-linecap: round; stroke-linejoin: round; stroke-width: 1.16px;"/>
  <path d="M51.27,37.13h0m-1.18,.13h0" style="fill: none; stroke: #e0662c; stroke-linecap: round; stroke-linejoin: round; stroke-width: 1.16px;"/>
  <path d="M52.91,39.42c.19,.17-.15,.55-.54,.79" style="fill: none; stroke: #e0662c; stroke-dasharray: 0 0 0 2.11; stroke-linecap: round; stroke-linejoin: round; stroke-width: 1.16px;"/>
  <path d="M51.51,40.17c.23-.12,.47-.25,.7-.37" style="fill: none; stroke: #e0662c; stroke-dasharray: 0 0 0 1.59; stroke-linecap: round; stroke-linejoin: round; stroke-width: 1.16px;"/>
  <path d="M51.51,40.17h0m1.4-.75h0" style="fill: none; stroke: #e0662c; stroke-linecap: round; stroke-linejoin: round; stroke-width: 1.16px;"/>
  <path d="M51.46,38.34c.23,.01,.31,.37,.27,.71" style="fill: none; stroke: #e0662c; stroke-dasharray: 0 0 0 1.67; stroke-linecap: round; stroke-linejoin: round; stroke-width: 1.16px;"/>
  <path d="M51.3,39.61c-.02-.21-.1-.46-.12-.68" style="fill: none; stroke: #e0662c; stroke-dasharray: 0 0 0 1.39; stroke-linecap: round; stroke-linejoin: round; stroke-width: 1.16px;"/>
  <path d="M51.3,39.61h0m.16-1.27h0" style="fill: none; stroke: #e0662c; stroke-linecap: round; stroke-linejoin: round; stroke-width: 1.16px;"/>
  <path d="M96.53,41.03c.2,.44,.36,.89,.47,1.29" style="fill: none; stroke: #e0662c; stroke-dasharray: 0 0 0 2.75; stroke-linecap: round; stroke-linejoin: round; stroke-width: 1.16px;"/>
  <path d="M97.78,45.93c-1.11-.47-.95-.7-.74-1.01" style="fill: none; stroke: #e0662c; stroke-dasharray: 0 0 0 3.08; stroke-linecap: round; stroke-linejoin: round; stroke-width: 1.16px;"/>
  <path d="M96.48,47.75c-.43,.16-.89,.25-1.21,.33" style="fill: none; stroke: #e0662c; stroke-dasharray: 0 0 0 2.51; stroke-linecap: round; stroke-linejoin: round; stroke-width: 1.16px;"/>
  <path d="M96.6,49.72c-.17,.17-.49,.27-.92,.25" style="fill: none; stroke: #e0662c; stroke-dasharray: 0 0 0 1.96; stroke-linecap: round; stroke-linejoin: round; stroke-width: 1.16px;"/>
  <path d="M95.9,51.06c.22,.36,.23,.61,.05,.81" style="fill: none; stroke: #e0662c; stroke-dasharray: 0 0 0 1.76; stroke-linecap: round; stroke-linejoin: round; stroke-width: 1.16px;"/>
  <path d="M92.86,52.85c.72,.23,1.21,.38,1.55,.45" style="fill: none; stroke: #e0662c; stroke-dasharray: 0 0 0 3.24; stroke-linecap: round; stroke-linejoin: round; stroke-width: 1.16px;"/>
  <path d="M93.34,54.89c-.18,.31-.51,.5-.94,.5" style="fill: none; stroke: #e0662c; stroke-dasharray: 0 0 0 2.24; stroke-linecap: round; stroke-linejoin: round; stroke-width: 1.16px;"/>
  <path d="M91.88,57.13c.88,1.27,2.59,1.63,3.38,4.16" style="fill: none; stroke: #e0662c; stroke-dasharray: 0 0 0 2.18; stroke-linecap: round; stroke-linejoin: round; stroke-width: 1.16px;"/>
  <path d="M96.58,64.45c.02,.42-.01,.84-.08,1.24" style="fill: none; stroke: #e0662c; stroke-dasharray: 0 0 0 2.48; stroke-linecap: round; stroke-linejoin: round; stroke-width: 1.16px;"/>
  <path d="M96.24,69.1c-.6,.54-2.03,.34-3.49,.02" style="fill: none; stroke: #e0662c; stroke-dasharray: 0 0 0 2.39; stroke-linecap: round; stroke-linejoin: round; stroke-width: 1.16px;"/>
  <path d="M94.05,69.76c3.73,1.4,1.44,.73,1.5,2.37" style="fill: none; stroke: #e0662c; stroke-dasharray: 0 0 0 2.63; stroke-linecap: round; stroke-linejoin: round; stroke-width: 1.16px;"/>
  <path d="M93.78,73.49c.21,.25,.7,.61,.87,.92" style="fill: none; stroke: #e0662c; stroke-dasharray: 0 0 0 2.54; stroke-linecap: round; stroke-linejoin: round; stroke-width: 1.16px;"/>
  <path d="M92.48,76.78c-1.39,1.08-3.42,1.67-5.12,1.85" style="fill: none; stroke: #e0662c; stroke-dasharray: 0 0 0 2.2; stroke-linecap: round; stroke-linejoin: round; stroke-width: 1.16px;"/>
  <path d="M84.29,78.27c-.25-.17-.41-.43-.47-.86" style="fill: none; stroke: #e0662c; stroke-dasharray: 0 0 0 2.03; stroke-linecap: round; stroke-linejoin: round; stroke-width: 1.16px;"/>
  <path d="M82.5,78.03c-1.62,.55-4.08-.84-4.45-2.41" style="fill: none; stroke: #e0662c; stroke-dasharray: 0 0 0 2.21; stroke-linecap: round; stroke-linejoin: round; stroke-width: 1.16px;"/>
  <path d="M76.56,73.67c-.58-.74-1.07-1.79-1.33-2.58" style="fill: none; stroke: #e0662c; stroke-dasharray: 0 0 0 1.94; stroke-linecap: round; stroke-linejoin: round; stroke-width: 1.16px;"/>
  <path d="M75.68,68.53c-.35,.21-.7,.4-.88,.64" style="fill: none; stroke: #e0662c; stroke-dasharray: 0 0 0 2.19; stroke-linecap: round; stroke-linejoin: round; stroke-width: 1.16px;"/>
  <path d="M74.56,67c-.06-.31-.11-.65-.24-.98" style="fill: none; stroke: #e0662c; stroke-dasharray: 0 0 0 2.02; stroke-linecap: round; stroke-linejoin: round; stroke-width: 1.16px;"/>
  <path d="M75.14,64.24c.22-1.06,.28-2.54,1.05-2.9" style="fill: none; stroke: #e0662c; stroke-dasharray: 0 0 0 2.12; stroke-linecap: round; stroke-linejoin: round; stroke-width: 1.16px;"/>
  <path d="M77.85,59.53c.75-.63,1.84-.74,1.59-2.34" style="fill: none; stroke: #e0662c; stroke-dasharray: 0 0 0 2.06; stroke-linecap: round; stroke-linejoin: round; stroke-width: 1.16px;"/>
  <path d="M77.47,55.84c-.15,.71,.14,.93,.55,.89" style="fill: none; stroke: #e0662c; stroke-dasharray: 0 0 0 2.57; stroke-linecap: round; stroke-linejoin: round; stroke-width: 1.16px;"/>
  <path d="M75.41,54.61c-6.73-4.83,6.95-6.55-.25-5.65" style="fill: none; stroke: #e0662c; stroke-dasharray: 0 0 0 2.41; stroke-linecap: round; stroke-linejoin: round; stroke-width: 1.16px;"/>
  <path d="M71.88,48.82c-1.04-.61,1.03-2.06,.8-2.77" style="fill: none; stroke: #e0662c; stroke-dasharray: 0 0 0 2.12; stroke-linecap: round; stroke-linejoin: round; stroke-width: 1.16px;"/>
  <path d="M72.46,43.7c-.56,.02-1.06,.35-1.27,.74" style="fill: none; stroke: #e0662c; stroke-dasharray: 0 0 0 3.07; stroke-linecap: round; stroke-linejoin: round; stroke-width: 1.16px;"/>
  <path d="M72.18,42.13c.18-.26,.4-.52,.53-.78" style="fill: none; stroke: #e0662c; stroke-dasharray: 0 0 0 1.89; stroke-linecap: round; stroke-linejoin: round; stroke-width: 1.16px;"/>
  <path d="M73.84,38.46c5.86-9.26,5.82,.92,7.14-4.53" style="fill: none; stroke: #e0662c; stroke-dasharray: 0 0 0 2.35; stroke-linecap: round; stroke-linejoin: round; stroke-width: 1.16px;"/>
  <path d="M82.97,33.1c.32-.23,.63-.45,.97-.33" style="fill: none; stroke: #e0662c; stroke-dasharray: 0 0 0 2.15; stroke-linecap: round; stroke-linejoin: round; stroke-width: 1.16px;"/>
  <path d="M87.17,33.36c1.24-.07,2.54,.07,3.4,1.23" style="fill: none; stroke: #e0662c; stroke-dasharray: 0 0 0 2.53; stroke-linecap: round; stroke-linejoin: round; stroke-width: 1.16px;"/>
  <path d="M92.8,36.83c1.27,.48,2.62,.59,2.5,1.38" style="fill: none; stroke: #e0662c; stroke-dasharray: 0 0 0 2.03; stroke-linecap: round; stroke-linejoin: round; stroke-width: 1.16px;"/>
  <path d="M94.81,39.09h0m-3.67-3.38h0m-6.49-2.15h0m-3.42-.77h0m-8.59,7.69h0m-.18,3.22h0m-.7,1.95h0m2.21,3.46h0m3.5,6.73h0m1.7,.36h0m-1.96,5.2h0m-3.46,3.79h0m1.92,3.34h0m-.65,1.62h0m3.14,4.4h0m5.67,1.85h0m2.43,2.3h0m7.58-3.6h0m2.08-1.7h0m-4.34-4.54h0m4.52-1.99h0m-.59-4.51h0m-4.18-7.3h0m1.53-2.2h0m2.31-.57h0m-.45-2.54h0m.74-1.21h0m2.32-2.6h0m-.96-2.38h0" style="fill: none; stroke: #e0662c; stroke-linecap: round; stroke-linejoin: round; stroke-width: 1.16px;"/>
  <path d="M85.82,51.91c.5-.66,.25-1.66,2.18-2.52" style="fill: none; stroke: #e0662c; stroke-dasharray: 0 0 0 2.3; stroke-linecap: round; stroke-linejoin: round; stroke-width: 1.16px;"/>
  <path d="M86.75,49.31c-2.82,.48-1.22,.65-5.4-1.5" style="fill: none; stroke: #e0662c; stroke-dasharray: 0 0 0 2.35; stroke-linecap: round; stroke-linejoin: round; stroke-width: 1.16px;"/>
  <path d="M79.28,46.39c-.28,.71,.07,.53,.43,.41" style="fill: none; stroke: #e0662c; stroke-dasharray: 0 0 0 2.09; stroke-linecap: round; stroke-linejoin: round; stroke-width: 1.16px;"/>
  <path d="M78.66,47.78c.11,.36,.22,.75,.24,1.1" style="fill: none; stroke: #e0662c; stroke-dasharray: 0 0 0 2.26; stroke-linecap: round; stroke-linejoin: round; stroke-width: 1.16px;"/>
  <path d="M79.87,51.38c1.02,.68,2.15,.75,2.92,.85" style="fill: none; stroke: #e0662c; stroke-dasharray: 0 0 0 2.05; stroke-linecap: round; stroke-linejoin: round; stroke-width: 1.16px;"/>
  <path d="M83.7,52.6h0m-5.2-2.73h0m.77-3.48h0m1.02,.89h0m8.79,1.72h0" style="fill: none; stroke: #e0662c; stroke-linecap: round; stroke-linejoin: round; stroke-width: 1.16px;"/>
  <path d="M87.22,71.8c-.23-.36-.59-.66-1.09-.84" style="fill: none; stroke: #e0662c; stroke-dasharray: 0 0 0 2.81; stroke-linecap: round; stroke-linejoin: round; stroke-width: 1.16px;"/>
  <path d="M82.67,68.84c.19,.8,.8,.59,1.31,.66" style="fill: none; stroke: #e0662c; stroke-dasharray: 0 0 0 3.27; stroke-linecap: round; stroke-linejoin: round; stroke-width: 1.16px;"/>
  <path d="M81.41,68.44c.23-.16,.53-.2,.77-.15" style="fill: none; stroke: #e0662c; stroke-dasharray: 0 0 0 1.62; stroke-linecap: round; stroke-linejoin: round; stroke-width: 1.16px;"/>
  <path d="M80.75,70.82c.49,1.8,2.97,3.32,5.01,3.63" style="fill: none; stroke: #e0662c; stroke-dasharray: 0 0 0 2.59; stroke-linecap: round; stroke-linejoin: round; stroke-width: 1.16px;"/>
  <path d="M87.05,74.47h0m-5.65-6.04h0m1.26,.41h0m2.08,1.92h0" style="fill: none; stroke: #e0662c; stroke-linecap: round; stroke-linejoin: round; stroke-width: 1.16px;"/>
  <path d="M88.53,72.71c-.62-.35-.6-.67-.36-.87" style="fill: none; stroke: #e0662c; stroke-dasharray: 0 0 0 2.29; stroke-linecap: round; stroke-linejoin: round; stroke-width: 1.16px;"/>
  <path d="M89.19,71.86c-.36,.06-.71,.07-.89,.15" style="fill: none; stroke: #e0662c; stroke-dasharray: 0 0 0 1.81; stroke-linecap: round; stroke-linejoin: round; stroke-width: 1.16px;"/>
  <path d="M89.19,71.86h0m-.66,.85h0" style="fill: none; stroke: #e0662c; stroke-linecap: round; stroke-linejoin: round; stroke-width: 1.16px;"/>
  <path d="M86.76,70.69c-.14-.06-.42-.08-.67-.12" style="fill: none; stroke: #e0662c; stroke-dasharray: 0 0 0 1.37; stroke-linecap: round; stroke-linejoin: round; stroke-width: 1.16px;"/>
  <path d="M85.68,70.19c.3-.07,.67-.18,.92-.19" style="fill: none; stroke: #e0662c; stroke-dasharray: 0 0 0 1.89; stroke-linecap: round; stroke-linejoin: round; stroke-width: 1.16px;"/>
  <path d="M85.68,70.19h0m1.08,.5h0" style="fill: none; stroke: #e0662c; stroke-linecap: round; stroke-linejoin: round; stroke-width: 1.16px;"/>
  <path d="M43.13,51.88c1.09-.36,1.07,5.25,2.66,4.32" style="fill: none; stroke: #e0662c; stroke-dasharray: 0 0 0 2.27; stroke-linecap: round; stroke-linejoin: round; stroke-width: 1.16px;"/>
  <path d="M47.87,55.98c0,1-.39,2.51,.86,2.27" style="fill: none; stroke: #e0662c; stroke-dasharray: 0 0 0 1.94; stroke-linecap: round; stroke-linejoin: round; stroke-width: 1.16px;"/>
  <path d="M49.81,59.15c-.61,.3-1.15,.73,.91,2.15" style="fill: none; stroke: #e0662c; stroke-dasharray: 0 0 0 2.03; stroke-linecap: round; stroke-linejoin: round; stroke-width: 1.16px;"/>
  <path d="M49.87,62.8c-1.56,.25-3.34-.04-1.64,.29" style="fill: none; stroke: #e0662c; stroke-dasharray: 0 0 0 2.04; stroke-linecap: round; stroke-linejoin: round; stroke-width: 1.16px;"/>
  <path d="M51.21,64.23c1.49,1.47,.47,3.85-2.24,2.82" style="fill: none; stroke: #e0662c; stroke-dasharray: 0 0 0 2.22; stroke-linecap: round; stroke-linejoin: round; stroke-width: 1.16px;"/>
  <path d="M49.57,67.89c.79,.92,.72,1.71,.46,2.96" style="fill: none; stroke: #e0662c; stroke-dasharray: 0 0 0 2.09; stroke-linecap: round; stroke-linejoin: round; stroke-width: 1.16px;"/>
  <path d="M48,72.57c-.59,.68-1.11,1.65-2.2,2.12" style="fill: none; stroke: #e0662c; stroke-dasharray: 0 0 0 2.06; stroke-linecap: round; stroke-linejoin: round; stroke-width: 1.16px;"/>
  <path d="M42.5,74.9c-1.98,.02-3.86,.11-5.64-.79" style="fill: none; stroke: #e0662c; stroke-dasharray: 0 0 0 2.31; stroke-linecap: round; stroke-linejoin: round; stroke-width: 1.16px;"/>
  <path d="M34.34,72.5c-.83-.29-1.77-.72-2.24-1.79" style="fill: none; stroke: #e0662c; stroke-dasharray: 0 0 0 1.98; stroke-linecap: round; stroke-linejoin: round; stroke-width: 1.16px;"/>
  <path d="M30.32,68.2c-1.58-2.56-2.85-7.48-1.99-9.51" style="fill: none; stroke: #e0662c; stroke-dasharray: 0 0 0 2.21; stroke-linecap: round; stroke-linejoin: round; stroke-width: 1.16px;"/>
  <path d="M30.41,55.81c1.15-1.8,2.74-3.86,4.78-3.28" style="fill: none; stroke: #e0662c; stroke-dasharray: 0 0 0 2.49; stroke-linecap: round; stroke-linejoin: round; stroke-width: 1.16px;"/>
  <path d="M37.59,51.4c.41,.07,.87,.23,1.29,.34" style="fill: none; stroke: #e0662c; stroke-dasharray: 0 0 0 2.67; stroke-linecap: round; stroke-linejoin: round; stroke-width: 1.16px;"/>
  <path d="M41.4,52.05c.1,.26,.2,.57,.28,.85" style="fill: none; stroke: #e0662c; stroke-dasharray: 0 0 0 1.79; stroke-linecap: round; stroke-linejoin: round; stroke-width: 1.16px;"/>
  <path d="M41.94,53.76h0m-1.79-2.07h0m-3.87,1.4h0m-7.24,4.8h0m2.79,11.85h0m4.04,3.75h0m8.93,1.46h0m5.01-3.09h0m-1.85-5.31h0m1.26-3.27h0m2.34-1.43h0m-1.94-3.96h0m-3.06-2.51h0" style="fill: none; stroke: #e0662c; stroke-linecap: round; stroke-linejoin: round; stroke-width: 1.16px;"/>
  <path d="M36.71,64.75c.41,.37,.81,.73,1.21,1.1" style="fill: none; stroke: #e0662c; stroke-dasharray: 0 0 0 3.27; stroke-linecap: round; stroke-linejoin: round; stroke-width: 1.16px;"/>
  <path d="M39.14,66.94c-.4,.03-.97-.32-1.47-.79" style="fill: none; stroke: #e0662c; stroke-dasharray: 0 0 0 3.42; stroke-linecap: round; stroke-linejoin: round; stroke-width: 1.16px;"/>
  <path d="M39.14,66.94h0m-2.42-2.19h0" style="fill: none; stroke: #e0662c; stroke-linecap: round; stroke-linejoin: round; stroke-width: 1.16px;"/>
  <path d="M1.11,15.86c.37-1.25,1.17-2.61,2.07-3.08" style="fill: none; stroke: #e0662c; stroke-dasharray: 0 0 0 2.53; stroke-linecap: round; stroke-linejoin: round; stroke-width: 1.16px;"/>
  <path d="M5.86,11.13c.4-.04,.74,.21,1,.46" style="fill: none; stroke: #e0662c; stroke-dasharray: 0 0 0 2.27; stroke-linecap: round; stroke-linejoin: round; stroke-width: 1.16px;"/>
  <path d="M8.9,9.57c1.72-.66,4.45,.55,6.35,1.1" style="fill: none; stroke: #e0662c; stroke-dasharray: 0 0 0 2.62; stroke-linecap: round; stroke-linejoin: round; stroke-width: 1.16px;"/>
  <path d="M17.33,13.19c.54,1.13,1.29,2.15,2.32,2.69" style="fill: none; stroke: #e0662c; stroke-dasharray: 0 0 0 2.41; stroke-linecap: round; stroke-linejoin: round; stroke-width: 1.16px;"/>
  <path d="M20.44,18.81c.18,1.2,.74,2.5,1.61,3.55" style="fill: none; stroke: #e0662c; stroke-dasharray: 0 0 0 2.63; stroke-linecap: round; stroke-linejoin: round; stroke-width: 1.16px;"/>
  <path d="M22.06,24.14c-.95-.39-2.26-1.22-2.69-.57" style="fill: none; stroke: #e0662c; stroke-dasharray: 0 0 0 1.95; stroke-linecap: round; stroke-linejoin: round; stroke-width: 1.16px;"/>
  <path d="M18.12,25.7c.26-.09,.6-.19,.84-.37" style="fill: none; stroke: #e0662c; stroke-dasharray: 0 0 0 1.86; stroke-linecap: round; stroke-linejoin: round; stroke-width: 1.16px;"/>
  <path d="M15.79,25.37c-1.63-.4-.01-.59,.45,2.24" style="fill: none; stroke: #e0662c; stroke-dasharray: 0 0 0 2.36; stroke-linecap: round; stroke-linejoin: round; stroke-width: 1.16px;"/>
  <path d="M14.22,29.37c-3.15,.87-6.94,1.72-9.34-.9" style="fill: none; stroke: #e0662c; stroke-dasharray: 0 0 0 2.2; stroke-linecap: round; stroke-linejoin: round; stroke-width: 1.16px;"/>
  <path d="M2.57,26.3c-.61-.76-1.14-1.74-1.58-2.74" style="fill: none; stroke: #e0662c; stroke-dasharray: 0 0 0 2.12; stroke-linecap: round; stroke-linejoin: round; stroke-width: 1.16px;"/>
  <path d="M.92,20.33c-.15-.4-.33-.75-.25-1.15" style="fill: none; stroke: #e0662c; stroke-dasharray: 0 0 0 2.38; stroke-linecap: round; stroke-linejoin: round; stroke-width: 1.16px;"/>
  <path d="M1.34,18.22h0m-.76,4.37H.58m3.63,5h0m12.13,1.19h0m1.77-3.08h0m1.14-1.19h0m3.73-1.23h0m-2.2-7.03h0m-4.26-5.33h0m-9.12,.67h0m-3.02,1.16h0" style="fill: none; stroke: #e0662c; stroke-linecap: round; stroke-linejoin: round; stroke-width: 1.16px;"/>
  <path d="M9.82,19.46c-1.24-.39-2.98-.37-3.77,.1" style="fill: none; stroke: #e0662c; stroke-dasharray: 0 0 0 2.57; stroke-linecap: round; stroke-linejoin: round; stroke-width: 1.16px;"/>
  <path d="M5.86,23.06c1.63,3.68,10.42,2.71,6.14-1.06" style="fill: none; stroke: #e0662c; stroke-dasharray: 0 0 0 2.46; stroke-linecap: round; stroke-linejoin: round; stroke-width: 1.16px;"/>
  <path d="M11.02,21.25h0m-5.24-.6h0" style="fill: none; stroke: #e0662c; stroke-linecap: round; stroke-linejoin: round; stroke-width: 1.16px;"/>
  <path d="M28.35,20.82c-.37,.06-.78,.15-1.21,.13" style="fill: none; stroke: #e0662c; stroke-dasharray: 0 0 0 2.43; stroke-linecap: round; stroke-linejoin: round; stroke-width: 1.16px;"/>
  <path d="M25.62,18.44c.49-2.41,5.38-.72,4.6,2.71" style="fill: none; stroke: #e0662c; stroke-dasharray: 0 0 0 2.2; stroke-linecap: round; stroke-linejoin: round; stroke-width: 1.16px;"/>
  <path d="M29.83,22.18h0m-3.83-1.6h0" style="fill: none; stroke: #e0662c; stroke-linecap: round; stroke-linejoin: round; stroke-width: 1.16px;"/>
  <path d="M15.46,32.85c-.44,.06-.88,.12-1.34,.2" style="fill: none; stroke: #e0662c; stroke-dasharray: 0 0 0 2.7; stroke-linecap: round; stroke-linejoin: round; stroke-width: 1.16px;"/>
  <path d="M13.57,31.33c1.01-.5,2.59-.55,3.63,0" style="fill: none; stroke: #e0662c; stroke-dasharray: 0 0 0 2.5; stroke-linecap: round; stroke-linejoin: round; stroke-width: 1.16px;"/>
  <path d="M18.07,32.21h0m-5.26,1.16h0" style="fill: none; stroke: #e0662c; stroke-linecap: round; stroke-linejoin: round; stroke-width: 1.16px;"/>
  <path d="M21.65,27.14c-.4,1.2-.83,2.42-1.55,3.29" style="fill: none; stroke: #e0662c; stroke-dasharray: 0 0 0 2.44; stroke-linecap: round; stroke-linejoin: round; stroke-width: 1.16px;"/>
  <path d="M19.71,28.73c.32-1.33,.79-2.72,1.6-3.42" style="fill: none; stroke: #e0662c; stroke-dasharray: 0 0 0 2.55; stroke-linecap: round; stroke-linejoin: round; stroke-width: 1.16px;"/>
  <path d="M22.47,24.85h0m-3.28,6.38h0" style="fill: none; stroke: #e0662c; stroke-linecap: round; stroke-linejoin: round; stroke-width: 1.16px;"/>
  <path d="M56.14,56.99c.49,.03,1.07-.11,1.57-.35" style="fill: none; stroke: #e0662c; stroke-dasharray: 0 0 0 3.26; stroke-linecap: round; stroke-linejoin: round; stroke-width: 1.16px;"/>
  <path d="M58.85,55.55c-.45,.24-.89,.48-1.36,.72" style="fill: none; stroke: #e0662c; stroke-dasharray: 0 0 0 3.07; stroke-linecap: round; stroke-linejoin: round; stroke-width: 1.16px;"/>
  <path d="M58.85,55.55h0m-2.71,1.44h0" style="fill: none; stroke: #e0662c; stroke-linecap: round; stroke-linejoin: round; stroke-width: 1.16px;"/>
  <path d="M90.11,49.09c.67-2.67-1.57-5.11-4.49-5.5" style="fill: none; stroke: #e0662c; stroke-dasharray: 0 0 0 2.29; stroke-linecap: round; stroke-linejoin: round; stroke-width: 1.16px;"/>
  <path d="M82.34,45.12c-.24-.15-.28-.61,0-1.32" style="fill: none; stroke: #e0662c; stroke-dasharray: 0 0 0 2.81; stroke-linecap: round; stroke-linejoin: round; stroke-width: 1.16px;"/>
  <path d="M85.39,41.36c.49-.13,.96-.24,1.32-.35" style="fill: none; stroke: #e0662c; stroke-dasharray: 0 0 0 2.73; stroke-linecap: round; stroke-linejoin: round; stroke-width: 1.16px;"/>
  <path d="M84.28,40.22c-1.26-.3-2.52-.74-3.75-.64" style="fill: none; stroke: #e0662c; stroke-dasharray: 0 0 0 2.55; stroke-linecap: round; stroke-linejoin: round; stroke-width: 1.16px;"/>
  <path d="M77.29,40.66c-.79-.29-.88-1.75-1.2-3" style="fill: none; stroke: #e0662c; stroke-dasharray: 0 0 0 2.22; stroke-linecap: round; stroke-linejoin: round; stroke-width: 1.16px;"/>
  <path d="M76.94,35.48c.82,.56,1.9,1.76,2.81,2.43" style="fill: none; stroke: #e0662c; stroke-dasharray: 0 0 0 2.48; stroke-linecap: round; stroke-linejoin: round; stroke-width: 1.16px;"/>
  <path d="M83.23,38.61c1.89,.27,4.28,.78,5.75,1.46" style="fill: none; stroke: #e0662c; stroke-dasharray: 0 0 0 2.38; stroke-linecap: round; stroke-linejoin: round; stroke-width: 1.16px;"/>
  <path d="M92.24,39.75c.46-.07,.91-.1,1.24-.08" style="fill: none; stroke: #e0662c; stroke-dasharray: 0 0 0 2.5; stroke-linecap: round; stroke-linejoin: round; stroke-width: 1.16px;"/>
  <path d="M95.39,42.21c.4,.52,.56,.92,.02,1.01" style="fill: none; stroke: #e0662c; stroke-dasharray: 0 0 0 2.63; stroke-linecap: round; stroke-linejoin: round; stroke-width: 1.16px;"/>
  <path d="M92.58,41.18c-2.39-2.32,.98,7.18-2.39,9.48" style="fill: none; stroke: #e0662c; stroke-dasharray: 0 0 0 2.48; stroke-linecap: round; stroke-linejoin: round; stroke-width: 1.16px;"/>
  <path d="M89.04,51.09h0m5.06-7.97h0m-.44-2.89h0m-3.67,.47h0m-9.13-2.31h0m-5.14-1.78h0m3.58,3.29h0m7.5,.52h0m-3.79,2.15h0m1.46,.97h0" style="fill: none; stroke: #e0662c; stroke-linecap: round; stroke-linejoin: round; stroke-width: 1.16px;"/>
  <path d="M57.95,39.31c.67-2.67-1.57-5.11-4.49-5.5" style="fill: none; stroke: #e0662c; stroke-dasharray: 0 0 0 2.29; stroke-linecap: round; stroke-linejoin: round; stroke-width: 1.16px;"/>
  <path d="M50.19,35.34c-.24-.15-.28-.61,0-1.32" style="fill: none; stroke: #e0662c; stroke-dasharray: 0 0 0 2.81; stroke-linecap: round; stroke-linejoin: round; stroke-width: 1.16px;"/>
  <path d="M53.24,31.58c.49-.13,.96-.24,1.32-.35" style="fill: none; stroke: #e0662c; stroke-dasharray: 0 0 0 2.73; stroke-linecap: round; stroke-linejoin: round; stroke-width: 1.16px;"/>
  <path d="M52.12,30.44c-1.26-.3-2.52-.74-3.75-.64" style="fill: none; stroke: #e0662c; stroke-dasharray: 0 0 0 2.55; stroke-linecap: round; stroke-linejoin: round; stroke-width: 1.16px;"/>
  <path d="M45.13,30.88c-.79-.29-.88-1.75-1.2-3" style="fill: none; stroke: #e0662c; stroke-dasharray: 0 0 0 2.22; stroke-linecap: round; stroke-linejoin: round; stroke-width: 1.16px;"/>
  <path d="M44.78,25.7c.82,.56,1.9,1.76,2.81,2.43" style="fill: none; stroke: #e0662c; stroke-dasharray: 0 0 0 2.48; stroke-linecap: round; stroke-linejoin: round; stroke-width: 1.16px;"/>
  <path d="M51.07,28.84c1.89,.27,4.28,.78,5.75,1.46" style="fill: none; stroke: #e0662c; stroke-dasharray: 0 0 0 2.38; stroke-linecap: round; stroke-linejoin: round; stroke-width: 1.16px;"/>
  <path d="M60.08,29.97c.46-.07,.91-.1,1.25-.08" style="fill: none; stroke: #e0662c; stroke-dasharray: 0 0 0 2.5; stroke-linecap: round; stroke-linejoin: round; stroke-width: 1.16px;"/>
  <path d="M63.23,32.43c.4,.52,.56,.92,.02,1.01" style="fill: none; stroke: #e0662c; stroke-dasharray: 0 0 0 2.63; stroke-linecap: round; stroke-linejoin: round; stroke-width: 1.16px;"/>
  <path d="M60.42,31.4c-2.39-2.32,.98,7.19-2.39,9.48" style="fill: none; stroke: #e0662c; stroke-dasharray: 0 0 0 2.48; stroke-linecap: round; stroke-linejoin: round; stroke-width: 1.16px;"/>
  <path d="M56.89,41.32h0m5.06-7.97h0m-.44-2.89h0m-3.67,.47h0m-9.13-2.31h0m-5.14-1.78h0m3.58,3.29h0m7.5,.52h0m-3.79,2.15h0m1.46,.97h0" style="fill: none; stroke: #e0662c; stroke-linecap: round; stroke-linejoin: round; stroke-width: 1.16px;"/>
  <path d="M89.09,53.82c.67-2.67-1.57-5.11-4.49-5.5" style="fill: none; stroke: #e0662c; stroke-dasharray: 0 0 0 2.29; stroke-linecap: round; stroke-linejoin: round; stroke-width: 1.16px;"/>
  <path d="M81.32,49.86c-.24-.15-.28-.61,0-1.32" style="fill: none; stroke: #e0662c; stroke-dasharray: 0 0 0 2.81; stroke-linecap: round; stroke-linejoin: round; stroke-width: 1.16px;"/>
  <path d="M84.37,46.09c.49-.13,.96-.24,1.32-.35" style="fill: none; stroke: #e0662c; stroke-dasharray: 0 0 0 2.73; stroke-linecap: round; stroke-linejoin: round; stroke-width: 1.16px;"/>
  <path d="M83.26,44.95c-1.26-.3-2.52-.74-3.75-.64" style="fill: none; stroke: #e0662c; stroke-dasharray: 0 0 0 2.55; stroke-linecap: round; stroke-linejoin: round; stroke-width: 1.16px;"/>
  <path d="M76.27,45.39c-.79-.29-.88-1.75-1.2-3" style="fill: none; stroke: #e0662c; stroke-dasharray: 0 0 0 2.22; stroke-linecap: round; stroke-linejoin: round; stroke-width: 1.16px;"/>
  <path d="M75.91,40.22c.82,.56,1.9,1.76,2.81,2.43" style="fill: none; stroke: #e0662c; stroke-dasharray: 0 0 0 2.48; stroke-linecap: round; stroke-linejoin: round; stroke-width: 1.16px;"/>
  <path d="M82.21,43.35c1.89,.27,4.28,.78,5.75,1.46" style="fill: none; stroke: #e0662c; stroke-dasharray: 0 0 0 2.38; stroke-linecap: round; stroke-linejoin: round; stroke-width: 1.16px;"/>
  <path d="M91.21,44.48c.46-.07,.91-.1,1.24-.08" style="fill: none; stroke: #e0662c; stroke-dasharray: 0 0 0 2.5; stroke-linecap: round; stroke-linejoin: round; stroke-width: 1.16px;"/>
  <path d="M94.37,46.95c.4,.52,.56,.92,.02,1.01" style="fill: none; stroke: #e0662c; stroke-dasharray: 0 0 0 2.63; stroke-linecap: round; stroke-linejoin: round; stroke-width: 1.16px;"/>
  <path d="M91.55,45.91c-2.39-2.32,.98,7.19-2.39,9.48" style="fill: none; stroke: #e0662c; stroke-dasharray: 0 0 0 2.48; stroke-linecap: round; stroke-linejoin: round; stroke-width: 1.16px;"/>
  <path d="M88.02,55.83h0m5.06-7.97h0m-.44-2.89h0m-3.67,.47h0m-9.13-2.31h0m-5.14-1.78h0m3.58,3.29h0m7.51,.52h0m-3.79,2.15h0m1.46,.97h0" style="fill: none; stroke: #e0662c; stroke-linecap: round; stroke-linejoin: round; stroke-width: 1.16px;"/>
  <path d="M51.69,32.03c.67-2.67-1.57-5.11-4.49-5.5" style="fill: none; stroke: #e0662c; stroke-dasharray: 0 0 0 2.29; stroke-linecap: round; stroke-linejoin: round; stroke-width: 1.16px;"/>
  <path d="M43.92,28.06c-.24-.15-.28-.61,0-1.32" style="fill: none; stroke: #e0662c; stroke-dasharray: 0 0 0 2.81; stroke-linecap: round; stroke-linejoin: round; stroke-width: 1.16px;"/>
  <path d="M46.98,24.3c.49-.13,.96-.24,1.32-.35" style="fill: none; stroke: #e0662c; stroke-dasharray: 0 0 0 2.73; stroke-linecap: round; stroke-linejoin: round; stroke-width: 1.16px;"/>
  <path d="M45.86,23.16c-1.26-.3-2.52-.74-3.75-.64" style="fill: none; stroke: #e0662c; stroke-dasharray: 0 0 0 2.55; stroke-linecap: round; stroke-linejoin: round; stroke-width: 1.16px;"/>
  <path d="M38.87,23.59c-.79-.29-.88-1.75-1.2-3" style="fill: none; stroke: #e0662c; stroke-dasharray: 0 0 0 2.22; stroke-linecap: round; stroke-linejoin: round; stroke-width: 1.16px;"/>
  <path d="M38.52,18.42c.82,.56,1.9,1.76,2.81,2.43" style="fill: none; stroke: #e0662c; stroke-dasharray: 0 0 0 2.48; stroke-linecap: round; stroke-linejoin: round; stroke-width: 1.16px;"/>
  <path d="M44.81,21.55c1.89,.27,4.28,.78,5.75,1.46" style="fill: none; stroke: #e0662c; stroke-dasharray: 0 0 0 2.38; stroke-linecap: round; stroke-linejoin: round; stroke-width: 1.16px;"/>
  <path d="M53.82,22.69c.46-.07,.91-.1,1.24-.08" style="fill: none; stroke: #e0662c; stroke-dasharray: 0 0 0 2.5; stroke-linecap: round; stroke-linejoin: round; stroke-width: 1.16px;"/>
  <path d="M56.97,25.15c.4,.52,.56,.92,.02,1.01" style="fill: none; stroke: #e0662c; stroke-dasharray: 0 0 0 2.63; stroke-linecap: round; stroke-linejoin: round; stroke-width: 1.16px;"/>
  <path d="M54.16,24.12c-2.39-2.32,.98,7.19-2.39,9.48" style="fill: none; stroke: #e0662c; stroke-dasharray: 0 0 0 2.48; stroke-linecap: round; stroke-linejoin: round; stroke-width: 1.16px;"/>
  <path d="M50.62,34.03h0m5.06-7.97h0m-.44-2.89h0m-3.67,.47h0m-9.13-2.31h0m-5.14-1.78h0m3.58,3.29h0m7.5,.52h0m-3.79,2.15h0m1.46,.97h0" style="fill: none; stroke: #e0662c; stroke-linecap: round; stroke-linejoin: round; stroke-width: 1.16px;"/>
  <path d="M52.34,18.88c.67-2.67-1.57-5.11-4.49-5.5" style="fill: none; stroke: #e0662c; stroke-dasharray: 0 0 0 2.29; stroke-linecap: round; stroke-linejoin: round; stroke-width: 1.16px;"/>
  <path d="M44.57,14.92c-.24-.15-.28-.61,0-1.32" style="fill: none; stroke: #e0662c; stroke-dasharray: 0 0 0 2.81; stroke-linecap: round; stroke-linejoin: round; stroke-width: 1.16px;"/>
  <path d="M47.62,11.16c.49-.13,.96-.24,1.32-.34" style="fill: none; stroke: #e0662c; stroke-dasharray: 0 0 0 2.73; stroke-linecap: round; stroke-linejoin: round; stroke-width: 1.16px;"/>
  <path d="M46.51,10.01c-1.26-.3-2.52-.74-3.75-.64" style="fill: none; stroke: #e0662c; stroke-dasharray: 0 0 0 2.55; stroke-linecap: round; stroke-linejoin: round; stroke-width: 1.16px;"/>
  <path d="M39.52,10.45c-.79-.29-.88-1.75-1.2-3" style="fill: none; stroke: #e0662c; stroke-dasharray: 0 0 0 2.22; stroke-linecap: round; stroke-linejoin: round; stroke-width: 1.16px;"/>
  <path d="M39.16,5.28c.82,.56,1.9,1.76,2.81,2.43" style="fill: none; stroke: #e0662c; stroke-dasharray: 0 0 0 2.48; stroke-linecap: round; stroke-linejoin: round; stroke-width: 1.16px;"/>
  <path d="M45.46,8.41c1.89,.27,4.28,.78,5.75,1.46" style="fill: none; stroke: #e0662c; stroke-dasharray: 0 0 0 2.38; stroke-linecap: round; stroke-linejoin: round; stroke-width: 1.16px;"/>
  <path d="M54.46,9.54c.46-.07,.91-.1,1.24-.08" style="fill: none; stroke: #e0662c; stroke-dasharray: 0 0 0 2.5; stroke-linecap: round; stroke-linejoin: round; stroke-width: 1.16px;"/>
  <path d="M57.62,12.01c.4,.52,.56,.92,.02,1.01" style="fill: none; stroke: #e0662c; stroke-dasharray: 0 0 0 2.63; stroke-linecap: round; stroke-linejoin: round; stroke-width: 1.16px;"/>
  <path d="M54.8,10.97c-2.39-2.32,.98,7.19-2.39,9.48" style="fill: none; stroke: #e0662c; stroke-dasharray: 0 0 0 2.48; stroke-linecap: round; stroke-linejoin: round; stroke-width: 1.16px;"/>
  <path d="M51.27,20.89h0m5.06-7.97h0m-.44-2.89h0m-3.67,.47h0m-9.13-2.31h0m-5.14-1.78h0m3.58,3.29h0m7.51,.52h0m-3.79,2.15h0m1.46,.97h0" style="fill: none; stroke: #e0662c; stroke-linecap: round; stroke-linejoin: round; stroke-width: 1.16px;"/>
  <path d="M89.86,51.95c.67-2.67-1.57-5.11-4.49-5.5" style="fill: none; stroke: #e0662c; stroke-dasharray: 0 0 0 2.29; stroke-linecap: round; stroke-linejoin: round; stroke-width: 1.16px;"/>
  <path d="M82.1,47.98c-.24-.15-.28-.61,0-1.32" style="fill: none; stroke: #e0662c; stroke-dasharray: 0 0 0 2.81; stroke-linecap: round; stroke-linejoin: round; stroke-width: 1.16px;"/>
  <path d="M85.15,44.22c.49-.13,.96-.24,1.32-.35" style="fill: none; stroke: #e0662c; stroke-dasharray: 0 0 0 2.73; stroke-linecap: round; stroke-linejoin: round; stroke-width: 1.16px;"/>
  <path d="M84.03,43.08c-1.26-.3-2.52-.74-3.75-.64" style="fill: none; stroke: #e0662c; stroke-dasharray: 0 0 0 2.55; stroke-linecap: round; stroke-linejoin: round; stroke-width: 1.16px;"/>
  <path d="M77.04,43.52c-.79-.29-.88-1.75-1.2-3" style="fill: none; stroke: #e0662c; stroke-dasharray: 0 0 0 2.22; stroke-linecap: round; stroke-linejoin: round; stroke-width: 1.16px;"/>
  <path d="M76.69,38.34c.82,.56,1.9,1.76,2.81,2.43" style="fill: none; stroke: #e0662c; stroke-dasharray: 0 0 0 2.48; stroke-linecap: round; stroke-linejoin: round; stroke-width: 1.16px;"/>
  <path d="M82.98,41.48c1.89,.27,4.28,.78,5.75,1.46" style="fill: none; stroke: #e0662c; stroke-dasharray: 0 0 0 2.38; stroke-linecap: round; stroke-linejoin: round; stroke-width: 1.16px;"/>
  <path d="M91.99,42.61c.46-.07,.91-.1,1.24-.08" style="fill: none; stroke: #e0662c; stroke-dasharray: 0 0 0 2.5; stroke-linecap: round; stroke-linejoin: round; stroke-width: 1.16px;"/>
  <path d="M95.14,45.07c.4,.52,.56,.92,.02,1.01" style="fill: none; stroke: #e0662c; stroke-dasharray: 0 0 0 2.63; stroke-linecap: round; stroke-linejoin: round; stroke-width: 1.16px;"/>
  <path d="M92.33,44.04c-2.39-2.32,.98,7.18-2.39,9.48" style="fill: none; stroke: #e0662c; stroke-dasharray: 0 0 0 2.48; stroke-linecap: round; stroke-linejoin: round; stroke-width: 1.16px;"/>
  <path d="M88.8,53.96h0m5.06-7.97h0m-.44-2.89h0m-3.67,.47h0m-9.13-2.31h0m-5.14-1.78h0m3.58,3.29h0m7.51,.52h0m-3.79,2.15h0m1.46,.97h0" style="fill: none; stroke: #e0662c; stroke-linecap: round; stroke-linejoin: round; stroke-width: 1.16px;"/>
</svg>