<svg width="44" height="78" viewBox="0 0 44 78" fill="none" xmlns="http://www.w3.org/2000/svg">
<g clip-path="url(#clip0_72_874)">
<path d="M40.7523 20.292C40.3831 20.2529 40.0139 20.2171 39.5794 20.1715C39.4781 20.6826 38.8181 21.1645 39.1318 21.9263C39.4748 21.7277 39.7852 21.5454 40.0989 21.363C40.3145 21.4607 40.5236 21.5812 40.7458 21.6528C40.8863 21.6984 41.1215 21.7472 41.1869 21.6788C41.2783 21.5812 41.3078 21.3468 41.2522 21.2198C41.2065 21.1124 40.9778 20.9952 40.8699 21.0245C40.5955 21.0993 40.3472 21.2556 40.0858 21.3793C40.3014 21.0114 40.5171 20.6468 40.7327 20.2789L41.6541 19.4716C41.5953 19.3902 41.5365 19.3088 41.4744 19.2274C41.0692 19.3706 40.6641 19.5171 40.2034 19.6799C40.4517 19.9599 40.5988 20.1259 40.7458 20.2952L40.7523 20.292ZM26.0366 73.3999C27.6801 72.5698 29.3235 71.7396 30.9669 70.9062C28.9935 71.1113 27.0952 71.4564 26.0366 73.3999ZM3.33255 33.4933C3.61027 33.2654 3.98274 32.9626 4.3552 32.6566C3.64294 32.025 2.89801 32.038 2.57128 32.6078C2.81633 32.891 3.0483 33.1612 3.33255 33.4933ZM1.18924 31.7581C0.989938 31.8427 0.784101 31.8687 0.70242 31.9827C0.620739 32.0966 0.669748 32.2985 0.659946 32.4613C0.83311 32.4645 1.04548 32.5361 1.1729 32.4613C1.48329 32.2724 1.75447 32.0185 2.05833 31.7808C1.92437 31.4716 1.75774 31.0874 1.58131 30.6805C1.34934 30.8595 1.1631 31.0028 0.9638 31.159C1.02914 31.3316 1.09449 31.5074 1.18924 31.7581ZM4.12976 39.3598C4.36827 39.8937 4.41074 39.8872 5.58695 39.0212C5.44973 38.6208 5.30597 38.2073 5.21449 37.9404C4.8845 38.3701 4.55124 38.8063 4.12976 39.3565V39.3598ZM42.0069 17.6712C42.0004 17.7494 41.9939 17.8308 41.9873 17.9089C42.1213 18.2572 42.2585 18.6056 42.3957 18.9604C43.0035 18.7391 43.3661 18.1075 43.2975 17.2187C42.876 17.4433 42.9185 18.6577 42.0069 17.6712ZM42.7029 10.8085C41.677 10.8769 42.1801 11.4596 42.1344 11.7917C42.1213 11.8894 42.4578 12.1563 42.5428 12.1238C43.5295 11.7363 42.2258 11.2968 42.7029 10.8085ZM1.90803 39.1645C2.28703 39.1286 2.54841 39.1059 2.80653 39.0831C2.75425 39.1384 2.69871 39.1938 2.64643 39.2491C2.45693 38.8682 2.26416 38.4873 2.07466 38.1064C1.98972 38.1813 1.90477 38.2594 1.81982 38.3343C1.84922 38.6208 1.8819 38.9073 1.90803 39.1645ZM30.9506 9.32723C30.8885 9.43792 30.8232 9.54861 30.7611 9.6593C31.0159 9.81556 31.2675 9.97183 31.5224 10.1248C31.5779 10.0109 31.6988 9.81231 31.6792 9.79603C31.4472 9.62349 31.1956 9.47699 30.9506 9.32397V9.32723ZM20.2406 22.1737C20.2111 22.2127 20.185 22.2486 20.1556 22.2876C20.3843 22.2518 20.7176 22.2909 20.8123 22.1607C20.9757 21.9393 20.9855 21.6072 21.0606 21.324C21.1358 21.4444 21.2109 21.5649 21.2861 21.6886C20.9365 21.8514 20.5869 22.0142 20.2406 22.1769V22.1737Z" stroke="#FF512B" stroke-width="2" stroke-linecap="round" stroke-linejoin="round" stroke-dasharray="0.5 5"/>
<path d="M3.37505 15.0309C3.33911 15.1448 3.30317 15.262 3.26397 15.3955C3.33585 15.4346 3.39466 15.4899 3.45347 15.4899C4.02197 15.4802 4.44671 15.6169 4.64275 16.2485C4.72769 16.5219 5.07076 16.7173 5.29293 16.9484C5.38441 16.9224 5.47589 16.8963 5.56411 16.8703C5.42035 17.1535 5.21125 17.4237 5.15244 17.7232C5.09363 18.0228 5.19164 18.3483 5.22432 18.7032C5.38441 18.6706 5.47589 18.6348 5.56084 18.6413C5.77648 18.6543 5.99212 18.6869 6.20776 18.7129C6.12281 18.9018 6.08687 19.1817 5.94311 19.2599C5.35827 19.5757 5.36807 20.0119 5.62619 20.6142C5.93331 20.4221 6.23063 20.2398 6.68151 19.9598C6.90368 21.0862 6.32864 22.0564 6.32864 23.1112C7.15526 22.3006 7.16506 21.083 7.74663 20.2268C8.10276 20.3505 8.48176 20.4807 8.97511 20.65C8.8967 20.8453 8.76601 21.0862 8.71373 21.3467C8.64185 21.7113 8.48176 22.1541 8.61572 22.4438C8.98165 23.2251 8.97511 23.8437 8.29226 24.4427C8.11583 24.599 8.10929 24.9473 7.98187 25.3315C8.35107 25.1199 8.58304 24.9506 8.84116 24.8432C9.32144 24.6446 9.56649 24.9213 9.58609 25.3445C9.61549 26.077 9.55995 26.8128 9.56975 27.5485C9.56975 27.7504 9.69391 27.949 9.74292 28.1541C9.79519 28.3787 9.93242 28.6847 9.84093 28.8215C9.31164 29.6028 9.80173 30.1269 10.2199 30.7162C10.893 30.2441 11.2589 29.72 10.8603 28.8996C10.5401 28.2387 11.0465 27.8253 11.4778 27.5485C11.6967 27.4053 12.1574 27.6332 12.6736 27.7178C12.9383 27.3565 13.314 26.8649 13.6603 26.357C13.9969 25.8654 14.1243 25.1394 15.1208 25.2534C14.9542 25.5073 14.8268 25.7026 14.6993 25.898C14.7189 25.937 14.7385 25.9761 14.7581 26.0184C15.0097 25.8589 15.2613 25.7026 15.5161 25.5399C15.9441 26.038 16.065 26.6598 15.869 27.3304C15.7154 27.8578 15.9441 28.1345 16.3852 28.3689C16.6793 28.5252 16.9211 28.7726 17.2347 28.9094C17.8163 29.2675 18.3979 29.6288 19.0023 30C19.1624 29.9153 19.3944 29.7949 19.8028 29.58C19.6623 30.0032 19.5904 30.2181 19.5218 30.4199C19.8387 30.4981 20.1524 30.5762 20.5248 30.6674C21.2502 30.0455 21.2567 29.9967 20.6065 29.5409C20.564 29.1763 21.1162 28.6522 20.3157 28.434C20.5183 28.4178 20.7209 28.4047 20.9659 28.3852C21.0149 27.9197 21.0672 27.4476 21.126 26.8714C20.8973 26.9853 20.7503 27.0569 20.5608 27.1481C20.3484 26.5849 20.1556 26.0314 19.9367 25.491C19.5349 24.4981 19.2441 23.3749 17.9764 23.5963C17.7346 23.0266 17.5484 22.5936 17.3458 22.1117C17.6366 22.1117 17.8065 22.1476 17.9568 22.1052C18.2214 22.0271 18.5449 21.7504 18.718 21.8285C19.1755 22.0369 19.5806 22.3754 19.9694 22.7043C20.0184 22.7466 19.8975 23.1307 19.7668 23.2056C19.3911 23.4237 19.4172 23.6386 19.5904 23.9837C19.9792 24.7683 20.3223 25.5789 20.698 26.4123C21.0803 26.3179 21.4527 26.2235 21.786 26.1421C21.9036 25.0776 21.9265 24.1009 20.3909 24.3516C20.417 23.8763 20.4366 23.4791 20.4628 22.9419C21.028 23.58 21.273 24.599 22.5473 24.3581C22.0735 23.9153 21.6912 23.5572 21.1783 23.0786H22.8282C22.5113 22.6196 22.1977 22.1606 21.8219 21.6169C22.0016 21.4574 22.2401 21.249 22.5767 20.9528C22.2924 20.9918 22.1356 21.0146 21.9101 21.0472V19.9598C21.7402 19.9468 21.5344 19.9305 21.3057 19.9142C21.8644 19.1459 22.4068 19.0255 23.1713 19.4845C23.7529 19.8329 24.341 20.1682 24.8997 20.5491C25.0467 20.6467 25.2133 20.9463 25.1611 21.0635C24.9095 21.6364 25.0532 22.0955 25.3996 22.5643C25.4812 22.675 25.429 22.8833 25.4453 23.1991C25.1022 22.9582 24.9095 22.8247 24.7167 22.688C24.684 22.7108 24.6514 22.7336 24.6187 22.7563C24.8539 23.0754 25.0924 23.3944 25.3996 23.8111C25.3146 24 25.1774 24.3093 25.0434 24.6055C25.8602 24.306 26.0399 23.9511 25.7524 23.3782C25.9648 22.8084 26.1478 22.3103 26.3699 21.7081C26.481 21.7829 26.6901 22.0238 26.9352 22.0662C27.1443 22.102 27.5429 21.9685 27.6017 21.8122C27.8304 21.1839 28.1244 20.51 28.0852 19.8719C28.0362 19.1297 27.4612 19.745 26.9515 19.6212C27.1508 20.0087 27.275 20.2496 27.4645 20.624C26.8535 20.1714 26.3471 19.7938 25.8798 19.4454C25.8308 18.9929 25.7851 18.5795 25.7328 18.0976C26.4026 18.3776 27.0005 18.6283 27.6768 18.9115C27.6605 18.5697 27.6507 18.3158 27.6442 18.153C28.0428 18.4167 28.4577 18.6478 28.8171 18.9441C28.9511 19.0548 28.9315 19.3315 29.0229 19.5073C29.1438 19.7352 29.2614 20.0184 29.464 20.1259C29.5947 20.1942 29.879 20.0087 30.0815 19.911C30.2874 19.8101 30.4801 19.6798 30.7219 19.5366C30.5716 19.3315 30.418 19.1231 30.3723 19.0645C30.4115 18.4851 30.4409 18.0521 30.4703 17.6223H28.5949C28.7877 17.414 28.9903 17.1958 29.2614 16.9028C28.6701 16.5252 28.1669 15.7927 27.1998 16.4829L27.1606 16.2029C27.5167 16.0629 27.8729 15.9229 28.1996 15.796C28.0787 15.6495 27.752 15.3239 27.7879 15.2783C27.9872 15.0179 28.2747 14.8291 28.5067 14.6337C28.474 14.5491 28.4022 14.3798 28.3335 14.2105C28.8204 14.1649 29.3039 14.1193 29.9378 14.0607C29.5751 14.9267 29.4967 15.4932 30.2808 15.8708C30.4834 15.9685 30.5259 16.3787 30.6729 16.6261C30.8101 16.8605 30.9833 17.0754 31.1401 17.3L31.3459 17.2121C31.2447 16.5382 31.1401 15.8643 30.9898 14.8746C31.175 14.4449 31.0279 13.8893 30.5487 13.2078C30.4638 13.0841 30.4148 12.9376 30.2874 12.6739C30.3037 12.6739 30.124 12.7162 29.9508 12.6967C29.8593 12.6869 29.7483 12.5892 29.7025 12.5013C29.6797 12.4558 29.7548 12.3125 29.8201 12.2702C30.2688 11.9837 30.3179 11.6245 29.9672 11.1926C29.879 11.0852 29.7842 10.981 29.6502 10.8312C30.7938 10.6489 32.1334 10.9647 32.5026 9.34343C32.3229 9.37599 32.1987 9.39878 31.9667 9.43784C32.1497 8.96253 32.3032 8.56535 32.4568 8.16817C32.349 7.24034 32.4437 6.27669 32.8619 5.1698C32.973 5.64186 33.0482 5.94788 33.1527 6.39064C33.6494 5.85998 33.9467 5.4921 33.6232 4.83448C33.3912 4.35917 33.3226 3.79921 33.2442 3.2653C33.2279 3.14484 33.5187 3.0016 33.5807 2.83882C33.6755 2.58163 33.7016 2.2984 33.7376 2.02493C33.7833 1.66356 33.7702 1.28917 33.8585 0.940827C33.8911 0.807349 34.1852 0.618526 34.2865 0.654338C34.4694 0.719449 34.6001 0.937572 34.8223 1.16221C34.8354 1.16221 35.0183 1.07431 35.2046 1.07756C35.6522 1.08407 35.8384 1.42916 35.5509 1.76123C35.2405 2.11934 34.855 2.41234 34.4139 2.81278C34.672 2.95602 34.9203 3.12856 35.1948 3.236C35.8188 3.48017 35.9266 3.84804 35.4627 4.33312C35.1588 4.64891 34.819 4.92889 34.4106 5.30654C34.8484 5.36188 35.1033 5.39118 35.3549 5.42374C35.2666 5.70697 35.2568 6.05857 35.0804 6.26367C34.623 6.79107 34.4466 7.29894 34.9661 7.92726C35.0804 7.84913 35.2242 7.74821 35.5051 7.55613C35.5934 7.92075 35.6652 8.22677 35.7567 8.61093C35.8743 8.36676 36.1292 8.08353 36.1031 7.8296C36.0508 7.33149 36.4527 7.40963 36.6683 7.25336C36.8709 7.10361 37.08 6.96362 37.2858 6.81712C37.3511 6.88223 37.4198 6.94734 37.4851 7.00919C37.6093 6.62829 37.7334 6.24414 37.8641 5.86649C37.9785 5.52791 38.0634 5.1405 38.547 5.53768C38.6221 5.59954 38.7626 5.58 38.8704 5.60605C39.0566 5.65162 39.2396 5.70371 39.4258 5.75255C39.2756 5.94137 39.1612 6.22786 38.9684 6.29623C38.4555 6.47528 38.0536 6.67062 38.1908 7.31847C38.2039 7.38358 38.1712 7.52357 38.1614 7.52357C37.4165 7.5366 37.4002 8.29514 36.9983 8.65C36.8774 8.75743 36.6585 8.87138 36.6585 8.98207C36.6585 9.7048 36.041 9.51272 35.8286 9.39878C34.9726 8.93974 34.6981 9.7048 34.3159 10.0857C33.9989 10.4015 33.8617 10.8638 34.4106 11.2577C34.5936 11.3879 34.5773 11.7916 34.6622 12.1041H35.528C34.9661 13.2599 33.8781 14.2235 34.6132 15.5843C35.4725 15.2848 35.6783 14.9072 35.5346 13.9631C35.5117 13.8231 35.6097 13.6636 35.6522 13.5138C35.7763 13.5659 35.9854 13.5919 36.0148 13.6798C36.3089 14.5002 37.0244 14.1649 37.5799 14.2626C37.6387 14.2724 37.7432 14.1747 37.7726 14.1975C38.5633 14.7542 39.0044 14.2658 39.4945 13.6994C39.9061 13.2208 40.4354 12.8399 40.9059 12.4232C41.0889 12.4427 41.3503 12.3939 41.4287 12.4916C41.5953 12.6999 41.8011 13.0125 41.7521 13.2273C41.6672 13.605 41.4025 13.9435 41.1934 14.344C40.9876 14.1877 40.7523 14.0119 40.4616 13.7938C40.5171 14.1259 40.553 14.3635 40.5923 14.6044C40.2851 14.6174 39.9813 14.6337 39.6219 14.65C39.599 15.0862 39.0991 15.4964 39.3213 16.0987C39.3507 16.1834 38.9913 16.548 38.8769 16.5187C38.0111 16.3038 37.4394 16.7791 36.812 17.4172C36.7402 17.0396 36.6912 16.7889 36.6258 16.4275C36.3285 16.7596 35.943 16.8931 36.2468 17.3912C36.4625 17.746 35.7306 18.5729 35.1948 18.5957C34.7471 18.6153 34.2963 18.612 33.8454 18.586C33.7702 18.5827 33.7049 18.4199 33.5938 18.2832C33.3814 18.892 33.2442 19.3803 34.0872 19.5659C34.4302 19.6408 34.7112 20.663 34.5446 20.9983C34.4564 21.1709 34.3322 21.3369 34.2897 21.5192C34.146 22.1638 34.1558 22.1638 33.6461 22.3364C33.6755 22.7498 33.6559 23.1438 33.7441 23.5084C33.8323 23.8795 33.9597 24.2962 34.2113 24.5502C34.3518 24.6934 34.7994 24.6088 35.0804 24.5339C35.4529 24.433 35.8057 24.2474 36.1619 24.0879C36.3383 24.0097 36.6356 23.9316 36.652 23.8177C36.7761 22.9842 37.5472 22.8801 38.0895 22.4275C38.2856 22.6554 38.4555 22.8508 38.6548 23.0786C38.3542 23.4075 38.0797 23.707 37.7661 24.0553C38.0863 24.3093 38.3803 24.5404 38.6678 24.7683C38.2235 25.4064 37.8216 26.0021 37.3904 26.5751C37.3054 26.6891 37.0473 26.816 36.9689 26.7705C36.2468 26.3537 35.5901 26.5556 34.7962 27.1286C34.904 26.5816 35.0118 26.2658 35.0085 25.9501C35.0085 25.7775 34.819 25.6082 34.7145 25.4357C34.5936 25.5561 34.4792 25.6864 34.3453 25.7938C34.1558 25.9468 33.9663 26.1096 33.7539 26.2203C33.5121 26.3472 33.2409 26.4221 32.9404 26.5361C32.911 26.331 32.875 26.0705 32.8195 25.6864C32.496 25.9501 32.2608 26.1389 32.1399 26.2365C32.3327 26.8063 32.4274 27.3369 32.6921 27.7634C32.8783 28.0629 33.2965 28.2159 33.7474 28.5317C33.7474 28.5317 33.6853 28.8084 33.7964 28.9517C33.9695 29.1796 34.2669 29.4823 34.4988 29.4726C35.5215 29.4368 36.5441 29.3228 37.5602 29.1796C37.8543 29.1372 38.1255 28.9094 38.4032 28.7531C39.7166 28.0206 41.0301 27.2816 42.3402 26.5458C42.3892 26.624 42.4415 26.6988 42.4905 26.777C40.8798 28.0597 39.2723 29.3423 37.6615 30.625C37.704 30.6999 37.7465 30.7715 37.7857 30.8464C38.6058 30.7064 39.4258 30.5632 40.2459 30.4232C40.2623 30.4688 40.2753 30.5111 40.2917 30.5567C39.5467 30.8367 38.8181 31.1883 38.0503 31.3803C35.4725 32.0282 33.8454 33.8676 32.3065 35.8274C31.7511 36.5371 31.2218 37.2664 30.6827 37.9891C30.9049 37.5464 31.1303 37.1004 31.3917 36.5795C31.1989 36.5795 31.0225 36.5339 30.9833 36.586C30.7023 36.9799 30.4278 37.3868 30.2089 37.8166C30.1697 37.8915 30.3821 38.0966 30.4769 38.2431C30.4573 38.3603 30.4377 38.4742 30.4017 38.6793C31.1989 38.2886 31.9275 37.9305 32.6528 37.5757C32.6855 37.6278 32.7149 37.6766 32.7476 37.7287C32.1432 38.1128 31.5616 38.5361 30.931 38.8714C30.3821 39.1644 30.1175 39.4867 30.307 40.141C30.4573 40.6522 30.4965 41.1926 30.6075 41.8665C31.2022 41.3586 31.689 40.8963 32.2216 40.4926C33.7833 39.3141 35.3451 38.1356 36.946 37.0125C37.3511 36.7292 37.9033 36.6478 38.315 36.4981C36.4102 38.1877 34.4956 39.8839 32.5777 41.5833L32.7378 41.8177C33.5089 41.6451 34.2799 41.4726 35.051 41.3C35.0706 41.3391 35.0869 41.3782 35.1065 41.4172C34.9857 41.5051 34.8746 41.6321 34.7406 41.6712C33.2475 42.0879 32.2836 43.2306 31.2022 44.2105C31.0519 44.3472 30.9179 44.5719 30.8983 44.7672C30.7448 46.1964 30.6239 47.6256 30.4932 49.0711C30.552 49.0385 30.6304 49.019 30.6664 48.9701C31.64 47.6614 32.5908 46.3396 33.5873 45.0472C33.8487 44.7053 34.2081 44.4091 34.5805 44.1845C37.0081 42.7129 39.3376 41.0656 42.0462 40.1052C42.4742 39.9555 42.8728 39.7308 43.3694 39.6755C42.9153 39.9848 42.4644 40.2973 42.0102 40.6001C38.1549 43.1752 34.293 45.7634 31.4211 49.4715C30.3135 50.9007 29.5653 52.6033 28.7648 54.2572C30.4017 53.0982 31.591 51.5778 32.496 49.8166C32.5842 49.8589 32.6724 49.9012 32.7607 49.9435C32.5091 50.5914 32.2902 51.2555 31.9961 51.8839C31.7021 52.5154 31.3361 53.1177 30.9375 53.8502C31.6073 53.7526 32.1301 53.6744 32.6528 53.5995C32.6626 53.6288 32.6724 53.6614 32.6822 53.6907C32.2902 53.8079 31.9079 53.9804 31.506 54.0325C30.6108 54.153 30.1697 54.765 29.8071 55.478C28.7485 57.5648 27.5494 59.5963 26.6738 61.758C25.821 63.8546 24.7461 65.9544 25.1022 68.3603C25.1414 68.6337 25.1807 68.9104 25.2231 69.1839C25.3081 69.21 25.3963 69.2327 25.4812 69.2588C25.6936 68.8551 25.9975 68.4709 26.1053 68.038C27.0985 64.0922 29.3987 60.9473 32.1366 58.0434C33.7572 56.3244 35.76 55.2241 37.8543 54.2539C39.6251 53.4335 41.4287 52.675 43.3204 51.9783C43.0721 52.1996 42.8466 52.4666 42.5689 52.6391C40.9451 53.6419 39.3148 54.6348 37.6713 55.6082C35.5934 56.8421 33.7572 58.3429 32.2836 60.2702C32.0353 60.5957 31.6531 60.8139 31.3982 61.1329C30.6729 62.0445 29.9476 62.9625 29.281 63.9164C27.9938 65.7591 26.7457 67.631 25.4878 69.4932C25.393 69.6332 25.2754 69.7894 25.2656 69.9457C25.1676 71.3456 25.112 72.7488 24.9944 74.1454C24.916 75.0862 24.7755 76.0239 24.6122 76.9549C24.586 77.1047 24.3116 77.2089 24.1515 77.3358C24.0371 77.1535 23.8149 76.968 23.8247 76.7922C23.877 75.4997 23.975 74.2072 24.06 72.9148C24.0992 72.3418 24.2135 71.7525 23.6875 71.3098L23.6745 71.3228C23.8934 71.1698 24.2854 71.1177 23.9228 70.6978C23.8051 70.561 23.8509 70.281 23.8247 70.0629C23.6679 68.7835 23.498 67.5073 23.3608 66.2279C23.253 65.2251 23.1811 64.2159 23.0798 63.0179C20.7241 62.8746 18.4305 62.7379 15.9213 62.5881C17.4144 61.4487 18.999 61.211 20.7111 61.1297C20.6359 60.752 20.5706 60.4395 20.4693 59.9349C20.8875 60.4916 21.1848 60.8855 21.4854 61.2827C21.3939 60.1921 20.7993 59.3814 20.1034 58.6261C19.9563 58.4666 19.7636 58.3364 19.6525 58.1573C18.388 56.1291 16.4146 55.2403 14.1994 54.6381C11.5464 53.9153 8.83135 53.7721 6.11954 53.6484C4.59047 53.5767 3.04833 53.7949 1.51599 53.847C6.21429 52.3754 10.8963 52.6554 15.5913 54.0976C13.7747 52.2713 11.4255 51.6169 9.07967 50.9723C6.74685 50.331 4.40097 49.7938 1.94727 50.1031C5.67846 49.045 9.31164 49.6668 12.9677 50.7737C12.1149 49.5301 10.8799 48.6153 10.416 47.0591C10.6185 47.0754 10.7264 47.0721 10.8309 47.0982C10.9224 47.121 11.0041 47.1796 11.1348 47.2447C11.1021 46.9452 11.1217 46.6684 11.04 46.4275C10.9061 46.0369 10.7427 45.6495 10.5336 45.2913C9.94549 44.2854 10.3506 43.3575 10.6741 42.5111C10.4584 42.3646 10.2559 42.2344 10.0566 42.0944C9.95856 42.0228 9.86707 41.9381 9.77559 41.86C9.70698 41.9837 9.65143 42.1139 9.56975 42.2246C9.37699 42.4883 9.14501 42.9799 8.97511 42.9604C8.47196 42.9083 7.98187 43.2794 7.40357 42.5697C6.86447 41.9088 6.822 41.5735 7.15199 40.9549C7.19446 40.8768 7.11932 40.7336 7.08011 40.5285C7.5996 40.8345 8.01781 40.8735 8.17464 40.2322C9.07967 40.4438 9.86707 40.9973 10.8995 40.7108C9.42273 40.675 10.416 39.7862 10.2853 39.4313C10.6937 39.4639 11.1086 39.4964 11.5236 39.5323C11.5889 38.7574 11.1805 38.5947 10.6185 38.6044C9.83767 38.6174 9.05679 38.6272 8.27592 38.6598C7.87405 38.676 7.63881 38.5621 7.5604 38.1291C7.47871 37.6864 7.32515 37.2599 7.18793 36.7781H6.21102C6.48221 37.0645 6.6227 37.2143 6.76646 37.3673C6.75339 37.4194 6.74358 37.4715 6.73052 37.5236C6.53448 37.4878 6.23716 37.5171 6.15875 37.3999C5.65559 36.6706 5.40728 35.8665 5.60658 34.9745C5.47263 34.9159 5.3452 34.8605 5.1165 34.7629C5.3158 34.6652 5.47263 34.6391 5.54124 34.548C6.12608 33.7732 6.68804 34.1248 7.34476 34.4796C7.76297 34.7075 8.29879 34.7173 8.87056 34.8442C8.39028 33.4541 7.68128 33.0374 6.19469 33.0504C6.4626 32.4026 6.81873 31.7157 6.9919 30.9864C7.02784 30.8269 6.42013 30.4851 6.0738 30.2865C5.93984 30.2083 5.70787 30.3027 5.47263 30.1953C5.685 30.0846 5.89737 29.9772 5.99865 29.9251C5.4857 29.5181 4.93353 29.0819 4.38137 28.6457L4.36503 28.6587C5.07729 28.3136 5.78955 27.9718 6.59656 27.5811C6.62596 27.656 6.73378 27.9164 6.84814 28.1996C6.45933 28.2648 6.14568 28.3201 5.74381 28.3885C6.12608 28.8833 6.49201 29.0135 6.8514 28.6261C7.36436 28.0662 7.81851 27.4541 8.29879 26.8649C8.25305 26.816 8.21058 26.7705 8.16484 26.7216C7.96227 26.8584 7.75643 26.9918 7.50159 27.1644C7.48525 26.9918 7.46891 26.8291 7.45584 26.6695C7.19446 26.6858 6.96902 26.7021 6.74358 26.7184L6.75992 26.7346C6.70765 26.3049 6.65537 25.8719 6.61289 25.5073C6.35478 25.6343 5.99539 25.9435 5.82549 25.8589C5.58698 25.745 5.50857 25.325 5.3256 25.0613C5.16877 24.8367 4.9564 24.6511 4.75056 24.4265C4.94006 23.5898 3.97296 22.6131 5.06422 21.796C4.98254 21.7439 4.90413 21.6885 4.82244 21.6364C4.63621 21.7862 4.45325 21.9392 4.30949 22.0564C4.10038 21.8285 3.78346 21.4834 3.43713 21.1058C3.82267 20.4026 3.63643 19.5333 3.4698 18.6674C3.58743 18.8139 3.70505 18.9571 3.79326 19.0645C4.07424 18.8953 4.30295 18.7585 4.66888 18.5371C4.42384 18.3874 4.24414 18.2799 4.06444 18.1725C4.00563 18.2279 3.94682 18.2832 3.88801 18.3386V17.2544C3.65277 17.1503 3.45674 17.0624 3.39792 17.0363C3.15942 17.147 2.95031 17.2414 2.72487 17.3456C2.96338 17.7623 3.22803 18.2279 3.49267 18.6902C3.41426 18.7715 3.33911 18.8562 3.27377 18.9213C2.74121 18.1855 2.23805 17.4856 1.70222 16.7401C2.46894 16.6446 2.76952 16.2007 2.60398 15.4085C2.57458 15.2718 2.60072 15.1253 2.60072 15.0407H3.43386L3.4208 15.0276L3.37505 15.0309ZM29.3007 45.9848L29.0948 45.9132C28.9282 46.0499 28.7518 46.1769 28.5917 46.3266C27.2063 47.6256 26.4124 49.3185 25.54 50.9528C25.3571 51.2946 25.3734 51.7634 25.3865 52.1703C25.393 52.3754 25.5956 52.5773 25.7099 52.7791C25.9158 52.6359 26.2098 52.5382 26.3079 52.3429C26.4974 51.9652 26.5725 51.5323 26.6967 51.1188C26.6934 51.7764 26.5464 52.4308 26.5758 53.0754C26.6052 53.7232 26.811 54.3613 26.9678 55.1427C27.1149 54.3711 26.9515 53.6093 27.7487 53.2479C27.7781 53.4368 27.801 53.593 27.8271 53.7493C29.2255 51.3011 29.0883 48.6153 29.2974 45.9848H29.3007ZM21.2077 54.6641C21.2273 54.7488 21.2469 54.8301 21.2665 54.9148C21.8056 54.4264 22.5505 54.0293 22.8184 53.4237C23.0765 52.8377 23.0602 52.0629 22.7433 51.3272C22.116 49.8752 21.6324 48.3646 21.0868 46.8768C21.0378 46.7401 20.9561 46.6164 20.8156 46.3396C20.649 47.3554 20.4726 48.1888 20.3974 49.032C20.3713 49.312 20.5281 49.7645 20.7405 49.8784C21.3449 50.2007 21.1227 50.4514 20.7731 50.7412C20.2406 51.1839 20.0315 53.1079 20.4529 53.6353C20.7176 53.9674 20.9561 54.319 21.2044 54.6608L21.2077 54.6641ZM12.556 33.7992C13.314 33.8318 13.9446 33.8611 14.5784 33.8871C14.6209 33.8155 14.6634 33.7439 14.7059 33.6722C14.4608 33.3239 14.219 32.9756 13.9315 32.5654C14.17 32.4384 14.3824 32.37 14.536 32.2333C14.7875 32.0087 14.9672 31.7515 14.5948 31.452C14.1047 31.0613 13.6244 30.6576 13.1049 30.2279C12.9121 30.4525 12.6573 30.7455 12.3698 31.0776C12.0071 30.2734 11.8307 30.2474 11.125 30.7683C11.2687 30.9473 11.4353 31.1101 11.5464 31.3022C11.7098 31.5854 11.7686 31.9598 11.9908 32.1779C12.5266 32.7086 12.5527 32.8356 11.9679 33.3532C11.455 33.8057 10.9779 34.994 11.3112 35.2968C11.8045 35.7428 12.4678 36.0032 13.0592 36.3451C12.8795 35.3749 12.1999 34.6619 12.5527 33.7992H12.556ZM24.011 52.4406C24.4717 51.1579 23.7627 47.5214 22.6453 46.3852C22.4394 46.1769 22.116 46.0792 21.7304 45.8708C22.5603 48.2669 23.3216 50.4612 24.011 52.4438V52.4406ZM27.2684 43.8133C27.3893 43.8361 27.4612 43.8687 27.5298 43.8622C28.7583 43.7222 28.7158 42.599 29.0687 41.8144C29.2288 41.4596 29.17 41.007 29.219 40.5252C27.4971 41.1145 27.3566 42.4199 27.2684 43.8133ZM14.9836 36.4167C14.5131 36.892 13.9675 37.3055 13.6277 37.8491C13.4806 38.0835 13.2617 38.6728 13.7584 38.9658C14.1308 39.1839 15.1535 38.8974 15.4247 38.5361C15.6403 38.2496 15.8494 37.9566 16.0618 37.6668C15.686 37.6961 15.307 37.7287 14.7843 37.771C14.8431 37.3673 14.9084 36.9441 14.9868 36.4167H14.9836ZM18.7801 41.3489C18.6821 41.3619 18.5874 41.3782 18.4893 41.3912C18.5089 42.3516 18.143 43.3575 18.9598 44.217C19.0774 44.3407 19.2767 44.3896 19.4368 44.4709C19.4891 44.3017 19.6198 44.1128 19.5806 43.9696C19.3356 43.0906 19.0513 42.2214 18.7801 41.3489ZM23.9195 45.6332C23.7594 44.5686 23.1092 43.8849 22.3349 43.2078C21.933 44.2854 22.7694 45.3727 23.9195 45.6332ZM37.1747 29.5019C35.6162 29.9739 34.5315 30.905 33.3978 31.745C34.5511 31.6212 35.8025 30.8725 37.1747 29.5019ZM21.8546 44.4221C21.2698 43.6212 22.1944 42.4753 21.0182 41.8795C20.5575 43.185 20.845 44.2105 21.8546 44.4221ZM18.3325 47.3814C18.803 47.5474 19.2016 47.6842 19.6753 47.8502C19.5251 47.2089 20.038 46.3396 19.1003 46.1964C18.3782 46.0857 18.4044 46.828 18.3325 47.3814ZM27.4318 46.3461L27.1867 46.2582C26.1216 47.0005 26.2033 48.1953 25.9256 49.2501C25.9811 49.2729 26.0367 49.2957 26.0922 49.3185C26.5398 48.3288 26.9842 47.3358 27.4318 46.3461ZM23.8117 48.5925C24.0208 46.6717 23.9914 46.2843 23.1419 46.3201C23.3706 47.0949 23.5895 47.8437 23.8117 48.5925ZM24.0371 70.1313C24.0763 70.1313 24.1155 70.1313 24.1547 70.1313V65.7981C24.1155 65.7981 24.0763 65.7981 24.0371 65.7981V70.1313ZM16.8557 37.6994C16.8459 36.6641 15.9376 36.4069 15.5978 35.7493C15.49 36.0163 15.3626 36.3483 15.4704 36.4688C15.8429 36.8822 16.297 37.2176 16.8557 37.7026V37.6994ZM23.6418 22.9289C23.7267 22.9647 23.8084 23.0005 23.8934 23.0363C23.9554 22.7824 24.1482 22.4601 24.0567 22.2908C23.8672 21.9457 23.5242 21.6885 23.2693 21.4183C23.155 21.9425 23.0635 22.3461 22.9426 22.8963C23.2889 22.6164 23.5078 22.4373 23.8542 22.1573C23.7529 22.5252 23.6973 22.727 23.6418 22.9256V22.9289ZM33.7114 32.3537C33.4043 32.3537 32.9001 32.9018 32.1987 33.9978C32.6855 33.4671 33.1723 32.9365 33.7114 32.3537ZM32.5287 30.5697C31.7936 30.9506 31.9831 31.5236 32.0713 32.1552C32.7835 31.758 33.009 31.2989 32.5287 30.5697ZM29.6698 47.8925C29.7809 47.9023 29.8953 47.9088 30.0064 47.9186C30.0685 47.0526 30.1273 46.1866 30.1893 45.3239C30.1207 45.3174 30.0521 45.3109 29.9835 45.3044C29.879 46.1671 29.7744 47.0298 29.6698 47.8925ZM12.6083 44.969C12.6573 44.5719 12.7063 44.2007 12.7651 43.7482C12.6214 43.7124 12.3404 43.644 11.9744 43.5529C12.1117 43.8654 12.1901 44.051 12.2848 44.2691C12.03 44.2951 11.8307 44.3147 11.4419 44.3505C11.9842 44.637 12.3371 44.8258 12.6116 44.9723L12.6083 44.969ZM16.1042 32.9137C16.1075 32.969 16.114 33.0244 16.1173 33.0797C16.4016 33.236 16.6858 33.3955 17.0223 33.5843C17.202 33.3434 17.3785 33.1123 17.5549 32.8779C17.5255 32.8225 17.4928 32.7672 17.4634 32.7086C17.0093 32.777 16.5551 32.8486 16.101 32.917L16.1042 32.9137ZM25.246 64.5805C25.2852 64.5903 25.3277 64.6033 25.3669 64.6131C25.7263 63.4704 26.0857 62.3244 26.4451 61.1817C26.3797 61.1655 26.3144 61.1459 26.249 61.1297C25.9158 62.2789 25.5793 63.4313 25.246 64.5805ZM31.6106 11.8111C31.1826 12.0781 31.2937 13.3641 31.9177 13.9468C31.8066 13.172 31.7086 12.4818 31.6106 11.8111ZM21.4266 33.2067C21.4854 33.223 21.5442 33.2425 21.603 33.2588C21.652 32.8193 21.7043 32.3765 21.7566 31.9045C21.5148 31.8817 21.273 31.8589 20.9071 31.8231C21.1031 32.344 21.2632 32.7737 21.4266 33.2067ZM23.1713 33.503C23.2301 33.5192 23.2889 33.5388 23.3477 33.555C23.3967 33.1155 23.449 32.6728 23.5013 32.2007C23.2595 32.1779 23.0177 32.1552 22.6518 32.1193C22.8478 32.6402 23.0079 33.07 23.1713 33.503ZM22.5113 34.8768C22.5701 34.8931 22.6289 34.9126 22.6877 34.9289C22.7368 34.4894 22.789 34.0466 22.8413 33.5746C22.5995 33.5518 22.3578 33.529 21.9918 33.4932C22.1879 34.0141 22.348 34.4438 22.5113 34.8768ZM22.263 39.4606C22.3109 38.3386 22.1018 37.8459 21.6357 37.9826C21.8252 38.4319 22.0147 38.8811 22.263 39.4606ZM15.8363 41.0298H16.6531C16.2709 40.7922 16.0683 40.6652 15.7056 40.4406C15.5651 40.9159 15.441 41.3261 15.3201 41.7395C15.4018 41.7656 15.4835 41.7916 15.5651 41.8177C15.6534 41.5605 15.7448 41.3 15.8363 41.0298ZM17.4209 43.4943C17.1857 43.0385 17.0289 42.7357 16.872 42.4297C16.7283 42.6543 16.5813 42.8757 16.4048 43.1492C16.7838 43.2761 17.0027 43.351 17.4209 43.491V43.4943ZM21.6716 31.3087C21.7991 31.3022 21.9265 31.2957 22.0506 31.2892C22.031 30.9734 22.018 30.6576 21.9722 30.3451C21.9722 30.3255 21.7239 30.3386 21.5932 30.3386C21.6194 30.6609 21.6455 30.9864 21.6716 31.3087ZM24.8507 61.9208C24.9029 61.9208 24.9552 61.9208 25.0108 61.9208C25.0532 61.0548 25.0957 60.192 25.1382 59.3261L25.05 59.3196C24.9846 60.1855 24.9193 61.0548 24.8539 61.9208H24.8507Z" stroke="#FF512B" stroke-width="2" stroke-linecap="round" stroke-linejoin="round" stroke-dasharray="0.5 5"/>
<path d="M23.6679 71.3262C22.2368 70.2388 20.6588 69.4282 18.95 68.8747C18.2769 68.6566 17.5843 68.4906 16.9112 68.2692C16.6041 68.1683 16.3231 67.9892 16.0323 67.846C16.0618 67.7483 16.0944 67.6506 16.1238 67.553C17.6366 67.8492 19.1885 68.025 20.649 68.4906C21.4004 68.7282 22.0277 69.4379 22.6387 70.0077C23.0406 70.3821 23.3216 70.8899 23.6548 71.3392L23.6679 71.3262Z" stroke="#FF512B" stroke-width="2" stroke-linecap="round" stroke-linejoin="round" stroke-dasharray="0.5 5"/>
<path d="M26.0366 73.3998C27.0952 71.4595 28.9935 71.1111 30.9669 70.906C29.3235 71.7362 27.68 72.5663 26.0366 73.3998Z" stroke="#FF512B" stroke-width="2" stroke-linecap="round" stroke-linejoin="round" stroke-dasharray="0.5 5"/>
<path d="M4.34865 28.649C4.2049 28.522 4.05787 28.395 3.91738 28.2681C2.96661 29.0299 2.33276 28.789 1.99624 27.6365C1.91129 27.3435 1.48001 27.1547 0.99646 26.7314C1.36893 26.7803 1.58783 26.764 1.7708 26.8389C2.53207 27.1449 3.27373 27.5063 4.04153 27.796C4.54469 27.9848 4.49895 28.2876 4.32905 28.662L4.34539 28.649H4.34865Z" stroke="#FF512B" stroke-width="2" stroke-linecap="round" stroke-linejoin="round" stroke-dasharray="0.5 5"/>
<path d="M3.45018 18.6902C3.18553 18.2247 2.91761 17.7591 2.68237 17.3457C2.91108 17.2415 3.11692 17.1471 3.35543 17.0364C3.41424 17.0624 3.61027 17.1503 3.84551 17.2545V18.3386C3.90432 18.2833 3.96313 18.2279 4.02194 18.1726C4.20164 18.28 4.37807 18.3874 4.62638 18.5372C4.26372 18.7553 4.03501 18.8953 3.75076 19.0646C3.66255 18.9572 3.54493 18.8107 3.42731 18.6674L3.45018 18.6935V18.6902Z" stroke="#FF512B" stroke-width="2" stroke-linecap="round" stroke-linejoin="round" stroke-dasharray="0.5 5"/>
<path d="M40.0957 21.363C39.7853 21.5453 39.4749 21.7244 39.1318 21.923C38.8182 21.1612 39.4782 20.6793 39.5794 20.1682C40.014 20.2138 40.3832 20.2496 40.7524 20.2887L40.736 20.2724C40.5204 20.6403 40.3048 21.0049 40.0891 21.3728L40.0989 21.3597L40.0957 21.363Z" stroke="#FF512B" stroke-width="2" stroke-linecap="round" stroke-linejoin="round" stroke-dasharray="0.5 5"/>
<path d="M3.33256 33.4933C3.04831 33.1645 2.81633 32.8943 2.57129 32.6078C2.89801 32.0413 3.64295 32.025 4.35521 32.6566C3.97947 32.9627 3.61027 33.2654 3.33256 33.4933Z" stroke="#FF512B" stroke-width="2" stroke-linecap="round" stroke-linejoin="round" stroke-dasharray="0.5 5"/>
<path d="M1.18924 31.7612C1.09449 31.5138 1.02914 31.3347 0.9638 31.1622C1.16637 31.0059 1.34934 30.8626 1.58131 30.6836C1.75774 31.0905 1.92437 31.4747 2.05833 31.784C1.75447 32.0249 1.48329 32.2788 1.1729 32.4644C1.04875 32.5393 0.83311 32.4676 0.659946 32.4644C0.669748 32.3016 0.620739 32.0998 0.70242 31.9858C0.784101 31.8719 0.989938 31.8458 1.18924 31.7612Z" stroke="#FF512B" stroke-width="2" stroke-linecap="round" stroke-linejoin="round" stroke-dasharray="0.5 5"/>
<path d="M4.12646 39.3598C4.54794 38.8096 4.8812 38.3733 5.21119 37.9436C5.30267 38.2073 5.44643 38.624 5.58366 39.0244C4.40745 39.8904 4.36497 39.8937 4.12646 39.363V39.3598Z" stroke="#FF512B" stroke-width="2" stroke-linecap="round" stroke-linejoin="round" stroke-dasharray="0.5 5"/>
<path d="M42.0037 17.6713C42.9153 18.6577 42.8728 17.4434 43.2943 17.2188C43.3596 18.1075 43.0002 18.7391 42.3925 18.9605C42.2553 18.6056 42.1181 18.2573 41.9841 17.9089C41.9907 17.8308 41.9972 17.7494 42.0037 17.6713Z" stroke="#FF512B" stroke-width="2" stroke-linecap="round" stroke-linejoin="round" stroke-dasharray="0.5 5"/>
<path d="M6.70768 26.7183C6.73382 26.8355 6.75669 26.9527 6.76649 27.0016C6.21106 26.9169 5.62622 26.8746 5.07079 26.7183C4.78 26.637 4.54803 26.3537 4.28992 26.1584C4.32912 26.077 4.36833 25.9989 4.40427 25.9175C5.17861 26.1909 5.94968 26.4612 6.72402 26.7346L6.70768 26.7183Z" stroke="#FF512B" stroke-width="2" stroke-linecap="round" stroke-linejoin="round" stroke-dasharray="0.5 5"/>
<path d="M42.6996 10.8083C42.2193 11.2967 43.5262 11.7362 42.5395 12.1236C42.4546 12.1562 42.118 11.8892 42.1311 11.7915C42.1768 11.4562 41.6737 10.8735 42.6996 10.8083Z" stroke="#FF512B" stroke-width="2" stroke-linecap="round" stroke-linejoin="round" stroke-dasharray="0.5 5"/>
<path d="M40.7523 20.2919C40.6053 20.1259 40.4583 19.9599 40.21 19.6766C40.6674 19.5139 41.0725 19.3674 41.4809 19.2241C41.5397 19.3055 41.5985 19.3869 41.6606 19.4683C41.3535 19.7385 41.0464 20.0055 40.7393 20.2757L40.7556 20.2919H40.7523Z" stroke="#FF512B" stroke-width="2" stroke-linecap="round" stroke-linejoin="round" stroke-dasharray="0.5 5"/>
<path d="M3.38806 15.044C3.27697 14.7054 3.13975 14.3734 3.07114 14.025C3.05153 13.9274 3.23777 13.7906 3.32925 13.6702C3.424 13.7613 3.56122 13.8362 3.60697 13.9501C3.77686 14.3571 3.75726 14.738 3.37172 15.0342L3.38806 15.0473V15.044Z" stroke="#FF512B" stroke-width="2" stroke-linecap="round" stroke-linejoin="round" stroke-dasharray="0.5 5"/>
<path d="M40.0858 21.376C40.3439 21.2523 40.5955 21.096 40.87 21.0212C40.9778 20.9919 41.2065 21.1091 41.2522 21.2165C41.3078 21.3435 41.2784 21.5779 41.1869 21.6755C41.1215 21.7472 40.8863 21.6983 40.7458 21.6495C40.5236 21.5746 40.3145 21.4574 40.0989 21.3597L40.0891 21.3728L40.0858 21.376Z" stroke="#FF512B" stroke-width="2" stroke-linecap="round" stroke-linejoin="round" stroke-dasharray="0.5 5"/>
<path d="M1.90804 39.1643C1.8819 38.9071 1.84923 38.6206 1.81982 38.3341C1.90477 38.2592 1.98972 38.1811 2.07467 38.1062C2.26417 38.4871 2.45694 38.868 2.64644 39.2489C2.69871 39.1936 2.75426 39.1382 2.80653 39.0829C2.54515 39.1057 2.28704 39.1317 1.90804 39.1643Z" stroke="#FF512B" stroke-width="2" stroke-linecap="round" stroke-linejoin="round" stroke-dasharray="0.5 5"/>
<path d="M30.9506 9.32715C31.1957 9.48016 31.4505 9.62666 31.6792 9.79921C31.6988 9.81223 31.5779 10.0141 31.5224 10.128C31.2675 9.97175 31.016 9.81548 30.7611 9.66247C30.8232 9.55178 30.8885 9.44109 30.9506 9.3304V9.32715Z" stroke="#FF512B" stroke-width="2" stroke-linecap="round" stroke-linejoin="round" stroke-dasharray="0.5 5"/>
<path d="M20.2406 22.1735C20.5902 22.0107 20.9398 21.848 21.2861 21.6852C21.211 21.5647 21.1358 21.4443 21.0607 21.3206C20.9855 21.607 20.9757 21.9359 20.8124 22.1572C20.7143 22.2875 20.3811 22.2484 20.1556 22.2842C20.185 22.2451 20.2112 22.2093 20.2406 22.1703V22.1735Z" stroke="#FF512B" stroke-width="2" stroke-linecap="round" stroke-linejoin="round" stroke-dasharray="0.5 5"/>
<path d="M37.1779 29.502C35.8024 30.8725 34.5511 31.6246 33.401 31.745C34.538 30.9051 35.6195 29.974 37.1779 29.502Z" stroke="#FF512B" stroke-width="2" stroke-linecap="round" stroke-linejoin="round" stroke-dasharray="0.5 5"/>
<path d="M23.645 22.929C23.7005 22.7304 23.7561 22.5285 23.8574 22.1606C23.511 22.4406 23.2921 22.6197 22.9458 22.8997C23.0667 22.3495 23.1549 21.9458 23.2725 21.4216C23.5274 21.6886 23.8704 21.949 24.0599 22.2941C24.1514 22.4602 23.9586 22.7857 23.8966 23.0396C23.8116 23.0038 23.7299 22.968 23.645 22.9322V22.929Z" stroke="#FF512B" stroke-width="2" stroke-linecap="round" stroke-linejoin="round" stroke-dasharray="0.5 5"/>
<path d="M33.7146 32.3538C33.1755 32.9398 32.6887 33.4704 32.2019 33.9978C32.9033 32.9018 33.4075 32.3538 33.7146 32.3538Z" stroke="#FF512B" stroke-width="2" stroke-linecap="round" stroke-linejoin="round" stroke-dasharray="0.5 5"/>
</g>
<defs>
<clipPath id="clip0_72_874">
<rect width="44" height="78" fill="white"/>
</clipPath>
</defs>
</svg>
