<?xml version="1.0" encoding="utf-8"?>
<!-- Generator: Adobe Illustrator 27.0.0, SVG Export Plug-In . SVG Version: 6.00 Build 0)  -->
<svg version="1.1" id="Layer_2_00000021108719964513367550000017988708725097265086_"
	 xmlns="http://www.w3.org/2000/svg" xmlns:xlink="http://www.w3.org/1999/xlink" x="0px" y="0px" viewBox="0 0 66.4 103.8"
	 style="enable-background:new 0 0 66.4 103.8;" xml:space="preserve">
<style type="text/css">
	.st0{fill:none;stroke:#FF522B;stroke-width:1.16;stroke-linecap:round;stroke-linejoin:round;stroke-dasharray:0,0,0,2.36;}
	.st1{fill:none;stroke:#FF522B;stroke-width:1.16;stroke-linecap:round;stroke-linejoin:round;stroke-dasharray:0,0,0,2.3;}
	.st2{fill:none;stroke:#FF522B;stroke-width:1.16;stroke-linecap:round;stroke-linejoin:round;stroke-dasharray:0,0,0,1.95;}
	.st3{fill:none;stroke:#FF522B;stroke-width:1.16;stroke-linecap:round;stroke-linejoin:round;stroke-dasharray:0,0,0,2.4;}
	.st4{fill:none;stroke:#FF522B;stroke-width:1.16;stroke-linecap:round;stroke-linejoin:round;stroke-dasharray:0,0,0,2.04;}
	.st5{fill:none;stroke:#FF522B;stroke-width:1.16;stroke-linecap:round;stroke-linejoin:round;stroke-dasharray:0,0,0,2.18;}
	.st6{fill:none;stroke:#FF522B;stroke-width:1.16;stroke-linecap:round;stroke-linejoin:round;stroke-dasharray:0,0,0,2.17;}
	.st7{fill:none;stroke:#FF522B;stroke-width:1.16;stroke-linecap:round;stroke-linejoin:round;stroke-dasharray:0,0,0,2.59;}
	.st8{fill:none;stroke:#FF522B;stroke-width:1.16;stroke-linecap:round;stroke-linejoin:round;stroke-dasharray:0,0,0,2.53;}
	.st9{fill:none;stroke:#FF522B;stroke-width:1.16;stroke-linecap:round;stroke-linejoin:round;stroke-dasharray:0,0,0,2.56;}
	.st10{fill:none;stroke:#FF522B;stroke-width:1.16;stroke-linecap:round;stroke-linejoin:round;stroke-dasharray:0,0,0,2.82;}
	.st11{fill:none;stroke:#FF522B;stroke-width:1.16;stroke-linecap:round;stroke-linejoin:round;stroke-dasharray:0,0,0,2.57;}
	.st12{fill:none;stroke:#FF522B;stroke-width:1.16;stroke-linecap:round;stroke-linejoin:round;stroke-dasharray:0,0,0,1.99;}
	.st13{fill:none;stroke:#FF522B;stroke-width:1.16;stroke-linecap:round;stroke-linejoin:round;stroke-dasharray:0,0,0,2.07;}
	.st14{fill:none;stroke:#FF522B;stroke-width:1.16;stroke-linecap:round;stroke-linejoin:round;stroke-dasharray:0,0,0,2.41;}
	.st15{fill:none;stroke:#FF522B;stroke-width:1.16;stroke-linecap:round;stroke-linejoin:round;stroke-dasharray:0,0,0,2.11;}
	.st16{fill:none;stroke:#FF522B;stroke-width:1.16;stroke-linecap:round;stroke-linejoin:round;stroke-dasharray:0,0,0,2.37;}
	.st17{fill:none;stroke:#FF522B;stroke-width:1.16;stroke-linecap:round;stroke-linejoin:round;stroke-dasharray:0,0,0,2.66;}
	.st18{fill:none;stroke:#FF522B;stroke-width:1.16;stroke-linecap:round;stroke-linejoin:round;stroke-dasharray:0,0,0,2.5;}
	.st19{fill:none;stroke:#FF522B;stroke-width:1.16;stroke-linecap:round;stroke-linejoin:round;stroke-dasharray:0,0,0,1.85;}
	.st20{fill:none;stroke:#FF522B;stroke-width:1.16;stroke-linecap:round;stroke-linejoin:round;}
	.st21{fill:none;stroke:#FF522B;stroke-width:1.16;stroke-linecap:round;stroke-linejoin:round;stroke-dasharray:0,0,0,2.02;}
	.st22{fill:none;stroke:#FF522B;stroke-width:1.16;stroke-linecap:round;stroke-linejoin:round;stroke-dasharray:0,0,0,2.58;}
	.st23{fill:none;stroke:#FF522B;stroke-width:1.16;stroke-linecap:round;stroke-linejoin:round;stroke-dasharray:0,0,0,3.38;}
	.st24{fill:none;stroke:#FF522B;stroke-width:1.16;stroke-linecap:round;stroke-linejoin:round;stroke-dasharray:0,0,0,3.36;}
	.st25{fill:none;stroke:#FF522B;stroke-width:1.16;stroke-linecap:round;stroke-linejoin:round;stroke-dasharray:0,0,0,3.25;}
	.st26{fill:none;stroke:#FF522B;stroke-width:1.16;stroke-linecap:round;stroke-linejoin:round;stroke-dasharray:0,0,0,3.05;}
	.st27{fill:none;stroke:#FF522B;stroke-width:1.16;stroke-linecap:round;stroke-linejoin:round;stroke-dasharray:0,0,0,2.45;}
	.st28{fill:none;stroke:#FF522B;stroke-width:1.16;stroke-linecap:round;stroke-linejoin:round;stroke-dasharray:0,0,0,1.98;}
	.st29{fill:none;stroke:#FF522B;stroke-width:1.16;stroke-linecap:round;stroke-linejoin:round;stroke-dasharray:0,0,0,1.49;}
	.st30{fill:none;stroke:#FF522B;stroke-width:1.16;stroke-linecap:round;stroke-linejoin:round;stroke-dasharray:0,0,0,1.47;}
	.st31{fill:none;stroke:#FF522B;stroke-width:1.16;stroke-linecap:round;stroke-linejoin:round;stroke-dasharray:0,0,0,1.72;}
	.st32{fill:none;stroke:#FF522B;stroke-width:1.16;stroke-linecap:round;stroke-linejoin:round;stroke-dasharray:0,0,0,1.34;}
	.st33{fill:none;stroke:#FF522B;stroke-width:1.16;stroke-linecap:round;stroke-linejoin:round;stroke-dasharray:0,0,0,1.54;}
	.st34{fill:none;stroke:#FF522B;stroke-width:1.16;stroke-linecap:round;stroke-linejoin:round;stroke-dasharray:0,0,0,1.32;}
	.st35{fill:none;stroke:#FF522B;stroke-width:1.16;stroke-linecap:round;stroke-linejoin:round;stroke-dasharray:0,0,0,1.42;}
	.st36{fill:none;stroke:#FF522B;stroke-width:1.16;stroke-linecap:round;stroke-linejoin:round;stroke-dasharray:0,0,0,2.33;}
	.st37{fill:none;stroke:#FF522B;stroke-width:1.16;stroke-linecap:round;stroke-linejoin:round;stroke-dasharray:0,0,0,2.71;}
	.st38{fill:none;stroke:#FF522B;stroke-width:1.16;stroke-linecap:round;stroke-linejoin:round;stroke-dasharray:0,0,0,1.93;}
	.st39{fill:none;stroke:#FF522B;stroke-width:1.16;stroke-linecap:round;stroke-linejoin:round;stroke-dasharray:0,0,0,2.67;}
	.st40{fill:none;stroke:#FF522B;stroke-width:1.16;stroke-linecap:round;stroke-linejoin:round;stroke-dasharray:0,0,0,2.62;}
	.st41{fill:none;stroke:#FF522B;stroke-width:1.16;stroke-linecap:round;stroke-linejoin:round;stroke-dasharray:0,0,0,2.6;}
	.st42{fill:none;stroke:#FF522B;stroke-width:1.16;stroke-linecap:round;stroke-linejoin:round;stroke-dasharray:0,0,0,2.51;}
	.st43{fill:none;stroke:#FF522B;stroke-width:1.16;stroke-linecap:round;stroke-linejoin:round;stroke-dasharray:0,0,0,2.16;}
	.st44{fill:none;stroke:#FF522B;stroke-width:1.16;stroke-linecap:round;stroke-linejoin:round;stroke-dasharray:0,0,0,2.23;}
	.st45{fill:none;stroke:#FF522B;stroke-width:1.16;stroke-linecap:round;stroke-linejoin:round;stroke-dasharray:0,0,0,2.27;}
	.st46{fill:none;stroke:#FF522B;stroke-width:1.16;stroke-linecap:round;stroke-linejoin:round;stroke-dasharray:0,0,0,2.05;}
	.st47{fill:none;stroke:#FF522B;stroke-width:1.16;stroke-linecap:round;stroke-linejoin:round;stroke-dasharray:0,0,0,2.49;}
	.st48{fill:none;stroke:#FF522B;stroke-width:1.16;stroke-linecap:round;stroke-linejoin:round;stroke-dasharray:0,0,0,2.39;}
	.st49{fill:none;stroke:#FF522B;stroke-width:1.16;stroke-linecap:round;stroke-linejoin:round;stroke-dasharray:0,0,0,2.32;}
	.st50{fill:none;stroke:#FF522B;stroke-width:1.16;stroke-linecap:round;stroke-linejoin:round;stroke-dasharray:0,0,0,2.21;}
	.st51{fill:none;stroke:#FF522B;stroke-width:1.16;stroke-linecap:round;stroke-linejoin:round;stroke-dasharray:0,0,0,2.48;}
	.st52{fill:none;stroke:#FF522B;stroke-width:1.16;stroke-linecap:round;stroke-linejoin:round;stroke-dasharray:0,0,0,2.86;}
	.st53{fill:none;stroke:#FF522B;stroke-width:1.16;stroke-linecap:round;stroke-linejoin:round;stroke-dasharray:0,0,0,2.63;}
	.st54{fill:none;stroke:#FF522B;stroke-width:1.16;stroke-linecap:round;stroke-linejoin:round;stroke-dasharray:0,0,0,1.94;}
	.st55{fill:none;stroke:#FF522B;stroke-width:1.16;stroke-linecap:round;stroke-linejoin:round;stroke-dasharray:0,0,0,3.16;}
	.st56{fill:none;stroke:#FF522B;stroke-width:1.16;stroke-linecap:round;stroke-linejoin:round;stroke-dasharray:0,0,0,2.22;}
	.st57{fill:none;stroke:#FF522B;stroke-width:1.16;stroke-linecap:round;stroke-linejoin:round;stroke-dasharray:0,0,0,2.06;}
	.st58{fill:none;stroke:#FF522B;stroke-width:1.16;stroke-linecap:round;stroke-linejoin:round;stroke-dasharray:0,0,0,2.15;}
	.st59{fill:none;stroke:#FF522B;stroke-width:1.16;stroke-linecap:round;stroke-linejoin:round;stroke-dasharray:0,0,0,2.79;}
	.st60{fill:none;stroke:#FF522B;stroke-width:1.16;stroke-linecap:round;stroke-linejoin:round;stroke-dasharray:0,0,0,2.19;}
	.st61{fill:none;stroke:#FF522B;stroke-width:1.16;stroke-linecap:round;stroke-linejoin:round;stroke-dasharray:0,0,0,2.03;}
	.st62{fill:none;stroke:#FF522B;stroke-width:1.16;stroke-linecap:round;stroke-linejoin:round;stroke-dasharray:0,0,0,2.13;}
	.st63{fill:none;stroke:#FF522B;stroke-width:1.16;stroke-linecap:round;stroke-linejoin:round;stroke-dasharray:0,0,0,2.64;}
	.st64{fill:none;stroke:#FF522B;stroke-width:1.16;stroke-linecap:round;stroke-linejoin:round;stroke-dasharray:0,0,0,1.96;}
	.st65{fill:none;stroke:#FF522B;stroke-width:1.16;stroke-linecap:round;stroke-linejoin:round;stroke-dasharray:0,0,0,2.97;}
	.st66{fill:none;stroke:#FF522B;stroke-width:1.16;stroke-linecap:round;stroke-linejoin:round;stroke-dasharray:0,0,0,2.96;}
	.st67{fill:none;stroke:#FF522B;stroke-width:1.16;stroke-linecap:round;stroke-linejoin:round;stroke-dasharray:0,0,0,1;}
	.st68{fill:none;stroke:#FF522B;stroke-width:1.16;stroke-linecap:round;stroke-linejoin:round;stroke-dasharray:0,0,0,1.77;}
	.st69{fill:none;stroke:#FF522B;stroke-width:1.16;stroke-linecap:round;stroke-linejoin:round;stroke-dasharray:0,0,0,1.76;}
	.st70{fill:none;stroke:#FF522B;stroke-width:1.16;stroke-linecap:round;stroke-linejoin:round;stroke-dasharray:0,0,0,2.12;}
	.st71{fill:none;stroke:#FF522B;stroke-width:1.16;stroke-linecap:round;stroke-linejoin:round;stroke-dasharray:0,0,0,2.26;}
	.st72{fill:none;stroke:#FF522B;stroke-width:1.16;stroke-linecap:round;stroke-linejoin:round;stroke-dasharray:0,0,0,1.16;}
	.st73{fill:none;stroke:#FF522B;stroke-width:1.16;stroke-linecap:round;stroke-linejoin:round;stroke-dasharray:0,0,0,1.02;}
	.st74{fill:none;stroke:#FF522B;stroke-width:1.16;stroke-linecap:round;stroke-linejoin:round;stroke-dasharray:0,0,0,1.46;}
	.st75{fill:none;stroke:#FF522B;stroke-width:1.16;stroke-linecap:round;stroke-linejoin:round;stroke-dasharray:0,0,0,1.41;}
	.st76{fill:none;stroke:#FF522B;stroke-width:1.16;stroke-linecap:round;stroke-linejoin:round;stroke-dasharray:0,0,0,1.23;}
	.st77{fill:none;stroke:#FF522B;stroke-width:1.16;stroke-linecap:round;stroke-linejoin:round;stroke-dasharray:0,0,0,1.3;}
	.st78{fill:none;stroke:#FF522B;stroke-width:1.16;stroke-linecap:round;stroke-linejoin:round;stroke-dasharray:0,0,0,1.38;}
	.st79{fill:none;stroke:#FF522B;stroke-width:1.16;stroke-linecap:round;stroke-linejoin:round;stroke-dasharray:0,0,0,1.73;}
	.st80{fill:none;stroke:#FF522B;stroke-width:1.16;stroke-linecap:round;stroke-linejoin:round;stroke-dasharray:0,0,0,1.45;}
	.st81{fill:none;stroke:#FF522B;stroke-width:1.16;stroke-linecap:round;stroke-linejoin:round;stroke-dasharray:0,0,0,0.94;}
	.st82{fill:none;stroke:#FF522B;stroke-width:1.16;stroke-linecap:round;stroke-linejoin:round;stroke-dasharray:0,0,0,1.21;}
	.st83{fill:none;stroke:#FF522B;stroke-width:1.16;stroke-linecap:round;stroke-linejoin:round;stroke-dasharray:0,0,0,0.6;}
	.st84{fill:none;stroke:#FF522B;stroke-width:1.16;stroke-linecap:round;stroke-linejoin:round;stroke-dasharray:0,0,0,1.48;}
	.st85{fill:none;stroke:#FF522B;stroke-width:1.16;stroke-linecap:round;stroke-linejoin:round;stroke-dasharray:0,0,0,2.69;}
	.st86{fill:none;stroke:#FF522B;stroke-width:1.16;stroke-linecap:round;stroke-linejoin:round;stroke-dasharray:0,0,0,2.81;}
	.st87{fill:none;stroke:#FF522B;stroke-width:1.16;stroke-linecap:round;stroke-linejoin:round;stroke-dasharray:0,0,0,2.74;}
	.st88{fill:none;stroke:#FF522B;stroke-width:1.16;stroke-linecap:round;stroke-linejoin:round;stroke-dasharray:0,0,0,2.35;}
	.st89{fill:none;stroke:#FF522B;stroke-width:1.16;stroke-linecap:round;stroke-linejoin:round;stroke-dasharray:0,0,0,2.55;}
	.st90{fill:none;stroke:#FF522B;stroke-width:1.16;stroke-linecap:round;stroke-linejoin:round;stroke-dasharray:0,0,0,2.46;}
	.st91{fill:none;stroke:#FF522B;stroke-width:1.16;stroke-linecap:round;stroke-linejoin:round;stroke-dasharray:0,0,0,1.74;}
	.st92{fill:none;stroke:#FF522B;stroke-width:1.16;stroke-linecap:round;stroke-linejoin:round;stroke-dasharray:0,0,0,1.97;}
	.st93{fill:none;stroke:#FF522B;stroke-width:1.16;stroke-linecap:round;stroke-linejoin:round;stroke-dasharray:0,0,0,2.34;}
	.st94{fill:none;stroke:#FF522B;stroke-width:1.16;stroke-linecap:round;stroke-linejoin:round;stroke-dasharray:0,0,0,2.01;}
	.st95{fill:none;stroke:#FF522B;stroke-width:1.16;stroke-linecap:round;stroke-linejoin:round;stroke-dasharray:0,0,0,3;}
	.st96{fill:none;stroke:#FF522B;stroke-width:1.16;stroke-linecap:round;stroke-linejoin:round;stroke-dasharray:0,0,0,2.38;}
	.st97{fill:none;stroke:#FF522B;stroke-width:1.16;stroke-linecap:round;stroke-linejoin:round;stroke-dasharray:0,0,0,2.43;}
	.st98{fill:none;stroke:#FF522B;stroke-width:1.16;stroke-linecap:round;stroke-linejoin:round;stroke-dasharray:0,0,0,2.14;}
	.st99{fill:none;stroke:#FF522B;stroke-width:1.16;stroke-linecap:round;stroke-linejoin:round;stroke-dasharray:0,0,0,3.39;}
	.st100{fill:none;stroke:#FF522B;stroke-width:1.16;stroke-linecap:round;stroke-linejoin:round;stroke-dasharray:0,0,0,2.1;}
	.st101{fill:none;stroke:#FF522B;stroke-width:1.16;stroke-linecap:round;stroke-linejoin:round;stroke-dasharray:0,0,0,2.28;}
	.st102{fill:none;stroke:#FF522B;stroke-width:1.16;stroke-linecap:round;stroke-linejoin:round;stroke-dasharray:0,0,0,2.08;}
	.st103{fill:none;stroke:#FF522B;stroke-width:1.16;stroke-linecap:round;stroke-linejoin:round;stroke-dasharray:0,0,0,1.8;}
	.st104{fill:none;stroke:#FF522B;stroke-width:1.16;stroke-linecap:round;stroke-linejoin:round;stroke-dasharray:0,0,0,1.05;}
	.st105{fill:none;stroke:#FF522B;stroke-width:1.16;stroke-linecap:round;stroke-linejoin:round;stroke-dasharray:0,0,0,3.49;}
	.st106{fill:none;stroke:#FF522B;stroke-width:1.16;stroke-linecap:round;stroke-linejoin:round;stroke-dasharray:0,0,0,2.29;}
	.st107{fill:none;stroke:#FF522B;stroke-width:1.16;stroke-linecap:round;stroke-linejoin:round;stroke-dasharray:0,0,0,1.64;}
	.st108{fill:none;stroke:#FF522B;stroke-width:1.16;stroke-linecap:round;stroke-linejoin:round;stroke-dasharray:0,0,0,2.24;}
	.st109{fill:none;stroke:#FF522B;stroke-width:1.16;stroke-linecap:round;stroke-linejoin:round;stroke-dasharray:0,0,0,1.83;}
	.st110{fill:none;stroke:#FF522B;stroke-width:1.16;stroke-linecap:round;stroke-linejoin:round;stroke-dasharray:0,0,0,1.55;}
	.st111{fill:none;stroke:#FF522B;stroke-width:1.16;stroke-linecap:round;stroke-linejoin:round;stroke-dasharray:0,0,0,1.27;}
	.st112{fill:none;stroke:#FF522B;stroke-width:1.16;stroke-linecap:round;stroke-linejoin:round;stroke-dasharray:0,0,0,0.77;}
	.st113{fill:none;stroke:#FF522B;stroke-width:1.16;stroke-linecap:round;stroke-linejoin:round;stroke-dasharray:0,0,0,1.61;}
	.st114{fill:none;stroke:#FF522B;stroke-width:1.16;stroke-linecap:round;stroke-linejoin:round;stroke-dasharray:0,0,0,2.31;}
	.st115{fill:none;stroke:#FF522B;stroke-width:1.16;stroke-linecap:round;stroke-linejoin:round;stroke-dasharray:0,0,0,3.26;}
	.st116{fill:none;stroke:#FF522B;stroke-width:1.16;stroke-linecap:round;stroke-linejoin:round;stroke-dasharray:0,0,0,2.99;}
	.st117{fill:none;stroke:#FF522B;stroke-width:1.16;stroke-linecap:round;stroke-linejoin:round;stroke-dasharray:0,0,0,2.89;}
	.st118{fill:none;stroke:#FF522B;stroke-width:1.16;stroke-linecap:round;stroke-linejoin:round;stroke-dasharray:0,0,0,3.08;}
	.st119{fill:none;stroke:#FF522B;stroke-width:1.16;stroke-linecap:round;stroke-linejoin:round;stroke-dasharray:0,0,0,2.52;}
	.st120{fill:none;stroke:#FF522B;stroke-width:1.16;stroke-linecap:round;stroke-linejoin:round;stroke-dasharray:0,0,0,1.84;}
	.st121{fill:none;stroke:#FF522B;stroke-width:1.16;stroke-linecap:round;stroke-linejoin:round;stroke-dasharray:0,0,0,3.15;}
	.st122{fill:none;stroke:#FF522B;stroke-width:1.16;stroke-linecap:round;stroke-linejoin:round;stroke-dasharray:0,0,0,0.99;}
	.st123{fill:none;stroke:#FF522B;stroke-width:1.16;stroke-linecap:round;stroke-linejoin:round;stroke-dasharray:0,0,0,1.75;}
	.st124{fill:none;stroke:#FF522B;stroke-width:1.16;stroke-linecap:round;stroke-linejoin:round;stroke-dasharray:0,0,0,3.02;}
	.st125{fill:none;stroke:#FF522B;stroke-width:1.16;stroke-linecap:round;stroke-linejoin:round;stroke-dasharray:0,0,0,3.12;}
	.st126{fill:none;stroke:#FF522B;stroke-width:1.16;stroke-linecap:round;stroke-linejoin:round;stroke-dasharray:0,0,0,3.4;}
	.st127{fill:none;stroke:#FF522B;stroke-width:1.16;stroke-linecap:round;stroke-linejoin:round;stroke-dasharray:0,0,0,1.81;}
	.st128{fill:none;stroke:#FF522B;stroke-width:1.16;stroke-linecap:round;stroke-linejoin:round;stroke-dasharray:0,0,0,1.31;}
	.st129{fill:none;stroke:#FF522B;stroke-width:1.16;stroke-linecap:round;stroke-linejoin:round;stroke-dasharray:0,0,0,1.66;}
	.st130{fill:none;stroke:#FF522B;stroke-width:1.16;stroke-linecap:round;stroke-linejoin:round;stroke-dasharray:0,0,0,1.9;}
	.st131{fill:none;stroke:#FF522B;stroke-width:1.16;stroke-linecap:round;stroke-linejoin:round;stroke-dasharray:0,0,0,3.06;}
	.st132{fill:none;stroke:#FF522B;stroke-width:1.16;stroke-linecap:round;stroke-linejoin:round;stroke-dasharray:0,0,0,2.88;}
	.st133{fill:none;stroke:#FF522B;stroke-width:1.16;stroke-linecap:round;stroke-linejoin:round;stroke-dasharray:0,0,0,3.09;}
	.st134{fill:none;stroke:#FF522B;stroke-width:1.16;stroke-linecap:round;stroke-linejoin:round;stroke-dasharray:0,0,0,3.01;}
	.st135{fill:none;stroke:#FF522B;stroke-width:1.16;stroke-linecap:round;stroke-linejoin:round;stroke-dasharray:0,0,0,2.47;}
	
		.st136{fill:none;stroke:#FF522B;stroke-width:1.16;stroke-linecap:round;stroke-linejoin:round;stroke-dasharray:0,0,0,6.000000e-02;}
	.st137{fill:none;stroke:#FF522B;stroke-width:1.16;stroke-linecap:round;stroke-linejoin:round;stroke-dasharray:0,0,0,1.15;}
	.st138{fill:none;stroke:#FF522B;stroke-width:1.16;stroke-linecap:round;stroke-linejoin:round;stroke-dasharray:0,0,0,3.14;}
	.st139{fill:none;stroke:#FF522B;stroke-width:1.16;stroke-linecap:round;stroke-linejoin:round;stroke-dasharray:0,0,0,3.33;}
	.st140{fill:none;stroke:#FF522B;stroke-width:1.16;stroke-linecap:round;stroke-linejoin:round;stroke-dasharray:0,0,0,2.91;}
	.st141{fill:none;stroke:#FF522B;stroke-width:1.16;stroke-linecap:round;stroke-linejoin:round;stroke-dasharray:0,0,0,1.91;}
	.st142{fill:none;stroke:#FF522B;stroke-width:1.16;stroke-linecap:round;stroke-linejoin:round;stroke-dasharray:0,0,0,3.47;}
	.st143{fill:none;stroke:#FF522B;stroke-width:1.16;stroke-linecap:round;stroke-linejoin:round;stroke-dasharray:0,0,0,1.79;}
	.st144{fill:none;stroke:#FF522B;stroke-width:1.16;stroke-linecap:round;stroke-linejoin:round;stroke-dasharray:0,0,0,2.25;}
	.st145{fill:none;stroke:#FF522B;stroke-width:1.16;stroke-linecap:round;stroke-linejoin:round;stroke-dasharray:0,0,0,3.27;}
	.st146{fill:none;stroke:#FF522B;stroke-width:1.16;stroke-linecap:round;stroke-linejoin:round;stroke-dasharray:0,0,0,2.8;}
	.st147{fill:none;stroke:#FF522B;stroke-width:1.16;stroke-linecap:round;stroke-linejoin:round;stroke-dasharray:0,0,0,1.87;}
	.st148{fill:none;stroke:#FF522B;stroke-width:1.16;stroke-linecap:round;stroke-linejoin:round;stroke-dasharray:0,0,0,2.98;}
	.st149{fill:none;stroke:#FF522B;stroke-width:1.16;stroke-linecap:round;stroke-linejoin:round;stroke-dasharray:0,0,0,3.43;}
	.st150{fill:none;stroke:#FF522B;stroke-width:1.16;stroke-linecap:round;stroke-linejoin:round;stroke-dasharray:0,0,0,3.41;}
	.st151{fill:none;stroke:#FF522B;stroke-width:1.16;stroke-linecap:round;stroke-linejoin:round;stroke-dasharray:0,0,0,2.61;}
	.st152{fill:none;stroke:#FF522B;stroke-width:1.16;stroke-linecap:round;stroke-linejoin:round;stroke-dasharray:0,0,0,1.68;}
	.st153{fill:none;stroke:#FF522B;stroke-width:1.16;stroke-linecap:round;stroke-linejoin:round;stroke-dasharray:0,0,0,3.1;}
	.st154{fill:none;stroke:#FF522B;stroke-width:1.16;stroke-linecap:round;stroke-linejoin:round;stroke-dasharray:0,0,0,2;}
	.st155{fill:none;stroke:#FF522B;stroke-width:1.16;stroke-linecap:round;stroke-linejoin:round;stroke-dasharray:0,0,0,3.29;}
	.st156{fill:none;stroke:#FF522B;stroke-width:1.16;stroke-linecap:round;stroke-linejoin:round;stroke-dasharray:0,0,0,2.87;}
	.st157{fill:none;stroke:#FF522B;stroke-width:1.16;stroke-linecap:round;stroke-linejoin:round;stroke-dasharray:0,0,0,2.09;}
	.st158{fill:none;stroke:#FF522B;stroke-width:1.16;stroke-linecap:round;stroke-linejoin:round;stroke-dasharray:0,0,0,2.85;}
	.st159{fill:none;stroke:#FF522B;stroke-width:1.16;stroke-linecap:round;stroke-linejoin:round;stroke-dasharray:0,0,0,0.74;}
	.st160{fill:none;stroke:#FF522B;stroke-width:1.16;stroke-linecap:round;stroke-linejoin:round;stroke-dasharray:0,0,0,3.32;}
	.st161{fill:none;stroke:#FF522B;stroke-width:1.16;stroke-linecap:round;stroke-linejoin:round;stroke-dasharray:0,0,0,1.82;}
	.st162{fill:none;stroke:#FF522B;stroke-width:1.16;stroke-linecap:round;stroke-linejoin:round;stroke-dasharray:0,0,0,1.57;}
	.st163{fill:none;stroke:#FF522B;stroke-width:1.16;stroke-linecap:round;stroke-linejoin:round;stroke-dasharray:0,0,0,2.84;}
	.st164{fill:none;stroke:#FF522B;stroke-width:1.16;stroke-linecap:round;stroke-linejoin:round;stroke-dasharray:0,0,0,3.46;}
</style>
<path class="st0" d="M37.3,43.5c3.9,2.1,14-1.8,12.1,4.9"/>
<path class="st1" d="M50.8,51c7.7,8.2-16.7,20.9-21.8,11.5"/>
<path class="st2" d="M27.1,62.4c-0.1,0.8,0.2,2,0.3,2.9"/>
<path class="st3" d="M26.1,64.5c-2.2-0.9-6.2-0.7-5.4-1.6"/>
<path class="st4" d="M21.1,61.5c-1.3,0.4-3.4,1.4-4.8,1.7"/>
<path class="st5" d="M13.2,63c-4.3-0.8-7.4-1.3-8.8-3.6"/>
<path class="st6" d="M2.4,56.9c-0.3-0.2-0.6-0.3-1-0.5"/>
<path class="st7" d="M2.2,53.9c0.6-1.1,1.2-2.2,2.9-2.1"/>
<path class="st8" d="M5.9,49.6c0.3-2.2,1.9-4.9,3.6-4.6"/>
<path class="st9" d="M11.1,48.1c0.4,1.8,0.9,3.1,1,3.7"/>
<path class="st10" d="M11.3,53.7c-0.4,0-0.9,0.1-1.4,0.2"/>
<path class="st11" d="M10.2,56c-0.4,0-0.8-0.2-1.2-0.5"/>
<path class="st12" d="M10.7,56.6c-0.9-0.3-2.4-0.9-2.9-0.6"/>
<path class="st1" d="M9.4,58c5.2-0.7,21.4-12.6,11.7-17.8"/>
<path class="st13" d="M21.8,39c1.7,0,4,0.1,3.8-2.2"/>
<path class="st14" d="M26.9,35.3c0.4,0.2,0.7,0.4,1,0.6"/>
<path class="st15" d="M29.8,34.4c0.3-0.1,0.7-0.1,1,0.2"/>
<path class="st16" d="M32.3,37c0.1,0.3,0.1,0.2,0.2-0.9"/>
<path class="st17" d="M33.7,37.3c0.4,0.5,0.5-0.2,0.7-0.7"/>
<path class="st15" d="M34.9,39c-0.5,1.2-1.4-0.2-2.7-0.6"/>
<path class="st18" d="M30.8,40.8c0.6,1,2.7,0.5,3.2,1.7"/>
<path class="st19" d="M35.5,42.7c0.4,0.1,0.6,0.5,0.6-0.1"/>
<path class="st20" d="M36,41.7L36,41.7 M34.1,43.6L34.1,43.6 M31.1,38.3L31.1,38.3 M35.1,36.9L35.1,36.9 M32.6,34.9L32.6,34.9
	 M31.3,35.5L31.3,35.5 M29,36.2L29,36.2 M25.3,35.7L25.3,35.7 M20.1,39.7L20.1,39.7 M7.9,56.9L7.9,56.9 M10.2,56L10.2,56 M8.6,54.4
	L8.6,54.4 M11.3,51.9L11.3,51.9 M10.6,45.6L10.6,45.6 M6.4,52L6.4,52 M0.6,55.8L0.6,55.8 M3.9,58.4L3.9,58.4 M15.3,63.3L15.3,63.3
	 M21.7,62.2L21.7,62.2 M27.4,66.2L27.4,66.2 M28.6,61.5L28.6,61.5 M49,49.6L49,49.6"/>
<path class="st21" d="M28.5,47c-0.5,0.9-0.6,2.1-0.3,2.9"/>
<path class="st22" d="M29.9,48.3C30,47.9,30,47.4,30,47"/>
<path class="st20" d="M30,45.7L30,45.7 M28.9,50.6L28.9,50.6"/>
<path class="st18" d="M35.8,54.3c0,0.4,0.1,0.8,0.3,1.2"/>
<path class="st23" d="M37,53.8c0.8-0.7,0.6-0.1,0.3,0.7"/>
<path class="st20" d="M37,53.8L37,53.8 M37,56.2L37,56.2"/>
<path class="st24" d="M33.3,56.9c-0.6,0.4-1.1,0.4-1.6,0.2"/>
<path class="st25" d="M30.4,56.2c0.5-0.4,1-0.2,1.5,0.1"/>
<path class="st20" d="M30.4,56.2L30.4,56.2 M33.3,56.9L33.3,56.9"/>
<path class="st26" d="M24.4,49.8c0.8,0.2,1,0.6,0.9,1"/>
<path class="st27" d="M24.6,52.2c-0.3-0.4-0.4-0.8-0.4-1.1"/>
<path class="st20" d="M24.6,52.2L24.6,52.2 M24.4,49.8L24.4,49.8"/>
<path class="st28" d="M38.6,59.6c0.1-0.4,0.2-0.7,0.4-0.9"/>
<path class="st29" d="M39.8,59c-0.1,0.3-0.3,0.5-0.5,0.6"/>
<path class="st20" d="M39.8,59L39.8,59 M38.6,59.6L38.6,59.6"/>
<path class="st30" d="M8.1,54.5c-0.3,0.1-0.5,0-0.7-0.2"/>
<path class="st31" d="M7.1,53.6c0.4-0.2,0.6-0.2,0.8,0"/>
<path class="st20" d="M7.1,53.6L7.1,53.6 M8.1,54.5L8.1,54.5"/>
<path class="st32" d="M25.7,58.3c0.1,0.2,0.3,0.3,0.4,0.5"/>
<path class="st33" d="M25.9,59.5c-0.3-0.2-0.5-0.4-0.6-0.5"/>
<path class="st20" d="M25.9,59.5L25.9,59.5 M25.7,58.3L25.7,58.3"/>
<path class="st34" d="M48.9,50.7c-0.2-0.1-0.4-0.1-0.6-0.2"/>
<path class="st35" d="M47.8,50.2c0.2-0.2,0.5-0.2,0.7-0.1"/>
<path class="st20" d="M47.8,50.2L47.8,50.2 M48.9,50.7L48.9,50.7"/>
<path class="st36" d="M37.9,26.7c-3.4,0.4-0.1,5-0.7,7.1"/>
<path class="st37" d="M35.4,32.4c-0.4-0.3-0.8-0.4-1.2-0.5"/>
<path class="st36" d="M32.9,29.9c-0.1-0.4-0.3-0.7-0.6-1"/>
<path class="st38" d="M30.4,29.7c-0.1,0.3-0.1,0.6-0.2,1"/>
<path class="st39" d="M30.2,28.9c0.1-0.6,0-1-0.5-0.9"/>
<path class="st40" d="M28.3,30.5c0.8,1.6,1.9,3.5,0.6,3.2"/>
<path class="st41" d="M25.3,33.9c-2.6-0.2-5.6-2.1-4.2,1.4"/>
<path class="st16" d="M19.8,34.9c-4-3.8-4.7-9-3.6-11.9"/>
<path class="st25" d="M16.4,21.7c-0.8,0.8-1.1,1.1-1,1.2"/>
<path class="st42" d="M14.5,20c-1.1-1-1.9-2.1-2.1-3"/>
<path class="st43" d="M11.6,14c0-0.4,0-0.8,0.2-1.1"/>
<path class="st10" d="M13.1,9.9c-0.2,0.4-0.2,0.9-0.1,1.4"/>
<path class="st15" d="M13.5,7.8c0.9-1.4,3.1-1.3,4.7-2.1"/>
<path class="st44" d="M21,4.6c1.2,0.6,2,2.4,0.6,2.3"/>
<path class="st0" d="M20.8,8.9c0.2,3.1,0-0.6-1-0.7"/>
<path class="st45" d="M19.6,11c1.1,2.6,2.5,4.7,4.1,6.7"/>
<path class="st46" d="M22.6,17.7c-0.4-0.2-0.4,0-0.6,0.5"/>
<path class="st47" d="M19.1,18.5c-3.4-0.5,7.8,6,3.9,1.9"/>
<path class="st48" d="M24.3,20.3c1,0.7,1.7,1.7,3.1,1.5"/>
<path class="st1" d="M30.7,20.9c6.8-1.6,14.2-3.8,14.8-10.6"/>
<path class="st49" d="M44.9,7c-0.5-1.7-0.7-3-1.5-0.9"/>
<path class="st37" d="M41.2,9.1c-1.3,1.8-2.3,3.6-1.2,1.3"/>
<path class="st3" d="M40.6,7c0.4-2.5,1.4-6,2-5.3"/>
<path class="st15" d="M44.9,2.9c1.4,1.3,1.9,5.3,2.4,4.3"/>
<path class="st50" d="M47.4,8.4c-0.1,1.4,0,2.8,1.2,2.4"/>
<path class="st21" d="M49.8,12.4c0.2,0.3,0.4,0.4,0.9,0.2"/>
<path class="st51" d="M50.5,13c0.4-0.1,0.9-0.2,1.2-0.4"/>
<path class="st52" d="M52.8,14.6c0.4,0.2,0.8,0.2,1.3-0.2"/>
<path class="st53" d="M54.3,15.2c-0.1,0.8,0.4,1.7,2.9,2.1"/>
<path class="st9" d="M61,17.7c0.4,0.2,0.7,0.5,1.1,0.7"/>
<path class="st54" d="M64.2,17.8c0.3,0,0.5,0.4,0.8,0.5"/>
<path class="st16" d="M64.2,19.6c-4.3,4-10.2,6-18.1,8.5"/>
<path class="st51" d="M43.9,30.6c-1,2-2.3,3.9-4.3,4.1"/>
<path class="st9" d="M40.3,33.5c0-0.9-0.5-2.3-0.6-3.8"/>
<path class="st55" d="M40.2,26.9c0.7-1,0.7-0.5,0.4,0.2"/>
<path class="st20" d="M40.2,26.9L40.2,26.9 M39.8,28.4L39.8,28.4 M38.4,34.6L38.4,34.6 M45,28.4L45,28.4 M65.8,17.8L65.8,17.8
	 M63,19.2L63,19.2 M58.5,17.5L58.5,17.5 M55.2,13.4L55.2,13.4 M50.5,13L50.5,13 M51.6,12L51.6,12 M49.7,10.4L49.7,10.4 M47.6,6.2
	L47.6,6.2 M43,2.9L43,2.9 M40.6,9.3L40.6,9.3 M43,7.2L43,7.2 M45.6,9.2L45.6,9.2 M28.5,21.4L28.5,21.4 M22.1,19.5L22.1,19.5
	 M21.5,19.2L21.5,19.2 M24.5,18.6L24.5,18.6 M18.8,8.9L18.8,8.9 M20.6,6.6L20.6,6.6 M19.1,5.1L19.1,5.1 M13.2,9.9L13.2,9.9
	 M12.8,12.5L12.8,12.5 M12.7,15.8L12.7,15.8 M16.4,21.7L16.4,21.7 M16.7,22L16.7,22 M21.7,36.4L21.7,36.4 M27.8,33.1L27.8,33.1
	 M28.5,28.5L28.5,28.5 M29.9,31.5L29.9,31.5 M31.4,28.2L31.4,28.2 M32.9,32.2L32.9,32.2 M36.6,34.6L36.6,34.6"/>
<path class="st56" d="M40.2,23.4c-0.4-3-3.1,0-1.6,2"/>
<path class="st43" d="M41.6,26.1c1,0.3,1.8,1.1,2.2,2.2"/>
<path class="st44" d="M43.9,27.2c-0.4-1-1.5-1.6-2.7-1.7"/>
<path class="st20" d="M40.1,25.6L40.1,25.6 M43.9,29.4L43.9,29.4 M39.5,26.1L39.5,26.1"/>
<path class="st49" d="M49,24.8c-1.1-0.3-2.3-0.6-3.2-1.2"/>
<path class="st57" d="M45.2,24.8c0.9,0.9,3.2,0.5,5,0.6"/>
<path class="st20" d="M51.2,25.5L51.2,25.5 M44.8,22.9L44.8,22.9"/>
<path class="st58" d="M56.2,22.4c2.2-1.3-0.2-2.2-2.8-0.6"/>
<path class="st39" d="M54.2,23.2c0.5-0.6,0.1-0.8-0.4-0.9"/>
<path class="st20" d="M54.2,23.2L54.2,23.2 M52.5,22.5L52.5,22.5"/>
<path class="st22" d="M37.1,21.2c-0.3,0.3-0.5,0.6-0.7,1.1"/>
<path class="st59" d="M38.3,21.9c0.3-0.4,0.6-0.8,0.7-1.2"/>
<path class="st20" d="M38.9,19.4L38.9,19.4 M36.1,23.5L36.1,23.5"/>
<path class="st60" d="M22.1,24c0.9,0.6,2,1.1,3,1.3"/>
<path class="st61" d="M24.4,24.2c-0.9-0.5-1.8-1-2.7-1.5"/>
<path class="st20" d="M20.9,22.2L20.9,22.2 M26.2,25.3L26.2,25.3"/>
<path class="st8" d="M26,26.2c-0.3-0.2-0.7-0.4-1.1-0.6"/>
<path class="st38" d="M24.8,27c0.3,0.3,0.6,0.5,0.8,0.5"/>
<path class="st20" d="M25.6,26.8L25.6,26.8 M23.7,25.4L23.7,25.4"/>
<path class="st62" d="M41.8,30.5c-0.8,1.5-1.3,2.6,0.2,1"/>
<path class="st63" d="M42.9,28.7c0.2,0.6,0.5,1,0.5,1.2"/>
<path class="st20" d="M42.9,28.7L42.9,28.7 M42.7,30.7L42.7,30.7"/>
<path class="st64" d="M19.8,12.4c-0.5-0.8-1.2-1.6-1.8-2.3"/>
<path class="st52" d="M18.6,11.8c0.3,0.4,0.5,0.8,0.8,1.2"/>
<path class="st20" d="M20.2,14.2L20.2,14.2 M17.3,9.3L17.3,9.3"/>
<path class="st13" d="M32.4,22.9c0.2,0.1,0.5,0.5,0.6,0.8"/>
<path class="st54" d="M31.7,24.3c0.1,0.3,0.3,0.6,0.6,0.7"/>
<path class="st20" d="M33.2,24.7L33.2,24.7 M32.4,22.9L32.4,22.9"/>
<path class="st3" d="M41.7,20.3c0.2,0.4,0,0.8-0.2,1.1"/>
<path class="st65" d="M40.7,22.3c-0.4-0.9-0.5-1.2-0.3-1.4"/>
<path class="st20" d="M40.7,22.3L40.7,22.3 M41.7,20.3L41.7,20.3"/>
<path class="st66" d="M41.3,27.2c0.5-0.7,0.7-0.1,0.6,0.5"/>
<path class="st67" d="M41.2,28.2c0-0.2,0.1-0.4,0.1-0.5"/>
<path class="st20" d="M41.2,28.2L41.2,28.2 M41.3,27.2L41.3,27.2"/>
<path class="st68" d="M54,19.5c-0.2,0.2-0.5,0.4-0.7,0.5"/>
<path class="st69" d="M54.2,19.9c0.2-0.2,0.5-0.4,0.7-0.5"/>
<path class="st20" d="M55.6,18.9L55.6,18.9 M52.6,20.5L52.6,20.5"/>
<path class="st70" d="M59.8,20.1c0.2-0.4,0.5-0.6,0.8-0.7"/>
<path class="st70" d="M61.6,19.2c-0.2,0.4-0.5,0.6-0.8,0.7"/>
<path class="st20" d="M61.6,19.2L61.6,19.2 M59.8,20.1L59.8,20.1"/>
<path class="st71" d="M16.5,25.7c0.5-0.7,0.6-0.6,0.6-0.2"/>
<path class="st72" d="M16.9,26.6c-0.3,0-0.4-0.2-0.4-0.3"/>
<path class="st20" d="M16.9,26.6L16.9,26.6 M16.5,25.7L16.5,25.7"/>
<path class="st18" d="M35.8,28.5c-0.1,0.4-0.2,0.8-0.3,1.2"/>
<path class="st7" d="M35.2,30.9c-0.2-0.5-0.1-0.9,0-1.3"/>
<path class="st20" d="M35.2,30.9L35.2,30.9 M35.8,28.5L35.8,28.5"/>
<path class="st73" d="M18.2,8.8c-0.1-0.2-0.2-0.3-0.2-0.4"/>
<path class="st61" d="M17.8,7.9c0.7-0.3,0.9-0.3,0.8-0.1"/>
<path class="st20" d="M17.8,7.9L17.8,7.9 M18.2,8.8L18.2,8.8"/>
<path class="st46" d="M41.4,24.6c-0.2-0.2-0.3-0.6-0.3-1"/>
<path class="st5" d="M40.9,22.6c0.4,0.1,0.5,0.5,0.5,0.9"/>
<path class="st20" d="M40.9,22.6L40.9,22.6 M41.4,24.6L41.4,24.6"/>
<path class="st74" d="M57.4,20.6c0.1-0.2,0.3-0.4,0.5-0.5"/>
<path class="st75" d="M58.6,20.2c-0.2,0.1-0.4,0.3-0.6,0.4"/>
<path class="st20" d="M58.6,20.2L58.6,20.2 M57.4,20.6L57.4,20.6"/>
<path class="st76" d="M19.8,7.9c0-0.2-0.2-0.4-0.2-0.6"/>
<path class="st77" d="M19.6,6.9C19.8,7,20,7.1,20,7.3"/>
<path class="st20" d="M19.6,6.9L19.6,6.9 M19.8,7.9L19.8,7.9"/>
<path class="st78" d="M34.7,23.9c0.1-0.1,0.1-0.4,0.2-0.7"/>
<path class="st35" d="M35.3,22.7c-0.1,0.2,0,0.5,0,0.7"/>
<path class="st20" d="M35.3,22.7L35.3,22.7 M34.7,23.9L34.7,23.9"/>
<path class="st78" d="M20.9,14.1c0,0.2,0.2,0.4,0.4,0.6"/>
<path class="st78" d="M21.2,15.3c0-0.2-0.2-0.4-0.4-0.6"/>
<path class="st20" d="M21.2,15.3L21.2,15.3 M20.9,14.1L20.9,14.1"/>
<path class="st19" d="M57.4,18.9c0,0.2-0.2,0.5-0.6,0.6"/>
<path class="st79" d="M55.9,19.7c0.3-0.1,0.5-0.3,0.8-0.4"/>
<path class="st20" d="M55.9,19.7L55.9,19.7 M57.4,18.9L57.4,18.9"/>
<path class="st80" d="M57.7,19.6c-0.1-0.2,0.1-0.4,0.4-0.4"/>
<path class="st81" d="M58.7,19.5c-0.2,0-0.3,0-0.5,0"/>
<path class="st20" d="M58.7,19.5L58.7,19.5 M57.7,19.6L57.7,19.6"/>
<path class="st82" d="M54.6,18.2c-0.3,0-0.3-0.3-0.1-0.5"/>
<path class="st83" d="M55,17.7c-0.1,0.1-0.1,0.2-0.2,0.2"/>
<path class="st20" d="M55,17.7L55,17.7 M54.6,18.2L54.6,18.2"/>
<path class="st84" d="M55.5,19.6c0.1,0.1-0.1,0.4-0.3,0.6"/>
<path class="st82" d="M54.5,20.4c0.2-0.1,0.3-0.3,0.5-0.4"/>
<path class="st20" d="M54.5,20.4L54.5,20.4 M55.5,19.6L55.5,19.6"/>
<path class="st11" d="M44.1,86.6c-0.1,0.4-0.2,0.8-0.4,1.2"/>
<path class="st85" d="M43,89c0.4-1.8,1.2-4.5,0.7-3.2"/>
<path class="st86" d="M42.3,85.2c0.6-0.6,0.7-0.2,0.8,0.4"/>
<path class="st8" d="M42.8,87.7c0,0.6-0.3,0.7-0.6,1.1"/>
<path class="st87" d="M41.4,87.1c-0.2-0.3-0.7-0.2-1.2,0.3"/>
<path class="st8" d="M40.6,86.2c0.5-1.3,0.6-2.7,0.1-3.7"/>
<path class="st70" d="M38.8,83.3c-1,2.3-0.5,5.2-1.7,7.2"/>
<path class="st85" d="M35.5,89.9c0-0.4,0-0.9-0.1-1.3"/>
<path class="st88" d="M34.5,89.4c-0.7,0.2-2-0.6-3-1.6"/>
<path class="st89" d="M31.8,89.2c0.1,0.4,0.1,0.8-0.1,1.2"/>
<path class="st3" d="M29.7,89.5c-2.5-2.9-6.4-5.2-5.7-8.7"/>
<path class="st90" d="M26.3,78.1c0.5-0.4,0.9-0.7,1-0.3"/>
<path class="st91" d="M28.1,77.7c-0.3-0.1-0.5,0.2-0.6,0.5"/>
<path class="st92" d="M29.5,76.5c0.3-0.1,0.6-0.2,1-0.2"/>
<path class="st44" d="M33.7,76.7c2.6-0.3,5.4-1.6,7.4,0.7"/>
<path class="st93" d="M44,78.2c21-0.1-1.7,27.9-16.2,24.8"/>
<path class="st94" d="M25,101.7c-1-0.2-2.1,0-3-0.1"/>
<path class="st95" d="M21.6,100.3c1,0.1,1.2,0.4,0.9,0.7"/>
<path class="st21" d="M19.6,100.3c-1.5-0.1-2.7-0.6-1.2-1.2"/>
<path class="st96" d="M19.5,97.4c-1.6-0.9-4.8-2.1-4.4-3.5"/>
<path class="st97" d="M14.9,90.8c-1.3-5.3,3.1-12.1,8.9-6.9"/>
<path class="st98" d="M25.7,86.5c1.1,1.6,2.8,3.4,3,4.4"/>
<path class="st99" d="M31,93c-0.3-0.5-0.9-0.6-1.5-0.6"/>
<path class="st57" d="M30,94.8c-2.1,4-1.1,3.6-0.1,4.3"/>
<path class="st97" d="M32.2,100.6c2.1-1.4,5.7-6.2,8.7-6.4"/>
<path class="st100" d="M43.8,93.1c1.7-1.8,2.5-4.4,4.2-6"/>
<path class="st101" d="M46.6,86.7c-0.4-0.1-0.8-0.1-1.1-0.1"/>
<path class="st20" d="M44.8,87.4L44.8,87.4 M48.8,86.5L48.8,86.5 M42.1,94.4L42.1,94.4 M30.6,99.9L30.6,99.9 M31,93L31,93
	 M28.2,91.5L28.2,91.5 M24.6,84.7L24.6,84.7 M15.8,93L15.8,93 M19.3,98.8L19.3,98.8 M21.6,100.3L21.6,100.3 M21.1,101.2L21.1,101.2
	 M26.6,102.7L26.6,102.7 M41.7,78.3L41.7,78.3 M31.5,76.5L31.5,76.5 M28.1,77.7L28.1,77.7 M27.1,79L27.1,79 M24.4,79.7L24.4,79.7
	 M31,91.5L31,91.5 M30.8,86.9L30.8,86.9 M35,87.3L35,87.3 M36.5,91.3L36.5,91.3 M39.9,81.5L39.9,81.5 M39.4,88.5L39.4,88.5
	 M41.5,89.8L41.5,89.8 M42.3,85.2L42.3,85.2 M43.2,87L43.2,87 M43.2,89L43.2,89"/>
<path class="st4" d="M37,88.4c0.2-1,0.2-2.1,0.5-3"/>
<path class="st102" d="M36.8,86.1c-0.2,1-0.2,2.1-0.3,3.1"/>
<path class="st20" d="M36.3,90.2L36.3,90.2 M37.9,84.4L37.9,84.4"/>
<path class="st55" d="M49.8,89.4c-0.3,0.3-0.5,0.9-0.7,1.4"/>
<path class="st103" d="M48.7,90.2c-0.1,0.3-0.2,0.6-0.2,0.9"/>
<path class="st20" d="M48.1,91.9L48.1,91.9 M49.8,89.4L49.8,89.4"/>
<path class="st104" d="M29.2,84.6c0.2,0,0.4,0.1,0.5,0.2"/>
<path class="st105" d="M30.1,84.7c0.5,1.4,0.5,1.6,0.1,1.2"/>
<path class="st20" d="M30.1,84.7L30.1,84.7 M29.2,84.6L29.2,84.6"/>
<path class="st46" d="M46.3,80.6c0,0.3-0.3,0.6-0.6,0.7"/>
<path class="st92" d="M44.6,81.4c0.3-0.2,0.5-0.5,0.7-0.7"/>
<path class="st20" d="M44.6,81.4L44.6,81.4 M46.3,80.6L46.3,80.6"/>
<path class="st58" d="M26,90.5c0,0.4,0.3,0.7,0.5,0.9"/>
<path class="st106" d="M26.9,92.4c-0.4-0.2-0.6-0.5-0.8-0.8"/>
<path class="st20" d="M26.9,92.4L26.9,92.4 M25.9,90.5L25.9,90.5"/>
<path class="st77" d="M21.9,88.1c0,0.2,0.1,0.4,0.1,0.6"/>
<path class="st107" d="M21.7,89.2c-0.1-0.3-0.3-0.5-0.4-0.7"/>
<path class="st20" d="M21.7,89.2L21.7,89.2 M21.9,88.1L21.9,88.1"/>
<path class="st108" d="M26.5,90.6c0.5,0.2,0.8,0.4,1,0.5"/>
<path class="st109" d="M27.5,92.2c-0.2-0.3-0.3-0.5-0.5-0.8"/>
<path class="st20" d="M27.5,92.2L27.5,92.2 M26.5,90.6L26.5,90.6"/>
<path class="st103" d="M31.7,87.2c0.2-0.1,0.4,0.2,0.6,0.6"/>
<path class="st110" d="M32.4,88.6c-0.1-0.2-0.2-0.5-0.3-0.7"/>
<path class="st20" d="M32.4,88.6L32.4,88.6 M31.7,87.2L31.7,87.2"/>
<path class="st111" d="M42,84.9c0,0.3-0.3,0.2-0.5,0.1"/>
<path class="st112" d="M41.3,84.5c0.1,0.1,0.2,0.1,0.3,0.2"/>
<path class="st20" d="M41.3,84.5L41.3,84.5 M42,84.9L42,84.9"/>
<path class="st113" d="M21,98.6c0-0.2,0.3-0.2,0.7-0.1"/>
<path class="st32" d="M22.3,98.9c-0.2-0.1-0.4-0.1-0.6-0.2"/>
<path class="st20" d="M22.3,98.9L22.3,98.9 M21,98.6L21,98.6"/>
<path class="st71" d="M29.9,11.6c-0.4-2.2,0.3-5.5-0.2-7.9"/>
<path class="st114" d="M30.7,4.5c1.2,2.3,1.1,5.1,0.5,7.9"/>
<path class="st20" d="M31,13.5L31,13.5 M29.4,2.7L29.4,2.7"/>
<path class="st70" d="M29.2,70.8c0,0.3,0,0.7-0.1,1"/>
<path class="st101" d="M26.3,72.5c-0.4,0.1-0.8,0.2-1.1,0.3"/>
<path class="st28" d="M25.6,71.7c0.4,0,0.7,0,1-0.1"/>
<path class="st115" d="M28.3,70.5c-0.9,1.2-0.3,0.1-0.4-0.3"/>
<path class="st20" d="M28.3,70.5L28.3,70.5 M26.6,70.8L26.6,70.8 M24.1,72.7L24.1,72.7 M28.5,72.8L28.5,72.8"/>
<path class="st116" d="M38.7,36.8c-0.2,0.6-0.4,1-0.6,1.4"/>
<path class="st117" d="M39.3,37.1c0.1,0.4,0.1,0.9-0.2,1.4"/>
<path class="st20" d="M38.1,39.6L38.1,39.6 M38.7,36.8L38.7,36.8"/>
<path class="st118" d="M12.9,42.7c0.5-0.5,1-0.7,1.3-0.8"/>
<path class="st114" d="M14.2,40.8c0.4-0.3,0.7-0.5,0.9-0.6"/>
<path class="st20" d="M15.1,40.9L15.1,40.9 M13,42.7L13,42.7"/>
<path class="st11" d="M35.6,94.9c0.2-0.2,0.5-0.5,0.8-1"/>
<path class="st5" d="M37.6,95c0-0.4-0.1-0.7-0.2-1.1"/>
<path class="st20" d="M37.6,95L37.6,95 M37.1,92.8L37.1,92.8"/>
<path class="st5" d="M37.9,2.9C38,3.3,38.1,3.7,38.1,4"/>
<path class="st90" d="M36.7,3C37,3,37.1,3.6,37.2,4"/>
<path class="st20" d="M36.7,3L36.7,3 M37.5,4.7L37.5,4.7"/>
<path class="st68" d="M31.7,69.1c-0.4,0.2-0.6,0.4-0.8,0.4"/>
<path class="st119" d="M31.2,71.2C31,71,30.8,70.6,30.6,70"/>
<path class="st20" d="M30.3,68.8L30.3,68.8 M31.7,69.1L31.7,69.1"/>
<path class="st120" d="M32.1,72.1c0.3,0.2,0.5,0.4,0.7,0.6"/>
<path class="st115" d="M30.6,72.2c0.4,0.1,0.9,0.5,1.4,0.9"/>
<path class="st20" d="M30.6,72.2L30.6,72.2 M32.3,73.1L32.3,73.1"/>
<path class="st94" d="M23.4,4.9c0,0.3,0,0.7,0,1"/>
<path class="st109" d="M22.8,5.3c-0.1-0.3-0.1-0.6-0.2-0.9"/>
<path class="st20" d="M22.2,3.5L22.2,3.5 M23.5,6.9L23.5,6.9"/>
<path class="st120" d="M39.2,31.4c-0.1,0.8-0.4,0.3-0.5,0.2"/>
<path class="st121" d="M38.8,32.4c-0.5,0.9,0.2,1,0.5,0.5"/>
<path class="st20" d="M38.8,32.4L38.8,32.4 M39.2,31.4L39.2,31.4"/>
<path class="st122" d="M37.3,0.6c0,0.2,0.3,0.2,0.4,0.2"/>
<path class="st123" d="M38.6,1.2c0,0.3-0.3,0.5-0.6,0.3"/>
<path class="st20" d="M37.3,1L37.3,1 M37.3,0.6L37.3,0.6"/>
<path class="st97" d="M13.8,43.6c0,0.4,0.2,0.7,0.4,1.1"/>
<path class="st87" d="M14.9,45.8c0.4-0.5,0.3-0.9,0-1.3"/>
<path class="st20" d="M14.9,45.8L14.9,45.8 M13.8,43.6L13.8,43.6"/>
<path class="st124" d="M41.6,34.7c0,0.5,0.6,0.2,1.3-0.2"/>
<path class="st125" d="M44.3,34.1c-0.4-0.6-0.9-0.5-1.3-0.2"/>
<path class="st20" d="M44.3,34.1L44.3,34.1 M41.6,34.7L41.6,34.7"/>
<path class="st123" d="M48.5,8.6c-0.1-0.3,0.1-0.6,0.3-0.8"/>
<path class="st126" d="M48.9,7.1c-0.5,0.3-0.8,0.9-0.9,1.4"/>
<path class="st20" d="M48.9,7.1L48.9,7.1 M48.5,8.6L48.5,8.6"/>
<path class="st6" d="M13.1,45.2c-0.1,0.4,0,0.8,0.1,1.1"/>
<path class="st100" d="M14,47c0-0.4-0.1-0.7-0.2-1"/>
<path class="st20" d="M14,47L14,47 M13.1,45.2L13.1,45.2"/>
<path class="st95" d="M32.4,34.7c0-1.2,0.2-0.9,0.5-0.4"/>
<path class="st127" d="M33.1,33.9c0.2,0.2,0.4,0.4,0.5,0.7"/>
<path class="st20" d="M33.8,35.5L33.8,35.5 M32.4,34.7L32.4,34.7"/>
<path class="st128" d="M23.8,71.3c-0.2-0.1,0.1-0.2,0.4-0.4"/>
<path class="st94" d="M23.1,71.6c0.1-0.3,0.3-0.6,0.6-0.8"/>
<path class="st20" d="M24.6,70.4L24.6,70.4 M23.8,71.3L23.8,71.3"/>
<path class="st129" d="M33.3,68.2c-0.3,0.1-0.5,0.3-0.6,0.5"/>
<path class="st130" d="M32.5,69.6c0.5,0.1,0.7-0.1,0.7-0.4"/>
<path class="st20" d="M32.5,69.6L32.5,69.6 M33.3,68.2L33.3,68.2"/>
<path class="st54" d="M39.7,87c-0.1,0.3-0.2,0.6-0.4,0.9"/>
<path class="st64" d="M39.4,86.9c0.1-0.3,0.3-0.6,0.4-0.9"/>
<path class="st20" d="M40.4,85.2L40.4,85.2 M38.8,88.7L38.8,88.7"/>
<path class="st46" d="M28.1,9.5c-0.3,0.1-0.6,0.1-1,0.1"/>
<path class="st131" d="M28.7,8.5c-0.7,0.1-1.2,0.2-1.5,0.3"/>
<path class="st20" d="M28.7,8.5L28.7,8.5 M26.1,9.7L26.1,9.7"/>
<path class="st67" d="M19.1,43.2c0.1-0.2,0.1-0.3,0.2-0.5"/>
<path class="st123" d="M19.5,42.3c-0.4-0.3-0.6-0.2-0.7,0.1"/>
<path class="st20" d="M19.5,42.3L19.5,42.3 M19.1,43.2L19.1,43.2"/>
<path class="st132" d="M24.6,17.6c-0.2-0.4-0.5-0.8-0.7-1.2"/>
<path class="st116" d="M23.2,15.1c-0.1,0.2,0.1,0.8,0.5,1.4"/>
<path class="st20" d="M23.2,15.1L23.2,15.1 M24.6,17.6L24.6,17.6"/>
<path class="st4" d="M44.2,90.1c0.3,0.1,0.4-0.3,0.6-0.8"/>
<path class="st61" d="M45.2,88.4c-0.2-0.1-0.4,0.3-0.6,0.8"/>
<path class="st20" d="M45.2,88.4L45.2,88.4 M44.2,90.1L44.2,90.1"/>
<path class="st15" d="M43.9,89.4c0.2,0.1,0.4-0.4,0.5-0.8"/>
<path class="st4" d="M44.7,87.6c-0.3,0.2-0.4,0.5-0.5,0.9"/>
<path class="st20" d="M44.7,87.6L44.7,87.6 M43.9,89.4L43.9,89.4"/>
<path class="st115" d="M39.3,28c-0.5-0.4-0.7-0.2-0.9,0.8"/>
<path class="st24" d="M38.2,30.4c0.1,0.8,0.4,0.1,0.6-0.8"/>
<path class="st20" d="M38.2,30.4L38.2,30.4 M39.3,28L39.3,28"/>
<path class="st16" d="M38.8,90.6c0.3-0.3,0.5-0.6,0.8-0.9"/>
<path class="st14" d="M40.1,88.6c-0.3,0-0.5,0.4-0.8,0.9"/>
<path class="st20" d="M40.1,88.6L40.1,88.6 M38.8,90.6L38.8,90.6"/>
<path class="st92" d="M37.3,42.9c-0.3-0.2-0.6-0.4-0.8-0.5"/>
<path class="st92" d="M35.4,42.8c-0.8-0.1-0.7-0.2-0.5-0.4"/>
<path class="st20" d="M35.7,41.8L35.7,41.8 M37.3,42.9L37.3,42.9"/>
<path class="st45" d="M40,92.2c-0.5,0.1-0.9,0.2-1.1,0.3"/>
<path class="st133" d="M38.1,93.3c0.5,0,1-0.1,1.5-0.3"/>
<path class="st20" d="M38.1,93.3L38.1,93.3 M40,92.2L40,92.2"/>
<path class="st134" d="M27.3,70.2c-0.5,0.4,0.1,0.7,0.8,0.7"/>
<path class="st5" d="M29.4,70.5c0,0-0.5,0-1.1-0.1"/>
<path class="st20" d="M29.4,70.5L29.4,70.5 M27.3,70.2L27.3,70.2"/>
<path class="st135" d="M57.3,25.9c-0.3,0.2-0.7,0.1-0.5-0.7"/>
<line class="st136" x1="57.2" y1="24" x2="57.2" y2="24"/>
<path class="st20" d="M57.2,24L57.2,24 M57.2,24.1L57.2,24.1"/>
<path class="st95" d="M64.8,20.9c0.3,0.4,0.6,0.2,0.7-0.8"/>
<path class="st97" d="M65.6,18.6c-0.1,0.4-0.3,0.8-0.4,1.1"/>
<path class="st20" d="M65.6,18.6L65.6,18.6 M64.8,20.9L64.8,20.9"/>
<path class="st32" d="M11.4,52.1c0.1,0.3,0.2,0.5,0.3,0.6"/>
<path class="st137" d="M12.4,52.8c-0.1,0-0.3-0.2-0.5-0.3"/>
<path class="st20" d="M12.4,52.8L12.4,52.8 M11.4,52.1L11.4,52.1"/>
<path class="st138" d="M32.9,13.1c0.8,0,1.2-0.3,1.4-0.5"/>
<path class="st138" d="M35.3,11.4c-0.8,0-1.2,0.3-1.4,0.6"/>
<path class="st20" d="M35.3,11.4L35.3,11.4 M32.9,13.1L32.9,13.1"/>
<path class="st25" d="M25.3,15.8c0.6-0.2-0.1-0.5-0.9-0.9"/>
<path class="st123" d="M23.8,15.1c-0.3-0.1-0.6-0.2-0.8-0.4"/>
<path class="st20" d="M23,14.2L23,14.2 M25.3,15.8L25.3,15.8"/>
<path class="st48" d="M25.4,69.5c-1.1,0.1-1,0.2-0.7,0.3"/>
<path class="st11" d="M25.9,70.2c1.1-0.1,1.1-0.2,0.8-0.3"/>
<path class="st20" d="M25.9,70.2L25.9,70.2 M25.4,69.5L25.4,69.5"/>
<path class="st120" d="M40.9,89.1c0.7,0,0.8-0.1,0.8-0.3"/>
<path class="st50" d="M41.3,88.1c-0.5,0.1-0.9,0.3-1,0.4"/>
<path class="st20" d="M41.3,88.1L41.3,88.1 M40.9,89.1L40.9,89.1"/>
<path class="st139" d="M25.9,13.6c0.9,0,0.9-0.5,0.8-1.1"/>
<path class="st13" d="M24.8,11.9c0-0.3,0.2-0.6,0.5-0.9"/>
<path class="st20" d="M26.3,10.8L26.3,10.8 M25.9,13.6L25.9,13.6"/>
<path class="st130" d="M39.4,33.7c0.4,0,0.7,0.1,0.9,0.3"/>
<path class="st15" d="M38.3,35.3c-0.4,0-0.7-0.1-0.8-0.5"/>
<path class="st20" d="M37.5,33.8L37.5,33.8 M40.4,34.9L40.4,34.9"/>
<path class="st140" d="M40.7,84.9c-0.6-0.1-1,0.1-1.4,0.2"/>
<path class="st140" d="M37.9,85.7c0.6,0.1,1.1,0,1.4-0.2"/>
<path class="st20" d="M37.9,85.7L37.9,85.7 M40.7,84.9L40.7,84.9"/>
<path class="st141" d="M38,30.7c-0.3,0.2-0.5,0.5-0.8,0.6"/>
<path class="st2" d="M37.5,29.4c0.3-0.1,0.6-0.2,1-0.2"/>
<path class="st20" d="M39.4,29.4L39.4,29.4 M36.4,31L36.4,31"/>
<path class="st65" d="M52.9,14.8c0.5-0.2,0.9-0.4,1.3-0.6"/>
<path class="st93" d="M53.5,12.6c0.2-0.2,0.6-0.1,1.1,0.2"/>
<path class="st20" d="M55.6,13.4L55.6,13.4 M52.9,14.8L52.9,14.8"/>
<path class="st12" d="M27.8,3.9c-0.3-0.2-0.5-0.5-0.6-0.7"/>
<path class="st2" d="M29,3.6c0.3,0.2,0.5,0.5,0.6,0.7"/>
<path class="st20" d="M29.3,5.2L29.3,5.2 M27.5,2.3L27.5,2.3"/>
<path class="st142" d="M22.7,13.6c-0.9,0.1-0.9,0.6-0.6,1.2"/>
<path class="st143" d="M23.5,15.2c0.2,0.3,0.2,0.6,0.1,0.9"/>
<path class="st20" d="M22.8,16.4L22.8,16.4 M22.7,13.7L22.7,13.7"/>
<path class="st97" d="M38.9,60.5c0.3,0.4,0.5,0.1,0.6-0.6"/>
<path class="st144" d="M39.1,58.2c0.1-0.7,0.2-1.1,0.4-0.7"/>
<path class="st20" d="M39.7,58.7L39.7,58.7 M38.9,60.5L38.9,60.5"/>
<path class="st39" d="M9.3,52.9c0.3,0.3,0.4,0.8,0.5,1.2"/>
<path class="st106" d="M8,54.8c-0.2-0.3-0.5-0.6-0.6-1"/>
<path class="st20" d="M6.9,52.8L6.9,52.8 M10,55.5L10,55.5"/>
<path class="st145" d="M25.9,58.6c-1.2,0.3-1.5,0.3-0.9,0.5"/>
<path class="st50" d="M26.6,59.4c0.8-0.2,0.8-0.3,0.3-0.5"/>
<path class="st20" d="M26.6,59.4L26.6,59.4 M25.9,58.6L25.9,58.6"/>
<path class="st117" d="M48.9,51.5c0-0.6-0.1-1.1-0.2-1.4"/>
<path class="st28" d="M48.2,49.7c0,0.5,0,0.8,0.1,1"/>
<path class="st20" d="M48.2,49.7L48.2,49.7 M48.9,51.5L48.9,51.5"/>
<path class="st114" d="M42.6,30.9c0.7-0.3,0.8-0.4,0.7-0.7"/>
<path class="st146" d="M41.5,31.5c0.2-0.4,0.4-0.8,0.6-1.2"/>
<path class="st20" d="M42.8,29L42.8,29 M42.6,30.8L42.6,30.8"/>
<path class="st9" d="M18.5,11.8c-0.2-0.4-0.5-0.8-0.7-1.1"/>
<path class="st9" d="M19.1,11.6c0.3,0.4,0.5,0.7,0.7,1.1"/>
<path class="st20" d="M19.9,13.9L19.9,13.9 M17.6,9.5L17.6,9.5"/>
<path class="st101" d="M41.6,20.5c-0.6,0.3-0.9,0.3-1,0.5"/>
<path class="st147" d="M40.8,22.2c0.2-0.2,0.4-0.5,0.6-0.7"/>
<path class="st20" d="M40.8,22.2L40.8,22.2 M41.6,20.6L41.6,20.6"/>
<path class="st43" d="M41.7,27.1c-0.5,0.1-0.8,0.2-1,0.3"/>
<path class="st6" d="M42,28.2c-0.3,0.1-0.7,0.2-1.1,0.2"/>
<path class="st20" d="M39.9,28.1L39.9,28.1 M41.7,27.1L41.7,27.1"/>
<path class="st65" d="M52.9,20.4c0.5,0,1-0.2,1.4-0.5"/>
<path class="st148" d="M55.5,19.1c-0.4-0.1-0.9,0.1-1.4,0.5"/>
<path class="st20" d="M55.5,19.1L55.5,19.1 M52.9,20.4L52.9,20.4"/>
<path class="st149" d="M60.2,21.9c0.4-0.3,0.8-0.5,1-1.3"/>
<path class="st150" d="M61.6,18.9c-0.4,0.5-0.7,0.5-1,1.3"/>
<path class="st20" d="M61.6,18.9L61.6,18.9 M60.2,21.9L60.2,21.9"/>
<path class="st102" d="M16.3,25.8c-0.1,0.2-0.8,0.4,0.1,0.5"/>
<path class="st69" d="M18,25.4c0.5,0,0.5,0.2,0.2,0.5"/>
<path class="st20" d="M17.5,26.4L17.5,26.4 M16.3,25.8L16.3,25.8"/>
<path class="st68" d="M34.9,29.6c0.2-0.1,0.5-0.3,0.8-0.4"/>
<path class="st10" d="M34.5,30.9c0.3-0.3,0.7-0.7,1-1"/>
<path class="st20" d="M34.5,30.9L34.5,30.9 M36.5,28.8L36.5,28.8"/>
<path class="st142" d="M40.8,26.1c-0.7-0.3-1.3-0.1-1.6,0.3"/>
<path class="st151" d="M41.6,28.4c-0.2,0.2-0.7,0.2-1.3,0.1"/>
<path class="st20" d="M39.1,28.1L39.1,28.1 M40.8,26.1L40.8,26.1"/>
<path class="st46" d="M19.2,7.8c0.8,0,0.8,0.1,0.5,0.2"/>
<path class="st152" d="M17.2,7.9C17.4,8,17.7,8.1,18,8.2"/>
<path class="st20" d="M17.2,7.9L17.2,7.9 M18.8,8.5L18.8,8.5"/>
<path class="st116" d="M41.8,24.5c-0.5-0.3,0.2-1-0.4-1.3"/>
<path class="st89" d="M40,22.9c0.5,0.3,0.5,0.7,0.8,1"/>
<path class="st20" d="M40,22.9L40,22.9 M41.9,24.4L41.9,24.4"/>
<path class="st48" d="M57.8,21.8c0.2,0.7,0.4,0.3,0.5-0.3"/>
<path class="st89" d="M58.6,20.3c-0.1-0.7-0.4-0.4-0.6,0.2"/>
<path class="st20" d="M58.6,20.3L58.6,20.3 M57.8,21.8L57.8,21.8"/>
<path class="st135" d="M20.2,7.6c1-0.2,1-0.4,0.5-0.5"/>
<path class="st4" d="M19.6,6.9c-0.9,0-0.7,0.2-0.3,0.3"/>
<path class="st20" d="M19.6,6.9L19.6,6.9 M20.2,7.6L20.2,7.6"/>
<path class="st49" d="M34,23.7c0.5,0,0.9-0.1,1.2-0.1"/>
<path class="st58" d="M35.9,23c-0.5,0-0.8,0.1-1,0.2"/>
<path class="st20" d="M35.9,23L35.9,23 M34,23.7L34,23.7"/>
<path class="st47" d="M20.8,14.2c-1,0.1-0.6,0.2-0.1,0.4"/>
<path class="st42" d="M21.9,15c1-0.1,0.7-0.2,0.1-0.4"/>
<path class="st20" d="M21.9,15L21.9,15 M20.8,14.2L20.8,14.2"/>
<path class="st66" d="M57.3,18.7c-0.2,0.5-0.4,0.9-0.5,1.4"/>
<path class="st153" d="M56.2,21.4c0.4-0.2,0.7-0.6,0.9-1.2"/>
<path class="st20" d="M56.2,21.4L56.2,21.4 M57.3,18.7L57.3,18.7"/>
<path class="st61" d="M56.9,20.8c-0.4,0-0.7,0-0.9-0.3"/>
<path class="st154" d="M57.8,19.2c0.4,0,0.7,0,0.9,0.3"/>
<path class="st20" d="M58.9,20.4L58.9,20.4 M55.8,19.5L55.8,19.5"/>
<path class="st155" d="M55.7,26.3c-0.4-0.9-0.2-1.2,0.2-1.4"/>
<path class="st156" d="M54.7,24.6c0.3-0.3,0.7-0.6,1.2-0.7"/>
<path class="st20" d="M57.3,24.2L57.3,24.2 M55.7,26.3L55.7,26.3"/>
<path class="st62" d="M53.9,19.6c0.2-0.2,0.5-0.5,0.7-0.8"/>
<path class="st58" d="M53.4,18c0.2-0.3,0.5-0.5,0.9-0.6"/>
<path class="st20" d="M55.2,18L55.2,18 M53.9,19.6L53.9,19.6"/>
<path class="st157" d="M54.2,20.3c0.3-0.3,0.5-0.5,0.8-0.7"/>
<path class="st60" d="M54.4,21.2c-0.3,0.3-0.5,0.6-0.8,0.8"/>
<path class="st20" d="M52.7,21.8L52.7,21.8 M55.9,19.7L55.9,19.7"/>
<path class="st132" d="M36.8,87.2c0-0.5,0.1-1,0.2-1.4"/>
<path class="st158" d="M37.2,87.3c0,0.5-0.1,1-0.2,1.4"/>
<path class="st20" d="M36.5,90.1L36.5,90.1 M37.7,84.5L37.7,84.5"/>
<path class="st95" d="M49.7,89.6c-0.5-0.5-0.7,0.1-0.8,0.8"/>
<path class="st40" d="M48.5,91.8c0.3,0,0.6-0.5,0.7-1"/>
<path class="st20" d="M48.5,91.8L48.5,91.8 M49.7,89.6L49.7,89.6"/>
<path class="st89" d="M29.3,84.7c0.3,0.4,0.6,0.8,0.8,1"/>
<path class="st159" d="M30,84.8c-0.1,0.1-0.2,0.1-0.4,0"/>
<path class="st20" d="M30,84.8L30,84.8 M29.3,84.7L29.3,84.7"/>
<path class="st23" d="M46.2,78.9c-0.4-0.5-0.6,0-0.8,0.9"/>
<path class="st160" d="M45,81.5c0.3,0.3,0.8,0,1-0.9"/>
<path class="st20" d="M45,81.5L45,81.5 M46.2,78.9L46.2,78.9"/>
<path class="st12" d="M26.2,91.8c-0.4-0.1-0.7-0.2-0.9-0.3"/>
<path class="st99" d="M28.2,92.2c0.1-0.3-0.6-0.6-1.4-0.8"/>
<path class="st20" d="M28.2,92.2L28.2,92.2 M25.3,90.8L25.3,90.8"/>
<path class="st142" d="M22.7,88.3c-0.9,0-1.5,0-1.7,0.1"/>
<path class="st161" d="M22.1,89c0.5,0,0.7,0,0.9-0.1"/>
<path class="st20" d="M22.1,89L22.1,89 M22.7,88.3L22.7,88.3"/>
<path class="st34" d="M26.6,90.9c0.1,0.2,0.2,0.4,0.3,0.6"/>
<path class="st162" d="M27.3,92c0.1-0.4,0.2-0.6,0-0.7"/>
<path class="st20" d="M27.3,92L27.3,92 M26.6,90.9L26.6,90.9"/>
<path class="st163" d="M31.4,87.2c-0.9,0.1-0.4,0.3,0.3,0.6"/>
<path class="st40" d="M33,88.3c0.7-0.1,0.2-0.3-0.4-0.6"/>
<path class="st20" d="M33,88.3L33,88.3 M31.4,87.2L31.4,87.2"/>
<path class="st69" d="M42.1,83.8c0.3,0.2,0.5,0.4,0.5,0.7"/>
<path class="st164" d="M40.6,83c-0.6,0.7-0.3,1.1,0.2,1.4"/>
<path class="st20" d="M40.6,83L40.6,83 M42.2,85.3L42.2,85.3"/>
<path class="st106" d="M21.1,97c0,0.6,0,0.9,0.1,1.1"/>
<path class="st108" d="M22,98.9c0-0.6-0.1-0.9-0.2-1.1"/>
<path class="st20" d="M22,98.9L22,98.9 M21.1,97L21.1,97"/>
</svg>
