<?xml version="1.0" encoding="utf-8"?>
<!-- Generator: Adobe Illustrator 27.0.0, SVG Export Plug-In . SVG Version: 6.00 Build 0)  -->
<svg version="1.1" id="Layer_2_00000018215147591743307290000005462792245144971662_"
	 xmlns="http://www.w3.org/2000/svg" xmlns:xlink="http://www.w3.org/1999/xlink" x="0px" y="0px" viewBox="0 0 73.9 101.7"
	 style="enable-background:new 0 0 73.9 101.7;" xml:space="preserve">
<style type="text/css">
	.st0{fill:none;stroke:#FF522B;stroke-width:1.16;stroke-linecap:round;stroke-linejoin:round;stroke-dasharray:0,0,0,2.34;}
	.st1{fill:none;stroke:#FF522B;stroke-width:1.16;stroke-linecap:round;stroke-linejoin:round;stroke-dasharray:0,0,0,2;}
	.st2{fill:none;stroke:#FF522B;stroke-width:1.16;stroke-linecap:round;stroke-linejoin:round;stroke-dasharray:0,0,0,3.49;}
	.st3{fill:none;stroke:#FF522B;stroke-width:1.16;stroke-linecap:round;stroke-linejoin:round;stroke-dasharray:0,0,0,2.81;}
	.st4{fill:none;stroke:#FF522B;stroke-width:1.16;stroke-linecap:round;stroke-linejoin:round;stroke-dasharray:0,0,0,2.53;}
	.st5{fill:none;stroke:#FF522B;stroke-width:1.16;stroke-linecap:round;stroke-linejoin:round;stroke-dasharray:0,0,0,2.32;}
	.st6{fill:none;stroke:#FF522B;stroke-width:1.16;stroke-linecap:round;stroke-linejoin:round;stroke-dasharray:0,0,0,2.04;}
	.st7{fill:none;stroke:#FF522B;stroke-width:1.16;stroke-linecap:round;stroke-linejoin:round;stroke-dasharray:0,0,0,2.21;}
	.st8{fill:none;stroke:#FF522B;stroke-width:1.16;stroke-linecap:round;stroke-linejoin:round;stroke-dasharray:0,0,0,2.07;}
	.st9{fill:none;stroke:#FF522B;stroke-width:1.16;stroke-linecap:round;stroke-linejoin:round;stroke-dasharray:0,0,0,2.49;}
	.st10{fill:none;stroke:#FF522B;stroke-width:1.16;stroke-linecap:round;stroke-linejoin:round;stroke-dasharray:0,0,0,2.44;}
	.st11{fill:none;stroke:#FF522B;stroke-width:1.16;stroke-linecap:round;stroke-linejoin:round;stroke-dasharray:0,0,0,2.06;}
	.st12{fill:none;stroke:#FF522B;stroke-width:1.16;stroke-linecap:round;stroke-linejoin:round;stroke-dasharray:0,0,0,2.42;}
	.st13{fill:none;stroke:#FF522B;stroke-width:1.16;stroke-linecap:round;stroke-linejoin:round;stroke-dasharray:0,0,0,2.46;}
	.st14{fill:none;stroke:#FF522B;stroke-width:1.16;stroke-linecap:round;stroke-linejoin:round;stroke-dasharray:0,0,0,2.26;}
	.st15{fill:none;stroke:#FF522B;stroke-width:1.16;stroke-linecap:round;stroke-linejoin:round;stroke-dasharray:0,0,0,2.31;}
	.st16{fill:none;stroke:#FF522B;stroke-width:1.16;stroke-linecap:round;stroke-linejoin:round;stroke-dasharray:0,0,0,2.71;}
	.st17{fill:none;stroke:#FF522B;stroke-width:1.16;stroke-linecap:round;stroke-linejoin:round;stroke-dasharray:0,0,0,2.13;}
	.st18{fill:none;stroke:#FF522B;stroke-width:1.16;stroke-linecap:round;stroke-linejoin:round;stroke-dasharray:0,0,0,2.55;}
	.st19{fill:none;stroke:#FF522B;stroke-width:1.16;stroke-linecap:round;stroke-linejoin:round;stroke-dasharray:0,0,0,2.4;}
	.st20{fill:none;stroke:#FF522B;stroke-width:1.16;stroke-linecap:round;stroke-linejoin:round;stroke-dasharray:0,0,0,2.54;}
	.st21{fill:none;stroke:#FF522B;stroke-width:1.16;stroke-linecap:round;stroke-linejoin:round;stroke-dasharray:0,0,0,2.19;}
	.st22{fill:none;stroke:#FF522B;stroke-width:1.16;stroke-linecap:round;stroke-linejoin:round;stroke-dasharray:0,0,0,2.12;}
	.st23{fill:none;stroke:#FF522B;stroke-width:1.16;stroke-linecap:round;stroke-linejoin:round;stroke-dasharray:0,0,0,2.5;}
	.st24{fill:none;stroke:#FF522B;stroke-width:1.16;stroke-linecap:round;stroke-linejoin:round;stroke-dasharray:0,0,0,2.2;}
	.st25{fill:none;stroke:#FF522B;stroke-width:1.16;stroke-linecap:round;stroke-linejoin:round;stroke-dasharray:0,0,0,2.36;}
	.st26{fill:none;stroke:#FF522B;stroke-width:1.16;stroke-linecap:round;stroke-linejoin:round;stroke-dasharray:0,0,0,2.29;}
	.st27{fill:none;stroke:#FF522B;stroke-width:1.16;stroke-linecap:round;stroke-linejoin:round;stroke-dasharray:0,0,0,2.37;}
	.st28{fill:none;stroke:#FF522B;stroke-width:1.16;stroke-linecap:round;stroke-linejoin:round;stroke-dasharray:0,0,0,2.27;}
	.st29{fill:none;stroke:#FF522B;stroke-width:1.16;stroke-linecap:round;stroke-linejoin:round;}
	.st30{fill:none;stroke:#FF522B;stroke-width:1.16;stroke-linecap:round;stroke-linejoin:round;stroke-dasharray:0,0,0,2.3;}
	.st31{fill:none;stroke:#FF522B;stroke-width:1.16;stroke-linecap:round;stroke-linejoin:round;stroke-dasharray:0,0,0,2.39;}
	.st32{fill:none;stroke:#FF522B;stroke-width:1.16;stroke-linecap:round;stroke-linejoin:round;stroke-dasharray:0,0,0,2.43;}
	.st33{fill:none;stroke:#FF522B;stroke-width:1.16;stroke-linecap:round;stroke-linejoin:round;stroke-dasharray:0,0,0,2.08;}
	.st34{fill:none;stroke:#FF522B;stroke-width:1.16;stroke-linecap:round;stroke-linejoin:round;stroke-dasharray:0,0,0,1.96;}
	.st35{fill:none;stroke:#FF522B;stroke-width:1.16;stroke-linecap:round;stroke-linejoin:round;stroke-dasharray:0,0,0,2.38;}
	.st36{fill:none;stroke:#FF522B;stroke-width:1.16;stroke-linecap:round;stroke-linejoin:round;stroke-dasharray:0,0,0,2.14;}
	.st37{fill:none;stroke:#FF522B;stroke-width:1.16;stroke-linecap:round;stroke-linejoin:round;stroke-dasharray:0,0,0,2.58;}
	.st38{fill:none;stroke:#FF522B;stroke-width:1.16;stroke-linecap:round;stroke-linejoin:round;stroke-dasharray:0,0,0,2.48;}
	.st39{fill:none;stroke:#FF522B;stroke-width:1.16;stroke-linecap:round;stroke-linejoin:round;stroke-dasharray:0,0,0,2.6;}
	.st40{fill:none;stroke:#FF522B;stroke-width:1.16;stroke-linecap:round;stroke-linejoin:round;stroke-dasharray:0,0,0,2.62;}
	.st41{fill:none;stroke:#FF522B;stroke-width:1.16;stroke-linecap:round;stroke-linejoin:round;stroke-dasharray:0,0,0,2.51;}
	.st42{fill:none;stroke:#FF522B;stroke-width:1.16;stroke-linecap:round;stroke-linejoin:round;stroke-dasharray:0,0,0,2.18;}
	.st43{fill:none;stroke:#FF522B;stroke-width:1.16;stroke-linecap:round;stroke-linejoin:round;stroke-dasharray:0,0,0,2.64;}
	.st44{fill:none;stroke:#FF522B;stroke-width:1.16;stroke-linecap:round;stroke-linejoin:round;stroke-dasharray:0,0,0,2.05;}
	.st45{fill:none;stroke:#FF522B;stroke-width:1.16;stroke-linecap:round;stroke-linejoin:round;stroke-dasharray:0,0,0,2.35;}
	.st46{fill:none;stroke:#FF522B;stroke-width:1.16;stroke-linecap:round;stroke-linejoin:round;stroke-dasharray:0,0,0,2.15;}
	.st47{fill:none;stroke:#FF522B;stroke-width:1.16;stroke-linecap:round;stroke-linejoin:round;stroke-dasharray:0,0,0,1.77;}
	.st48{fill:none;stroke:#FF522B;stroke-width:1.16;stroke-linecap:round;stroke-linejoin:round;stroke-dasharray:0,0,0,1.92;}
	.st49{fill:none;stroke:#FF522B;stroke-width:1.16;stroke-linecap:round;stroke-linejoin:round;stroke-dasharray:0,0,0,1.71;}
	.st50{fill:none;stroke:#FF522B;stroke-width:1.16;stroke-linecap:round;stroke-linejoin:round;stroke-dasharray:0,0,0,1.82;}
	.st51{fill:none;stroke:#FF522B;stroke-width:1.16;stroke-linecap:round;stroke-linejoin:round;stroke-dasharray:0,0,0,1.98;}
	.st52{fill:none;stroke:#FF522B;stroke-width:1.16;stroke-linecap:round;stroke-linejoin:round;stroke-dasharray:0,0,0,2.89;}
	.st53{fill:none;stroke:#FF522B;stroke-width:1.16;stroke-linecap:round;stroke-linejoin:round;stroke-dasharray:0,0,0,1.01;}
	.st54{fill:none;stroke:#FF522B;stroke-width:1.16;stroke-linecap:round;stroke-linejoin:round;stroke-dasharray:0,0,0,1.6;}
	.st55{fill:none;stroke:#FF522B;stroke-width:1.16;stroke-linecap:round;stroke-linejoin:round;stroke-dasharray:0,0,0,2.47;}
	.st56{fill:none;stroke:#FF522B;stroke-width:1.16;stroke-linecap:round;stroke-linejoin:round;stroke-dasharray:0,0,0,1.89;}
	.st57{fill:none;stroke:#FF522B;stroke-width:1.16;stroke-linecap:round;stroke-linejoin:round;stroke-dasharray:0,0,0,3.35;}
	.st58{fill:none;stroke:#FF522B;stroke-width:1.16;stroke-linecap:round;stroke-linejoin:round;stroke-dasharray:0,0,0,1.79;}
	.st59{fill:none;stroke:#FF522B;stroke-width:1.16;stroke-linecap:round;stroke-linejoin:round;stroke-dasharray:0,0,0,1.8;}
	.st60{fill:none;stroke:#FF522B;stroke-width:1.16;stroke-linecap:round;stroke-linejoin:round;stroke-dasharray:0,0,0,2.41;}
	.st61{fill:none;stroke:#FF522B;stroke-width:1.16;stroke-linecap:round;stroke-linejoin:round;stroke-dasharray:0,0,0,2.23;}
	.st62{fill:none;stroke:#FF522B;stroke-width:1.16;stroke-linecap:round;stroke-linejoin:round;stroke-dasharray:0,0,0,3.1;}
	.st63{fill:none;stroke:#FF522B;stroke-width:1.16;stroke-linecap:round;stroke-linejoin:round;stroke-dasharray:0,0,0,3.46;}
	.st64{fill:none;stroke:#FF522B;stroke-width:1.16;stroke-linecap:round;stroke-linejoin:round;stroke-dasharray:0,0,0,1.91;}
	.st65{fill:none;stroke:#FF522B;stroke-width:1.16;stroke-linecap:round;stroke-linejoin:round;stroke-dasharray:0,0,0,3.12;}
	.st66{fill:none;stroke:#FF522B;stroke-width:1.16;stroke-linecap:round;stroke-linejoin:round;stroke-dasharray:0,0,0,2.75;}
	.st67{fill:none;stroke:#FF522B;stroke-width:1.16;stroke-linecap:round;stroke-linejoin:round;stroke-dasharray:0,0,0,3.28;}
	.st68{fill:none;stroke:#FF522B;stroke-width:1.16;stroke-linecap:round;stroke-linejoin:round;stroke-dasharray:0,0,0,2.72;}
	.st69{fill:none;stroke:#FF522B;stroke-width:1.16;stroke-linecap:round;stroke-linejoin:round;stroke-dasharray:0,0,0,2.33;}
	.st70{fill:none;stroke:#FF522B;stroke-width:1.16;stroke-linecap:round;stroke-linejoin:round;stroke-dasharray:0,0,0,2.17;}
	.st71{fill:none;stroke:#FF522B;stroke-width:1.16;stroke-linecap:round;stroke-linejoin:round;stroke-dasharray:0,0,0,2.65;}
	.st72{fill:none;stroke:#FF522B;stroke-width:1.16;stroke-linecap:round;stroke-linejoin:round;stroke-dasharray:0,0,0,1.68;}
	.st73{fill:none;stroke:#FF522B;stroke-width:1.16;stroke-linecap:round;stroke-linejoin:round;stroke-dasharray:0,0,0,3.41;}
	.st74{fill:none;stroke:#FF522B;stroke-width:1.16;stroke-linecap:round;stroke-linejoin:round;stroke-dasharray:0,0,0,1.88;}
	.st75{fill:none;stroke:#FF522B;stroke-width:1.16;stroke-linecap:round;stroke-linejoin:round;stroke-dasharray:0,0,0,2.97;}
	.st76{fill:none;stroke:#FF522B;stroke-width:1.16;stroke-linecap:round;stroke-linejoin:round;stroke-dasharray:0,0,0,1.49;}
	.st77{fill:none;stroke:#FF522B;stroke-width:1.16;stroke-linecap:round;stroke-linejoin:round;stroke-dasharray:0,0,0,2.28;}
	.st78{fill:none;stroke:#FF522B;stroke-width:1.16;stroke-linecap:round;stroke-linejoin:round;stroke-dasharray:0,0,0,1.78;}
	.st79{fill:none;stroke:#FF522B;stroke-width:1.16;stroke-linecap:round;stroke-linejoin:round;stroke-dasharray:0,0,0,3.19;}
	.st80{fill:none;stroke:#FF522B;stroke-width:1.16;stroke-linecap:round;stroke-linejoin:round;stroke-dasharray:0,0,0,3.18;}
	.st81{fill:none;stroke:#FF522B;stroke-width:1.16;stroke-linecap:round;stroke-linejoin:round;stroke-dasharray:0,0,0,2.25;}
	.st82{fill:none;stroke:#FF522B;stroke-width:1.16;stroke-linecap:round;stroke-linejoin:round;stroke-dasharray:0,0,0,2.61;}
	.st83{fill:none;stroke:#FF522B;stroke-width:1.16;stroke-linecap:round;stroke-linejoin:round;stroke-dasharray:0,0,0,3.16;}
	.st84{fill:none;stroke:#FF522B;stroke-width:1.16;stroke-linecap:round;stroke-linejoin:round;stroke-dasharray:0,0,0,1.84;}
	.st85{fill:none;stroke:#FF522B;stroke-width:1.16;stroke-linecap:round;stroke-linejoin:round;stroke-dasharray:0,0,0,2.8;}
	.st86{fill:none;stroke:#FF522B;stroke-width:1.16;stroke-linecap:round;stroke-linejoin:round;stroke-dasharray:0,0,0,2.82;}
	.st87{fill:none;stroke:#FF522B;stroke-width:1.16;stroke-linecap:round;stroke-linejoin:round;stroke-dasharray:0,0,0,2.66;}
	.st88{fill:none;stroke:#FF522B;stroke-width:1.16;stroke-linecap:round;stroke-linejoin:round;stroke-dasharray:0,0,0,2.02;}
	.st89{fill:none;stroke:#FF522B;stroke-width:1.16;stroke-linecap:round;stroke-linejoin:round;stroke-dasharray:0,0,0,2.87;}
	.st90{fill:none;stroke:#FF522B;stroke-width:1.16;stroke-linecap:round;stroke-linejoin:round;stroke-dasharray:0,0,0,2.76;}
	.st91{fill:none;stroke:#FF522B;stroke-width:1.16;stroke-linecap:round;stroke-linejoin:round;stroke-dasharray:0,0,0,1.83;}
	.st92{fill:none;stroke:#FF522B;stroke-width:1.16;stroke-linecap:round;stroke-linejoin:round;stroke-dasharray:0,0,0,2.01;}
	.st93{fill:none;stroke:#FF522B;stroke-width:1.16;stroke-linecap:round;stroke-linejoin:round;stroke-dasharray:0,0,0,1.76;}
	.st94{fill:none;stroke:#FF522B;stroke-width:1.16;stroke-linecap:round;stroke-linejoin:round;stroke-dasharray:0,0,0,1.28;}
	.st95{fill:none;stroke:#FF522B;stroke-width:1.16;stroke-linecap:round;stroke-linejoin:round;stroke-dasharray:0,0,0,1.97;}
	.st96{fill:none;stroke:#FF522B;stroke-width:1.16;stroke-linecap:round;stroke-linejoin:round;stroke-dasharray:0,0,0,3.27;}
	.st97{fill:none;stroke:#FF522B;stroke-width:1.16;stroke-linecap:round;stroke-linejoin:round;stroke-dasharray:0,0,0,3.37;}
	.st98{fill:none;stroke:#FF522B;stroke-width:1.16;stroke-linecap:round;stroke-linejoin:round;stroke-dasharray:0,0,0,1.19;}
	.st99{fill:none;stroke:#FF522B;stroke-width:1.16;stroke-linecap:round;stroke-linejoin:round;stroke-dasharray:0,0,0,3.02;}
	.st100{fill:none;stroke:#FF522B;stroke-width:1.16;stroke-linecap:round;stroke-linejoin:round;stroke-dasharray:0,0,0,1.46;}
	.st101{fill:none;stroke:#FF522B;stroke-width:1.16;stroke-linecap:round;stroke-linejoin:round;stroke-dasharray:0,0,0,1.72;}
	.st102{fill:none;stroke:#FF522B;stroke-width:1.16;stroke-linecap:round;stroke-linejoin:round;stroke-dasharray:0,0,0,1.06;}
	.st103{fill:none;stroke:#FF522B;stroke-width:1.16;stroke-linecap:round;stroke-linejoin:round;stroke-dasharray:0,0,0,1.53;}
	.st104{fill:none;stroke:#FF522B;stroke-width:1.16;stroke-linecap:round;stroke-linejoin:round;stroke-dasharray:0,0,0,1.18;}
	.st105{fill:none;stroke:#FF522B;stroke-width:1.16;stroke-linecap:round;stroke-linejoin:round;stroke-dasharray:0,0,0,1.24;}
	.st106{fill:none;stroke:#FF522B;stroke-width:1.16;stroke-linecap:round;stroke-linejoin:round;stroke-dasharray:0,0,0,1.15;}
	.st107{fill:none;stroke:#FF522B;stroke-width:1.16;stroke-linecap:round;stroke-linejoin:round;stroke-dasharray:0,0,0,0.88;}
	.st108{fill:none;stroke:#FF522B;stroke-width:1.16;stroke-linecap:round;stroke-linejoin:round;stroke-dasharray:0,0,0,1.1;}
	.st109{fill:none;stroke:#FF522B;stroke-width:1.16;stroke-linecap:round;stroke-linejoin:round;stroke-dasharray:0,0,0,1.26;}
	.st110{fill:none;stroke:#FF522B;stroke-width:1.16;stroke-linecap:round;stroke-linejoin:round;stroke-dasharray:0,0,0,1.21;}
	.st111{fill:none;stroke:#FF522B;stroke-width:1.16;stroke-linecap:round;stroke-linejoin:round;stroke-dasharray:0,0,0,0.93;}
	.st112{fill:none;stroke:#FF522B;stroke-width:1.16;stroke-linecap:round;stroke-linejoin:round;stroke-dasharray:0,0,0,1.67;}
	.st113{fill:none;stroke:#FF522B;stroke-width:1.16;stroke-linecap:round;stroke-linejoin:round;stroke-dasharray:0,0,0,1.63;}
	.st114{fill:none;stroke:#FF522B;stroke-width:1.16;stroke-linecap:round;stroke-linejoin:round;stroke-dasharray:0,0,0,1.04;}
	.st115{fill:none;stroke:#FF522B;stroke-width:1.16;stroke-linecap:round;stroke-linejoin:round;stroke-dasharray:0,0,0,0.86;}
	.st116{fill:none;stroke:#FF522B;stroke-width:1.16;stroke-linecap:round;stroke-linejoin:round;stroke-dasharray:0,0,0,0.99;}
	.st117{fill:none;stroke:#FF522B;stroke-width:1.16;stroke-linecap:round;stroke-linejoin:round;stroke-dasharray:0,0,0,0.79;}
	.st118{fill:none;stroke:#FF522B;stroke-width:1.16;stroke-linecap:round;stroke-linejoin:round;stroke-dasharray:0,0,0,0.94;}
	.st119{fill:none;stroke:#FF522B;stroke-width:1.16;stroke-linecap:round;stroke-linejoin:round;stroke-dasharray:0,0,0,1.08;}
	.st120{fill:none;stroke:#FF522B;stroke-width:1.16;stroke-linecap:round;stroke-linejoin:round;stroke-dasharray:0,0,0,0.76;}
	.st121{fill:none;stroke:#FF522B;stroke-width:1.16;stroke-linecap:round;stroke-linejoin:round;stroke-dasharray:0,0,0,0.72;}
	.st122{fill:none;stroke:#FF522B;stroke-width:1.16;stroke-linecap:round;stroke-linejoin:round;stroke-dasharray:0,0,0,0.78;}
	.st123{fill:none;stroke:#FF522B;stroke-width:1.16;stroke-linecap:round;stroke-linejoin:round;stroke-dasharray:0,0,0,0.81;}
	.st124{fill:none;stroke:#FF522B;stroke-width:1.16;stroke-linecap:round;stroke-linejoin:round;stroke-dasharray:0,0,0,2.93;}
	.st125{fill:none;stroke:#FF522B;stroke-width:1.16;stroke-linecap:round;stroke-linejoin:round;stroke-dasharray:0,0,0,2.11;}
	.st126{fill:none;stroke:#FF522B;stroke-width:1.16;stroke-linecap:round;stroke-linejoin:round;stroke-dasharray:0,0,0,2.45;}
	.st127{fill:none;stroke:#FF522B;stroke-width:1.16;stroke-linecap:round;stroke-linejoin:round;stroke-dasharray:0,0,0,3.09;}
	.st128{fill:none;stroke:#FF522B;stroke-width:1.16;stroke-linecap:round;stroke-linejoin:round;stroke-dasharray:0,0,0,3.11;}
	.st129{fill:none;stroke:#FF522B;stroke-width:1.16;stroke-linecap:round;stroke-linejoin:round;stroke-dasharray:0,0,0,0.97;}
	.st130{fill:none;stroke:#FF522B;stroke-width:1.16;stroke-linecap:round;stroke-linejoin:round;stroke-dasharray:0,0,0,1.7;}
	.st131{fill:none;stroke:#FF522B;stroke-width:1.16;stroke-linecap:round;stroke-linejoin:round;stroke-dasharray:0,0,0,1.32;}
	.st132{fill:none;stroke:#FF522B;stroke-width:1.16;stroke-linecap:round;stroke-linejoin:round;stroke-dasharray:0,0,0,1.25;}
	.st133{fill:none;stroke:#FF522B;stroke-width:1.16;stroke-linecap:round;stroke-linejoin:round;stroke-dasharray:0,0,0,1.11;}
	.st134{fill:none;stroke:#FF522B;stroke-width:1.16;stroke-linecap:round;stroke-linejoin:round;stroke-dasharray:0,0,0,1.66;}
	.st135{fill:none;stroke:#FF522B;stroke-width:1.16;stroke-linecap:round;stroke-linejoin:round;stroke-dasharray:0,0,0,0.98;}
	.st136{fill:none;stroke:#FF522B;stroke-width:1.16;stroke-linecap:round;stroke-linejoin:round;stroke-dasharray:0,0,0,1.36;}
	.st137{fill:none;stroke:#FF522B;stroke-width:1.16;stroke-linecap:round;stroke-linejoin:round;stroke-dasharray:0,0,0,1.22;}
	.st138{fill:none;stroke:#FF522B;stroke-width:1.16;stroke-linecap:round;stroke-linejoin:round;stroke-dasharray:0,0,0,1.14;}
	.st139{fill:none;stroke:#FF522B;stroke-width:1.16;stroke-linecap:round;stroke-linejoin:round;stroke-dasharray:0,0,0,0.84;}
	.st140{fill:none;stroke:#FF522B;stroke-width:1.16;stroke-linecap:round;stroke-linejoin:round;stroke-dasharray:0,0,0,2.09;}
</style>
<path class="st0" d="M29.4,57.1c-2-4.4,0.5,3.2,1.8,0.8"/>
<path class="st1" d="M31.5,54.8c-0.1-2.1-0.5,1.8-1.5,0.8"/>
<path class="st2" d="M26.7,53c0.4,0.8,0.9,0.9,1.4,0.9"/>
<path class="st3" d="M25.1,52.2c0,0.5,0.2,1,0.5,1.3"/>
<path class="st4" d="M23.8,51.1c-0.1,0.4,0,0.9,0.3,1.2"/>
<path class="st5" d="M21.8,52.3c-1.3,1.1-1.7,2.2,0.2,2"/>
<path class="st6" d="M24.7,53.9c0,1.1-1.3,3.8,2.5,1.4"/>
<path class="st7" d="M26.3,56.2c-3.2,2.3-1.2-2.4-4-1.7"/>
<path class="st8" d="M20.5,53.1c0-0.8,0.2-1.4-2.1-1.4"/>
<path class="st9" d="M19.3,50.4c3.7-2.9,2.5-4.7-2.4-2.1"/>
<path class="st10" d="M13.7,50.1c-1.9,0.8-1-0.6-0.9-2.3"/>
<path class="st11" d="M10.8,47.3c-2.5,1.2-3.5,2.2-3.2-0.7"/>
<path class="st12" d="M5.3,45.7c-3.1-0.4,1.3-4.4-1.4-4.7"/>
<path class="st13" d="M0.6,40.3c0.2-0.7,1.5-1.7,2.2-2.9"/>
<path class="st14" d="M1.2,35.5c-0.9-0.8-0.1-1.8,1.5-2.2"/>
<path class="st15" d="M4.7,31.4c-0.7-2-3.7-5.1,1-6.4"/>
<path class="st5" d="M4.7,23.7c-2-1.6,1.6-2.9-0.6-5.2"/>
<path class="st16" d="M5.9,17.4C7.7,17,6.9,16,6.8,14"/>
<path class="st17" d="M8.9,12.9c2.7-0.7,1.7-6.1,5.1-2.7"/>
<path class="st18" d="M16.6,9.2c1.8-1.9,1.6-1.8,7.2,2.8"/>
<path class="st9" d="M23.9,10.5c-1.4-3.4-3.3-7.7,0.4-6.5"/>
<path class="st15" d="M26.6,2.6c1.1-0.7,2.4,0.3,3.2-0.9"/>
<path class="st19" d="M31.4,2.6c1.4,1,2.3-4.1,4.7-0.5"/>
<path class="st20" d="M38.1,1c1.8-1.6,3.2,2.8,5.6,1.2"/>
<path class="st21" d="M45.2,3.5c2.1,6,6,1.8,8,2.3"/>
<path class="st0" d="M56.3,5.6c1.7-0.3,1.2,1.5,2.1,2.3"/>
<path class="st22" d="M61.6,8.4c3.6,0.8-1.2,4.8,3.2,5.4"/>
<path class="st23" d="M65.4,16.1c-0.9,1.1-2.2,2.2-2.3,2.9"/>
<path class="st5" d="M66.2,20c1.8,1.4,0.2,5.6,3.9,6.5"/>
<path class="st17" d="M70.6,28.7c0,1.1,1.2,1.1,2.2,2.2"/>
<path class="st24" d="M71.3,32.7c-3.5,1.8,2,0.1-0.5,6.5"/>
<path class="st17" d="M70.5,42.1c-0.8,0.4-2.6,0.1-2.4,1.5"/>
<path class="st6" d="M67.2,45.5c-0.3,0-0.7-0.1-1-0.2"/>
<path class="st9" d="M66.5,48.2c-0.4,2.5-9.5-2.7-12.4-4"/>
<path class="st21" d="M54.6,46c2.3,3.9,4.7,11.3,0.1,8.7"/>
<path class="st25" d="M53.7,56.4c-0.6,2.4-3.6-0.7-4.8,2.2"/>
<path class="st14" d="M46.7,58.5c-5.5-2.9-2.2,7.5-7.9-4.8"/>
<path class="st15" d="M38,50.4C34.3,29.7,32.3,66,38.4,77"/>
<path class="st26" d="M40.1,80c7,11.8,27.9,31.3,6.9,14.9"/>
<path class="st15" d="M43.8,93.9c-19.3-3.3-65.1-38.5-26-20.5"/>
<path class="st27" d="M20.9,75c8.2,5.2,13.8,15.8,23.5,17.3"/>
<path class="st28" d="M43.8,91c-8.9-8.7-10.6-31.1-12.7-32.4"/>
<path class="st29" d="M30.3,59.2L30.3,59.2 M45.5,92.5L45.5,92.5 M18.8,73.9L18.8,73.9 M46.1,94.1L46.1,94.1 M39,78L39,78
	 M38.4,52.7L38.4,52.7 M48.6,59.8L48.6,59.8 M53.7,54.1L53.7,54.1 M53.3,44.2L53.3,44.2 M65.7,45.8L65.7,45.8 M68.5,44.6L68.5,44.6
	 M70.4,40.2L70.4,40.2 M73.3,31.7L73.3,31.7 M71.3,26.7L71.3,26.7 M64,19.5L64,19.5 M65.9,13.9L65.9,13.9 M59.5,8.3L59.5,8.3
	 M54.1,6.4L54.1,6.4 M44.7,1.4L44.7,1.4 M36.8,3.2L36.8,3.2 M30.2,0.6L30.2,0.6 M25.4,4.5L25.4,4.5 M24.7,12.8L24.7,12.8 M14.7,10.9
	L14.7,10.9 M6.8,12.6L6.8,12.6 M3.2,17.8L3.2,17.8 M6.8,24.8L6.8,24.8 M3.8,33.1L3.8,33.1 M3.3,36.3L3.3,36.3 M2.6,41L2.6,41
	 M7.7,45.6L7.7,45.6 M12.7,46.5L12.7,46.5 M15.8,48.9L15.8,48.9 M17.3,51.8L17.3,51.8 M21.4,54.9L21.4,54.9 M28,54.7L28,54.7
	 M23.1,54L23.1,54 M23.8,51.1L23.8,51.1 M25.1,52.2L25.1,52.2 M26.7,53L26.7,53 M29.5,54.7L29.5,54.7 M31.6,56.8L31.6,56.8"/>
<path class="st30" d="M30.8,61.5c7.8,30.2,33,46.3-16.3,10.5"/>
<path class="st27" d="M11.4,70.4c-29.3-10.7,18.8,22.3,33.5,23.7"/>
<path class="st26" d="M47.9,95.5c20.1,15.5-2.1-5-8.4-16.5"/>
<path class="st31" d="M37.7,76c-5.2-10.5-2.2-43.7-0.7-28.2"/>
<path class="st30" d="M37.8,51.2c5.4,15.2,4.5,3.6,9.2,7.9"/>
<path class="st32" d="M49.4,58c2.3-1.6,4.2,1.2,4.3-2.7"/>
<path class="st21" d="M55.6,55.1c3.5,1,0.6-6.8-1.7-10.1"/>
<path class="st19" d="M55.2,44.8c2.8,1.2,7.7,3.3,10,4.2"/>
<path class="st33" d="M65.9,47.3c-0.2-1.7,0.7-1.3,1.8-2"/>
<path class="st34" d="M68.1,42.8c0.6-0.6,2.5-0.4,2.7-0.9"/>
<path class="st35" d="M71,38.9c0.3-0.5,0.5-0.8,0.3-1.1"/>
<path class="st13" d="M71.8,35.8c-0.1-1.2-2.7-2-1.1-2.9"/>
<path class="st36" d="M73.1,31.1c-0.7-0.9-4.6-1.5-2.2-3.5"/>
<path class="st10" d="M69.5,26.3c-1.3-0.9-0.9-2.3-2.2-2.9"/>
<path class="st37" d="M67,20.8c0-1.4-2-0.7-3.3-1.4"/>
<path class="st38" d="M64.9,16.8c3.4-3.3-3.7-2.4-1.9-7"/>
<path class="st8" d="M61.5,8.7c-2,0-3.5-0.5-3.9-2.6"/>
<path class="st39" d="M55,5.9c-2.2,0.4-3.2-0.3-6.3,1.2"/>
<path class="st23" d="M46.7,5.4c-2-3.5-7.2-5.8-9.3-3.3"/>
<path class="st10" d="M35.3,1.3c-1.2-0.9-2.1-0.3-2.8,1.1"/>
<path class="st40" d="M30.3,1.8c-1.2-0.4-2.7,0-3.6,1.1"/>
<path class="st41" d="M23.6,3.9c-3.3,0.5-0.2,4.1,0.7,7.5"/>
<path class="st9" d="M22.5,11c-5.2-4.4-4.3-3.3-6.9-0.9"/>
<path class="st42" d="M13.1,9.5c-2.8-1.9-1.4,3.3-5.6,3.6"/>
<path class="st43" d="M7.2,15.6c0.3,1.5-0.5,1.7-2.7,2"/>
<path class="st5" d="M4.8,19.5c0.7,2-2.4,3.2,1,4.9"/>
<path class="st5" d="M4.6,25.4c-3.7,1.8,1,5.6,0.2,7.1"/>
<path class="st14" d="M1.7,33.7c-1.1,0.7-1.2,1.7,0.5,2.3"/>
<path class="st13" d="M2.1,38.4C1,39.8-0.3,40.8,1.4,41"/>
<path class="st12" d="M4.8,41.7c0.3,1.4-2.5,4.4,1.7,4.1"/>
<path class="st44" d="M7.6,47.7c0.1,1.8,1.3,0.4,4.2-0.8"/>
<path class="st40" d="M12.6,49.1c-0.1,1.3,0.2,1.4,2.9,0"/>
<path class="st45" d="M18.7,47.5c4.1-1.7,3.5,1-0.5,3.7"/>
<path class="st8" d="M19.4,51.8c1.9,0.2,0.7,1.3,1.3,2.4"/>
<path class="st36" d="M23.4,54.5c1.3,0.7,0.5,3.8,3.9,1"/>
<path class="st46" d="M26.1,55.7c-1.3,0.7-2.4,1.1-1.7-0.8"/>
<path class="st18" d="M23.2,53.8c-0.4,0.2-0.8,0.4-1.2,0.5"/>
<path class="st47" d="M21,52.8c0.2-0.4,0.4-0.4,0.7-0.5"/>
<path class="st25" d="M24.2,52.4c-0.4-0.8-0.5-0.9-0.7-0.8"/>
<path class="st48" d="M25.4,53.3c-0.1-0.7-0.2-0.8-0.3-0.9"/>
<path class="st49" d="M26.7,53c-0.2,0.2-0.4,0.5-0.6,0.6"/>
<path class="st50" d="M28,53.8c-0.4,0.3-0.6,0.2-0.8-0.1"/>
<path class="st8" d="M29.5,54.7c-0.3,0-0.5-0.4-0.7-0.7"/>
<path class="st8" d="M30.7,55.3c0.2-0.2,0.4-0.6,0.6-0.9"/>
<path class="st51" d="M31.4,55.5c-0.1,1-0.1,2-0.6,2.9"/>
<path class="st29" d="M30.3,59.2L30.3,59.2 M31.8,53.6L31.8,53.6 M29.5,54.7L29.5,54.7 M28,53.8L28,53.8 M26.7,53L26.7,53
	 M25.4,53.3L25.4,53.3 M24.2,52.4L24.2,52.4 M22.3,51.6L22.3,51.6 M20.8,54.5L20.8,54.5 M24.8,53.9L24.8,53.9 M28.1,54.8L28.1,54.8
	 M21.3,54.9L21.3,54.9 M17.3,51.8L17.3,51.8 M16.6,48.5L16.6,48.5 M12.7,46.5L12.7,46.5 M7.7,45.6L7.7,45.6 M2.6,41L2.6,41
	 M3.3,36.2L3.3,36.2 M3.8,33L3.8,33 M6.8,24.8L6.8,24.8 M3.2,17.7L3.2,17.7 M6.4,13.1L6.4,13.1 M14.7,10.9L14.7,10.9 M24.4,12.6
	L24.4,12.6 M26.1,4L26.1,4 M32.1,3.5L32.1,3.5 M36.8,3.2L36.8,3.2 M47.6,7.7L47.6,7.7 M57.5,5.1L57.5,5.1 M63.6,8.7L63.6,8.7
	 M63,18.3L63,18.3 M66.2,23.2L66.2,23.2 M71.8,27L71.8,27 M71.8,32.4L71.8,32.4 M70.2,37.5L70.2,37.5 M70.4,41.1L70.4,41.1
	 M68.5,44.6L68.5,44.6 M66.4,49.3L66.4,49.3 M53.3,44.1L53.3,44.1 M53.7,54.1L53.7,54.1 M47.8,59.8L47.8,59.8 M37,49L37,49 M39,78
	L39,78 M46.1,94.1L46.1,94.1 M13.6,71.2L13.6,71.2"/>
<path class="st50" d="M50,54.9c0.4-0.2,0.7-0.3,0.8-0.5"/>
<path class="st52" d="M50.1,54.2c-1.4-0.4-1.2-0.5-0.8-0.3"/>
<path class="st29" d="M50.1,54.2L50.1,54.2 M50.1,54.9L50.1,54.9"/>
<path class="st53" d="M43.2,56.9c0.2,0,0.4-0.1,0.4-0.2"/>
<path class="st54" d="M43.4,55.7c0.5,0.4,0.4,0.5,0.2,0.6"/>
<path class="st55" d="M43.8,56.2c0.7-0.2,0.3-0.6-0.1-0.8"/>
<path class="st29" d="M43.8,56.2L43.8,56.2 M43.4,55.7L43.4,55.7 M43.2,56.9L43.2,56.9"/>
<path class="st18" d="M29,4.3c0.2,0.2,0.6,0.7,0.9,0.9"/>
<path class="st56" d="M28,5.4c-0.3,0-0.6,0-1,0.1"/>
<path class="st34" d="M24.5,6.8c-1.2,0.2-2-0.6-1.9-1.6"/>
<path class="st27" d="M25.3,4.9c0.5,0,0.8-0.1,1.1-0.4"/>
<path class="st57" d="M29.8,3.8c-0.5,0.3-1-0.2-1.5-0.5"/>
<path class="st58" d="M31.4,3.4c0.2,0.1,0.3,0.4-0.2,0.7"/>
<path class="st29" d="M30.4,4.4L30.4,4.4 M29.8,3.8L29.8,3.8 M26.8,3.4L26.8,3.4 M23.1,4.2L23.1,4.2 M26.2,5.8L26.2,5.8 M29.1,4.3
	L29.1,4.3"/>
<path class="st59" d="M14.3,46.2c0.1,0.2,0.2,0.5,0.3,0.8"/>
<path class="st45" d="M14.4,49.2c-1.1,0.5-2.4,0.5-1.4-1.6"/>
<path class="st60" d="M11.2,46.2c-1-0.2-1.7-0.6-3.2-1.5"/>
<path class="st61" d="M8.4,42.3c3.3-3.5,2.6,0.1,3.6,0.9"/>
<path class="st62" d="M14.2,44.5c-1,0.5-1.3,0.3-1.3,0"/>
<path class="st29" d="M14.2,44.5L14.2,44.5 M13,43.1L13,43.1 M6.9,44L6.9,44 M13.6,46.6L13.6,46.6 M14.8,47.9L14.8,47.9"/>
<path class="st63" d="M9,25.2c-0.9,0.1-1.3-0.3-1.2-0.8"/>
<path class="st64" d="M7.4,26.2c-0.3,0.2-0.6,0.4-0.7,0.6"/>
<path class="st56" d="M6.4,28.8c-0.2,0.2-0.1,0.5,0.4,0.6"/>
<path class="st65" d="M7.6,30.8c-1.2,0.2-1.3-0.1-1.1-0.4"/>
<path class="st66" d="M7.1,33.5c-0.2,0.5-0.6,0.9-1,0.8"/>
<path class="st67" d="M5.5,31.5c1.2,0.1,1.2,0.4,0.9,0.7"/>
<path class="st66" d="M4.6,29.6C5,29.2,5.4,28.8,5,28.5"/>
<path class="st68" d="M5.1,25.8c0.4-0.2,0.8-0.3,1.3-0.5"/>
<path class="st17" d="M6.3,23.5c-0.5-1.2,0.8-1.9,2-1.1"/>
<path class="st29" d="M9,23.2L9,23.2 M7.7,25.1L7.7,25.1 M3.7,28L3.7,28 M5.5,31.5L5.5,31.5 M5.2,33.3L5.2,33.3 M7.6,30.8L7.6,30.8
	 M7.8,29.5L7.8,29.5 M7.3,27.6L7.3,27.6 M8.9,25.2L8.9,25.2"/>
<path class="st39" d="M59.6,16.9c4-1.8,2,2.1,4.5,3"/>
<path class="st69" d="M66.1,22c-0.1,0.4-0.3,0.8-0.4,1.1"/>
<path class="st70" d="M66.8,25.2c-0.2,0.1-0.6,0.2-1,0.4"/>
<path class="st48" d="M64.9,24.1c-0.1-0.2-0.2-0.5-0.1-0.9"/>
<path class="st71" d="M63,21.2c0.7,0.2,0.5,0.7,0.7,1"/>
<path class="st72" d="M61.8,20.9c0,0.5,0.2,0.6,0.5,0.6"/>
<path class="st73" d="M59.3,20c1-0.6,1.3-0.6,1.5-0.4"/>
<path class="st27" d="M59.7,18.1C59.4,18,59,18,58.5,18"/>
<path class="st29" d="M57.3,18.2L57.3,18.2 M59.4,20L59.4,20 M61.8,20.9L61.8,20.9 M63,21.2L63,21.2 M65.1,22.2L65.1,22.2
	 M64.8,25.8L64.8,25.8 M65.7,24.2L65.7,24.2 M65.3,20.1L65.3,20.1"/>
<path class="st5" d="M66.3,40.8c-0.1-0.3-0.3-0.6-0.7-0.9"/>
<path class="st74" d="M66.2,39.2c0.2-0.2,0.3-0.5,0.4-0.8"/>
<path class="st51" d="M65.4,36.7c0.3,0.1,0.7,0.2,0.9,0.3"/>
<path class="st75" d="M66.7,35.5c0.9,0.7,0.7,0.9,0.2,1"/>
<path class="st76" d="M67.7,34.9c0,0.4-0.1,0.5-0.3,0.6"/>
<path class="st17" d="M66.2,34c0.2-0.1,0.7-0.1,1,0.1"/>
<path class="st77" d="M68.4,37c0.7,2,1.6,4.4-0.9,4.6"/>
<path class="st23" d="M66.7,43.6c0.5-0.3,0.6-0.6,0.4-1"/>
<path class="st78" d="M68,44.8c0.1,0.2-0.1,0.4-0.7,0.4"/>
<path class="st30" d="M64.7,44.2c0.2-0.2,0.6-0.5,0.7-0.9"/>
<path class="st29" d="M64.9,42.3L64.9,42.3 M66.4,45.1L66.4,45.1 M66.7,43.6L66.7,43.6 M66.4,41.6L66.4,41.6 M67.9,34.8L67.9,34.8
	 M67.7,34.8L67.7,34.8 M66.7,35.5L66.7,35.5 M65.4,36.7L65.4,36.7 M67.1,37.5L67.1,37.5 M64.5,39.6L64.5,39.6"/>
<path class="st79" d="M45.6,8.9c0.9-0.6,1.2-0.3,1.2,0.2"/>
<path class="st80" d="M43.6,8.4c0.4-0.2,1-0.5,1.5-0.6"/>
<path class="st36" d="M44.5,6.5c0.8-1,1.8-1.4,2.4,0.2"/>
<path class="st9" d="M49.6,7.2c1.3-0.4,2.5-0.5,2.3,1.7"/>
<path class="st81" d="M53.8,9.6c0.5-0.1,0.9,0,1.1,0.2"/>
<path class="st82" d="M52.9,12.1c0-0.4,0-1-0.4-1.2"/>
<path class="st83" d="M50.1,8.4c0.3,0.8,0.7,1,0.9,1.3"/>
<path class="st28" d="M47.9,8.8c-0.2,0.1-0.5,0.4-0.7,0.9"/>
<path class="st29" d="M46.7,10.6L46.7,10.6 M50.1,8.4L50.1,8.4 M51.3,11.2L51.3,11.2 M54.5,10.7L54.5,10.7 M51.6,10.1L51.6,10.1
	 M47.2,7.7L47.2,7.7 M43.6,8.4L43.6,8.4 M45.6,8.9L45.6,8.9"/>
<path class="st34" d="M17,13.6c-0.1,0.1-0.3,0.2-0.9-0.1"/>
<path class="st36" d="M14,14.9c-0.1,0.2,0,0.5,0.3,1"/>
<path class="st35" d="M12.4,17.5c-0.3,0.2-0.3,0.6-0.1,1.1"/>
<path class="st61" d="M11.3,18.1c-1.3-1.7,0.3-1.4,1.5-1.8"/>
<path class="st20" d="M12.6,13.5c0-2,3-2.8,5.1-1.3"/>
<path class="st29" d="M18.7,13.1L18.7,13.1 M13.8,15.8L13.8,15.8 M12.8,19.7L12.8,19.7 M14.7,16.9L14.7,16.9 M15.1,13.1L15.1,13.1"
	/>
<path class="st20" d="M45.9,54.2c0.6,0.5,0.4,0.1,0.7-0.5"/>
<path class="st18" d="M48.5,51c-0.2,0.4-0.1,0.9-0.2,1.2"/>
<path class="st84" d="M50,51.9c0.3,0,0.6,0.1,0.8,0.3"/>
<path class="st85" d="M48.9,53.2C48.3,53,48,53.1,48,53.9"/>
<path class="st21" d="M46.4,56.2c-0.8,0.3-1.4,0.1-2.5-1.6"/>
<path class="st78" d="M44,52.5c0.1,0.4-0.2,0.5-0.5,0.6"/>
<path class="st29" d="M44,52.5L44,52.5 M43.3,53.6L43.3,53.6 M48.4,55.2L48.4,55.2 M51.2,53.1L51.2,53.1 M48.5,51L48.5,51
	 M47.3,52.6L47.3,52.6"/>
<path class="st86" d="M10.8,39.5c-0.5,0.1-0.8-0.4-0.9-0.9"/>
<path class="st70" d="M8.9,40.4c-2.1,0.3-2.9-1.7,0.5-2.8"/>
<path class="st29" d="M10.4,37.3L10.4,37.3 M10.8,39.5L10.8,39.5"/>
<path class="st7" d="M63.3,47.2c-0.4-0.1-0.8-0.2-1.1-0.2"/>
<path class="st87" d="M64.3,45.4c-0.3,0.4-0.6,0.8-1,0.9"/>
<path class="st88" d="M65.6,46.8c0.1,0.3,0.2,0.7,0.1,1"/>
<path class="st29" d="M65,48.3L65,48.3 M64.3,45.4L64.3,45.4 M62.1,46.3L62.1,46.3"/>
<path class="st82" d="M42.5,55.5c0,1.5-1.4,2.6-2.2,0.4"/>
<path class="st89" d="M41.4,53.2c0.2,0.6,0.2,1.1,0,1.4"/>
<path class="st29" d="M41.4,53.2L41.4,53.2 M40,54.6L40,54.6"/>
<path class="st24" d="M16.6,9.2c0.2-1.3,1.7-1.3,2.3,0"/>
<path class="st90" d="M17.2,11.3c0.8,0,0.9-0.4,1-0.8"/>
<path class="st29" d="M17.2,11.3L17.2,11.3 M19.2,10.3L19.2,10.3"/>
<path class="st22" d="M66.5,25.7c1.3,0.1,2.1,1.5,1.3,2.2"/>
<path class="st91" d="M66.5,26.6c-0.2-0.1-0.6-0.2-0.9-0.2"/>
<path class="st29" d="M64.7,26.5L64.7,26.5 M66.8,28.2L66.8,28.2"/>
<path class="st92" d="M19.8,50.4c0.2-0.2,0.4-0.5,0.7-0.8"/>
<path class="st43" d="M20.7,51.4c-0.3,0.3-0.7,0.4-1.2,0.4"/>
<path class="st29" d="M18.2,51.6L18.2,51.6 M21.1,48.9L21.1,48.9"/>
<path class="st21" d="M59.1,16.1c-0.3,0.2-0.7,0.3-1,0.4"/>
<path class="st93" d="M58.5,15.3c0.2-0.1,0.5-0.3,0.7-0.5"/>
<path class="st29" d="M59.8,14.2L59.8,14.2 M57,16.3L57,16.3"/>
<path class="st94" d="M52.7,53.7c0,0.3-0.2,0.4-0.3,0.5"/>
<path class="st95" d="M51.7,52.5c0.7,0.1,2.5,1.3,1,1.8"/>
<path class="st29" d="M51.7,54.4L51.7,54.4 M52.7,53.8L52.7,53.8"/>
<path class="st96" d="M68.6,32.6c-0.9,0-1.4-0.1-1.6-0.1"/>
<path class="st91" d="M67.6,33.8c0.4,0.1,0.6,0,0.7-0.3"/>
<path class="st29" d="M67.6,33.8L67.6,33.8 M68.6,32.6L68.6,32.6"/>
<path class="st64" d="M8.3,41.1c0-0.2-0.4-0.4-0.7-0.5"/>
<path class="st6" d="M7,41c0.1,0.4,0.3,0.7,0.6,0.7"/>
<path class="st29" d="M7,41L7,41 M8.3,41.1L8.3,41.1"/>
<path class="st97" d="M56.1,9.4c0.3,0.6,0.3,1.3,0.3,1.6"/>
<path class="st34" d="M56.9,9.9c-0.2-0.4-0.5-0.6-0.7-0.6"/>
<path class="st29" d="M56.9,9.9L56.9,9.9 M56.1,9.4L56.1,9.4"/>
<path class="st28" d="M8.4,21.4c-0.1-0.2-0.5-0.6-0.8-0.8"/>
<path class="st92" d="M7.4,21.2c-0.7,0.2-0.4,0.3,0.1,0.3"/>
<path class="st29" d="M7.4,21.2L7.4,21.2 M8.4,21.4L8.4,21.4"/>
<path class="st98" d="M56.3,54c0-0.4,0.2-0.4,0.3-0.4"/>
<path class="st99" d="M56.4,53.2c-0.1-1.1-0.6-1.1-0.6-0.6"/>
<path class="st29" d="M56.4,53.2L56.4,53.2 M56.3,54L56.3,54"/>
<path class="st18" d="M54,9.2c0.3,0.1,0.4-0.6,0.2-1.1"/>
<path class="st33" d="M53.2,7.7c0.5,0.1,0.6,0.5,0.5,0.8"/>
<path class="st29" d="M53.2,7.7L53.2,7.7 M54,9.2L54,9.2"/>
<path class="st100" d="M60.8,14.4C60.3,14,60.4,14,60.6,14"/>
<path class="st39" d="M61.2,13.9c-0.5-0.7-0.8-0.5-1-0.1"/>
<path class="st29" d="M61.2,13.9L61.2,13.9 M60.8,14.4L60.8,14.4"/>
<path class="st101" d="M52,7.6c0,0.3,0,0.6,0,0.9"/>
<path class="st5" d="M52.1,9.3c0.1-0.3,0.3-0.7,0.5-1.1"/>
<path class="st29" d="M52.1,9.3L52.1,9.3 M52,7.6L52,7.6"/>
<path class="st102" d="M67.2,29.7c0.2,0.1,0.3,0.1,0.5,0.2"/>
<path class="st103" d="M68.2,30c-0.1-0.4-0.2-0.6-0.3-0.7"/>
<path class="st29" d="M68.2,30L68.2,30 M67.2,29.7L67.2,29.7"/>
<path class="st93" d="M7.8,19.4c-0.4,0.2-0.3,0.5-0.1,0.7"/>
<path class="st104" d="M8.6,20.2c-0.1-0.1-0.4-0.2-0.5-0.3"/>
<path class="st29" d="M8.6,20.2L8.6,20.2 M7.9,19.4L7.9,19.4"/>
<path class="st105" d="M54.7,53.5c0.1,0,0-0.3-0.1-0.6"/>
<path class="st106" d="M54.1,52.6c-0.1,0.3,0,0.4,0.1,0.5"/>
<path class="st29" d="M54.1,52.6L54.1,52.6 M54.7,53.5L54.7,53.5"/>
<path class="st107" d="M12.1,13.8c0-0.1,0.1-0.3,0.1-0.4"/>
<path class="st108" d="M12,13c-0.1,0.2-0.1,0.4-0.2,0.5"/>
<path class="st29" d="M12,13L12,13 M12.1,13.8L12.1,13.8"/>
<path class="st109" d="M66,23.6c0.1,0.2,0.3,0.2,0.6,0.1"/>
<path class="st110" d="M67.2,23.6c-0.2,0-0.4-0.1-0.6-0.1"/>
<path class="st29" d="M67.2,23.6L67.2,23.6 M66,23.6L66,23.6"/>
<path class="st104" d="M57.7,11.9c0.3,0,0.5-0.1,0.6-0.1"/>
<path class="st111" d="M58.3,11.2c-0.1,0.1-0.2,0.2-0.3,0.4"/>
<path class="st29" d="M58.3,11.2L58.3,11.2 M57.7,11.9L57.7,11.9"/>
<path class="st112" d="M5.9,37.3c-0.1-0.1-0.5-0.1-0.8-0.1"/>
<line class="st113" x1="4.2" y1="37.3" x2="5.1" y2="37.3"/>
<path class="st29" d="M4.2,37.3L4.2,37.3 M5.9,37.3L5.9,37.3"/>
<path class="st114" d="M10.5,47.1c0.1-0.1-0.2-0.2-0.4-0.2"/>
<path class="st115" d="M9.6,47c0.1,0,0.3,0,0.4,0"/>
<path class="st29" d="M9.6,47L9.6,47 M10.5,47.1L10.5,47.1"/>
<path class="st116" d="M8.1,18.8c0.1,0.1,0.3,0,0.4-0.1"/>
<path class="st117" d="M8.7,18.2c-0.1,0.1-0.2,0.2-0.3,0.3"/>
<path class="st29" d="M8.7,18.2L8.7,18.2 M8.1,18.8L8.1,18.8"/>
<line class="st118" x1="9.5" y1="40.9" x2="9" y2="40.9"/>
<path class="st108" d="M8.5,40.9c0.2,0.2,0.2,0.3,0.4,0.2"/>
<path class="st29" d="M8.5,40.9L8.5,40.9 M9.5,40.9L9.5,40.9"/>
<path class="st119" d="M6.5,42.2c0.2,0.2,0.3,0.3,0.4,0.2"/>
<path class="st107" d="M7.4,42.1c-0.2,0-0.3,0-0.4,0"/>
<path class="st29" d="M7.4,42.1L7.4,42.1 M6.5,42.2L6.5,42.2"/>
<path class="st120" d="M51.2,55.1c0.1-0.1,0.2-0.2,0.2-0.3"/>
<path class="st121" d="M51.2,54.5c0,0.1-0.1,0.2-0.2,0.3"/>
<path class="st29" d="M51.2,54.5L51.2,54.5 M51.2,55.1L51.2,55.1"/>
<path class="st122" d="M57.1,8.3c-0.1,0-0.3,0-0.4,0"/>
<path class="st123" d="M56.4,8.4c0.1,0,0.3,0.1,0.4,0.1"/>
<path class="st29" d="M56.4,8.4L56.4,8.4 M57.1,8.3L57.1,8.3"/>
<path class="st60" d="M29.4,57c-0.1-0.4-0.3-0.8-0.5-1.1"/>
<path class="st12" d="M29.1,57.1c0.2,0.4,0.4,0.7,0.6,1.1"/>
<path class="st29" d="M30.3,59.2L30.3,59.2 M28.3,54.8L28.3,54.8"/>
<path class="st95" d="M40.2,22.5c0.1-0.4,0.3-0.8-0.1-0.8"/>
<path class="st39" d="M38.2,19.8c-0.9-0.5-2.1,0.6-3.2,1.8"/>
<path class="st60" d="M36.2,23.9c1.3,0.8,1.9,0.9,3.4,1.1"/>
<path class="st0" d="M39.9,27.3c-0.1,1.5,2.2,0.6,2.7-0.1"/>
<path class="st59" d="M41.5,24.8c-0.1-0.3-0.2-0.5-0.2-0.9"/>
<path class="st29" d="M41.4,23.1L41.4,23.1 M42,26.5L42,26.5 M40.8,25.2L40.8,25.2 M34.2,22.6L34.2,22.6 M39.3,22.1L39.3,22.1"/>
<path class="st95" d="M38.1,28.7c0.1-0.4,0.3-0.8-0.1-0.8"/>
<path class="st39" d="M36,26c-0.9-0.5-2.1,0.6-3.2,1.8"/>
<path class="st60" d="M34,30.1c1.3,0.8,1.9,0.9,3.4,1.1"/>
<path class="st45" d="M37.7,33.5c-0.1,1.5,2.2,0.6,2.7-0.2"/>
<path class="st59" d="M39.4,31c-0.1-0.3-0.2-0.5-0.2-0.9"/>
<path class="st29" d="M39.3,29.2L39.3,29.2 M39.9,32.7L39.9,32.7 M38.6,31.4L38.6,31.4 M32,28.8L32,28.8 M37.1,28.2L37.1,28.2"/>
<path class="st95" d="M21,77.4c0.1-0.4,0.3-0.8-0.1-0.8"/>
<path class="st39" d="M18.9,74.7c-0.9-0.5-2.1,0.6-3.1,1.8"/>
<path class="st60" d="M16.9,78.8c1.3,0.8,1.9,0.9,3.4,1.1"/>
<path class="st45" d="M20.6,82.2c-0.1,1.5,2.1,0.6,2.7-0.2"/>
<path class="st59" d="M22.3,79.7c-0.1-0.3-0.2-0.6-0.2-0.9"/>
<path class="st29" d="M22.1,77.9L22.1,77.9 M22.8,81.4L22.8,81.4 M21.5,80.1L21.5,80.1 M14.9,77.5L14.9,77.5 M20,76.9L20,76.9"/>
<path class="st95" d="M14.5,73.3c0.1-0.4,0.3-0.8-0.1-0.8"/>
<path class="st39" d="M12.4,70.6c-0.9-0.5-2.1,0.6-3.1,1.8"/>
<path class="st60" d="M10.5,74.7c1.3,0.8,1.9,0.9,3.4,1.1"/>
<path class="st0" d="M14.2,78.1c-0.1,1.5,2.1,0.6,2.7-0.2"/>
<path class="st59" d="M15.8,75.6c-0.1-0.3-0.2-0.6-0.2-0.9"/>
<path class="st29" d="M15.7,73.8L15.7,73.8 M16.3,77.3L16.3,77.3 M15.1,76L15.1,76 M8.4,73.4L8.4,73.4 M13.5,72.8L13.5,72.8"/>
<path class="st17" d="M7.3,22.1c-1,0-1.7,1-0.4,2.3"/>
<path class="st68" d="M5.1,25.8c-0.4,0.2-0.7,0.5-1,0.9"/>
<path class="st37" d="M5,29.2c-0.3,0.3-0.8,0.5-1,0.8"/>
<path class="st124" d="M6.3,32.4c0.8-0.6,0.2-0.6-0.4-0.7"/>
<path class="st51" d="M5.3,33.8c0.4,0.6,2.1,0.6,2.3-0.7"/>
<path class="st101" d="M7.6,30.8c0,0.2-0.3,0.5-0.4,0.7"/>
<path class="st49" d="M6.4,30.3c-0.2,0.4,0,0.5,0.3,0.6"/>
<path class="st125" d="M6.7,29c-0.2-0.2-0.3-0.5,0.3-0.8"/>
<path class="st21" d="M7.2,26.5c0.3-0.2,0.6-0.4,0.9-0.6"/>
<path class="st63" d="M9,23.2c-0.7,0.2-1.1,0.7-1.2,1.1"/>
<path class="st29" d="M9,23.2L9,23.2 M9,25.2L9,25.2 M7.9,27.8L7.9,27.8 M6.4,30.3L6.4,30.3 M7.6,30.8L7.6,30.8 M7.5,32.1L7.5,32.1
	 M6.3,32.3L6.3,32.3 M4.8,30.9L4.8,30.9 M3.7,28L3.7,28 M7.7,25.1L7.7,25.1"/>
<path class="st27" d="M59.7,18.1c0.4,0.1,0.6,0.4,0.3,0.9"/>
<path class="st73" d="M61.8,20.9c-0.8-0.2-0.7-1-1-1.3"/>
<path class="st72" d="M63,21.2c-0.3,0.2-0.5,0.3-0.8,0.4"/>
<path class="st71" d="M65.1,22.2c-0.8,0.2-1.1,0.1-1.3-0.1"/>
<path class="st48" d="M64.9,24.1c0.2,0.3,0.4,0.5,0.3,0.9"/>
<path class="st70" d="M66.8,25.2c0.4-0.2,0.5-0.4-0.2-0.7"/>
<path class="st69" d="M66.1,22c0.1-0.4,0.2-0.8,0-1.1"/>
<path class="st39" d="M63,19.1c-1-1.5-0.1-4.1-4.6-1.6"/>
<path class="st29" d="M57.3,18.2L57.3,18.2 M65.3,20.1L65.3,20.1 M65.7,24.2L65.7,24.2 M64.8,25.8L64.8,25.8 M65,22.3L65,22.3
	 M63,21.2L63,21.2 M61.8,20.9L61.8,20.9 M59.3,20L59.3,20"/>
<path class="st30" d="M64.7,44.2c-0.2,0.2-0.1,0.4,0.7,0.7"/>
<path class="st78" d="M68,44.8c-0.1-0.2-0.2-0.4-0.6-0.7"/>
<path class="st23" d="M66.4,41.6c0.3,0.3,0.6,0.6,0.8,1"/>
<path class="st77" d="M68.6,41.3c1.4-0.9,0-3.5-0.5-5.3"/>
<path class="st17" d="M66.2,34c-0.3,0.1-0.2,0.3,0.5,0.6"/>
<path class="st76" d="M66.7,35.5c0.2-0.2,0.5-0.1,0.7-0.1"/>
<path class="st75" d="M65.4,36.7c0.3-0.2,1-0.2,1.4-0.2"/>
<path class="st51" d="M67.1,37.6c-0.2-0.3-0.5-0.5-0.8-0.6"/>
<path class="st74" d="M66.2,39.2c-0.2,0.2-0.4,0.3-0.8,0.4"/>
<path class="st5" d="M66.3,40.8c0.1,0.3-0.1,0.7-0.4,1"/>
<path class="st29" d="M64.9,42.3L64.9,42.3 M64.5,39.6L64.5,39.6 M67.1,37.6L67.1,37.6 M65.4,36.7L65.4,36.7 M66.7,35.5L66.7,35.5
	 M67.7,34.9L67.7,34.9 M67.9,34.8L67.9,34.8 M66.4,41.6L66.4,41.6 M66.7,43.6L66.7,43.6 M66.4,45.1L66.4,45.1"/>
<path class="st28" d="M47.9,8.8c0.3-0.2,0.7-0.2,1.1-0.2"/>
<path class="st83" d="M51.3,11.2c0.2-0.9,0-1.2-0.2-1.5"/>
<path class="st82" d="M52.9,12.1c0,0.4,0.2,0.5,0.8-0.3"/>
<path class="st81" d="M53.8,9.6c-0.3,0-0.7,0.1-1.1,0.2"/>
<path class="st9" d="M51.8,7.6c-0.4-1.2-2.1-0.4-3.4,0"/>
<path class="st36" d="M46.3,5.8c-0.8-0.5-1.7,0.4-2.4,1.6"/>
<path class="st80" d="M45.6,8.9c0.3-1-0.1-1.2-0.6-1.1"/>
<path class="st79" d="M46.7,10.6c-0.1-0.4,0.1-1.1,0.1-1.6"/>
<path class="st29" d="M46.7,10.6L46.7,10.6 M45.6,8.9L45.6,8.9 M43.6,8.4L43.6,8.4 M47.2,7.7L47.2,7.7 M51.6,10.1L51.6,10.1
	 M54.5,10.7L54.5,10.7 M51.3,11.2L51.3,11.2 M50.1,8.4L50.1,8.4"/>
<path class="st20" d="M16.6,11.7c-2.3-0.7-4.9,0.6-3.6,3.1"/>
<path class="st61" d="M11.7,16.5c-1,0.2-1.5,0.5,0.3,2.4"/>
<path class="st35" d="M12.4,17.5c0.2-0.2,0.6-0.3,1.1-0.5"/>
<path class="st36" d="M14,14.9c0.1-0.2,0.4-0.4,0.7-0.8"/>
<path class="st34" d="M17,13.6c0.1-0.2,0.1-0.5,0.7-0.6"/>
<path class="st29" d="M18.7,13.1L18.7,13.1 M15.1,13.1L15.1,13.1 M14.7,16.9L14.7,16.9 M12.8,19.7L12.8,19.7 M13.8,15.8L13.8,15.8"
	/>
<path class="st78" d="M43.3,53.6c-0.5-0.4-0.1-0.4,0.2-0.5"/>
<path class="st21" d="M44.5,55.4c1.1,1.3,1.8,0.8,2.9,0.2"/>
<path class="st3" d="M48.9,53.2c0.4,0.1,0.9,0.4,1.3,0.5"/>
<path class="st50" d="M50,51.9c-0.3-0.1-0.6-0.1-0.9-0.2"/>
<path class="st126" d="M47.3,52.6c0.7,0.2,0.9,0,1-0.3"/>
<path class="st20" d="M45.9,54.2c-0.2-0.2-0.5-0.4-1-0.8"/>
<path class="st29" d="M44,52.5L44,52.5 M47.3,52.6L47.3,52.6 M48.4,51.1L48.4,51.1 M51.2,53.1L51.2,53.1 M48.4,55.2L48.4,55.2
	 M43.3,53.7L43.3,53.7"/>
<path class="st37" d="M27.3,3.3c-1.1,0.3-0.4,2-3.2,1.5"/>
<path class="st55" d="M23.4,6.7c0.9,0.3,2.5-0.2,3.4-1"/>
<path class="st127" d="M29.2,4.2c0.1,0.9,0,1.3-0.4,1.3"/>
<path class="st79" d="M29.8,3.8c0.7,0.6,0.7,1.2,0.4,1.3"/>
<path class="st29" d="M29.8,3.8L29.8,3.8 M29.2,4.2L29.2,4.2 M27.5,4.7L27.5,4.7 M22.9,4.5L22.9,4.5"/>
<path class="st70" d="M8.4,38c-2.6,1.3-0.9,3.3,1.5,2.1"/>
<path class="st86" d="M10.4,37.3c-0.4,0.4-0.5,0.9-0.5,1.3"/>
<path class="st29" d="M10.4,37.3L10.4,37.3 M10.8,39.5L10.8,39.5"/>
<path class="st88" d="M65.6,46.8c-0.1-0.3-0.3-0.6-0.5-0.9"/>
<path class="st87" d="M62,46.3c0.5,0.1,1,0.1,1.3,0"/>
<path class="st7" d="M63.3,47.2c0.4,0.1,0.8,0.2,1.1,0.3"/>
<path class="st29" d="M65,48.3L65,48.3 M62,46.3L62,46.3 M64.3,45.4L64.3,45.4"/>
<path class="st89" d="M40,54.6c0.7,0.4,1.1,0.3,1.3,0"/>
<path class="st82" d="M41,57c1,0.8,2-1.2,1.2-2.7"/>
<path class="st29" d="M41.4,53.2L41.4,53.2 M40,54.6L40,54.6"/>
<path class="st90" d="M19.2,10.3c-0.9-0.4-1-0.1-1.1,0.2"/>
<path class="st24" d="M18.2,8.4c-0.9-0.6-2,0.1-1.5,1.9"/>
<path class="st29" d="M17.2,11.3L17.2,11.3 M19.2,10.3L19.2,10.3"/>
<path class="st91" d="M66.5,26.6c0.3,0.1,0.5,0.4,0.6,0.7"/>
<path class="st22" d="M68.1,26.9c-0.2-0.8-1.4-1.6-2.6-1"/>
<path class="st29" d="M64.7,26.5L64.7,26.5 M66.8,28.2L66.8,28.2"/>
<path class="st43" d="M20.7,51.4c0.3-0.3,0.4-0.7,0.5-1.2"/>
<path class="st92" d="M19.8,50.4c-0.2,0.2-0.5,0.5-0.8,0.7"/>
<path class="st29" d="M18.2,51.6L18.2,51.6 M21.1,48.9L21.1,48.9"/>
<path class="st93" d="M58.5,15.3c-0.3,0.1-0.5,0.3-0.8,0.4"/>
<path class="st21" d="M59.1,16.1c0.3-0.2,0.6-0.5,0.7-0.8"/>
<path class="st29" d="M59.8,14.2L59.8,14.2 M57,16.3L57,16.3"/>
<path class="st95" d="M53.3,53.6c-0.2-0.8-2.8-1.8-1.4-0.5"/>
<path class="st94" d="M51.7,54.4c0.2-0.1,0.4-0.1,0.6-0.2"/>
<path class="st29" d="M51.7,54.4L51.7,54.4 M52.7,53.8L52.7,53.8"/>
<path class="st91" d="M68.6,32.6c-0.2,0.3-0.2,0.6-0.3,0.8"/>
<path class="st96" d="M67.6,33.8c-0.5-1-1-1.3-0.6-1.3"/>
<path class="st29" d="M67.6,33.8L67.6,33.8 M68.6,32.6L68.6,32.6"/>
<path class="st33" d="M31.4,3.3c0.5,0.3,0.3,0.5,0,0.7"/>
<path class="st32" d="M30.4,4.4c-0.2-0.7-0.6-1-0.2-1.1"/>
<path class="st29" d="M30.4,4.4L30.4,4.4 M31.4,3.3L31.4,3.3"/>
<path class="st6" d="M8.3,41.1c-0.1,0.5-0.4,0.6-0.7,0.6"/>
<path class="st64" d="M7,41c-0.3-0.3,0.1-0.4,0.6-0.3"/>
<path class="st29" d="M7,41L7,41 M8.3,41.1L8.3,41.1"/>
<path class="st34" d="M56.1,9.4C55.4,9.5,55.7,9.2,56.1,9.4"/>
<path class="st97" d="M56.9,9.9c-0.5,1.5-0.5,1.6-0.5,1.1"/>
<path class="st29" d="M56.9,9.9L56.9,9.9 M56.1,9.4L56.1,9.4"/>
<path class="st22" d="M8.5,21.3c-0.1,0.2-0.6,0.3-1,0.2"/>
<path class="st7" d="M7.4,21.2c-0.2-0.9,0-0.9,0.2-0.7"/>
<path class="st29" d="M7.4,21.2L7.4,21.2 M8.5,21.3L8.5,21.3"/>
<path class="st99" d="M56.3,54c-0.5-0.5-0.6-1-0.6-1.3"/>
<path class="st104" d="M56.4,53.2c0.4,0.4,0.4,0.4,0.2,0.4"/>
<path class="st29" d="M56.4,53.2L56.4,53.2 M56.3,54L56.3,54"/>
<path class="st128" d="M43.1,55.8c0.4-1.2,0.7-1.1,0.8-0.7"/>
<path class="st129" d="M43.8,56.2c-0.1-0.2-0.2-0.3-0.3-0.4"/>
<path class="st29" d="M43.8,56.2L43.8,56.2 M43.1,55.8L43.1,55.8"/>
<path class="st33" d="M54,9.2c-0.5-0.1-0.4-0.4-0.3-0.8"/>
<path class="st18" d="M53.2,7.7c0.6-0.2,0.9,0.1,1,0.5"/>
<path class="st29" d="M53.2,7.7L53.2,7.7 M54,9.2L54,9.2"/>
<path class="st39" d="M60.8,14.4c-0.6,0.4-0.8-0.2-0.6-0.6"/>
<path class="st100" d="M61.2,13.9c0,0.3-0.4,0.1-0.6,0.1"/>
<path class="st29" d="M61.2,13.9L61.2,13.9 M60.8,14.4L60.8,14.4"/>
<path class="st5" d="M52,7.6c0.7,0,0.7,0.3,0.6,0.7"/>
<path class="st101" d="M52.1,9.3c0-0.3,0-0.6,0-0.9"/>
<path class="st29" d="M52.1,9.3L52.1,9.3 M52,7.6L52,7.6"/>
<path class="st103" d="M67.2,29.7c0.3-0.3,0.5-0.4,0.7-0.3"/>
<path class="st102" d="M68.2,30c-0.2-0.1-0.3-0.1-0.5-0.2"/>
<path class="st29" d="M68.2,30L68.2,30 M67.2,29.7L67.2,29.7"/>
<path class="st130" d="M50.5,54.3c0.5,0.1,0.2,0.4-0.1,0.4"/>
<path class="st131" d="M50.1,54.2c0.2,0,0.5,0,0.7,0"/>
<path class="st29" d="M50.1,54.2L50.1,54.2 M50.5,54.3L50.5,54.3"/>
<path class="st104" d="M7.8,19.4c0,0.3,0.1,0.4,0.2,0.5"/>
<path class="st93" d="M8.6,20.2c-0.2,0.2-0.6,0.1-0.8-0.1"/>
<path class="st29" d="M8.6,20.2L8.6,20.2 M7.9,19.4L7.9,19.4"/>
<path class="st106" d="M54.7,53.5c-0.1-0.1-0.3-0.2-0.5-0.3"/>
<path class="st105" d="M54.1,52.6c0.1-0.2,0.3,0,0.5,0.3"/>
<path class="st29" d="M54.1,52.6L54.1,52.6 M54.7,53.5L54.7,53.5"/>
<path class="st108" d="M12.1,13.8c-0.3,0.1-0.4,0-0.3-0.2"/>
<path class="st107" d="M12,13c0.2,0,0.2,0.1,0.2,0.3"/>
<path class="st29" d="M12,13L12,13 M12.1,13.8L12.1,13.8"/>
<path class="st110" d="M66,23.6c0.2-0.1,0.4-0.1,0.6-0.1"/>
<path class="st132" d="M67.2,23.6c-0.2,0-0.4,0-0.6,0.1"/>
<path class="st29" d="M67.2,23.6L67.2,23.6 M66,23.6L66,23.6"/>
<path class="st111" d="M57.7,11.9c0.1-0.1,0.2-0.2,0.3-0.4"/>
<path class="st104" d="M58.3,11.2c0.1,0.3,0.1,0.5,0,0.6"/>
<path class="st29" d="M58.3,11.2L58.3,11.2 M57.7,11.9L57.7,11.9"/>
<path class="st133" d="M43.2,56.9c-0.2-0.3-0.1-0.4,0.1-0.5"/>
<path class="st53" d="M43.8,56.2c-0.1,0.1-0.1,0.3-0.2,0.5"/>
<path class="st29" d="M43.8,56.2L43.8,56.2 M43.2,56.9L43.2,56.9"/>
<path class="st134" d="M5.9,37.2c-0.2,0.1-0.5,0.1-0.8,0.1"/>
<path class="st134" d="M4.2,37.3c0.2-0.1,0.5-0.1,0.8-0.1"/>
<path class="st29" d="M4.2,37.3L4.2,37.3 M5.9,37.2L5.9,37.2"/>
<path class="st135" d="M10.5,46.9c0,0.2-0.2,0.2-0.4,0.2"/>
<path class="st111" d="M9.6,47c0-0.2,0.2-0.2,0.4-0.1"/>
<path class="st29" d="M9.6,47L9.6,47 M10.5,46.9L10.5,46.9"/>
<path class="st117" d="M8.1,18.8c0.1-0.1,0.2-0.2,0.3-0.3"/>
<path class="st116" d="M8.7,18.2c0.1,0.2,0,0.4-0.1,0.5"/>
<path class="st29" d="M8.7,18.2L8.7,18.2 M8.1,18.8L8.1,18.8"/>
<path class="st108" d="M9.5,40.9C9.2,41,9.1,41.1,9,41.2"/>
<line class="st118" x1="8.5" y1="40.9" x2="9" y2="40.9"/>
<path class="st29" d="M8.5,40.9L8.5,40.9 M9.5,40.9L9.5,40.9"/>
<path class="st107" d="M6.5,42.2c0.1,0,0.3,0,0.4,0"/>
<path class="st119" d="M7.4,42.1c-0.2,0.1-0.3,0.3-0.4,0.3"/>
<path class="st29" d="M7.4,42.1L7.4,42.1 M6.5,42.2L6.5,42.2"/>
<path class="st121" d="M51.2,55.1c-0.2,0-0.2-0.2-0.1-0.3"/>
<path class="st120" d="M51.2,54.5c0.2,0.1,0.2,0.2,0.1,0.3"/>
<path class="st29" d="M51.2,54.5L51.2,54.5 M51.2,55.1L51.2,55.1"/>
<path class="st123" d="M57.1,8.3c0,0.2-0.1,0.2-0.2,0.2"/>
<path class="st122" d="M56.4,8.4c0-0.2,0.1-0.2,0.3-0.2"/>
<path class="st29" d="M56.4,8.4L56.4,8.4 M57.1,8.3L57.1,8.3"/>
<path class="st136" d="M48.9,53.9c0.1-0.2,0.3-0.2,0.6,0"/>
<path class="st137" d="M50.1,54.2c-0.2,0-0.4-0.1-0.6-0.1"/>
<path class="st29" d="M50.1,54.2L50.1,54.2 M48.9,53.9L48.9,53.9"/>
<path class="st138" d="M29.8,3.8c0.2,0,0.4,0,0.6,0.1"/>
<path class="st139" d="M30.4,4.4c-0.1-0.1-0.2-0.2-0.3-0.3"/>
<path class="st29" d="M30.4,4.4L30.4,4.4 M29.8,3.8L29.8,3.8"/>
<path class="st23" d="M46.9,22.7c-0.4-1.2-1.2-2.6-2-3"/>
<path class="st61" d="M42.2,18.1c-0.4,0-0.7,0.2-1,0.5"/>
<path class="st37" d="M39.2,16.5c-1.7-0.6-4.4,0.5-6.2,1.1"/>
<path class="st35" d="M30.9,20.1c-0.5,1.1-1.3,2.1-2.3,2.7"/>
<path class="st39" d="M27.9,25.6c-0.2,1.2-0.7,2.5-1.6,3.5"/>
<path class="st52" d="M27.1,30.5c0.5-0.2,1-0.4,1.4-0.4"/>
<path class="st91" d="M30.1,32.4c-0.3-0.1-0.6-0.2-0.8-0.4"/>
<path class="st5" d="M32.4,32.1c1.6-0.4,0-0.6-0.5,2.2"/>
<path class="st70" d="M34,36.1c3.1,0.9,6.8,1.7,9.2-0.9"/>
<path class="st140" d="M45.5,33c0.6-0.8,1.1-1.7,1.6-2.7"/>
<path class="st45" d="M47.1,27.1c0.1-0.4,0.3-0.7,0.2-1.1"/>
<path class="st29" d="M46.7,25L46.7,25 M47.4,29.4L47.4,29.4 M43.8,34.3L43.8,34.3 M31.9,35.5L31.9,35.5 M30.1,32.4L30.1,32.4
	 M29,31.3L29,31.3 M25.4,30.1L25.4,30.1 M27.5,23.1L27.5,23.1 M31.7,17.8L31.7,17.8 M40.7,18.5L40.7,18.5 M43.7,19.6L43.7,19.6"/>
<path class="st4" d="M38.3,26.3c1.2-0.4,2.9-0.4,3.7,0.1"/>
<path class="st32" d="M42.2,29.8c-1.6,3.6-10.3,2.7-6-1"/>
<path class="st29" d="M37.1,28L37.1,28 M42.3,27.5L42.3,27.5"/>
<path class="st95" d="M26.8,81.4c0.1-0.4,0.3-0.8-0.1-0.8"/>
<path class="st39" d="M24.7,78.7c-0.9-0.5-2.1,0.6-3.1,1.8"/>
<path class="st60" d="M22.7,82.8c1.3,0.8,1.9,0.9,3.4,1.1"/>
<path class="st45" d="M26.4,86.2c-0.1,1.5,2.1,0.6,2.7-0.2"/>
<path class="st59" d="M28.1,83.7c-0.1-0.3-0.2-0.6-0.2-0.9"/>
<path class="st29" d="M28,82L28,82 M28.6,85.4L28.6,85.4 M27.3,84.1L27.3,84.1 M20.7,81.5L20.7,81.5 M25.8,81L25.8,81"/>
<path class="st95" d="M30,36.4c0.1-0.4,0.3-0.8-0.1-0.8"/>
<path class="st39" d="M27.9,33.7c-0.9-0.5-2.1,0.6-3.1,1.8"/>
<path class="st60" d="M25.9,37.9c1.3,0.8,1.9,0.9,3.4,1.1"/>
<path class="st45" d="M29.6,41.3c-0.1,1.5,2.1,0.6,2.7-0.2"/>
<path class="st59" d="M31.3,38.8c-0.1-0.3-0.2-0.5-0.2-0.9"/>
<path class="st29" d="M31.2,37L31.2,37 M31.8,40.5L31.8,40.5 M30.5,39.1L30.5,39.1 M23.9,36.6L23.9,36.6 M29,36L29,36"/>
</svg>
