<?xml version="1.0" encoding="utf-8"?>
<!-- Generator: Adobe Illustrator 27.0.0, SVG Export Plug-In . SVG Version: 6.00 Build 0)  -->
<svg version="1.1" id="Layer_2_00000181781205775603065330000004295493101167969924_"
	 xmlns="http://www.w3.org/2000/svg" xmlns:xlink="http://www.w3.org/1999/xlink" x="0px" y="0px" viewBox="0 0 72.2 113.8"
	 style="enable-background:new 0 0 72.2 113.8;" xml:space="preserve">
<style type="text/css">
	.st0{fill:none;stroke:#FF522B;stroke-width:1.16;stroke-linecap:round;stroke-linejoin:round;stroke-dasharray:0,0,0,1.86;}
	.st1{fill:none;stroke:#FF522B;stroke-width:1.16;stroke-linecap:round;stroke-linejoin:round;stroke-dasharray:0,0,0,2.41;}
	.st2{fill:none;stroke:#FF522B;stroke-width:1.16;stroke-linecap:round;stroke-linejoin:round;stroke-dasharray:0,0,0,2.17;}
	.st3{fill:none;stroke:#FF522B;stroke-width:1.16;stroke-linecap:round;stroke-linejoin:round;stroke-dasharray:0,0,0,2.86;}
	.st4{fill:none;stroke:#FF522B;stroke-width:1.16;stroke-linecap:round;stroke-linejoin:round;stroke-dasharray:0,0,0,2.54;}
	.st5{fill:none;stroke:#FF522B;stroke-width:1.16;stroke-linecap:round;stroke-linejoin:round;stroke-dasharray:0,0,0,2.56;}
	.st6{fill:none;stroke:#FF522B;stroke-width:1.16;stroke-linecap:round;stroke-linejoin:round;stroke-dasharray:0,0,0,2.61;}
	.st7{fill:none;stroke:#FF522B;stroke-width:1.16;stroke-linecap:round;stroke-linejoin:round;stroke-dasharray:0,0,0,1.85;}
	.st8{fill:none;stroke:#FF522B;stroke-width:1.16;stroke-linecap:round;stroke-linejoin:round;stroke-dasharray:0,0,0,2.3;}
	.st9{fill:none;stroke:#FF522B;stroke-width:1.16;stroke-linecap:round;stroke-linejoin:round;stroke-dasharray:0,0,0,3.17;}
	.st10{fill:none;stroke:#FF522B;stroke-width:1.16;stroke-linecap:round;stroke-linejoin:round;stroke-dasharray:0,0,0,3.34;}
	.st11{fill:none;stroke:#FF522B;stroke-width:1.16;stroke-linecap:round;stroke-linejoin:round;stroke-dasharray:0,0,0,1.72;}
	.st12{fill:none;stroke:#FF522B;stroke-width:1.16;stroke-linecap:round;stroke-linejoin:round;stroke-dasharray:0,0,0,2.34;}
	.st13{fill:none;stroke:#FF522B;stroke-width:1.16;stroke-linecap:round;stroke-linejoin:round;stroke-dasharray:0,0,0,2.81;}
	.st14{fill:none;stroke:#FF522B;stroke-width:1.16;stroke-linecap:round;stroke-linejoin:round;stroke-dasharray:0,0,0,1.63;}
	.st15{fill:none;stroke:#FF522B;stroke-width:1.16;stroke-linecap:round;stroke-linejoin:round;stroke-dasharray:0,0,0,1.92;}
	.st16{fill:none;stroke:#FF522B;stroke-width:1.16;stroke-linecap:round;stroke-linejoin:round;stroke-dasharray:0,0,0,2.01;}
	.st17{fill:none;stroke:#FF522B;stroke-width:1.16;stroke-linecap:round;stroke-linejoin:round;stroke-dasharray:0,0,0,2.29;}
	.st18{fill:none;stroke:#FF522B;stroke-width:1.16;stroke-linecap:round;stroke-linejoin:round;stroke-dasharray:0,0,0,2.33;}
	.st19{fill:none;stroke:#FF522B;stroke-width:1.16;stroke-linecap:round;stroke-linejoin:round;stroke-dasharray:0,0,0,1.84;}
	.st20{fill:none;stroke:#FF522B;stroke-width:1.16;stroke-linecap:round;stroke-linejoin:round;stroke-dasharray:0,0,0,1.88;}
	.st21{fill:none;stroke:#FF522B;stroke-width:1.16;stroke-linecap:round;stroke-linejoin:round;stroke-dasharray:0,0,0,2.15;}
	.st22{fill:none;stroke:#FF522B;stroke-width:1.16;stroke-linecap:round;stroke-linejoin:round;stroke-dasharray:0,0,0,2.65;}
	.st23{fill:none;stroke:#FF522B;stroke-width:1.16;stroke-linecap:round;stroke-linejoin:round;stroke-dasharray:0,0,0,2.12;}
	.st24{fill:none;stroke:#FF522B;stroke-width:1.16;stroke-linecap:round;stroke-linejoin:round;stroke-dasharray:0,0,0,2.4;}
	.st25{fill:none;stroke:#FF522B;stroke-width:1.16;stroke-linecap:round;stroke-linejoin:round;stroke-dasharray:0,0,0,2.36;}
	.st26{fill:none;stroke:#FF522B;stroke-width:1.16;stroke-linecap:round;stroke-linejoin:round;stroke-dasharray:0,0,0,2.11;}
	.st27{fill:none;stroke:#FF522B;stroke-width:1.16;stroke-linecap:round;stroke-linejoin:round;stroke-dasharray:0,0,0,3.49;}
	.st28{fill:none;stroke:#FF522B;stroke-width:1.16;stroke-linecap:round;stroke-linejoin:round;stroke-dasharray:0,0,0,2.05;}
	.st29{fill:none;stroke:#FF522B;stroke-width:1.16;stroke-linecap:round;stroke-linejoin:round;stroke-dasharray:0,0,0,2.14;}
	.st30{fill:none;stroke:#FF522B;stroke-width:1.16;stroke-linecap:round;stroke-linejoin:round;stroke-dasharray:0,0,0,2.35;}
	.st31{fill:none;stroke:#FF522B;stroke-width:1.16;stroke-linecap:round;stroke-linejoin:round;stroke-dasharray:0,0,0,1.97;}
	.st32{fill:none;stroke:#FF522B;stroke-width:1.16;stroke-linecap:round;stroke-linejoin:round;stroke-dasharray:0,0,0,2.07;}
	.st33{fill:none;stroke:#FF522B;stroke-width:1.16;stroke-linecap:round;stroke-linejoin:round;stroke-dasharray:0,0,0,2.28;}
	.st34{fill:none;stroke:#FF522B;stroke-width:1.16;stroke-linecap:round;stroke-linejoin:round;stroke-dasharray:0,0,0,2.03;}
	.st35{fill:none;stroke:#FF522B;stroke-width:1.16;stroke-linecap:round;stroke-linejoin:round;stroke-dasharray:0,0,0,2.66;}
	.st36{fill:none;stroke:#FF522B;stroke-width:1.16;stroke-linecap:round;stroke-linejoin:round;stroke-dasharray:0,0,0,2.27;}
	.st37{fill:none;stroke:#FF522B;stroke-width:1.16;stroke-linecap:round;stroke-linejoin:round;stroke-dasharray:0,0,0,2.5;}
	.st38{fill:none;stroke:#FF522B;stroke-width:1.16;stroke-linecap:round;stroke-linejoin:round;stroke-dasharray:0,0,0,1.95;}
	.st39{fill:none;stroke:#FF522B;stroke-width:1.16;stroke-linecap:round;stroke-linejoin:round;stroke-dasharray:0,0,0,2.39;}
	.st40{fill:none;stroke:#FF522B;stroke-width:1.16;stroke-linecap:round;stroke-linejoin:round;stroke-dasharray:0,0,0,2.73;}
	.st41{fill:none;stroke:#FF522B;stroke-width:1.16;stroke-linecap:round;stroke-linejoin:round;stroke-dasharray:0,0,0,2.85;}
	.st42{fill:none;stroke:#FF522B;stroke-width:1.16;stroke-linecap:round;stroke-linejoin:round;stroke-dasharray:0,0,0,2.21;}
	.st43{fill:none;stroke:#FF522B;stroke-width:1.16;stroke-linecap:round;stroke-linejoin:round;stroke-dasharray:0,0,0,3.12;}
	.st44{fill:none;stroke:#FF522B;stroke-width:1.16;stroke-linecap:round;stroke-linejoin:round;stroke-dasharray:0,0,0,1.96;}
	.st45{fill:none;stroke:#FF522B;stroke-width:1.16;stroke-linecap:round;stroke-linejoin:round;stroke-dasharray:0,0,0,3.05;}
	.st46{fill:none;stroke:#FF522B;stroke-width:1.16;stroke-linecap:round;stroke-linejoin:round;stroke-dasharray:0,0,0,3.21;}
	.st47{fill:none;stroke:#FF522B;stroke-width:1.16;stroke-linecap:round;stroke-linejoin:round;stroke-dasharray:0,0,0,2.84;}
	.st48{fill:none;stroke:#FF522B;stroke-width:1.16;stroke-linecap:round;stroke-linejoin:round;stroke-dasharray:0,0,0,2.13;}
	.st49{fill:none;stroke:#FF522B;stroke-width:1.16;stroke-linecap:round;stroke-linejoin:round;stroke-dasharray:0,0,0,2.64;}
	.st50{fill:none;stroke:#FF522B;stroke-width:1.16;stroke-linecap:round;stroke-linejoin:round;stroke-dasharray:0,0,0,2.43;}
	.st51{fill:none;stroke:#FF522B;stroke-width:1.16;stroke-linecap:round;stroke-linejoin:round;stroke-dasharray:0,0,0,2.31;}
	.st52{fill:none;stroke:#FF522B;stroke-width:1.16;stroke-linecap:round;stroke-linejoin:round;stroke-dasharray:0,0,0,2.23;}
	.st53{fill:none;stroke:#FF522B;stroke-width:1.16;stroke-linecap:round;stroke-linejoin:round;stroke-dasharray:0,0,0,2.42;}
	.st54{fill:none;stroke:#FF522B;stroke-width:1.16;stroke-linecap:round;stroke-linejoin:round;stroke-dasharray:0,0,0,2.59;}
	.st55{fill:none;stroke:#FF522B;stroke-width:1.16;stroke-linecap:round;stroke-linejoin:round;stroke-dasharray:0,0,0,2.57;}
	.st56{fill:none;stroke:#FF522B;stroke-width:1.16;stroke-linecap:round;stroke-linejoin:round;stroke-dasharray:0,0,0,2.19;}
	.st57{fill:none;stroke:#FF522B;stroke-width:1.16;stroke-linecap:round;stroke-linejoin:round;stroke-dasharray:0,0,0,2.26;}
	.st58{fill:none;stroke:#FF522B;stroke-width:1.16;stroke-linecap:round;stroke-linejoin:round;stroke-dasharray:0,0,0,1.83;}
	.st59{fill:none;stroke:#FF522B;stroke-width:1.16;stroke-linecap:round;stroke-linejoin:round;stroke-dasharray:0,0,0,1.73;}
	.st60{fill:none;stroke:#FF522B;stroke-width:1.16;stroke-linecap:round;stroke-linejoin:round;stroke-dasharray:0,0,0,1.99;}
	.st61{fill:none;stroke:#FF522B;stroke-width:1.16;stroke-linecap:round;stroke-linejoin:round;stroke-dasharray:0,0,0,2.63;}
	.st62{fill:none;stroke:#FF522B;stroke-width:1.16;stroke-linecap:round;stroke-linejoin:round;stroke-dasharray:0,0,0,2.22;}
	.st63{fill:none;stroke:#FF522B;stroke-width:1.16;stroke-linecap:round;stroke-linejoin:round;stroke-dasharray:0,0,0,2.55;}
	.st64{fill:none;stroke:#FF522B;stroke-width:1.16;stroke-linecap:round;stroke-linejoin:round;stroke-dasharray:0,0,0,1.91;}
	.st65{fill:none;stroke:#FF522B;stroke-width:1.16;stroke-linecap:round;stroke-linejoin:round;stroke-dasharray:0,0,0,3.4;}
	.st66{fill:none;stroke:#FF522B;stroke-width:1.16;stroke-linecap:round;stroke-linejoin:round;stroke-dasharray:0,0,0,2.38;}
	.st67{fill:none;stroke:#FF522B;stroke-width:1.16;stroke-linecap:round;stroke-linejoin:round;stroke-dasharray:0,0,0,2.79;}
	.st68{fill:none;stroke:#FF522B;stroke-width:1.16;stroke-linecap:round;stroke-linejoin:round;stroke-dasharray:0,0,0,2.91;}
	.st69{fill:none;stroke:#FF522B;stroke-width:1.16;stroke-linecap:round;stroke-linejoin:round;stroke-dasharray:0,0,0,2.51;}
	.st70{fill:none;stroke:#FF522B;stroke-width:1.16;stroke-linecap:round;stroke-linejoin:round;stroke-dasharray:0,0,0,2.47;}
	.st71{fill:none;stroke:#FF522B;stroke-width:1.16;stroke-linecap:round;stroke-linejoin:round;stroke-dasharray:0,0,0,2.06;}
	.st72{fill:none;stroke:#FF522B;stroke-width:1.16;stroke-linecap:round;stroke-linejoin:round;stroke-dasharray:0,0,0,2.37;}
	.st73{fill:none;stroke:#FF522B;stroke-width:1.16;stroke-linecap:round;stroke-linejoin:round;stroke-dasharray:0,0,0,2.62;}
	.st74{fill:none;stroke:#FF522B;stroke-width:1.16;stroke-linecap:round;stroke-linejoin:round;stroke-dasharray:0,0,0,2.2;}
	.st75{fill:none;stroke:#FF522B;stroke-width:1.16;stroke-linecap:round;stroke-linejoin:round;stroke-dasharray:0,0,0,2.1;}
	.st76{fill:none;stroke:#FF522B;stroke-width:1.16;stroke-linecap:round;stroke-linejoin:round;stroke-dasharray:0,0,0,2.02;}
	.st77{fill:none;stroke:#FF522B;stroke-width:1.16;stroke-linecap:round;stroke-linejoin:round;stroke-dasharray:0,0,0,1.77;}
	.st78{fill:none;stroke:#FF522B;stroke-width:1.16;stroke-linecap:round;stroke-linejoin:round;stroke-dasharray:0,0,0,2.92;}
	.st79{fill:none;stroke:#FF522B;stroke-width:1.16;stroke-linecap:round;stroke-linejoin:round;stroke-dasharray:0,0,0,3.42;}
	.st80{fill:none;stroke:#FF522B;stroke-width:1.16;stroke-linecap:round;stroke-linejoin:round;}
	.st81{fill:none;stroke:#FF522B;stroke-width:1.16;stroke-linecap:round;stroke-linejoin:round;stroke-dasharray:0,0,0,3.03;}
	.st82{fill:none;stroke:#FF522B;stroke-width:1.16;stroke-linecap:round;stroke-linejoin:round;stroke-dasharray:0,0,0,2.24;}
	.st83{fill:none;stroke:#FF522B;stroke-width:1.16;stroke-linecap:round;stroke-linejoin:round;stroke-dasharray:0,0,0,2;}
	.st84{fill:none;stroke:#FF522B;stroke-width:1.16;stroke-linecap:round;stroke-linejoin:round;stroke-dasharray:0,0,0,3.26;}
	.st85{fill:none;stroke:#FF522B;stroke-width:1.16;stroke-linecap:round;stroke-linejoin:round;stroke-dasharray:0,0,0,1.61;}
	.st86{fill:none;stroke:#FF522B;stroke-width:1.16;stroke-linecap:round;stroke-linejoin:round;stroke-dasharray:0,0,0,2.72;}
	.st87{fill:none;stroke:#FF522B;stroke-width:1.16;stroke-linecap:round;stroke-linejoin:round;stroke-dasharray:0,0,0,2.48;}
	.st88{fill:none;stroke:#FF522B;stroke-width:1.16;stroke-linecap:round;stroke-linejoin:round;stroke-dasharray:0,0,0,3.25;}
	.st89{fill:none;stroke:#FF522B;stroke-width:1.16;stroke-linecap:round;stroke-linejoin:round;stroke-dasharray:0,0,0,2.87;}
	.st90{fill:none;stroke:#FF522B;stroke-width:1.16;stroke-linecap:round;stroke-linejoin:round;stroke-dasharray:0,0,0,2.96;}
	.st91{fill:none;stroke:#FF522B;stroke-width:1.16;stroke-linecap:round;stroke-linejoin:round;stroke-dasharray:0,0,0,2.75;}
	.st92{fill:none;stroke:#FF522B;stroke-width:1.16;stroke-linecap:round;stroke-linejoin:round;stroke-dasharray:0,0,0,2.49;}
	.st93{fill:none;stroke:#FF522B;stroke-width:1.16;stroke-linecap:round;stroke-linejoin:round;stroke-dasharray:0,0,0,2.25;}
	.st94{fill:none;stroke:#FF522B;stroke-width:1.16;stroke-linecap:round;stroke-linejoin:round;stroke-dasharray:0,0,0,2.74;}
	.st95{fill:none;stroke:#FF522B;stroke-width:1.16;stroke-linecap:round;stroke-linejoin:round;stroke-dasharray:0,0,0,3.02;}
	.st96{fill:none;stroke:#FF522B;stroke-width:1.16;stroke-linecap:round;stroke-linejoin:round;stroke-dasharray:0,0,0,2.44;}
	.st97{fill:none;stroke:#FF522B;stroke-width:1.16;stroke-linecap:round;stroke-linejoin:round;stroke-dasharray:0,0,0,1.82;}
	.st98{fill:none;stroke:#FF522B;stroke-width:1.16;stroke-linecap:round;stroke-linejoin:round;stroke-dasharray:0,0,0,1.42;}
	.st99{fill:none;stroke:#FF522B;stroke-width:1.16;stroke-linecap:round;stroke-linejoin:round;stroke-dasharray:0,0,0,2.32;}
	.st100{fill:none;stroke:#FF522B;stroke-width:1.16;stroke-linecap:round;stroke-linejoin:round;stroke-dasharray:0,0,0,1.57;}
	.st101{fill:none;stroke:#FF522B;stroke-width:1.16;stroke-linecap:round;stroke-linejoin:round;stroke-dasharray:0,0,0,2.71;}
	.st102{fill:none;stroke:#FF522B;stroke-width:1.16;stroke-linecap:round;stroke-linejoin:round;stroke-dasharray:0,0,0,3.01;}
	.st103{fill:none;stroke:#FF522B;stroke-width:1.16;stroke-linecap:round;stroke-linejoin:round;stroke-dasharray:0,0,0,1.9;}
	.st104{fill:none;stroke:#FF522B;stroke-width:1.16;stroke-linecap:round;stroke-linejoin:round;stroke-dasharray:0,0,0,3.2;}
	.st105{fill:none;stroke:#FF522B;stroke-width:1.16;stroke-linecap:round;stroke-linejoin:round;stroke-dasharray:0,0,0,2.97;}
	.st106{fill:none;stroke:#FF522B;stroke-width:1.16;stroke-linecap:round;stroke-linejoin:round;stroke-dasharray:0,0,0,2.53;}
	.st107{fill:none;stroke:#FF522B;stroke-width:1.16;stroke-linecap:round;stroke-linejoin:round;stroke-dasharray:0,0,0,0.86;}
	.st108{fill:none;stroke:#FF522B;stroke-width:1.16;stroke-linecap:round;stroke-linejoin:round;stroke-dasharray:0,0,0,1.81;}
	.st109{fill:none;stroke:#FF522B;stroke-width:1.16;stroke-linecap:round;stroke-linejoin:round;stroke-dasharray:0,0,0,2.77;}
	.st110{fill:none;stroke:#FF522B;stroke-width:1.16;stroke-linecap:round;stroke-linejoin:round;stroke-dasharray:0,0,0,1.08;}
	.st111{fill:none;stroke:#FF522B;stroke-width:1.16;stroke-linecap:round;stroke-linejoin:round;stroke-dasharray:0,0,0,1.79;}
	.st112{fill:none;stroke:#FF522B;stroke-width:1.16;stroke-linecap:round;stroke-linejoin:round;stroke-dasharray:0,0,0,2.52;}
	.st113{fill:none;stroke:#FF522B;stroke-width:1.16;stroke-linecap:round;stroke-linejoin:round;stroke-dasharray:0,0,0,1.33;}
	.st114{fill:none;stroke:#FF522B;stroke-width:1.16;stroke-linecap:round;stroke-linejoin:round;stroke-dasharray:0,0,0,1.75;}
	.st115{fill:none;stroke:#FF522B;stroke-width:1.16;stroke-linecap:round;stroke-linejoin:round;stroke-dasharray:0,0,0,1.52;}
	.st116{fill:none;stroke:#FF522B;stroke-width:1.16;stroke-linecap:round;stroke-linejoin:round;stroke-dasharray:0,0,0,0.96;}
	.st117{fill:none;stroke:#FF522B;stroke-width:1.16;stroke-linecap:round;stroke-linejoin:round;stroke-dasharray:0,0,0,2.08;}
	.st118{fill:none;stroke:#FF522B;stroke-width:1.16;stroke-linecap:round;stroke-linejoin:round;stroke-dasharray:0,0,0,1.54;}
	.st119{fill:none;stroke:#FF522B;stroke-width:1.16;stroke-linecap:round;stroke-linejoin:round;stroke-dasharray:0,0,0,1.24;}
	.st120{fill:none;stroke:#FF522B;stroke-width:1.16;stroke-linecap:round;stroke-linejoin:round;stroke-dasharray:0,0,0,1.45;}
	.st121{fill:none;stroke:#FF522B;stroke-width:1.16;stroke-linecap:round;stroke-linejoin:round;stroke-dasharray:0,0,0,1.43;}
	.st122{fill:none;stroke:#FF522B;stroke-width:1.16;stroke-linecap:round;stroke-linejoin:round;stroke-dasharray:0,0,0,1.78;}
	.st123{fill:none;stroke:#FF522B;stroke-width:1.16;stroke-linecap:round;stroke-linejoin:round;stroke-dasharray:0,0,0,1.5;}
	.st124{fill:none;stroke:#FF522B;stroke-width:1.16;stroke-linecap:round;stroke-linejoin:round;stroke-dasharray:0,0,0,1.34;}
	.st125{fill:none;stroke:#FF522B;stroke-width:1.16;stroke-linecap:round;stroke-linejoin:round;stroke-dasharray:0,0,0,1.47;}
	.st126{fill:none;stroke:#FF522B;stroke-width:1.16;stroke-linecap:round;stroke-linejoin:round;stroke-dasharray:0,0,0,1.12;}
	.st127{fill:none;stroke:#FF522B;stroke-width:1.16;stroke-linecap:round;stroke-linejoin:round;stroke-dasharray:0,0,0,1.4;}
	.st128{fill:none;stroke:#FF522B;stroke-width:1.16;stroke-linecap:round;stroke-linejoin:round;stroke-dasharray:0,0,0,1.38;}
	.st129{fill:none;stroke:#FF522B;stroke-width:1.16;stroke-linecap:round;stroke-linejoin:round;stroke-dasharray:0,0,0,1.07;}
	.st130{fill:none;stroke:#FF522B;stroke-width:1.16;stroke-linecap:round;stroke-linejoin:round;stroke-dasharray:0,0,0,1.32;}
	.st131{fill:none;stroke:#FF522B;stroke-width:1.16;stroke-linecap:round;stroke-linejoin:round;stroke-dasharray:0,0,0,1.18;}
	.st132{fill:none;stroke:#FF522B;stroke-width:1.16;stroke-linecap:round;stroke-linejoin:round;stroke-dasharray:0,0,0,1;}
	.st133{fill:none;stroke:#FF522B;stroke-width:1.16;stroke-linecap:round;stroke-linejoin:round;stroke-dasharray:0,0,0,0.81;}
	.st134{fill:none;stroke:#FF522B;stroke-width:1.16;stroke-linecap:round;stroke-linejoin:round;stroke-dasharray:0,0,0,1.89;}
	.st135{fill:none;stroke:#FF522B;stroke-width:1.16;stroke-linecap:round;stroke-linejoin:round;stroke-dasharray:0,0,0,0.94;}
	.st136{fill:none;stroke:#FF522B;stroke-width:1.16;stroke-linecap:round;stroke-linejoin:round;stroke-dasharray:0,0,0,0.98;}
	.st137{fill:none;stroke:#FF522B;stroke-width:1.16;stroke-linecap:round;stroke-linejoin:round;stroke-dasharray:0,0,0,1.74;}
	.st138{fill:none;stroke:#FF522B;stroke-width:1.16;stroke-linecap:round;stroke-linejoin:round;stroke-dasharray:0,0,0,1.8;}
	.st139{fill:none;stroke:#FF522B;stroke-width:1.16;stroke-linecap:round;stroke-linejoin:round;stroke-dasharray:0,0,0,1.14;}
	.st140{fill:none;stroke:#FF522B;stroke-width:1.16;stroke-linecap:round;stroke-linejoin:round;stroke-dasharray:0,0,0,1.37;}
	.st141{fill:none;stroke:#FF522B;stroke-width:1.16;stroke-linecap:round;stroke-linejoin:round;stroke-dasharray:0,0,0,1.27;}
	.st142{fill:none;stroke:#FF522B;stroke-width:1.16;stroke-linecap:round;stroke-linejoin:round;stroke-dasharray:0,0,0,1.13;}
	.st143{fill:none;stroke:#FF522B;stroke-width:1.16;stroke-linecap:round;stroke-linejoin:round;stroke-dasharray:0,0,0,1.31;}
	.st144{fill:none;stroke:#FF522B;stroke-width:1.16;stroke-linecap:round;stroke-linejoin:round;stroke-dasharray:0,0,0,1.3;}
	.st145{fill:none;stroke:#FF522B;stroke-width:1.16;stroke-linecap:round;stroke-linejoin:round;stroke-dasharray:0,0,0,1.15;}
	.st146{fill:none;stroke:#FF522B;stroke-width:1.16;stroke-linecap:round;stroke-linejoin:round;stroke-dasharray:0,0,0,0.88;}
	.st147{fill:none;stroke:#FF522B;stroke-width:1.16;stroke-linecap:round;stroke-linejoin:round;stroke-dasharray:0,0,0,0.95;}
	.st148{fill:none;stroke:#FF522B;stroke-width:1.16;stroke-linecap:round;stroke-linejoin:round;stroke-dasharray:0,0,0,0.85;}
	.st149{fill:none;stroke:#FF522B;stroke-width:1.16;stroke-linecap:round;stroke-linejoin:round;stroke-dasharray:0,0,0,0.9;}
	.st150{fill:none;stroke:#FF522B;stroke-width:1.16;stroke-linecap:round;stroke-linejoin:round;stroke-dasharray:0,0,0,0.69;}
	.st151{fill:none;stroke:#FF522B;stroke-width:1.16;stroke-linecap:round;stroke-linejoin:round;stroke-dasharray:0,0,0,1.09;}
	.st152{fill:none;stroke:#FF522B;stroke-width:1.16;stroke-linecap:round;stroke-linejoin:round;stroke-dasharray:0,0,0,0.89;}
	.st153{fill:none;stroke:#FF522B;stroke-width:1.16;stroke-linecap:round;stroke-linejoin:round;stroke-dasharray:0,0,0,0.99;}
	.st154{fill:none;stroke:#FF522B;stroke-width:1.16;stroke-linecap:round;stroke-linejoin:round;stroke-dasharray:0,0,0,0.79;}
	.st155{fill:none;stroke:#FF522B;stroke-width:1.16;stroke-linecap:round;stroke-linejoin:round;stroke-dasharray:0,0,0,0.77;}
	.st156{fill:none;stroke:#FF522B;stroke-width:1.16;stroke-linecap:round;stroke-linejoin:round;stroke-dasharray:0,0,0,1.04;}
	.st157{fill:none;stroke:#FF522B;stroke-width:1.16;stroke-linecap:round;stroke-linejoin:round;stroke-dasharray:0,0,0,0.73;}
	.st158{fill:none;stroke:#FF522B;stroke-width:1.16;stroke-linecap:round;stroke-linejoin:round;stroke-dasharray:0,0,0,0.8;}
	.st159{fill:none;stroke:#FF522B;stroke-width:1.16;stroke-linecap:round;stroke-linejoin:round;stroke-dasharray:0,0,0,0.75;}
	.st160{fill:none;stroke:#FF522B;stroke-width:1.16;stroke-linecap:round;stroke-linejoin:round;stroke-dasharray:0,0,0,1.17;}
	.st161{fill:none;stroke:#FF522B;stroke-width:1.16;stroke-linecap:round;stroke-linejoin:round;stroke-dasharray:0,0,0,0.84;}
	.st162{fill:none;stroke:#FF522B;stroke-width:1.16;stroke-linecap:round;stroke-linejoin:round;stroke-dasharray:0,0,0,0.65;}
	.st163{fill:none;stroke:#FF522B;stroke-width:1.16;stroke-linecap:round;stroke-linejoin:round;stroke-dasharray:0,0,0,0.71;}
	.st164{fill:none;stroke:#FF522B;stroke-width:1.16;stroke-linecap:round;stroke-linejoin:round;stroke-dasharray:0,0,0,0.48;}
	.st165{fill:none;stroke:#FF522B;stroke-width:1.16;stroke-linecap:round;stroke-linejoin:round;stroke-dasharray:0,0,0,2.58;}
	.st166{fill:none;stroke:#FF522B;stroke-width:1.16;stroke-linecap:round;stroke-linejoin:round;stroke-dasharray:0,0,0,1.25;}
	.st167{fill:none;stroke:#FF522B;stroke-width:1.16;stroke-linecap:round;stroke-linejoin:round;stroke-dasharray:0,0,0,1.76;}
	.st168{fill:none;stroke:#FF522B;stroke-width:1.16;stroke-linecap:round;stroke-linejoin:round;stroke-dasharray:0,0,0,2.68;}
	.st169{fill:none;stroke:#FF522B;stroke-width:1.16;stroke-linecap:round;stroke-linejoin:round;stroke-dasharray:0,0,0,2.46;}
	.st170{fill:none;stroke:#FF522B;stroke-width:1.16;stroke-linecap:round;stroke-linejoin:round;stroke-dasharray:0,0,0,3.15;}
	.st171{fill:none;stroke:#FF522B;stroke-width:1.16;stroke-linecap:round;stroke-linejoin:round;stroke-dasharray:0,0,0,2.16;}
	.st172{fill:none;stroke:#FF522B;stroke-width:1.16;stroke-linecap:round;stroke-linejoin:round;stroke-dasharray:0,0,0,2.04;}
	.st173{fill:none;stroke:#FF522B;stroke-width:1.16;stroke-linecap:round;stroke-linejoin:round;stroke-dasharray:0,0,0,2.6;}
	.st174{fill:none;stroke:#FF522B;stroke-width:1.16;stroke-linecap:round;stroke-linejoin:round;stroke-dasharray:0,0,0,2.78;}
	.st175{fill:none;stroke:#FF522B;stroke-width:1.16;stroke-linecap:round;stroke-linejoin:round;stroke-dasharray:0,0,0,3.27;}
	.st176{fill:none;stroke:#FF522B;stroke-width:1.16;stroke-linecap:round;stroke-linejoin:round;stroke-dasharray:0,0,0,2.83;}
	.st177{fill:none;stroke:#FF522B;stroke-width:1.16;stroke-linecap:round;stroke-linejoin:round;stroke-dasharray:0,0,0,3.24;}
	.st178{fill:none;stroke:#FF522B;stroke-width:1.16;stroke-linecap:round;stroke-linejoin:round;stroke-dasharray:0,0,0,0.92;}
	.st179{fill:none;stroke:#FF522B;stroke-width:1.16;stroke-linecap:round;stroke-linejoin:round;stroke-dasharray:0,0,0,0.83;}
	.st180{fill:none;stroke:#FF522B;stroke-width:1.16;stroke-linecap:round;stroke-linejoin:round;stroke-dasharray:0,0,0,0.97;}
	.st181{fill:none;stroke:#FF522B;stroke-width:1.16;stroke-linecap:round;stroke-linejoin:round;stroke-dasharray:0,0,0,0.82;}
	.st182{fill:none;stroke:#FF522B;stroke-width:1.16;stroke-linecap:round;stroke-linejoin:round;stroke-dasharray:0,0,0,0.44;}
	.st183{fill:none;stroke:#FF522B;stroke-width:1.16;stroke-linecap:round;stroke-linejoin:round;stroke-dasharray:0,0,0,2.09;}
	.st184{fill:none;stroke:#FF522B;stroke-width:1.16;stroke-linecap:round;stroke-linejoin:round;stroke-dasharray:0,0,0,2.98;}
	.st185{fill:none;stroke:#FF522B;stroke-width:1.16;stroke-linecap:round;stroke-linejoin:round;stroke-dasharray:0,0,0,3.28;}
	.st186{fill:none;stroke:#FF522B;stroke-width:1.16;stroke-linecap:round;stroke-linejoin:round;stroke-dasharray:0,0,0,2.7;}
	.st187{fill:none;stroke:#FF522B;stroke-width:1.16;stroke-linecap:round;stroke-linejoin:round;stroke-dasharray:0,0,0,3.31;}
	.st188{fill:none;stroke:#FF522B;stroke-width:1.16;stroke-linecap:round;stroke-linejoin:round;stroke-dasharray:0,0,0,1.35;}
	.st189{fill:none;stroke:#FF522B;stroke-width:1.16;stroke-linecap:round;stroke-linejoin:round;stroke-dasharray:0,0,0,1.21;}
	.st190{fill:none;stroke:#FF522B;stroke-width:1.16;stroke-linecap:round;stroke-linejoin:round;stroke-dasharray:0,0,0,0.78;}
	.st191{fill:none;stroke:#FF522B;stroke-width:1.16;stroke-linecap:round;stroke-linejoin:round;stroke-dasharray:0,0,0,3.08;}
	.st192{fill:none;stroke:#FF522B;stroke-width:1.16;stroke-linecap:round;stroke-linejoin:round;stroke-dasharray:0,0,0,1.6;}
	.st193{fill:none;stroke:#FF522B;stroke-width:1.16;stroke-linecap:round;stroke-linejoin:round;stroke-dasharray:0,0,0,1.39;}
	.st194{fill:none;stroke:#FF522B;stroke-width:1.16;stroke-linecap:round;stroke-linejoin:round;stroke-dasharray:0,0,0,1.44;}
	.st195{fill:none;stroke:#FF522B;stroke-width:1.16;stroke-linecap:round;stroke-linejoin:round;stroke-dasharray:0,0,0,3.38;}
	.st196{fill:none;stroke:#FF522B;stroke-width:1.16;stroke-linecap:round;stroke-linejoin:round;stroke-dasharray:0,0,0,3.16;}
	.st197{fill:none;stroke:#FF522B;stroke-width:1.16;stroke-linecap:round;stroke-linejoin:round;stroke-dasharray:0,0,0,3.36;}
	.st198{fill:none;stroke:#FF522B;stroke-width:1.16;stroke-linecap:round;stroke-linejoin:round;stroke-dasharray:0,0,0,3.22;}
	.st199{fill:none;stroke:#FF522B;stroke-width:1.16;stroke-linecap:round;stroke-linejoin:round;stroke-dasharray:0,0,0,2.93;}
	.st200{fill:none;stroke:#FF522B;stroke-width:1.16;stroke-linecap:round;stroke-linejoin:round;stroke-dasharray:0,0,0,1.51;}
	.st201{fill:none;stroke:#FF522B;stroke-width:1.16;stroke-linecap:round;stroke-linejoin:round;stroke-dasharray:0,0,0,1.55;}
	.st202{fill:none;stroke:#FF522B;stroke-width:1.16;stroke-linecap:round;stroke-linejoin:round;stroke-dasharray:0,0,0,2.88;}
	.st203{fill:none;stroke:#FF522B;stroke-width:1.16;stroke-linecap:round;stroke-linejoin:round;stroke-dasharray:0,0,0,3.06;}
	.st204{fill:none;stroke:#FF522B;stroke-width:1.16;stroke-linecap:round;stroke-linejoin:round;stroke-dasharray:0,0,0,1.58;}
	.st205{fill:none;stroke:#FF522B;stroke-width:1.16;stroke-linecap:round;stroke-linejoin:round;stroke-dasharray:0,0,0,1.2;}
	.st206{fill:none;stroke:#FF522B;stroke-width:1.16;stroke-linecap:round;stroke-linejoin:round;stroke-dasharray:0,0,0,1.26;}
	.st207{fill:none;stroke:#FF522B;stroke-width:1.16;stroke-linecap:round;stroke-linejoin:round;stroke-dasharray:0,0,0,2.99;}
	.st208{fill:none;stroke:#FF522B;stroke-width:1.16;stroke-linecap:round;stroke-linejoin:round;stroke-dasharray:0,0,0,3.07;}
	.st209{fill:none;stroke:#FF522B;stroke-width:1.16;stroke-linecap:round;stroke-linejoin:round;stroke-dasharray:0,0,0,1.71;}
	.st210{fill:none;stroke:#FF522B;stroke-width:1.16;stroke-linecap:round;stroke-linejoin:round;stroke-dasharray:0,0,0,3;}
	.st211{fill:none;stroke:#FF522B;stroke-width:1.16;stroke-linecap:round;stroke-linejoin:round;stroke-dasharray:0,0,0,1.98;}
	.st212{fill:none;stroke:#FF522B;stroke-width:1.16;stroke-linecap:round;stroke-linejoin:round;stroke-dasharray:0,0,0,1.48;}
	.st213{fill:none;stroke:#FF522B;stroke-width:1.16;stroke-linecap:round;stroke-linejoin:round;stroke-dasharray:0,0,0,1.49;}
	.st214{fill:none;stroke:#FF522B;stroke-width:1.16;stroke-linecap:round;stroke-linejoin:round;stroke-dasharray:0,0,0,1.36;}
	.st215{fill:none;stroke:#FF522B;stroke-width:1.16;stroke-linecap:round;stroke-linejoin:round;stroke-dasharray:0,0,0,1.66;}
	.st216{fill:none;stroke:#FF522B;stroke-width:1.16;stroke-linecap:round;stroke-linejoin:round;stroke-dasharray:0,0,0,1.7;}
	.st217{fill:none;stroke:#FF522B;stroke-width:1.16;stroke-linecap:round;stroke-linejoin:round;stroke-dasharray:0,0,0,0.93;}
	.st218{fill:none;stroke:#FF522B;stroke-width:1.16;stroke-linecap:round;stroke-linejoin:round;stroke-dasharray:0,0,0,1.23;}
	.st219{fill:none;stroke:#FF522B;stroke-width:1.16;stroke-linecap:round;stroke-linejoin:round;stroke-dasharray:0,0,0,1.06;}
	.st220{fill:none;stroke:#FF522B;stroke-width:1.16;stroke-linecap:round;stroke-linejoin:round;stroke-dasharray:0,0,0,1.22;}
	.st221{fill:none;stroke:#FF522B;stroke-width:1.16;stroke-linecap:round;stroke-linejoin:round;stroke-dasharray:0,0,0,1.01;}
	.st222{fill:none;stroke:#FF522B;stroke-width:1.16;stroke-linecap:round;stroke-linejoin:round;stroke-dasharray:0,0,0,0.76;}
	.st223{fill:none;stroke:#FF522B;stroke-width:1.16;stroke-linecap:round;stroke-linejoin:round;stroke-dasharray:0,0,0,1.93;}
	.st224{fill:none;stroke:#FF522B;stroke-width:1.16;stroke-linecap:round;stroke-linejoin:round;stroke-dasharray:0,0,0,0.7;}
	.st225{fill:none;stroke:#FF522B;stroke-width:1.16;stroke-linecap:round;stroke-linejoin:round;stroke-dasharray:0,0,0,0.91;}
</style>
<path class="st0" d="M63.8,39.6c0.2,0.2,0.4,0.1,0.9,0"/>
<path class="st1" d="M64.9,37.1c0-0.4,0.2-0.5,0.8,0.1"/>
<path class="st2" d="M67.4,39.8c0.4,0,0.8-0.2,1,0"/>
<path class="st3" d="M68.2,38.5c-0.5-0.6-0.9-1-0.2-0.9"/>
<path class="st4" d="M69.6,40.3c-0.2,0.4-0.3,0.8-0.3,1.2"/>
<path class="st5" d="M67.5,42c-0.5,0-0.9,0-1.3,0"/>
<path class="st6" d="M64.5,43.6c0.6,0.2,1.1,0.1,1.2-0.1"/>
<path class="st7" d="M64.6,44.4c-0.3,0-0.6-0.1-0.9-0.2"/>
<path class="st8" d="M62.2,43.7c-0.2-0.3-0.3-0.7-0.5-1"/>
<path class="st9" d="M61.4,44.2c-0.2,0.2-0.6-0.5-0.8-1.2"/>
<path class="st10" d="M62.6,46.4c0.3-0.8-0.2-1-0.8-1.2"/>
<path class="st11" d="M60.9,46.8c0.5-0.1,0.6-0.2,0.8-0.3"/>
<path class="st12" d="M59,48c-1.2,1.5-0.6,3.8,0.8,5.3"/>
<path class="st13" d="M58.3,55c-0.5-0.1-1-0.3-1.3-0.5"/>
<path class="st14" d="M58.2,53c-0.5-0.1-0.7-0.1-0.8,0"/>
<path class="st15" d="M56.5,52.6c-0.3,0.1-0.6,0.2-0.9,0.4"/>
<path class="st16" d="M52.9,52.8c-0.2-0.2-0.5-0.4-0.9-0.5"/>
<path class="st17" d="M52.1,54.5c0.2,0.1,0.5,0.2,1.1,0.2"/>
<path class="st8" d="M55.6,54.8c-0.5,1.3-2.6,3.7-4.3,1.2"/>
<path class="st18" d="M49.6,56.9c-1.1,2-1.8,4.2-0.2,5.3"/>
<path class="st19" d="M49.1,63.4c0.2,0.1,0.5,0.3,0.8,0.4"/>
<path class="st20" d="M49.1,65.7c-0.2,0.1-0.5,0-0.9-0.1"/>
<path class="st21" d="M48.5,67.2c2.7,1.8,8.9,2.4,8.2-0.3"/>
<path class="st22" d="M58.6,66.4c0.5,1,0.1,2.8,0.9,3.8"/>
<path class="st21" d="M58.9,72.1c-0.4,0.1-0.4,0.2,0.5,0.2"/>
<path class="st23" d="M58.5,73.1c-0.2,0.2-0.3,0.6-0.3,1"/>
<path class="st24" d="M56.8,76.7c-2.8,0.8-7.4-4.4-10.1-1.6"/>
<path class="st25" d="M46.5,74.1c0.2-0.5,0.2-0.8-0.4-0.8"/>
<path class="st26" d="M43.8,72.1c0.4,0.4,0.4,0.7,0.5,0.9"/>
<path class="st27" d="M40.5,71.8c0.5-0.5,1-0.4,1.6-0.2"/>
<path class="st0" d="M39.2,73.2c0.2-0.3,0.4-0.5,0.7-0.7"/>
<path class="st28" d="M37.4,72.6c-0.3,0.6,0.5,2.3,0.1,3"/>
<path class="st29" d="M34.7,75c-1.2-0.4-2.5-0.9-2.9-1.4"/>
<path class="st30" d="M32.8,72.4c0.1,1,0.1,1.2,0,1"/>
<path class="st31" d="M34.4,71.5c0.3-0.1,0.7-0.1,1-0.2"/>
<path class="st32" d="M35.2,70.1c-0.9-0.2-2,0-2.6,1.2"/>
<path class="st33" d="M30.9,70.5c-0.7-1.1-1.5-2.3-2.3-2.5"/>
<path class="st34" d="M29.1,70c0.3,0.2,0.5,0.5,0.6,0.8"/>
<path class="st26" d="M28.4,70.1c-0.3-0.2-0.7-0.2-1-0.1"/>
<path class="st16" d="M27.2,69c-0.2-0.9-0.8-2,0-2.8"/>
<path class="st35" d="M30.5,66.2c0.7,0.8,1.4,1.8,3.5,1.4"/>
<path class="st36" d="M36.1,66.2c-1.2-3.9-9.1-15.4-11.9-14.4"/>
<path class="st33" d="M21.3,51.9c-3.7-1.7-0.9-3,0-4.1"/>
<path class="st37" d="M18.9,46.7c-0.3,0.2-0.5,0.6-0.7,1"/>
<path class="st38" d="M15.8,49.3c-0.4,0.1-0.7,0.1-1,0.1"/>
<path class="st39" d="M12.7,49.8c-0.2,0.3,0,0.5,0.8,0.6"/>
<path class="st17" d="M13,51.9c-1,0-1.8-1.2-2.6-2.1"/>
<path class="st17" d="M10.4,47.9c0.8,0.7,1.9,2.2,2.8,1.5"/>
<path class="st40" d="M11.7,46.9c-0.5-0.2-1-0.4-1.2-0.6"/>
<path class="st41" d="M12.3,44.4c0.1,0.9,0.3,1.2,0.3,1.4"/>
<path class="st42" d="M14,45.5c1.2,0,2.6-0.8,2.5-1.7"/>
<path class="st43" d="M13.5,44.5c-0.1-0.4,0.4-0.8,1-1.1"/>
<path class="st44" d="M11.9,43.7c-1.1,0.3-2,1.9-2.4,0.8"/>
<path class="st45" d="M11.3,42.4c-1-0.7-1-0.4-1,0.1"/>
<path class="st46" d="M11.6,39.7c0.3,1.1,0.1,1.3-0.2,1.5"/>
<path class="st6" d="M9.8,41.7c-0.4,0.5-0.5,0.3-1.2,0.1"/>
<path class="st47" d="M8.5,44.2c0.2,0.4,0.4,0.8,0.7,1.3"/>
<path class="st0" d="M8.4,47.6c-0.3-0.1-0.6-0.2-0.8-0.4"/>
<path class="st18" d="M6.1,48.3c-1.5,1-4.4,1.3-5.2-0.4"/>
<path class="st48" d="M2.1,45.5c1.8-0.8,4.6-1,4.2-2.5"/>
<path class="st8" d="M5.8,40.1c0.3-0.2,0.6-0.5,0.9-0.7"/>
<path class="st5" d="M8.1,36.3c0.4-0.2,0.8-0.3,1.2-0.5"/>
<path class="st8" d="M12.6,36.5c2.5,1.1,5.3,1.5,7.6-0.3"/>
<path class="st49" d="M23.6,34.9c0.4-0.1,0.9-0.1,1.3,0.1"/>
<path class="st50" d="M28.2,34.5c1.3-1.2,2.6-3.3,3.8-4.7"/>
<path class="st21" d="M30.7,28.7c-3.4-0.1-9.4,0-8.3-2.4"/>
<path class="st51" d="M25.3,24.8c4.4-1.4,0.3-2.2,1.3-4.3"/>
<path class="st52" d="M28.4,20.9c0.2,0.4,0.4,0.7,0.7,0.8"/>
<path class="st53" d="M30.8,19.5c1.3,0.2,4.2,3.7,4.7,0.3"/>
<path class="st23" d="M36.3,20.4c-0.2,1.1-1.7,1.9-1.9,2.5"/>
<path class="st44" d="M37,23.8c0.4,0,0.7,0,1,0"/>
<path class="st54" d="M35.9,24.8c-5.2,1.5-3.3,4.6-2.3,3.1"/>
<path class="st55" d="M35,26.2c0,1.1,0.1,1.3,0,1.2"/>
<path class="st56" d="M35.8,25.9c-0.3-0.1-0.2,0.7-0.2,0.9"/>
<path class="st57" d="M37.6,26.6c0.4-0.1,0.7-0.2,1.1-0.4"/>
<path class="st23" d="M40.8,26.2c-0.5,0.2-0.8,0.5-0.9,0.5"/>
<path class="st58" d="M42.2,26c-0.3,0.6-0.5,0.4-0.7,0.2"/>
<path class="st59" d="M42.4,27.3c-0.2-0.1-0.1-0.5,0-0.8"/>
<path class="st60" d="M42.9,26.2c-0.2-0.3-0.3-0.6-0.4-0.9"/>
<path class="st61" d="M43.9,26.6c0.9,1.1,1.8,2,2.3,3.2"/>
<path class="st39" d="M47.9,29.1c2-3.4,2.6-7.4,0.7-7.4"/>
<path class="st62" d="M45.6,22.6c-0.5-0.1-0.7-0.3,0.2-0.4"/>
<path class="st56" d="M46.8,21.4c0.4,0,0.8,0,1.1-0.1"/>
<path class="st63" d="M46.8,18.9c-0.4,0-0.8,0-1.3,0.1"/>
<path class="st56" d="M44.8,17.5c0.1-3-2.4-1.2-3.5-3.6"/>
<path class="st64" d="M39,12.7c-0.3,0-0.6,0.1-1,0.1"/>
<path class="st65" d="M35.7,11.8c0.7,0.1,1.3,0,1.7,0"/>
<path class="st62" d="M35,9.9c0.1-0.4,0.2-0.7,0.4-1"/>
<path class="st66" d="M38.1,7.3c0.4,0.1,0.7,0.3,1.1,0.4"/>
<path class="st66" d="M41.6,6.2c0.6-1.3,1.3-2.7,2.3-2.2"/>
<path class="st67" d="M46.4,3c0.2-0.4,0.5-0.7,1-1"/>
<path class="st68" d="M51.6,1.9C52,2,52.4,2.3,52.7,2.8"/>
<path class="st53" d="M54.8,3.5c-0.1,0.5-0.4-0.4-1-0.2"/>
<path class="st39" d="M55.8,1.4c0.3-0.6,0.5-1,0.7-0.7"/>
<path class="st69" d="M57.7,4.1C58.1,4.2,58.5,4,58.9,4"/>
<path class="st70" d="M61.3,5.4c-0.3,0-0.8,0.2-1.2,0.2"/>
<path class="st28" d="M60.4,7.1c-1.6,1.2-4.4,2.1-3.2,3.2"/>
<path class="st36" d="M60.3,10.1c0.7-0.7,1.2-2,1.7-2.9"/>
<path class="st12" d="M64.8,5.5c1.7-0.2,4.1,0.1,5.8,0.6"/>
<path class="st71" d="M70.4,8.2c-0.8,0.5-1.9,0.7-3,0.7"/>
<path class="st31" d="M65.8,10.2c0.6,1.1,1.9,2.3,1.3,2.4"/>
<path class="st51" d="M64.1,13.3c-2.4,0.8-6.3,2.4-8.4,5.7"/>
<path class="st51" d="M57.4,20.2c3.1,0.1,8,0.2,10.3,0.8"/>
<path class="st72" d="M66.6,22.3c-4.2,2-7.8,5.8-11.8,4.8"/>
<path class="st29" d="M51.8,26.6c-2,1.2-3.8,5.9-4.6,8.3"/>
<path class="st4" d="M48.9,37.5c0.7,1.2,0.1,2.5-1.6,2.6"/>
<path class="st52" d="M44.8,41.7c-0.3,1.6-0.1,3.9-0.2,5.5"/>
<path class="st73" d="M44.3,50.8c0.7,0.7,2.2,0.5,3.8,0"/>
<path class="st74" d="M50.3,48.4c1.5-3.3,1.1-5.5,2-9.7"/>
<path class="st51" d="M54.7,37.9c1.4-0.7,3.2-2.5,4.5-3.5"/>
<path class="st75" d="M59.9,32.6c0.3,0,0.7-0.1,1-0.2"/>
<path class="st76" d="M62.7,33.3c0.3,1-0.3,2-0.9,2.8"/>
<path class="st77" d="M62.6,37.5c0.2,0.3,0.2,0.5-0.2,0.7"/>
<path class="st78" d="M62.4,39.7c-0.4,0.8-0.8,0.6-1,0.1"/>
<path class="st79" d="M62.7,38c0.3,0.4,0.5,1.1,0.5,1.6"/>
<path class="st80" d="M62.7,38L62.7,38 M62.4,39.7L62.4,39.7 M61.5,38.4L61.5,38.4 M61.1,36.7L61.1,36.7 M61.5,31.7L61.5,31.7
	 M60.1,33.8L60.1,33.8 M52.6,37.7L52.6,37.7 M49.3,50.4L49.3,50.4 M44.3,48.3L44.3,48.3 M46,40L46,40 M46.9,35.9L46.9,35.9
	 M53.7,26.7L53.7,26.7 M68.8,21.5L68.8,21.5 M55.1,20L55.1,20 M66.2,12.4L66.2,12.4 M66.4,8.7L66.4,8.7 M71.6,6.6L71.6,6.6
	 M62.6,6.3L62.6,6.3 M58.2,10.7L58.2,10.7 M61.3,5.4L61.3,5.4 M59.4,5L59.4,5 M56.8,1.8L56.8,1.8 M54.8,3.5L54.8,3.5 M53,4.2L53,4.2
	 M48.7,1.7L48.7,1.7 M44.8,4.7L44.8,4.7 M40.3,8.1L40.3,8.1 M35.8,7.8L35.8,7.8 M35.7,11.8L35.7,11.8 M37.2,13L37.2,13 M40.9,12.8
	L40.9,12.8 M44.4,19.6L44.4,19.6 M48.3,20.6L48.3,20.6 M46.9,22L46.9,22 M47.5,22L47.5,22 M46.5,31L46.5,31 M42.5,24.4L42.5,24.4
	 M42.4,27.3L42.4,27.3 M42.2,26L42.2,26 M40.8,26.2L40.8,26.2 M39.7,25.7L39.7,25.7 M35.8,25.9L35.8,25.9 M35,26.1L35,26.1
	 M33.9,26.6L33.9,26.6 M38.4,24.3L38.4,24.3 M35,23.5L35,23.5 M35.5,18.5L35.5,18.5 M30.2,21.4L30.2,21.4 M27.2,19.5L27.2,19.5
	 M23,25.4L23,25.4 M32.8,28.9L32.8,28.9 M26.1,35.6L26.1,35.6 M21.1,35.4L21.1,35.4 M10.5,35.4L10.5,35.4 M7.3,38.4L7.3,38.4
	 M5.8,42L5.8,42 M0.6,46.9L0.6,46.9 M7.1,46.4L7.1,46.4 M9.6,46.7L9.6,46.7 M7.4,41.5L7.4,41.5 M11.5,39.7L11.5,39.7 M11.3,42.4
	L11.3,42.4 M9.3,43.5L9.3,43.5 M13.5,44.5L13.5,44.5 M16,43L16,43 M12.3,44.4L12.3,44.4 M11.2,46.1L11.2,46.1 M13.8,48.4L13.8,48.4
	 M9.5,49.1L9.5,49.1 M14.7,50.5L14.7,50.5 M14.9,48.9L14.9,48.9 M17.7,48.9L17.7,48.9 M21.3,46.8L21.3,46.8 M23.4,52.7L23.4,52.7
	 M35.2,67.3L35.2,67.3 M28,65.6L28,65.6 M26.5,70.7L26.5,70.7 M29.5,71.7L29.5,71.7 M27.7,68.5L27.7,68.5 M32.3,72.3L32.3,72.3
	 M36.4,71.2L36.4,71.2 M32.8,72.4L32.8,72.4 M32.1,72.7L32.1,72.7 M36.6,75.9L36.6,75.9 M39.2,73.1L39.2,73.1 M40.5,71.8L40.5,71.8
	 M43.8,72.1L43.8,72.1 M45,73.5L45,73.5 M46,76.1L46,76.1 M58.4,75.1L58.4,75.1 M60.5,72.4L60.5,72.4 M60.6,70.9L60.6,70.9
	 M56.3,65.9L56.3,65.9 M47.3,65.5L47.3,65.5 M50.3,64.3L50.3,64.3 M50.4,62.8L50.4,62.8 M50.9,55L50.9,55 M54.3,54.7L54.3,54.7
	 M51.1,52.4L51.1,52.4 M54.7,53.1L54.7,53.1 M58.3,52.9L58.3,52.9 M57,53.5L57,53.5 M60.7,54.1L60.7,54.1 M61,46.8L61,46.8
	 M62.6,46.4L62.6,46.4 M61.4,44.2L61.4,44.2 M60.9,41.8L60.9,41.8 M62.9,43.8L62.9,43.8 M64.5,43.6L64.5,43.6 M65.3,42.5L65.3,42.5
	 M70,42.5L70,42.5 M69.3,38L69.3,38 M68.4,40.9L68.4,40.9 M66.5,38.1L66.5,38.1 M65.6,39.4L65.6,39.4"/>
<path class="st63" d="M30.9,42.2c0.6,2.3,1.8,4.2,4.3,3.5"/>
<path class="st37" d="M38.8,45.1c1.6-0.8,0.4-3.3-0.2-5.8"/>
<path class="st37" d="M35.9,38.1c-2.8-0.2-6.2-1.3-8.7-1"/>
<path class="st31" d="M27.5,38.5c0.3,0.1,0.7,0.1,1,0.2"/>
<path class="st81" d="M30.5,39.7c-0.4,1.1-0.6,1.1-0.8,0.7"/>
<path class="st80" d="M30.5,39.7L30.5,39.7 M29.4,39L29.4,39 M26,37.4L26,37.4 M38.4,38L38.4,38 M36.4,45.2L36.4,45.2"/>
<path class="st26" d="M38.1,63c0.8-0.8,0.2-2.3,1.3-2.8"/>
<path class="st82" d="M40.9,57.9c-0.9-3-10.2-0.8-5.5,4.8"/>
<path class="st80" d="M36.2,63.6L36.2,63.6 M40.5,60L40.5,60"/>
<path class="st83" d="M43.7,28.8c1.3-0.6,0.8-0.9-1.3-0.9"/>
<path class="st84" d="M40.3,30.4c0.8-0.4,0.4-0.9,0.3-1.4"/>
<path class="st85" d="M39.5,30.8c-0.2-0.7,0-0.5,0.2-0.4"/>
<path class="st51" d="M37.7,30.9c0.1-0.5,0.5-0.3,0.9-0.1"/>
<path class="st77" d="M36.2,31.4c-0.3,0-0.6,0.1-0.9,0.2"/>
<path class="st12" d="M36.5,32.6c-0.3,0.3-0.7,0.4-1.1,0.4"/>
<path class="st71" d="M37.2,34.5c0.4,0.2,0.8-0.1,0.8,0.4"/>
<path class="st38" d="M38,36.5c1.1,0.6,2.6,1.2,1.5-0.3"/>
<path class="st86" d="M39.3,35.1c0.4,0.4,0.7,0.6,0.4-0.4"/>
<path class="st33" d="M41,34.9c1.2,0.7,1.6-0.2,0.3-2"/>
<path class="st87" d="M42.2,30.4c0.6-0.3,1.1-0.5,0.9-0.7"/>
<path class="st80" d="M41.9,29.5L41.9,29.5 M40.6,32L40.6,32 M39.3,33.4L39.3,33.4 M38.9,35.4L38.9,35.4 M37.8,35.9L37.8,35.9
	 M36.5,32.6L36.5,32.6 M34.7,32.2L34.7,32.2 M37.7,30.9L37.7,30.9 M39.5,30.8L39.5,30.8 M40.3,30.4L40.3,30.4 M41.5,27.9L41.5,27.9"
	/>
<path class="st88" d="M31.1,53.5c0.3-0.5,0-1.1-0.3-1.5"/>
<path class="st89" d="M33.6,54.9c0.5,0.2,0.9,0.3,1.4,0.4"/>
<path class="st90" d="M37.9,54.2c0.7,0.4,0.4,0.8-0.1,1"/>
<path class="st91" d="M38.7,53c0.5,0.1-0.1,0.4-0.7,0.8"/>
<path class="st26" d="M36.6,53c-0.3-0.1-0.6-0.3-0.8-0.6"/>
<path class="st4" d="M37.6,52.1c4.5,0.8-2.7-1.6-5.7-1.5"/>
<path class="st80" d="M30.6,51L30.6,51 M35.1,51.6L35.1,51.6 M38.7,53L38.7,53 M37.9,54.2L37.9,54.2 M36.4,55.5L36.4,55.5
	 M31.1,53.5L31.1,53.5"/>
<path class="st5" d="M47.8,58c0.2-1.1-0.7-2.4-2.2-2.7"/>
<path class="st31" d="M43.5,57c0.1,0.9,0.7,1.9,1.5,2.4"/>
<path class="st80" d="M46,59.6L46,59.6 M44.3,55.3L44.3,55.3"/>
<path class="st28" d="M55.5,17.9c1.4-1.4,2.8-3.4,1.4-4.2"/>
<path class="st48" d="M54.8,15.1c-0.2,1-0.3,2.2-0.5,3.2"/>
<path class="st80" d="M54,19.3L54,19.3 M55.9,13.3L55.9,13.3"/>
<path class="st51" d="M35.2,31.5c0.6-0.9-0.2-2.4-1.7-2.1"/>
<path class="st92" d="M31.4,31.4c0.3,0.1,0.8,0.2,1.2,0.3"/>
<path class="st80" d="M33.1,32.2L33.1,32.2 M32.4,29.9L32.4,29.9"/>
<path class="st33" d="M41.1,39.1c-0.8,0.1-0.5,3.9,0.2,5.5"/>
<path class="st52" d="M42.3,43.1c0-0.4,0.1-0.7,0.1-1.1"/>
<path class="st80" d="M42.5,40.8L42.5,40.8 M42.1,45.3L42.1,45.3"/>
<path class="st93" d="M27.8,49.2c1.4,0.5,2.7,0.8,2.4-0.7"/>
<path class="st74" d="M27.7,47.3c-0.4,0.1-0.6,0.3-1,0.5"/>
<path class="st80" d="M25.7,48.4L25.7,48.4 M29.8,47.4L29.8,47.4"/>
<path class="st94" d="M55.5,43c0.3-0.4,0.5-0.8,0.5-1.2"/>
<path class="st74" d="M53.6,42.3c0,0.4,0,0.8,0,1.1"/>
<path class="st80" d="M53.2,44.3L53.2,44.3 M55,40.9L55,40.9"/>
<path class="st95" d="M51.4,15.2c-0.1-0.3,0.4-0.7,1-0.9"/>
<path class="st96" d="M53,16.5c0.3-0.2,0.5-0.6,0.6-1"/>
<path class="st80" d="M53.8,14.2L53.8,14.2 M51.4,15.2L51.4,15.2"/>
<path class="st24" d="M62.5,23.5c0.4-0.1,0.8-0.2,1.2-0.3"/>
<path class="st63" d="M62.4,21.9c-0.6,0-1.1,0-1.2,0.2"/>
<path class="st80" d="M62.2,22.6L62.2,22.6 M64.7,22.5L64.7,22.5"/>
<path class="st70" d="M18,43.5c-0.4-0.1-0.9,0.1-1.1,0.3"/>
<path class="st53" d="M18.9,45.4c-0.4-0.2-0.8-0.1-1.2,0"/>
<path class="st80" d="M18.9,45.4L18.9,45.4 M16.8,45L16.8,45"/>
<path class="st97" d="M51.9,21.2c-0.2,0.2-0.4,0.4-0.7,0.6"/>
<path class="st83" d="M50.2,20.9c-0.4,0.2-0.7,0.5-0.7,0.7"/>
<path class="st80" d="M50.4,22L50.4,22 M51.9,21.2L51.9,21.2"/>
<path class="st98" d="M57,24.2c0.3,0,0.5-0.2,0.5-0.4"/>
<path class="st75" d="M58.2,24.6c0.2-0.3,0.3-0.6,0.1-1"/>
<path class="st80" d="M57.4,23.1L57.4,23.1 M57,24.2L57,24.2"/>
<path class="st77" d="M49.7,72.7c0.3,0.2,0.6,0.3,0.8,0.3"/>
<path class="st43" d="M48.4,71.5c0.5,0.1,1,0.2,1.5,0.4"/>
<path class="st80" d="M48.4,71.5L48.4,71.5 M51.3,72.6L51.3,72.6"/>
<path class="st99" d="M46.2,70.8c0,0.4,0,0.8,0.1,1.2"/>
<path class="st82" d="M46.8,70.7c0-0.4,0-0.8,0-1.1"/>
<path class="st80" d="M46.6,68.5L46.6,68.5 M46.8,72.9L46.8,72.9"/>
<path class="st31" d="M53.6,39.4c-0.2,0.4-0.2,0.8,0.1,0.8"/>
<path class="st100" d="M55.2,38.6c-0.5,0.2-0.5,0.3-0.6,0.5"/>
<path class="st80" d="M55.2,38.6L55.2,38.6 M54.6,39.9L54.6,39.9"/>
<path class="st101" d="M58.3,69.1c-0.4,0.1-0.4,0.7-0.5,1.2"/>
<path class="st102" d="M57.4,70.4c-0.2-0.4-0.1-1,0.1-1.5"/>
<path class="st80" d="M57.4,70.4L57.4,70.4 M58.4,69.1L58.4,69.1"/>
<path class="st57" d="M26.9,51.6c0.3,0.3,0.5,0.6,0.8,0.8"/>
<path class="st103" d="M27.1,51.1c-0.2-0.2-0.4-0.5-0.7-0.7"/>
<path class="st80" d="M25.7,49.8L25.7,49.8 M28.2,52.6L28.2,52.6"/>
<path class="st104" d="M21.8,38.8c-0.6-0.6,0-0.9,0.7-0.9"/>
<path class="st97" d="M23.5,38.5c-0.4-0.2-0.6-0.1-0.9,0"/>
<path class="st80" d="M23.5,38.5L23.5,38.5 M21.8,38.8L21.8,38.8"/>
<path class="st105" d="M24.1,46.7c-0.6,0.3-0.9,0-1.2-0.5"/>
<path class="st12" d="M24,46.4c-0.3-0.2-0.7-0.4-1-0.6"/>
<path class="st80" d="M22.1,45L22.1,45 M24.1,46.7L24.1,46.7"/>
<path class="st77" d="M34.5,50.1c-0.1,0.2-0.4,0.2-0.8,0.2"/>
<path class="st106" d="M32.8,50.2c0.1-0.6,0.4-0.8,0.8-0.9"/>
<path class="st80" d="M32.8,50.2L32.8,50.2 M34.5,50.1L34.5,50.1"/>
<path class="st94" d="M59.9,21.8c-0.4,0.1-0.9,0.1-1.4,0"/>
<path class="st94" d="M57.4,21.1c0.5,0,0.9,0,1.4,0"/>
<path class="st80" d="M57.4,21.1L57.4,21.1 M59.9,21.8L59.9,21.8"/>
<path class="st96" d="M31.6,33.8c0.4,0.2,0.7,0.4,1.1,0.6"/>
<path class="st101" d="M33.6,35.1c-0.4,0-0.9,0-1.3-0.2"/>
<path class="st80" d="M33.6,35.1L33.6,35.1 M31.6,33.8L31.6,33.8"/>
<path class="st9" d="M9.2,39.2c1.3-0.2,1.2,0.2,0.6,0.3"/>
<path class="st1" d="M8.4,39.2c0.4-0.3,0.8-0.4,1.1-0.4"/>
<path class="st80" d="M8.4,39.2L8.4,39.2 M9.2,39.2L9.2,39.2"/>
<path class="st107" d="M60.8,36.6c0-0.3-0.1-0.3-0.2-0.3"/>
<path class="st95" d="M60.2,36.3c0.2-0.9,0.7-1,0.9-0.9"/>
<path class="st80" d="M60.2,36.3L60.2,36.3 M60.8,36.6L60.8,36.6"/>
<path class="st32" d="M29.6,22.1c0,0.4-0.2,0.7-0.5,0.8"/>
<path class="st108" d="M28.1,22.9c0.2-0.1,0.5-0.3,0.7-0.5"/>
<path class="st80" d="M28.1,22.9L28.1,22.9 M29.6,22.1L29.6,22.1"/>
<path class="st109" d="M8.7,40c-0.2,0.5-0.8,0.2-1.1-0.2"/>
<path class="st110" d="M8.3,39.3c-0.2,0.3-0.1,0.4,0,0.5"/>
<path class="st80" d="M8.3,39.3L8.3,39.3 M8.7,40L8.7,40"/>
<path class="st42" d="M51.2,48.4c-0.2-0.4-0.1-0.8,0.2-1"/>
<path class="st111" d="M52.5,47.1c-0.2,0.2-0.4,0.4-0.6,0.6"/>
<path class="st80" d="M52.5,47.1L52.5,47.1 M51.2,48.4L51.2,48.4"/>
<path class="st76" d="M48.9,70.8c0.3,0.1,0.6,0.3,0.9,0.5"/>
<path class="st34" d="M49.4,70.7c0.1,0.1,0.5,0.4,0.8,0.6"/>
<path class="st80" d="M49.4,70.7L49.4,70.7 M50.6,71.9L50.6,71.9"/>
<path class="st112" d="M40.3,69.6c0.5-0.3,0.9-0.2,1.2,0"/>
<path class="st31" d="M41.8,70.8c-0.2-0.4-0.3-0.6-0.6-0.8"/>
<path class="st80" d="M41.8,70.8L41.8,70.8 M40.3,69.6L40.3,69.6"/>
<path class="st113" d="M25.2,40.5c0.1-0.2,0.3-0.2,0.6-0.2"/>
<path class="st114" d="M26.4,40.5c-0.2,0.2-0.5,0.4-0.7,0.5"/>
<path class="st80" d="M26.4,40.5L26.4,40.5 M25.2,40.5L25.2,40.5"/>
<path class="st115" d="M14.4,42.2c0.3,0,0.5-0.1,0.8-0.1"/>
<path class="st28" d="M15.9,42c-0.2,0.5-0.4,0.7-0.7,0.7"/>
<path class="st80" d="M15.9,42L15.9,42 M14.4,42.2L14.4,42.2"/>
<path class="st116" d="M60.1,42.8c-0.1,0.1-0.2,0.2-0.4,0.2"/>
<path class="st117" d="M59.2,43.3c-0.5-0.5-0.3-0.7,0-0.8"/>
<path class="st80" d="M59.2,43.3L59.2,43.3 M60.1,42.8L60.1,42.8"/>
<path class="st8" d="M59.3,21.1c0.2-0.2,0.6-0.3,1.1-0.2"/>
<path class="st26" d="M61.4,21.5c-0.3-0.1-0.7-0.1-1-0.2"/>
<path class="st80" d="M61.4,21.5L61.4,21.5 M59.3,21.1L59.3,21.1"/>
<path class="st115" d="M41.7,11.6c0.2-0.1,0.3-0.4,0.5-0.6"/>
<path class="st30" d="M42.8,10.9c-0.2,0.3-0.5,0.7-0.8,0.9"/>
<path class="st80" d="M42.8,10.9L42.8,10.9 M41.7,11.6L41.7,11.6"/>
<path class="st117" d="M43.5,8.9c-0.5,0.2-0.8,0.1-1-0.1"/>
<path class="st118" d="M42.5,7.8C42.8,8,42.9,8.2,43,8.4"/>
<path class="st80" d="M42.5,7.8L42.5,7.8 M43.5,8.9L43.5,8.9"/>
<path class="st74" d="M43.9,6.6c-0.4,0-0.4-0.4-0.3-0.9"/>
<path class="st19" d="M44.1,4.8C44,5.1,44,5.4,44,5.7"/>
<path class="st80" d="M44.1,4.8L44.1,4.8 M43.9,6.6L43.9,6.6"/>
<path class="st119" d="M36.6,28.5c0-0.1,0.3-0.2,0.5-0.3"/>
<path class="st120" d="M37.5,28.6c0.1,0.3-0.2,0.4-0.4,0.4"/>
<path class="st80" d="M37.5,28.6L37.5,28.6 M36.6,28.5L36.6,28.5"/>
<path class="st121" d="M52.4,4.6c-0.2,0-0.5,0-0.7-0.1"/>
<path class="st122" d="M51,4.5c0.1-0.3,0.4-0.4,0.7-0.4"/>
<path class="st80" d="M51,4.5L51,4.5 M52.4,4.6L52.4,4.6"/>
<path class="st123" d="M16.8,46.8c0,0.3-0.2,0.5-0.4,0.5"/>
<path class="st124" d="M15.8,46.9c0.1,0,0.4-0.2,0.6-0.3"/>
<path class="st80" d="M15.8,46.9L15.8,46.9 M16.8,46.8L16.8,46.8"/>
<path class="st125" d="M44.2,68.3c0-0.2,0.1-0.5,0.2-0.7"/>
<path class="st126" d="M45,67.7c-0.1,0.2-0.1,0.4-0.2,0.5"/>
<path class="st80" d="M45,67.7L45,67.7 M44.2,68.3L44.2,68.3"/>
<path class="st123" d="M6.9,41.3C7,41,7.2,40.9,7.4,40.8"/>
<path class="st127" d="M8.2,40.9c-0.1,0.2-0.3,0.3-0.6,0.4"/>
<path class="st80" d="M8.2,40.9L8.2,40.9 M6.9,41.3L6.9,41.3"/>
<path class="st126" d="M15.4,46.9c-0.2,0.2-0.3,0.2-0.5,0.2"/>
<path class="st128" d="M14.4,46.9c0.1-0.2,0.3-0.3,0.6-0.4"/>
<path class="st80" d="M14.4,46.9L14.4,46.9 M15.4,46.9L15.4,46.9"/>
<path class="st129" d="M52.7,48.4c0,0.2-0.1,0.3-0.2,0.5"/>
<path class="st120" d="M52,49.1c-0.2-0.2-0.1-0.5,0.1-0.7"/>
<path class="st80" d="M52,49.1L52,49.1 M52.7,48.4L52.7,48.4"/>
<path class="st130" d="M53.3,48.9c-0.1-0.3,0.1-0.4,0.4-0.4"/>
<path class="st131" d="M54.1,48.9c-0.1,0.1-0.3,0.2-0.5,0.3"/>
<path class="st80" d="M54.1,48.9L54.1,48.9 M53.3,48.9L53.3,48.9"/>
<path class="st111" d="M65.6,39.7c0.2-0.4,0.5-0.4,0.7-0.3"/>
<path class="st132" d="M66.4,40c0-0.3-0.2-0.3-0.3-0.2"/>
<path class="st80" d="M66.4,40L66.4,40 M65.6,39.7L65.6,39.7"/>
<path class="st133" d="M38.6,28c0,0.1,0,0.3-0.2,0.4"/>
<path class="st127" d="M38.1,28.5c-0.4-0.1-0.3-0.3-0.1-0.5"/>
<path class="st80" d="M38.1,28.5L38.1,28.5 M38.6,28L38.6,28"/>
<path class="st134" d="M53.7,72.6c-0.2,0.1-0.6,0.2-0.9,0.1"/>
<path class="st122" d="M51.9,72.2c0.3,0.1,0.6,0.1,0.9,0.2"/>
<path class="st80" d="M51.9,72.2L51.9,72.2 M53.7,72.6L53.7,72.6"/>
<path class="st56" d="M51.3,51c0.2,0.4-0.2,0.6-0.6,0.7"/>
<path class="st135" d="M50.9,51.3c-0.3-0.1-0.2-0.2,0-0.2"/>
<path class="st80" d="M50.9,51.3L50.9,51.3 M51.3,51L51.3,51"/>
<path class="st136" d="M51.3,8.2c-0.2,0.1-0.3,0.2-0.4,0.3"/>
<path class="st137" d="M50.5,8.8c-0.5-0.5-0.4-0.6-0.1-0.6"/>
<path class="st80" d="M50.5,8.8L50.5,8.8 M51.3,8.2L51.3,8.2"/>
<path class="st138" d="M56.9,43.5c0.1,0.4-0.2,0.5-0.5,0.5"/>
<path class="st113" d="M55.7,43.5c0.3-0.1,0.4,0.1,0.6,0.2"/>
<path class="st80" d="M55.7,43.5L55.7,43.5 M56.9,43.5L56.9,43.5"/>
<path class="st119" d="M53.4,51.3c0.1-0.2,0.3-0.3,0.5-0.3"/>
<path class="st126" d="M54.5,51.3c-0.2,0.1-0.4,0.2-0.5,0.2"/>
<path class="st80" d="M54.5,51.3L54.5,51.3 M53.4,51.3L53.4,51.3"/>
<path class="st100" d="M62.5,33.6c-0.3,0.3-0.5,0.5-0.6,0.5"/>
<line class="st132" x1="61.5" y1="33.6" x2="62" y2="33.6"/>
<path class="st80" d="M61.5,33.6L61.5,33.6 M62.5,33.6L62.5,33.6"/>
<path class="st139" d="M65.3,41.6c0,0.1-0.2,0.2-0.5,0.2"/>
<path class="st129" d="M64.4,41.5c0.2-0.1,0.3-0.2,0.5-0.2"/>
<path class="st80" d="M64.4,41.5L64.4,41.5 M65.3,41.6L65.3,41.6"/>
<path class="st130" d="M39.6,9.8c-0.2,0.1-0.4,0.1-0.7,0"/>
<path class="st140" d="M38.4,9.5c0.2,0,0.5,0,0.7,0"/>
<path class="st80" d="M38.4,9.5L38.4,9.5 M39.6,9.8L39.6,9.8"/>
<path class="st141" d="M63.3,41.8c0-0.3,0.1-0.4,0.3-0.4"/>
<path class="st107" d="M64.1,41.8c-0.1,0.1-0.3,0.1-0.4,0.2"/>
<path class="st80" d="M64.1,41.8L64.1,41.8 M63.3,41.9L63.3,41.9"/>
<path class="st142" d="M31.1,24.5c-0.2-0.1-0.3-0.3-0.2-0.5"/>
<path class="st142" d="M31.1,23.5c0.2,0.2,0.2,0.3,0.2,0.5"/>
<path class="st80" d="M31.1,23.5L31.1,23.5 M31.1,24.5L31.1,24.5"/>
<path class="st143" d="M29.6,67.8c0,0.1-0.3,0.1-0.6,0.1"/>
<path class="st144" d="M28.4,67.7c0.2-0.2,0.3-0.2,0.6-0.1"/>
<path class="st80" d="M28.4,67.7L28.4,67.7 M29.6,67.8L29.6,67.8"/>
<path class="st145" d="M38.7,66.9c0.2-0.1,0.4,0,0.5,0.2"/>
<path class="st146" d="M39.1,67.6c-0.1-0.1-0.2-0.2-0.3-0.3"/>
<path class="st80" d="M39.1,67.6L39.1,67.6 M38.7,66.9L38.7,66.9"/>
<path class="st147" d="M42.6,14.6c0.1-0.2,0.2-0.4,0.3-0.3"/>
<path class="st148" d="M43.2,14.6c-0.1,0.1-0.2,0.2-0.3,0.2"/>
<path class="st80" d="M43.2,14.6L43.2,14.6 M42.6,14.6L42.6,14.6"/>
<path class="st129" d="M46.9,5.4c0.1,0,0.3,0.1,0.4,0.3"/>
<path class="st149" d="M47.3,6.1c0-0.1-0.2-0.2-0.3-0.3"/>
<path class="st80" d="M47.3,6.1L47.3,6.1 M46.9,5.4L46.9,5.4"/>
<path class="st150" d="M43.8,15.6c0-0.1,0-0.2-0.1-0.3"/>
<path class="st151" d="M43.7,14.9c0.3,0.1,0.4,0.2,0.4,0.3"/>
<path class="st80" d="M43.7,14.9L43.7,14.9 M43.8,15.6L43.8,15.6"/>
<path class="st152" d="M62.1,34.7c0-0.1,0-0.3,0.1-0.4"/>
<path class="st149" d="M62.6,34.2c0,0.2,0,0.3-0.1,0.4"/>
<path class="st80" d="M62.6,34.2L62.6,34.2 M62.1,34.7L62.1,34.7"/>
<path class="st153" d="M27.1,41.7c-0.2,0.1-0.3,0.1-0.4-0.1"/>
<path class="st154" d="M26.6,41.1c0.1,0.1,0.2,0.2,0.3,0.3"/>
<path class="st80" d="M26.6,41.1L26.6,41.1 M27.1,41.7L27.1,41.7"/>
<path class="st155" d="M53.1,48c0.1-0.1,0.2-0.2,0.3-0.2"/>
<path class="st156" d="M53.8,47.5c0,0.3,0,0.4-0.1,0.5"/>
<path class="st80" d="M53.8,47.5L53.8,47.5 M53.1,48L53.1,48"/>
<path class="st157" d="M24.6,46.1c0.1-0.1,0.2-0.2,0.3-0.2"/>
<path class="st158" d="M25.2,46c-0.1,0.1-0.2,0.2-0.3,0.2"/>
<path class="st80" d="M25.2,46L25.2,46 M24.6,46.1L24.6,46.1"/>
<path class="st159" d="M55.2,51.4c-0.2-0.1-0.3-0.1-0.3-0.2"/>
<path class="st157" d="M55,50.8c0.1,0.1,0.2,0.2,0.2,0.3"/>
<path class="st80" d="M55,50.8L55,50.8 M55.2,51.4L55.2,51.4"/>
<path class="st160" d="M54.1,5.3c0,0.1-0.3,0-0.5-0.1"/>
<path class="st116" d="M53.3,4.8c0.1,0.1,0.3,0.2,0.4,0.3"/>
<path class="st80" d="M53.3,4.8L53.3,4.8 M54.1,5.3L54.1,5.3"/>
<path class="st129" d="M32.7,23.4c0-0.1,0.2-0.2,0.4-0.2"/>
<line class="st161" x1="33.6" y1="23.4" x2="33.1" y2="23.4"/>
<path class="st80" d="M33.6,23.4L33.6,23.4 M32.7,23.4L32.7,23.4"/>
<path class="st107" d="M38.5,51.3c0.1,0.1,0.3,0.1,0.4,0.1"/>
<path class="st148" d="M39.1,51.8c-0.1-0.1-0.3-0.1-0.4-0.2"/>
<path class="st80" d="M39.1,51.8L39.1,51.8 M38.5,51.3L38.5,51.3"/>
<path class="st162" d="M49.6,4.1c0.1,0,0.2-0.1,0.2-0.2"/>
<path class="st157" d="M50.1,3.9C50,4.1,50,4.2,49.9,4.2"/>
<path class="st80" d="M50.1,3.9L50.1,3.9 M49.6,4.1L49.6,4.1"/>
<path class="st132" d="M22.8,44.4c-0.1,0.1-0.3,0-0.4-0.2"/>
<path class="st163" d="M22.4,43.8c0.1,0.1,0.1,0.2,0.2,0.3"/>
<path class="st80" d="M22.4,43.8L22.4,43.8 M22.8,44.4L22.8,44.4"/>
<path class="st164" d="M57.2,41.2c-0.1,0.1-0.1,0.2-0.1,0.2"/>
<path class="st148" d="M57.2,41.2c-0.3,0.2-0.4,0.2-0.3,0.1"/>
<path class="st80" d="M57.2,41.2L57.2,41.2 M57.2,41.2L57.2,41.2"/>
<path class="st101" d="M43.8,99.2c-0.4-1.1-0.4-2.9-0.8-4"/>
<path class="st117" d="M40.3,94.2c-0.9,0.5-1,1.8,0.9,1.8"/>
<path class="st99" d="M40.1,96.3c-1,0-2.3-0.1-3.5,0.2"/>
<path class="st70" d="M34,95.1c0-1.8,2.6-4.1,2.3-5.7"/>
<path class="st84" d="M33,88.2c0.5-0.8,0.8-0.9,1.2-0.7"/>
<path class="st24" d="M32.3,87.7c0.3-0.2,0.6-0.5,0.9-0.8"/>
<path class="st49" d="M32,84.5c-1,0.3-2.5,1.1-3.8,0.5"/>
<path class="st165" d="M25,82.7c-3.5-1.9-3.7,1.4-4.3,2.8"/>
<path class="st166" d="M20.2,86.6c-0.2,0-0.4-0.1-0.5-0.3"/>
<path class="st6" d="M18.7,85.1c0.2-1.1,1.1-2.6,1.2-3.7"/>
<path class="st36" d="M18.1,79.3c-1.3-0.3-2.8-0.7-2.5-1.8"/>
<path class="st21" d="M18.4,76.2c1.5,0,2,1.2,2.6,1.7"/>
<path class="st167" d="M23.3,78.2c0.2-0.1,0.2,0-0.4,0.5"/>
<path class="st122" d="M24,79c0.3,0,0.3,0-0.4,0.4"/>
<path class="st69" d="M21.6,80.6c0.8,0.4,2.5,0.7,3.6,0"/>
<path class="st79" d="M27.1,80.6c-0.7-0.8-0.5,1.6-0.7,0.7"/>
<path class="st26" d="M28.1,79.5c0,0.6,0,0.9,0,1.1"/>
<path class="st168" d="M29.4,80.9c-0.2,0.8-0.5,0.4-0.7-0.2"/>
<path class="st169" d="M30.4,82.7c-0.2-0.1-0.4-0.6-0.5-1.1"/>
<path class="st170" d="M31.6,80.3c0.3,0.5,0.2,1.1,0,1.5"/>
<path class="st62" d="M32.6,79.9c0.3,0.1,0.7,0.2,1.1,0.2"/>
<path class="st21" d="M36.3,78.2c0.3-0.2,0.6-0.4,0.9-0.5"/>
<path class="st58" d="M37.1,78.4c0.2,0,0.7,0,0.5,0.5"/>
<path class="st108" d="M38.5,78.8c0.1-0.3,0.3-0.6,0.4-0.8"/>
<path class="st51" d="M40,79.4c0.4,0,0.8,0.1,1.2,0"/>
<path class="st171" d="M44.1,78.4c0.3,0.1,0.7,0.2,1.1,0.2"/>
<path class="st172" d="M47.4,79.3c-1.1,0.6-4.3,1.5-4.1,2.6"/>
<path class="st63" d="M46.3,83.2c0.4,0.2,0.8,0.4,1.2,0.6"/>
<path class="st173" d="M50.5,85.9c0.2,0.5,0.4,0.9,0.4,1.2"/>
<path class="st174" d="M48.7,86.7c-0.5-1-0.2-0.8,0.3-0.4"/>
<path class="st31" d="M47.2,88.1c-0.6,0.8-0.7,1.6-0.4,2.8"/>
<path class="st67" d="M44.5,91c-0.5,0-0.9,0.2-1.3,0.4"/>
<path class="st175" d="M44,92.7c0.2,0.8-0.4,1.1-0.9,1"/>
<path class="st176" d="M44.7,92.1c0.1,0.6,0.1,1.1,0,1.4"/>
<path class="st177" d="M46.2,92.7c-0.2,1.1-0.5,1.2-0.9,0.9"/>
<path class="st75" d="M47.2,93.2c-0.3,0.6-0.5,0.7-0.7,0.5"/>
<path class="st91" d="M48.8,93.1c0.3,0.3,0.6,0.7,0.8,1.1"/>
<path class="st23" d="M48.5,96.3c-0.1-0.5,0.2-0.6,0.6-0.6"/>
<path class="st40" d="M51.2,96.8c0.6,0.1,1.1,0.2,1,0.7"/>
<path class="st35" d="M49.1,97.4c-0.3-0.3-0.6-0.6-1-0.8"/>
<path class="st98" d="M46.1,96.8c0-0.1,0-0.5,0.1-0.7"/>
<path class="st89" d="M43.8,96.5c0.3-0.4,0.8-0.6,1.3-0.5"/>
<path class="st15" d="M44.5,98.1c0.3,0.1,0.6-0.1,0.7-0.6"/>
<path class="st23" d="M46.1,98.2c0.4,0.2,0.6,0.4,0.5,0.8"/>
<path class="st80" d="M46,99.9L46,99.9 M45.1,96.6L45.1,96.6 M43.8,96.5L43.8,96.5 M46.1,96.8L46.1,96.8 M46.8,96.1L46.8,96.1
	 M51.4,98.6L51.4,98.6 M48.5,96.2L48.5,96.2 M50.2,95.4L50.2,95.4 M47.3,93.2L47.3,93.2 M46.2,92.6L46.2,92.6 M44.7,92.1L44.7,92.1
	 M44,92.7L44,92.7 M42.3,92.5L42.3,92.5 M47.1,91.8L47.1,91.8 M48.7,86.7L48.7,86.7 M50,87.2L50,87.2 M48.7,84L48.7,84 M43.9,82.6
	L43.9,82.6 M46.2,78.6L46.2,78.6 M42.4,79.2L42.4,79.2 M39.5,78.3L39.5,78.3 M37.2,79.7L37.2,79.7 M38.3,77.3L38.3,77.3 M34.6,79.5
	L34.6,79.5 M31.7,80.3L31.7,80.3 M30.4,82.6L30.4,82.6 M29.4,80.9L29.4,80.9 M28.1,79.5L28.1,79.5 M27.1,80.5L27.1,80.5 M26.1,79.6
	L26.1,79.6 M22.8,79.7L22.8,79.7 M22.2,79.2L22.2,79.2 M22.1,77.8L22.1,77.8 M16.4,76.7L16.4,76.7 M19.5,80.2L19.5,80.2 M20.2,86.6
	L20.2,86.6 M19.8,85.8L19.8,85.8 M27.1,84.2L27.1,84.2 M33.6,85.8L33.6,85.8 M33,88.2L33,88.2 M35.6,88.5L35.6,88.5 M35.6,96.8
	L35.6,96.8 M42.2,95.8L42.2,95.8 M42.3,94.2L42.3,94.2"/>
<path class="st172" d="M35.7,81.7c-0.2,0.8,0.9,1.8,2,1.9"/>
<path class="st177" d="M37.4,80.7c0.3,0.3,0.7,0.8,0.9,1.3"/>
<path class="st80" d="M37.4,80.7L37.4,80.7 M38.8,83.6L38.8,83.6"/>
<path class="st4" d="M27.4,82c0-0.3,0.4,0.2,0.9,0.7"/>
<path class="st7" d="M27.4,83.2c0.3,0.1,0.6,0.2,0.9,0.3"/>
<path class="st80" d="M29.2,83.5L29.2,83.5 M27.4,82L27.4,82"/>
<path class="st106" d="M45.7,86.3c0.3-0.1,0.8-0.1,1.2-0.1"/>
<path class="st96" d="M48.1,86.8c-0.4-0.1-0.8,0-1.2-0.1"/>
<path class="st80" d="M48.1,86.8L48.1,86.8 M45.7,86.3L45.7,86.3"/>
<path class="st25" d="M45,79.8c0.1,0.4-0.3,0.7-0.7,0.7"/>
<path class="st77" d="M43.3,80.1c0.3-0.1,0.6-0.1,0.9-0.2"/>
<path class="st80" d="M43.3,80.1L43.3,80.1 M45.1,79.8L45.1,79.8"/>
<path class="st128" d="M38.1,95.9c-0.2-0.2-0.2-0.4-0.2-0.6"/>
<path class="st127" d="M38.4,94.8c0.3,0.3,0.3,0.4,0.2,0.6"/>
<path class="st80" d="M38.4,94.8L38.4,94.8 M38.1,95.9L38.1,95.9"/>
<path class="st137" d="M35,80.4c-0.2,0.3-0.5,0.5-0.7,0.4"/>
<path class="st178" d="M34.1,80c0.2,0.1,0.3,0.1,0.4,0.2"/>
<path class="st80" d="M34.1,80L34.1,80 M35,80.4L35,80.4"/>
<path class="st126" d="M37.2,88.2c-0.1,0-0.3-0.2-0.3-0.4"/>
<path class="st119" d="M36.9,87.3c0.1,0.1,0.2,0.3,0.4,0.5"/>
<path class="st80" d="M36.9,87.3L36.9,87.3 M37.2,88.2L37.2,88.2"/>
<path class="st179" d="M42.2,87.3c-0.1,0-0.3,0.1-0.4,0.1"/>
<path class="st180" d="M41.6,87.2c0.1-0.1,0.3-0.2,0.4-0.2"/>
<path class="st80" d="M41.6,87.2L41.6,87.2 M42.2,87.3L42.2,87.3"/>
<path class="st148" d="M45.7,94.3c0.3,0.1,0.3,0.1,0.2,0.2"/>
<path class="st181" d="M45.7,94.9c-0.2-0.1-0.2-0.2-0.2-0.3"/>
<path class="st80" d="M45.7,94.9L45.7,94.9 M45.7,94.3L45.7,94.3"/>
<path class="st158" d="M35.2,82.8c0-0.2,0.1-0.2,0.3-0.2"/>
<path class="st182" d="M35.6,83c-0.1,0-0.1,0-0.2-0.1"/>
<path class="st80" d="M35.6,83L35.6,83 M35.2,82.9L35.2,82.9"/>
<path class="st183" d="M12.5,95c0.7-2.1,0.5-0.3,2.4-0.6"/>
<path class="st172" d="M17.7,93.5c0.7,0.4,0.8,1.7,2.1,2.2"/>
<path class="st30" d="M21.5,93.6c0.1-1.6-1.2-1.1,2-1.9"/>
<path class="st21" d="M23.5,89.9c0.4-0.5,1.8-0.7,3.1-0.1"/>
<path class="st184" d="M26.9,92.1c-0.6-0.9-0.2-0.9,0.3-0.9"/>
<path class="st167" d="M26.5,93.8c-0.2,0.3-0.3,0.5-0.5,0.8"/>
<path class="st171" d="M24,95.9c-0.4-0.1-0.6,0-0.4,0.7"/>
<path class="st184" d="M25.5,98.8c-1.1,0.2-0.7-0.3-0.5-0.7"/>
<path class="st171" d="M23.6,99.8c-0.4,0.1-0.7,0.2-1.1,0.2"/>
<path class="st87" d="M19.2,100.3c-1.8,0.8-3.8,2.2-4.1,4.3"/>
<path class="st35" d="M17.7,106.2c0.7,0.5-2,1.4-3.3,0.1"/>
<path class="st62" d="M12.6,106.8c-1.4,2.6,1.5,2.2,2.4,4.3"/>
<path class="st106" d="M13.1,112c0.3,0.1,0.7,0.4,1.1,0.6"/>
<path class="st96" d="M10.9,113c-0.4,0.2-0.8,0.2-1.2,0.1"/>
<path class="st20" d="M10.3,110.9c0.3-0.1,0.6-0.2,0.9-0.1"/>
<path class="st33" d="M10.7,110c-0.4,0-0.8,0-1.1,0.1"/>
<path class="st26" d="M7.8,107.9c0.4,0,0.6,0.3,0.6,0.7"/>
<path class="st36" d="M6.4,109.2c-1.2,0-2.6-0.6-2.5-1.8"/>
<path class="st42" d="M5.2,105.2c-0.3,0-0.5,0.5-0.5,0.9"/>
<path class="st185" d="M8.1,105.7c-0.4,0.4-1,0.5-1.5,0.4"/>
<path class="st186" d="M10.3,104.2c1.5-1.1,2.5-2.2,2-3.2"/>
<path class="st177" d="M12.6,99.9c-0.1,0.5-0.9,0.1-1.4-0.2"/>
<path class="st0" d="M13.1,98.3c-0.1-0.3-0.3-0.6-0.5-0.8"/>
<path class="st80" d="M11.9,97L11.9,97 M12.6,99.9L12.6,99.9 M11.3,100.2L11.3,100.2 M8.1,105.7L8.1,105.7 M5.2,105.2L5.2,105.2
	 M4.5,106.4L4.5,106.4 M7.8,107.9L7.8,107.9 M8.8,109.6L8.8,109.6 M12.1,111.2L12.1,111.2 M9,112.2L9,112.2 M13.1,112L13.1,112
	 M15.1,112.2L15.1,112.2 M13.9,105.1L13.9,105.1 M15.1,105.8L15.1,105.8 M21.6,99.8L21.6,99.8 M25.5,98.8L25.5,98.8 M24.1,97.6
	L24.1,97.6 M25.9,95.4L25.9,95.4 M26.9,92.1L26.9,92.1 M27.5,90.3L27.5,90.3 M24.6,91.5L24.6,91.5 M20.8,95.8L20.8,95.8 M15.9,94.2
	L15.9,94.2"/>
<path class="st1" d="M22.4,94.9c0.4,0.3,0.4,0.8,0.2,1.1"/>
<path class="st50" d="M21.8,96.8c-0.4-0.3-0.4-0.7-0.2-1.1"/>
<path class="st80" d="M21.8,96.8L21.8,96.8 M22.5,94.9L22.5,94.9"/>
<path class="st55" d="M9.5,105.9c-0.3,0.6-0.5,1-0.6,1.1"/>
<path class="st2" d="M8.1,106.6c-0.1-0.4,0.2-0.7,0.5-0.9"/>
<path class="st80" d="M8.1,106.6L8.1,106.6 M9.5,105.9L9.5,105.9"/>
<path class="st187" d="M14.6,98.7c0-0.3,0.3-1,0.8-1.4"/>
<path class="st102" d="M16.9,96.9c-0.6,0-0.9,0.4-1.2,0.8"/>
<path class="st80" d="M16.9,96.9L16.9,96.9 M14.6,98.7L14.6,98.7"/>
<path class="st147" d="M23.6,93.2c0,0.2-0.1,0.3-0.2,0.4"/>
<path class="st134" d="M22.9,93.7c-0.5-0.1-0.3-0.4,0-0.7"/>
<path class="st80" d="M22.9,93.7L22.9,93.7 M23.6,93.2L23.6,93.2"/>
<path class="st188" d="M24.1,93.2c0.1-0.3,0.3-0.4,0.5-0.3"/>
<path class="st189" d="M25.1,93.3c-0.2,0.2-0.4,0.2-0.5,0.2"/>
<path class="st80" d="M25.1,93.3L25.1,93.3 M24.1,93.2L24.1,93.2"/>
<path class="st119" d="M6.2,106.4c0-0.3,0.2-0.4,0.4-0.3"/>
<path class="st156" d="M7.1,106.5c-0.1,0.1-0.3,0.2-0.5,0.2"/>
<path class="st80" d="M7.1,106.5L7.1,106.5 M6.2,106.4L6.2,106.4"/>
<path class="st166" d="M14.1,110.1c-0.1,0.3-0.3,0.4-0.4,0.3"/>
<path class="st190" d="M13.3,110c0.1,0,0.2,0,0.4,0.1"/>
<path class="st80" d="M13.3,110L13.3,110 M14.1,110.1L14.1,110.1"/>
<path class="st2" d="M39,22.6c-0.2-0.3-0.4-0.6-0.6-0.9"/>
<path class="st49" d="M37.5,18.8c0.4,0.4-0.1,0.8-0.3,1.1"/>
<path class="st83" d="M38.3,18.6c0.1,0.6-0.3,0.2-0.6,0"/>
<path class="st191" d="M39,17.2c0.5,1.2,0.2,1.1-0.2,0.9"/>
<path class="st69" d="M40.6,17.6c-0.3,0.7-0.6,0.4-0.9,0"/>
<path class="st64" d="M42.2,17.6c0.4,0.2,0.7,0.2,0.8-0.1"/>
<path class="st17" d="M44.2,18.3c-0.1,0.4-0.2,0.7-0.5,1"/>
<path class="st68" d="M42.6,22.6c-0.4,0.3-0.8,0.4-1.4,0.5"/>
<path class="st80" d="M39.8,22.9L39.8,22.9 M42.9,20.1L42.9,20.1 M43.1,16.6L43.1,16.6 M40.6,17.6L40.6,17.6 M39,17.3L39,17.3
	 M38.3,18.6L38.3,18.6 M37.5,18.8L37.5,18.8 M37.8,20.8L37.8,20.8"/>
<path class="st192" d="M41.7,19.2c0.2,0.2-0.1,0.4-0.4,0.5"/>
<path class="st193" d="M40.4,19.7c0.2-0.1,0.4-0.3,0.5-0.4"/>
<path class="st80" d="M40.4,19.7L40.4,19.7 M41.6,19.2L41.6,19.2"/>
<path class="st160" d="M39.3,19.9c0.1-0.2,0.3-0.2,0.5-0.2"/>
<path class="st194" d="M40.4,19.8c-0.1,0.2-0.4,0.4-0.6,0.4"/>
<path class="st80" d="M40.4,19.8L40.4,19.8 M39.3,19.9L39.3,19.9"/>
<path class="st126" d="M43.5,17.6c0.1,0.1,0.1,0.3,0.1,0.5"/>
<path class="st156" d="M43.2,18.5c0-0.2-0.1-0.4,0-0.5"/>
<path class="st80" d="M43.2,18.5L43.2,18.5 M43.5,17.7L43.5,17.7"/>
<path class="st195" d="M27.7,72.1c-0.4,1-0.8,1.1-1.2,0.9"/>
<path class="st196" d="M29,71.5c-0.5-0.5-0.3,0.6-0.4,1.2"/>
<path class="st197" d="M30.8,73.5c-0.1-0.5-1-0.1-1.5-0.4"/>
<path class="st109" d="M30.3,76.2c0,0.3-0.2,0.7-0.8,1.1"/>
<path class="st36" d="M26.1,77.5c-0.7-0.2,0-0.4-2.1-2.6"/>
<path class="st33" d="M24.3,73.8c-0.2,0.4-0.6-0.2-0.8-0.5"/>
<path class="st176" d="M24.2,73.4c-0.1-1.2,0.3-0.9,0.5-0.4"/>
<path class="st198" d="M25.2,70.8c-0.3,0.1-0.8,0.6-1.1,1.2"/>
<path class="st199" d="M25.4,73.5c-0.5-0.5-0.6-0.9-0.5-1.3"/>
<path class="st80" d="M25.4,73.5L25.4,73.5 M25.2,70.8L25.2,70.8 M24.2,73.4L24.2,73.4 M24.3,73.8L24.3,73.8 M23.2,74.1L23.2,74.1
	 M28.3,78L28.3,78 M30.8,73.5L30.8,73.5 M29,71.5L29,71.5 M27.7,72.1L27.7,72.1"/>
<path class="st200" d="M27.5,74.4c0.1-0.2,0.3-0.4,0.5-0.5"/>
<path class="st201" d="M28.8,74c-0.1,0.2-0.3,0.4-0.6,0.5"/>
<path class="st80" d="M28.8,74L28.8,74 M27.5,74.4L27.5,74.4"/>
<path class="st151" d="M26.8,74.2c0.2,0.1,0.4,0.2,0.5,0.3"/>
<path class="st136" d="M27,74.9c-0.2-0.1-0.3-0.2-0.4-0.3"/>
<path class="st80" d="M27,74.9L27,74.9 M26.8,74.2L26.8,74.2"/>
<path class="st202" d="M20.6,102c-0.5-1.2-0.6-0.6-0.6-0.1"/>
<path class="st72" d="M22.9,102.2c0.4,0.2,0.8,0.3,1.1,0.3"/>
<path class="st22" d="M25,103.6c-0.2,0.2-0.5,0.6-0.7,1.1"/>
<path class="st203" d="M21.7,107.7c0.5-0.8,0.7-1,1-1.1"/>
<path class="st117" d="M22.3,105.8c-0.1-0.2-0.5,0-1,0.1"/>
<path class="st5" d="M19.6,105.1c-0.6,0.6,0,0.5,0.5,0.3"/>
<path class="st31" d="M19.6,103.3c-0.2-0.3-0.4-0.6-0.4-0.9"/>
<path class="st80" d="M19.7,101.6L19.7,101.6 M19.6,105.1L19.6,105.1 M20.3,105.8L20.3,105.8 M21.7,107.7L21.7,107.7 M24.1,106
	L24.1,106 M24.6,101.6L24.6,101.6 M20.6,102L20.6,102"/>
<path class="st114" d="M22.6,102.7c0.3,0,0.6,0.2,0.7,0.4"/>
<path class="st204" d="M23,103.9c-0.5,0-0.5-0.2-0.5-0.4"/>
<path class="st80" d="M23,103.9L23,103.9 M22.6,102.7L22.6,102.7"/>
<path class="st205" d="M20.8,103.1c0.2-0.2,0.3-0.3,0.5-0.3"/>
<path class="st206" d="M21.8,103c-0.2,0.3-0.3,0.4-0.5,0.4"/>
<path class="st80" d="M21.8,103L21.8,103 M20.8,103.1L20.8,103.1"/>
<path class="st2" d="M39.7,75.6c0-0.4,0-0.8-0.1-1.1"/>
<path class="st106" d="M41,73.4c-0.5,0.5-0.8,0.7-1,0.7"/>
<path class="st40" d="M43.4,74.3c-0.3-0.3-0.8-0.4-1.3-0.4"/>
<path class="st43" d="M42.7,75.1c0.6,1,0.9,1.1,1,0.8"/>
<path class="st207" d="M42.5,77.3c0.3-0.7,0-1.1-0.2-1.4"/>
<path class="st30" d="M41,78.6c-0.3-0.2-0.6-0.5-0.6-0.9"/>
<path class="st70" d="M40.3,74.8c0.9,0.1,0.9,0.3,0.8,0.6"/>
<path class="st208" d="M39.8,77.8c0.3-0.4,0.4-0.9,0.4-1.4"/>
<path class="st80" d="M39.8,77.8L39.8,77.8 M40.3,74.8L40.3,74.8 M40.5,76.5L40.5,76.5 M42.5,77.3L42.5,77.3 M42.7,75.1L42.7,75.1
	 M43.4,74.3L43.4,74.3 M40.9,73.4L40.9,73.4 M38.7,74L38.7,74"/>
<path class="st53" d="M70.5,43.3c-0.6,0-1,0-1.2,0"/>
<path class="st71" d="M69.9,45.2c-0.6,0.8-1.6,1.6-2.5,1.7"/>
<path class="st48" d="M65.6,45.5c0.2-0.3,0.5-0.5,0.8-0.6"/>
<path class="st112" d="M68.5,44.1c-1.1,0-1.2,0.1-1.1,0.2"/>
<path class="st80" d="M68.5,44.1L68.5,44.1 M67.5,45.1L67.5,45.1 M66.5,46.9L66.5,46.9 M70.5,43.3L70.5,43.3"/>
<path class="st32" d="M63.5,47.8c0.1-0.4,0.2-0.7,0.3-1"/>
<path class="st14" d="M65.3,47c-0.3-0.5-0.4-0.2-0.5,0"/>
<path class="st34" d="M65.2,48.8c-0.2,0.3-0.5,0.6-0.6,0.8"/>
<path class="st51" d="M64.4,51.1c-0.4-0.4,0-0.7,0.4-0.8"/>
<path class="st90" d="M63.1,51c-0.5,0.5,0,0.9,0.6,0.9"/>
<path class="st77" d="M62.2,49.7c-0.1-0.2-0.1-0.5,0.2-0.8"/>
<path class="st80" d="M62.9,48.2L62.9,48.2 M63,51L63,51 M64.4,51.1L64.4,51.1 M65.1,49.8L65.1,49.8 M65.3,47L65.3,47 M64.3,47.2
	L64.3,47.2"/>
<path class="st196" d="M12,94.8c-0.5-0.4-1,0-1.3,0.4"/>
<path class="st209" d="M11.6,96.5c0.1-0.2,0.1-0.5,0.2-0.8"/>
<path class="st28" d="M10.2,97.8c-0.3,0.2-0.6,0.2-1,0.3"/>
<path class="st47" d="M8.2,96.7c-0.5-0.2-0.7-0.5,0.1-0.9"/>
<path class="st80" d="M9.6,95.2L9.6,95.2 M8.2,98.1L8.2,98.1 M11.6,96.5L11.6,96.5 M12,94.8L12,94.8"/>
<path class="st112" d="M17,52.5c-0.6-0.8-0.8-0.7-0.9-0.5"/>
<path class="st50" d="M17.9,52.8c0.1,0.4,0.1,0.8,0,1.2"/>
<path class="st42" d="M15.6,54.2c-0.1-0.3-0.2-0.7-0.2-1.1"/>
<path class="st80" d="M15.6,52L15.6,52 M17.3,55L17.3,55 M17,52.5L17,52.5"/>
<path class="st139" d="M15.9,53.2c0.2,0,0.3,0.2,0.4,0.4"/>
<path class="st142" d="M16.4,54.1C16.1,54,16,53.9,16,53.7"/>
<path class="st80" d="M16.3,54.1L16.3,54.1 M15.8,53.2L15.8,53.2"/>
<path class="st177" d="M8.9,92.2c-0.8,0.3-1.3,0.1-1.5,0.4"/>
<path class="st99" d="M9.5,93.6c-0.5,0.5-0.6,0.2-0.7-0.3"/>
<path class="st69" d="M11,94c0.5-0.8,0.2-0.4-0.4-0.2"/>
<path class="st57" d="M9.1,95c-0.4,0-0.8-0.1-1.1-0.3"/>
<path class="st80" d="M7,94.1L7,94.1 M11,94.1L11,94.1 M9.5,93.6L9.5,93.6 M8.9,92.2L8.9,92.2"/>
<path class="st15" d="M8.6,99.4c-0.3,0.5-0.6,0.6-0.7,0.5"/>
<path class="st86" d="M8.6,101.1c0.4,0.8,0.5,0.3,0.4-0.4"/>
<path class="st20" d="M7.3,102.4c-0.3,0-0.5-0.2-0.6-0.6"/>
<path class="st109" d="M8.2,99c-0.3,0.4-0.8,0.5-1.2,0.7"/>
<path class="st80" d="M8.2,99L8.2,99 M6.6,100.8L6.6,100.8 M8.6,101.1L8.6,101.1 M8.6,99.4L8.6,99.4"/>
<path class="st92" d="M22.8,109.5c0,0.4-0.1,0.8-0.2,1.2"/>
<path class="st60" d="M20.5,110.9c0.1-1.2,1.3-2.9,1.3-1.5"/>
<path class="st80" d="M21.6,110.3L21.6,110.3 M21.9,111.6L21.9,111.6"/>
<path class="st32" d="M35.1,78.2c-0.7,0-1.8-0.7-2.9-1.2"/>
<path class="st39" d="M33.6,77c0.4,0.1,0.8,0.2,1.2,0.1"/>
<path class="st80" d="M35.8,76.5L35.8,76.5 M31.3,76.7L31.3,76.7"/>
<path class="st71" d="M27.5,97.1c0.3,0.2,0.6,0.3,0.9,0.6"/>
<path class="st134" d="M27,97.9c-0.3-0.2-0.5-0.3-0.8-0.5"/>
<path class="st80" d="M25.5,96.8L25.5,96.8 M28.7,98.6L28.7,98.6"/>
<path class="st24" d="M17.9,50c0.2,0.2,0.4,0.7,0.5,1.1"/>
<path class="st165" d="M19.1,51.9c-0.2,0.5-0.6,0.9-0.9,0.5"/>
<path class="st80" d="M17.9,51.2L17.9,51.2 M17.9,50L17.9,50"/>
<path class="st202" d="M28,108.1c-0.5,0.5,0.3,0.4,0.9,0"/>
<path class="st165" d="M29.3,106.9c-0.4,0.2-0.9,0.2-1.2,0.3"/>
<path class="st80" d="M29.3,106.9L29.3,106.9 M28,108.1L28,108.1"/>
<path class="st50" d="M19.4,107.4c-0.3,0.2-0.8,0.3-1.1,0.4"/>
<path class="st120" d="M18.6,106.8c-0.1,0.2-0.4,0.3-0.6,0.4"/>
<path class="st80" d="M18.6,106.8L18.6,106.8 M17.5,107.7L17.5,107.7"/>
<path class="st191" d="M30.5,78.4c0.6,0.2,1,0.5,1.4,0.7"/>
<path class="st203" d="M33.3,78.9c-0.3-0.1-0.9-0.4-1.4-0.7"/>
<path class="st80" d="M33.3,78.9L33.3,78.9 M30.5,78.4L30.5,78.4"/>
<path class="st53" d="M25.9,78.8c-0.3,0-0.7,0.3-1,0.6"/>
<path class="st33" d="M24.2,80.2c-0.6,0.2-1,0.1-0.7-0.2"/>
<path class="st80" d="M24.5,79.3L24.5,79.3 M25.9,78.8L25.9,78.8"/>
<path class="st91" d="M27.8,96.5c0.6,0.2,0.9,0.5,1.1,0.8"/>
<path class="st79" d="M29.8,98.3c0.5-0.3,0.1-0.9-0.4-1.4"/>
<path class="st80" d="M29.8,98.3L29.8,98.3 M27.9,96.5L27.9,96.5"/>
<path class="st18" d="M41.9,16.5c0-0.3-0.3-0.7-0.7-0.9"/>
<path class="st66" d="M40.1,15.4c0.3,0.2,0.5,0.6,0.8,0.9"/>
<path class="st80" d="M40.1,15.4L40.1,15.4 M41.9,16.5L41.9,16.5"/>
<path class="st53" d="M10.5,99.9c-0.2,0.3-0.1,0.8,0.1,1.2"/>
<path class="st60" d="M11.6,101.5c0-0.3-0.2-0.6-0.4-0.9"/>
<path class="st80" d="M11.6,101.5L11.6,101.5 M10.5,99.9L10.5,99.9"/>
<path class="st74" d="M9,99.5c0,0.3,0.1,0.7,0.1,1.1"/>
<path class="st40" d="M9.3,101.7c0.2-0.1,0.4-0.7,0.4-1.2"/>
<path class="st80" d="M9.3,101.7L9.3,101.7 M9,99.5L9,99.5"/>
<path class="st210" d="M45.1,23.2c1.2,0.4,1.3,0.1,0.8-0.2"/>
<path class="st142" d="M44.5,22.6c0,0.3,0,0.5,0,0.6"/>
<path class="st80" d="M44.5,22.6L44.5,22.6 M45.1,23.2L45.1,23.2"/>
<path class="st26" d="M20.2,76c0.2,0.2,0.6,0.2,1,0"/>
<path class="st32" d="M22.1,75.4c-0.4-0.1-0.7-0.1-1,0"/>
<path class="st80" d="M22.1,75.4L22.1,75.4 M20.2,76L20.2,76"/>
<path class="st52" d="M60.5,31.1c-0.4-0.3-0.7-0.3-1-0.1"/>
<path class="st138" d="M58.9,31.9c0.3-0.1,0.5-0.3,0.8-0.4"/>
<path class="st80" d="M58.9,31.9L58.9,31.9 M60.5,31.1L60.5,31.1"/>
<path class="st7" d="M5.5,95.2c0.7-0.1,0.6-0.2,0.2-0.3"/>
<path class="st211" d="M4.8,94.6c0.1,0.4,0.3,0.6,0.6,0.8"/>
<path class="st80" d="M4.8,94.6L4.8,94.6 M5.5,95.2L5.5,95.2"/>
<path class="st76" d="M67.8,43c0.4-0.1,0.7,0,1,0.1"/>
<path class="st23" d="M69.8,43.1c-0.2-0.2-0.6-0.3-1-0.3"/>
<path class="st80" d="M69.8,43.1L69.8,43.1 M67.8,43L67.8,43"/>
<path class="st153" d="M20.3,92.7c0.1,0.2,0.2,0.3,0.3,0.4"/>
<path class="st212" d="M21,93.3c0.2-0.2,0.1-0.5-0.1-0.6"/>
<path class="st80" d="M21,93.3L21,93.3 M20.3,92.7L20.3,92.7"/>
<path class="st135" d="M10.1,91.9c-0.3,0-0.3-0.2-0.3-0.3"/>
<path class="st2" d="M9.8,91.2c-0.3,0.3-0.5,0.7-0.5,1"/>
<path class="st80" d="M9.8,91.2L9.8,91.2 M10.1,91.9L10.1,91.9"/>
<path class="st213" d="M62.6,47.7c0.3,0,0.4-0.2,0.5-0.5"/>
<path class="st130" d="M63.1,46.5c-0.1,0.2-0.2,0.4-0.3,0.6"/>
<path class="st80" d="M63.1,46.5L63.1,46.5 M62.6,47.7L62.6,47.7"/>
<path class="st214" d="M6.4,97.1c0.2,0.2,0.3,0.4,0.4,0.5"/>
<path class="st215" d="M7.2,98.2c0.2-0.2,0.2-0.5-0.1-0.7"/>
<path class="st80" d="M7.2,98.2L7.2,98.2 M6.4,97.1L6.4,97.1"/>
<path class="st167" d="M27.5,92.5c-0.1,0.2-0.3,0.5-0.4,0.8"/>
<path class="st189" d="M27.5,93.7c0-0.2,0-0.4,0-0.6"/>
<path class="st80" d="M27.5,93.7L27.5,93.7 M27.5,92.5L27.5,92.5"/>
<path class="st216" d="M61.9,36.6c0.2,0.1,0.5,0,0.8-0.1"/>
<path class="st111" d="M63.5,36.2c-0.2-0.2-0.5-0.2-0.8,0"/>
<path class="st80" d="M63.5,36.2L63.5,36.2 M61.9,36.6L61.9,36.6"/>
<path class="st125" d="M46.2,24.4c-0.3,0-0.6,0-0.7,0"/>
<path class="st154" d="M45.7,25c0.1-0.1,0.2-0.2,0.2-0.3"/>
<path class="st80" d="M45.7,25L45.7,25 M46.2,24.4L46.2,24.4"/>
<path class="st190" d="M38.8,25.1c0.1,0.1,0.2,0.1,0.4,0"/>
<path class="st205" d="M39.6,25c-0.1-0.2-0.3-0.3-0.5-0.3"/>
<path class="st80" d="M39.6,25L39.6,25 M38.8,25.1L38.8,25.1"/>
<path class="st217" d="M21.7,107.1c-0.1-0.2-0.1-0.3-0.2-0.4"/>
<path class="st214" d="M21.3,106.2c-0.2,0.2-0.3,0.4-0.2,0.6"/>
<path class="st80" d="M21.3,106.2L21.3,106.2 M21.7,107.1L21.7,107.1"/>
<path class="st217" d="M18.9,81.7c0.1-0.1,0.2-0.2,0.3-0.3"/>
<path class="st218" d="M19.5,81c-0.2-0.1-0.4,0-0.6,0.1"/>
<path class="st80" d="M19.5,81L19.5,81 M18.9,81.7L18.9,81.7"/>
<path class="st124" d="M33.3,78.2c0-0.2-0.3-0.2-0.6-0.3"/>
<path class="st214" d="M32,77.8c0,0.2,0.2,0.3,0.5,0.3"/>
<path class="st80" d="M32,77.8L32,77.8 M33.3,78.2L33.3,78.2"/>
<path class="st219" d="M24.2,107.4c0.1,0.1,0.2,0.3,0.4,0.4"/>
<path class="st218" d="M24.9,108.2c0-0.2,0-0.4-0.2-0.6"/>
<path class="st80" d="M24.9,108.2L24.9,108.2 M24.2,107.4L24.2,107.4"/>
<path class="st206" d="M46,78.4c0.1-0.2,0-0.3-0.3-0.5"/>
<path class="st220" d="M45.1,77.6c-0.1,0.2,0.1,0.3,0.3,0.4"/>
<path class="st80" d="M45.1,77.6L45.1,77.6 M46,78.4L46,78.4"/>
<path class="st133" d="M43.2,96.3c-0.2,0-0.3,0.1-0.4,0"/>
<path class="st128" d="M43,96c-0.4,0-0.4,0.2-0.3,0.4"/>
<path class="st80" d="M43,96L43,96 M43.2,96.3L43.2,96.3"/>
<path class="st221" d="M51,96.7c0.1-0.2,0-0.3-0.2-0.3"/>
<path class="st221" d="M50.3,96.1c-0.1,0.2,0,0.3,0.2,0.3"/>
<path class="st80" d="M50.3,96.1L50.3,96.1 M51,96.7L51,96.7"/>
<path class="st219" d="M9.9,101.8c0.2-0.1,0.4-0.2,0.4-0.3"/>
<path class="st217" d="M10.3,101c-0.2,0-0.2,0.1-0.3,0.3"/>
<path class="st80" d="M10.3,101L10.3,101 M9.9,101.8L9.9,101.8"/>
<path class="st178" d="M43.6,76.9c-0.2-0.1-0.4-0.1-0.4,0"/>
<path class="st222" d="M43,77.3c0.1,0,0.2,0,0.3-0.2"/>
<path class="st80" d="M43,77.3L43,77.3 M43.6,76.9L43.6,76.9"/>
<path class="st150" d="M8.6,43c0.1,0.1,0.2,0.1,0.3,0"/>
<path class="st157" d="M9,42.7c-0.1-0.2-0.2-0.1-0.3,0"/>
<path class="st80" d="M9,42.7L9,42.7 M8.6,43L8.6,43"/>
<path class="st178" d="M25.9,106.4c-0.1,0.2,0,0.2,0.2,0.3"/>
<path class="st178" d="M26.5,107c0.1-0.2,0-0.2-0.2-0.3"/>
<path class="st80" d="M26.5,107L26.5,107 M25.9,106.4L25.9,106.4"/>
<path class="st22" d="M63,40.5c0.4-0.2,0.4-0.7,0.2-1.2"/>
<path class="st223" d="M62,40.4c0-0.6,0.2-0.8,0.5-0.7"/>
<path class="st79" d="M62.7,38c-0.6,0.1-1.2,0.5-1.4,0.9"/>
<path class="st80" d="M62.7,38L62.7,38 M62,40.4L62,40.4 M63,40.5L63,40.5"/>
<path class="st83" d="M50.2,20.9c0.3-0.1,0.7-0.3,1-0.2"/>
<path class="st97" d="M50.4,22c0.4,0,0.6-0.1,0.8-0.3"/>
<path class="st80" d="M50.4,22L50.4,22 M51.9,21.2L51.9,21.2"/>
<path class="st224" d="M50.7,21.6c0.1-0.1,0.1-0.2,0.2-0.3"/>
<path class="st150" d="M51.1,21.4c-0.1,0.1-0.1,0.2-0.2,0.3"/>
<path class="st80" d="M51.1,21.4L51.1,21.4 M50.7,21.6L50.7,21.6"/>
<path class="st75" d="M58.2,24.6c-0.2,0.3-0.6,0.5-0.9,0.4"/>
<path class="st121" d="M57.4,23.1c0,0.3,0.1,0.5,0,0.7"/>
<path class="st80" d="M57.4,23.1L57.4,23.1 M57,24.2L57,24.2"/>
<path class="st100" d="M54.6,39.9c0.2-0.3,0-0.5,0-0.8"/>
<path class="st31" d="M53.6,39.4c0.2-0.3,0.4-0.5,0.7-0.7"/>
<path class="st80" d="M55.2,38.6L55.2,38.6 M54.6,39.9L54.6,39.9"/>
<path class="st102" d="M58.4,69.1c-0.1-1-0.5-0.7-0.8-0.2"/>
<path class="st101" d="M57.4,70.4c0.5,0.9,0.5,0.5,0.5-0.1"/>
<path class="st80" d="M57.4,70.4L57.4,70.4 M58.4,69.1L58.4,69.1"/>
<path class="st52" d="M27.3,51.3c0.2,0.3,0.5,0.6,0.6,0.9"/>
<path class="st52" d="M26.9,51.6c-0.3-0.3-0.5-0.6-0.7-0.9"/>
<path class="st80" d="M25.7,49.8L25.7,49.8 M28.5,53.2L28.5,53.2"/>
<path class="st94" d="M59.9,21.8c-0.3-0.4-0.7-0.6-1.2-0.7"/>
<path class="st94" d="M57.4,21.1c0.3,0.4,0.7,0.6,1.2,0.7"/>
<path class="st80" d="M57.4,21.1L57.4,21.1 M59.9,21.8L59.9,21.8"/>
<path class="st101" d="M31.6,33.8c0,0.5,0.3,0.8,0.7,1"/>
<path class="st96" d="M33.6,35.1c-0.3-0.2-0.7-0.5-1-0.7"/>
<path class="st80" d="M33.6,35.1L33.6,35.1 M31.6,33.8L31.6,33.8"/>
<path class="st95" d="M60.8,36.6c0.8-0.3,0.7-0.9,0.4-1.1"/>
<path class="st107" d="M60.2,36.3c0.1,0,0.3-0.1,0.4-0.1"/>
<path class="st80" d="M60.2,36.3L60.2,36.3 M60.8,36.6L60.8,36.6"/>
<path class="st108" d="M29.6,22.1c-0.2-0.2-0.5,0-0.8,0.2"/>
<path class="st32" d="M28.1,22.9c0.4,0.2,0.7,0.2,1,0.1"/>
<path class="st80" d="M28.1,22.9L28.1,22.9 M29.6,22.1L29.6,22.1"/>
<path class="st111" d="M51.2,48.4c0.2-0.2,0.4-0.4,0.6-0.6"/>
<path class="st42" d="M52.5,47.1c-0.5,0-0.8,0.1-1,0.3"/>
<path class="st80" d="M52.5,47.1L52.5,47.1 M51.2,48.4L51.2,48.4"/>
<path class="st117" d="M60.1,42.8c0-0.3-0.5-0.4-0.9-0.3"/>
<path class="st116" d="M59.2,43.3c0.2-0.1,0.3-0.1,0.4-0.2"/>
<path class="st80" d="M59.2,43.3L59.2,43.3 M60.1,42.8L60.1,42.8"/>
<path class="st26" d="M59.3,21.1c0.4,0.1,0.7,0.1,1,0.2"/>
<path class="st8" d="M61.4,21.5c-0.2-0.3-0.6-0.4-1-0.5"/>
<path class="st80" d="M61.4,21.5L61.4,21.5 M59.3,21.1L59.3,21.1"/>
<path class="st30" d="M41.7,11.6c-0.5,0.6-0.1,0.5,0.3,0.1"/>
<path class="st115" d="M42.8,10.9c-0.3-0.2-0.5-0.1-0.6,0.1"/>
<path class="st80" d="M42.8,10.9L42.8,10.9 M41.7,11.6L41.7,11.6"/>
<path class="st118" d="M43.5,8.9C43.1,8.8,43,8.6,43,8.4"/>
<path class="st117" d="M42.5,7.8c-0.1,0.4-0.1,0.8,0,1"/>
<path class="st80" d="M42.5,7.8L42.5,7.8 M43.5,8.9L43.5,8.9"/>
<path class="st19" d="M43.9,6.6C44,6.3,44,6,44,5.7"/>
<path class="st74" d="M44.1,4.8c-0.2,0.1-0.4,0.5-0.5,0.9"/>
<path class="st80" d="M44.1,4.8L44.1,4.8 M43.9,6.6L43.9,6.6"/>
<path class="st120" d="M36.6,28.5C36.5,28.8,36.8,29,37,29"/>
<path class="st119" d="M37.5,28.6c0.1-0.3-0.1-0.4-0.3-0.3"/>
<path class="st80" d="M37.5,28.6L37.5,28.6 M36.6,28.5L36.6,28.5"/>
<path class="st126" d="M44.2,68.3c0.3,0.1,0.4,0,0.5-0.1"/>
<path class="st125" d="M45,67.7c-0.1-0.4-0.4-0.3-0.5-0.1"/>
<path class="st80" d="M45,67.7L45,67.7 M44.2,68.3L44.2,68.3"/>
<path class="st120" d="M52.7,48.4c-0.2-0.2-0.5-0.1-0.6,0.1"/>
<path class="st129" d="M52,49.1c0.1-0.1,0.3-0.2,0.5-0.3"/>
<path class="st80" d="M52,49.1L52,49.1 M52.7,48.4L52.7,48.4"/>
<path class="st131" d="M53.3,48.9c-0.1,0.3,0.1,0.4,0.3,0.3"/>
<path class="st130" d="M54.1,48.9c0-0.2-0.2-0.3-0.5-0.4"/>
<path class="st80" d="M54.1,48.9L54.1,48.9 M53.3,48.9L53.3,48.9"/>
<path class="st115" d="M66.1,39.3c-0.6,0.4-0.6,0.4-0.4,0.5"/>
<path class="st160" d="M66.4,40c0.3,0,0.3-0.2,0.2-0.4"/>
<path class="st80" d="M66.4,40L66.4,40 M66.1,39.3L66.1,39.3"/>
<path class="st127" d="M38.6,28c-0.1-0.2-0.4-0.1-0.6,0"/>
<path class="st133" d="M38.1,28.5c0.2,0,0.3,0,0.4-0.1"/>
<path class="st80" d="M38.1,28.5L38.1,28.5 M38.6,28L38.6,28"/>
<path class="st122" d="M53.7,72.6c-0.3-0.1-0.6-0.1-0.9-0.2"/>
<path class="st134" d="M51.9,72.2c0.1,0.2,0.5,0.3,0.8,0.4"/>
<path class="st80" d="M51.9,72.2L51.9,72.2 M53.7,72.6L53.7,72.6"/>
<path class="st135" d="M51.3,51c-0.1,0-0.3,0.1-0.5,0.1"/>
<path class="st56" d="M50.9,51.3c-0.9,0.3-0.5,0.4-0.1,0.4"/>
<path class="st80" d="M50.9,51.3L50.9,51.3 M51.3,51L51.3,51"/>
<path class="st113" d="M56.9,43.5c-0.2,0.3-0.4,0.2-0.6,0.1"/>
<path class="st138" d="M55.7,43.5c0.1,0.3,0.4,0.5,0.7,0.5"/>
<path class="st80" d="M55.7,43.5L55.7,43.5 M56.9,43.5L56.9,43.5"/>
<path class="st126" d="M53.4,51.3c0.2,0.2,0.3,0.2,0.5,0.2"/>
<path class="st119" d="M54.5,51.3c0-0.2-0.3-0.3-0.5-0.2"/>
<path class="st80" d="M54.5,51.3L54.5,51.3 M53.4,51.3L53.4,51.3"/>
<line class="st132" x1="62.5" y1="33.6" x2="62" y2="33.6"/>
<path class="st100" d="M61.5,33.6c0.2,0.5,0.2,0.6,0.4,0.5"/>
<path class="st80" d="M61.5,33.6L61.5,33.6 M62.5,33.6L62.5,33.6"/>
<path class="st129" d="M65.3,41.6c-0.2-0.2-0.3-0.3-0.4-0.3"/>
<path class="st139" d="M64.4,41.5c0,0.2,0.2,0.3,0.4,0.3"/>
<path class="st80" d="M64.4,41.5L64.4,41.5 M65.3,41.6L65.3,41.6"/>
<path class="st140" d="M39.6,9.8c-0.1-0.3-0.3-0.4-0.5-0.4"/>
<path class="st130" d="M38.4,9.5c0.1,0.1,0.3,0.3,0.6,0.3"/>
<path class="st80" d="M38.4,9.5L38.4,9.5 M39.6,9.8L39.6,9.8"/>
<path class="st107" d="M63.3,41.8c0.1,0.1,0.2,0.2,0.4,0.1"/>
<path class="st141" d="M64.1,41.8c-0.1-0.2-0.3-0.4-0.5-0.4"/>
<path class="st80" d="M64.1,41.8L64.1,41.8 M63.3,41.9L63.3,41.9"/>
<path class="st142" d="M31.1,24.5c0.1-0.2,0.2-0.3,0.2-0.5"/>
<path class="st142" d="M31.1,23.5c-0.1,0.2-0.2,0.4-0.2,0.5"/>
<path class="st80" d="M31.1,23.5L31.1,23.5 M31.1,24.5L31.1,24.5"/>
<path class="st148" d="M42.6,14.6c0.1,0.2,0.2,0.3,0.3,0.2"/>
<path class="st147" d="M43.2,14.6c-0.1-0.2-0.2-0.3-0.3-0.3"/>
<path class="st80" d="M43.2,14.6L43.2,14.6 M42.6,14.6L42.6,14.6"/>
<path class="st149" d="M46.9,5.4c-0.1,0.1,0,0.3,0.1,0.4"/>
<path class="st129" d="M47.3,6.1c0.2-0.1,0.1-0.3,0-0.4"/>
<path class="st80" d="M47.3,6.1L47.3,6.1 M46.9,5.4L46.9,5.4"/>
<path class="st151" d="M43.8,15.6c0.2-0.1,0.3-0.2,0.3-0.4"/>
<path class="st150" d="M43.7,14.9c0,0.1,0,0.2,0.1,0.3"/>
<path class="st80" d="M43.7,14.9L43.7,14.9 M43.8,15.6L43.8,15.6"/>
<path class="st149" d="M62.1,34.7c0.2,0,0.3,0,0.4-0.1"/>
<path class="st152" d="M62.6,34.2c-0.1-0.1-0.3,0-0.4,0.1"/>
<path class="st80" d="M62.6,34.2L62.6,34.2 M62.1,34.7L62.1,34.7"/>
<path class="st156" d="M53.1,48c0.2,0.1,0.4,0.1,0.5,0"/>
<path class="st155" d="M53.7,47.5c-0.1,0.1-0.2,0.2-0.3,0.2"/>
<path class="st80" d="M53.8,47.5L53.8,47.5 M53.1,48L53.1,48"/>
<path class="st158" d="M24.6,46.1c0.1,0.2,0.2,0.2,0.3,0.2"/>
<path class="st157" d="M25.2,46c-0.1-0.1-0.2-0.2-0.3-0.2"/>
<path class="st80" d="M25.2,46L25.2,46 M24.6,46.1L24.6,46.1"/>
<path class="st157" d="M55.2,51.4c0.2-0.1,0.2-0.2,0.1-0.3"/>
<path class="st159" d="M55,50.8c-0.2,0.2-0.2,0.2-0.2,0.3"/>
<path class="st80" d="M55,50.8L55,50.8 M55.2,51.4L55.2,51.4"/>
<path class="st135" d="M32.7,23.3c0,0.2,0.2,0.2,0.4,0.2"/>
<path class="st153" d="M33.6,23.4c0-0.2-0.2-0.2-0.4-0.2"/>
<path class="st80" d="M33.6,23.4L33.6,23.4 M32.7,23.3L32.7,23.3"/>
<path class="st148" d="M38.5,51.3c-0.1,0.2,0,0.2,0.2,0.3"/>
<path class="st107" d="M39.1,51.8c0.1-0.2,0-0.2-0.2-0.3"/>
<path class="st80" d="M39.1,51.8L39.1,51.8 M38.5,51.3L38.5,51.3"/>
<path class="st157" d="M49.6,4.1c0.2,0.1,0.3,0.1,0.3,0.1"/>
<path class="st162" d="M50.1,3.9c-0.1-0.1-0.2-0.1-0.2,0"/>
<path class="st80" d="M50.1,3.9L50.1,3.9 M49.6,4.1L49.6,4.1"/>
<path class="st133" d="M22.7,44.5c0.1-0.1,0-0.2,0-0.3"/>
<path class="st225" d="M22.4,43.8c-0.2,0.1-0.2,0.2,0,0.3"/>
<path class="st80" d="M22.4,43.8L22.4,43.8 M22.7,44.5L22.7,44.5"/>
<path class="st155" d="M56.7,41.7c0.1,0.1,0.2,0,0.3-0.1"/>
<path class="st154" d="M57.2,41.2c-0.1-0.1-0.2,0-0.3,0.1"/>
<path class="st80" d="M57.2,41.2L57.2,41.2 M56.7,41.7L56.7,41.7"/>
<path class="st96" d="M45.7,86.3c0.3,0.3,0.7,0.3,1.1,0.3"/>
<path class="st106" d="M48.1,86.8c-0.1-0.3-0.6-0.4-1.1-0.5"/>
<path class="st80" d="M48.1,86.8L48.1,86.8 M45.7,86.3L45.7,86.3"/>
<path class="st127" d="M38.1,95.9c0.2-0.2,0.4-0.3,0.5-0.5"/>
<path class="st128" d="M38.4,94.8c-0.2,0-0.4,0.2-0.5,0.5"/>
<path class="st80" d="M38.4,94.8L38.4,94.8 M38.1,95.9L38.1,95.9"/>
<path class="st178" d="M35,80.4c-0.1-0.1-0.3-0.1-0.4-0.2"/>
<path class="st137" d="M34.1,80c-0.1,0.5,0,0.7,0.1,0.8"/>
<path class="st80" d="M34.1,80L34.1,80 M35,80.4L35,80.4"/>
<path class="st119" d="M37.2,88.2c0.3-0.1,0.2-0.3,0-0.5"/>
<path class="st126" d="M36.9,87.3c-0.1,0.2,0,0.4,0,0.6"/>
<path class="st80" d="M36.9,87.3L36.9,87.3 M37.2,88.2L37.2,88.2"/>
<path class="st180" d="M42.2,87.3c0.1-0.3,0-0.3-0.2-0.3"/>
<path class="st179" d="M41.6,87.2c0,0.2,0.1,0.2,0.3,0.2"/>
<path class="st80" d="M41.6,87.2L41.6,87.2 M42.2,87.3L42.2,87.3"/>
<path class="st181" d="M45.7,94.3c-0.2,0.1-0.3,0.1-0.3,0.2"/>
<path class="st148" d="M45.7,94.9c0.1-0.1,0.3-0.2,0.3-0.3"/>
<path class="st80" d="M45.7,94.9L45.7,94.9 M45.7,94.3L45.7,94.3"/>
<path class="st182" d="M35.2,82.8c0.1,0,0.1,0.1,0.2,0.1"/>
<path class="st158" d="M35.6,83c0.1-0.1,0-0.2-0.1-0.3"/>
<path class="st80" d="M35.6,83L35.6,83 M35.2,82.9L35.2,82.9"/>
<path class="st50" d="M22.4,94.9c-0.3,0.1-0.7,0.4-0.9,0.8"/>
<path class="st1" d="M21.8,96.8c0.4-0.1,0.8-0.4,0.9-0.7"/>
<path class="st80" d="M21.8,96.8L21.8,96.8 M22.5,94.9L22.5,94.9"/>
<path class="st2" d="M9.5,105.9c-0.1-0.4-0.5-0.4-0.9-0.2"/>
<path class="st55" d="M8.1,106.6c0.8-0.5,0.4,0.9,0.8,0.4"/>
<path class="st80" d="M8.1,106.6L8.1,106.6 M9.5,105.9L9.5,105.9"/>
<path class="st102" d="M14.6,98.7c0.5-0.1,0.8-0.6,1.1-1"/>
<path class="st187" d="M16.9,96.9c-0.4-0.3-1,0-1.5,0.4"/>
<path class="st80" d="M16.9,96.9L16.9,96.9 M14.6,98.7L14.6,98.7"/>
<path class="st134" d="M23.6,93.2c-0.1-0.4-0.5-0.3-0.8-0.1"/>
<path class="st147" d="M22.9,93.7c0.1,0,0.3-0.1,0.5-0.2"/>
<path class="st80" d="M22.9,93.7L22.9,93.7 M23.6,93.2L23.6,93.2"/>
<path class="st189" d="M24.1,93.2c0.2,0.1,0.4,0.3,0.5,0.3"/>
<path class="st188" d="M25.1,93.3c-0.2-0.2-0.4-0.3-0.5-0.4"/>
<path class="st80" d="M25.1,93.3L25.1,93.3 M24.1,93.2L24.1,93.2"/>
<path class="st156" d="M6.2,106.4c0.1,0.2,0.3,0.2,0.4,0.2"/>
<path class="st119" d="M7.1,106.5c-0.1-0.1-0.3-0.3-0.5-0.3"/>
<path class="st80" d="M7.1,106.5L7.1,106.5 M6.2,106.4L6.2,106.4"/>
<path class="st190" d="M14.1,110.1c-0.1,0-0.3,0-0.4-0.1"/>
<path class="st166" d="M13.3,110c-0.1,0.2,0.1,0.4,0.3,0.4"/>
<path class="st80" d="M13.3,110L13.3,110 M14.1,110.1L14.1,110.1"/>
<path class="st216" d="M41.7,19.5c0-0.4-0.3-0.4-0.6-0.3"/>
<path class="st124" d="M40.4,19.7c0.2,0.1,0.4,0.1,0.7,0"/>
<path class="st80" d="M40.4,19.7L40.4,19.7 M41.7,19.5L41.7,19.5"/>
<path class="st194" d="M39.3,19.9c0,0.3,0.3,0.4,0.5,0.4"/>
<path class="st160" d="M40.4,19.8c-0.2,0-0.4-0.1-0.6-0.1"/>
<path class="st80" d="M40.4,19.8L40.4,19.8 M39.3,19.9L39.3,19.9"/>
<path class="st156" d="M43.5,17.6c-0.2,0.1-0.3,0.2-0.3,0.4"/>
<path class="st126" d="M43.2,18.5c0.2,0.1,0.3-0.1,0.3-0.3"/>
<path class="st80" d="M43.2,18.5L43.2,18.5 M43.5,17.7L43.5,17.7"/>
<path class="st204" d="M22.6,102.7c0,0.2-0.1,0.5-0.1,0.8"/>
<path class="st114" d="M23,103.9c0.3-0.2,0.4-0.5,0.3-0.7"/>
<path class="st80" d="M23,103.9L23,103.9 M22.6,102.7L22.6,102.7"/>
<path class="st206" d="M20.8,103.1c0.2,0.2,0.4,0.3,0.5,0.3"/>
<path class="st205" d="M21.8,103c-0.2-0.2-0.4-0.3-0.5-0.3"/>
<path class="st80" d="M21.8,103L21.8,103 M20.8,103.1L20.8,103.1"/>
<path class="st142" d="M15.9,53.2c0.1,0.2,0.1,0.4,0.1,0.5"/>
<path class="st139" d="M16.4,54.1c0-0.2,0-0.4-0.1-0.6"/>
<path class="st80" d="M16.3,54.1L16.3,54.1 M15.8,53.2L15.8,53.2"/>
<path class="st224" d="M39.7,32.1c0.2-0.1,0.1-0.2,0-0.3"/>
<path class="st224" d="M39.5,31.6c-0.2,0.1-0.1,0.2,0,0.3"/>
<path class="st80" d="M39.5,31.6L39.5,31.6 M39.7,32.1L39.7,32.1"/>
<path class="st150" d="M50.7,21.6c0.1,0.1,0.2,0.1,0.3,0"/>
<path class="st224" d="M51.1,21.4c-0.1-0.1-0.2-0.1-0.3,0"/>
<path class="st80" d="M51.1,21.4L51.1,21.4 M50.7,21.6L50.7,21.6"/>
</svg>
