<?xml version="1.0" encoding="UTF-8"?>
<svg id="Layer_2" data-name="Layer 2" xmlns="http://www.w3.org/2000/svg" viewBox="0 0 23.27 7.15">
  <path d="M22.36,2.47c-.25,.14-.82,.37-.83,.59-.02,.49-.16,.92-.5,1.2-.17,.14-.59-.03-.78-.1-.1-.04-.45-.38-.54-.27-.1,.12,.03,.52,.1,.63,.1,.17,.69,.3,.49,.4-.26,.13-.53,.02-.89-.11-.23-.08-.57-.28-.85-.29-.1,.2,.54,.69,.27,.83-.22,.12-.52-.22-.67-.38-.44-.46-1.06-.54-1.64-.55-.27,0-.12,.49-.27,.67-.23,.29-.76,.07-1.09-.14-.39-.24-.86-.1-1.08,.23-.49,.74-.47,.83-1.15,.28-.46-.38-.68-.2-.99,.24-.07,.1-.16,.26-.26,.34-.43,.35-.69,.04-.96-.42-.34-.56-.48-.22-1,.19-.2,.16-.79-.07-.99,.09-.45,.37-1.01,.62-1.22,.11-.22-.53-.03-.78-.47-.38-.17,.15-.42,.21-.59,.36-.46,.4-.6,.55-.87,.01-.16-.32-.42-.74-.8-.69-.52,.08-1.05,.12-1.6,.28-.46,.13-.72,.64-1.13,.87-.63,.35-.79-.12-.95-.8-.29-1.24,.22-1.78,1.31-2.42,.39-.23,.71-.63,1.15-.74,1.2-.3,2.29-1.37,3.59-1.34,.2,0,.54,.66,.72,.58,.16-.07,.15-.89,.31-.9,1.21-.03,2.43,.66,3.64,.69,.32,0,.74-.02,1.06-.15,.14-.05,.24-.43,.38-.41,.85,.16,1.6,.06,2.43,.04,.55-.01,1.08-.22,1.68-.25,1.54-.08,2.71-.06,3.63,1.26,.19,.28,.88,.29,1.33,.44" style="fill: #e0662c;"/>
  <path d="M21.53,3.06c0-.12,.17-.24,.37-.35" style="fill: none; stroke: #e0662c; stroke-dasharray: 0 0 0 1.04; stroke-linecap: round; stroke-linejoin: round; stroke-width: 1.1px;"/>
  <path d="M21.03,4.25c.18-.14,.3-.33,.38-.54" style="fill: none; stroke: #e0662c; stroke-dasharray: 0 0 0 1.34; stroke-linecap: round; stroke-linejoin: round; stroke-width: 1.1px;"/>
  <path d="M20.25,4.16c.09,.03,.24,.09,.38,.12" style="fill: none; stroke: #e0662c; stroke-dasharray: 0 0 0 .81; stroke-linecap: round; stroke-linejoin: round; stroke-width: 1.1px;"/>
  <path d="M19.71,3.89c.05-.06,.16,.01,.28,.09" style="fill: none; stroke: #e0662c; stroke-dasharray: 0 0 0 .63; stroke-linecap: round; stroke-linejoin: round; stroke-width: 1.1px;"/>
  <path d="M19.81,4.51c-.03-.05-.08-.18-.11-.31" style="fill: none; stroke: #e0662c; stroke-dasharray: 0 0 0 .66; stroke-linecap: round; stroke-linejoin: round; stroke-width: 1.1px;"/>
  <path d="M20.3,4.91c.12-.06-.03-.12-.19-.2" style="fill: none; stroke: #e0662c; stroke-dasharray: 0 0 0 .71; stroke-linecap: round; stroke-linejoin: round; stroke-width: 1.1px;"/>
  <path d="M19.41,4.8c.16,.06,.3,.11,.44,.14" style="fill: none; stroke: #e0662c; stroke-dasharray: 0 0 0 .92; stroke-linecap: round; stroke-linejoin: round; stroke-width: 1.1px;"/>
  <path d="M18.56,4.51c.13,0,.28,.06,.43,.12" style="fill: none; stroke: #e0662c; stroke-dasharray: 0 0 0 .9; stroke-linecap: round; stroke-linejoin: round; stroke-width: 1.1px;"/>
  <path d="M18.83,5.34c.14-.07,.03-.24-.09-.41" style="fill: none; stroke: #e0662c; stroke-dasharray: 0 0 0 .95; stroke-linecap: round; stroke-linejoin: round; stroke-width: 1.1px;"/>
  <path d="M18.17,4.96c.07,.08,.18,.19,.29,.28" style="fill: none; stroke: #e0662c; stroke-dasharray: 0 0 0 .82; stroke-linecap: round; stroke-linejoin: round; stroke-width: 1.1px;"/>
  <path d="M16.53,4.41c.29,0,.59,.03,.88,.11" style="fill: none; stroke: #e0662c; stroke-dasharray: 0 0 0 1.77; stroke-linecap: round; stroke-linejoin: round; stroke-width: 1.1px;"/>
  <path d="M16.26,5.08c.07-.08,.07-.23,.08-.37" style="fill: none; stroke: #e0662c; stroke-dasharray: 0 0 0 .78; stroke-linecap: round; stroke-linejoin: round; stroke-width: 1.1px;"/>
  <path d="M15.17,4.94c.15,.1,.35,.19,.54,.24" style="fill: none; stroke: #e0662c; stroke-dasharray: 0 0 0 1.19; stroke-linecap: round; stroke-linejoin: round; stroke-width: 1.1px;"/>
  <path d="M14.09,5.17c.11-.17,.29-.29,.49-.33" style="fill: none; stroke: #e0662c; stroke-dasharray: 0 0 0 1.22; stroke-linecap: round; stroke-linejoin: round; stroke-width: 1.1px;"/>
  <path d="M12.95,5.45c.36,.29,.52,.4,.67,.33" style="fill: none; stroke: #e0662c; stroke-dasharray: 0 0 0 1.57; stroke-linecap: round; stroke-linejoin: round; stroke-width: 1.1px;"/>
  <path d="M11.96,5.69c.15-.22,.28-.37,.43-.43" style="fill: none; stroke: #e0662c; stroke-dasharray: 0 0 0 1.23; stroke-linecap: round; stroke-linejoin: round; stroke-width: 1.1px;"/>
  <path d="M11.7,6.03s.1-.1,.14-.16" style="fill: none; stroke: #e0662c; stroke-dasharray: 0 0 0 .43; stroke-linecap: round; stroke-linejoin: round; stroke-width: 1.1px;"/>
  <path d="M10.74,5.62c.13,.21,.25,.39,.39,.49" style="fill: none; stroke: #e0662c; stroke-dasharray: 0 0 0 1.26; stroke-linecap: round; stroke-linejoin: round; stroke-width: 1.1px;"/>
  <path d="M9.74,5.81c.22-.17,.37-.33,.5-.42" style="fill: none; stroke: #e0662c; stroke-dasharray: 0 0 0 1.3; stroke-linecap: round; stroke-linejoin: round; stroke-width: 1.1px;"/>
  <path d="M8.75,5.9c.1-.08,.3-.06,.49-.04" style="fill: none; stroke: #e0662c; stroke-dasharray: 0 0 0 1.01; stroke-linecap: round; stroke-linejoin: round; stroke-width: 1.1px;"/>
  <path d="M7.53,6.01c.12,.28,.34,.33,.59,.26" style="fill: none; stroke: #e0662c; stroke-dasharray: 0 0 0 1.45; stroke-linecap: round; stroke-linejoin: round; stroke-width: 1.1px;"/>
  <path d="M7.06,5.62c.27-.25,.3-.25,.34-.08" style="fill: none; stroke: #e0662c; stroke-dasharray: 0 0 0 .96; stroke-linecap: round; stroke-linejoin: round; stroke-width: 1.1px;"/>
  <path d="M6.48,5.98c.08-.07,.19-.12,.29-.18" style="fill: none; stroke: #e0662c; stroke-dasharray: 0 0 0 .69; stroke-linecap: round; stroke-linejoin: round; stroke-width: 1.1px;"/>
  <path d="M5.61,6c.15,.3,.26,.38,.41,.33" style="fill: none; stroke: #e0662c; stroke-dasharray: 0 0 0 1.16; stroke-linecap: round; stroke-linejoin: round; stroke-width: 1.1px;"/>
  <path d="M4.81,5.31c.19-.03,.36,.07,.49,.22" style="fill: none; stroke: #e0662c; stroke-dasharray: 0 0 0 1.12; stroke-linecap: round; stroke-linejoin: round; stroke-width: 1.1px;"/>
  <path d="M3.21,5.58c.27-.08,.53-.13,.79-.17" style="fill: none; stroke: #e0662c; stroke-dasharray: 0 0 0 1.62; stroke-linecap: round; stroke-linejoin: round; stroke-width: 1.1px;"/>
  <path d="M2.08,6.46c.21-.11,.37-.3,.54-.47" style="fill: none; stroke: #e0662c; stroke-dasharray: 0 0 0 1.44; stroke-linecap: round; stroke-linejoin: round; stroke-width: 1.1px;"/>
  <path d="M1.13,5.66c.07,.3,.14,.56,.26,.73" style="fill: none; stroke: #e0662c; stroke-dasharray: 0 0 0 1.56; stroke-linecap: round; stroke-linejoin: round; stroke-width: 1.1px;"/>
  <path d="M2.44,3.24c-.53,.31-.93,.6-1.16,.96" style="fill: none; stroke: #e0662c; stroke-dasharray: 0 0 0 3.04; stroke-linecap: round; stroke-linejoin: round; stroke-width: 1.1px;"/>
  <path d="M3.59,2.5c-.22,.06-.41,.18-.6,.33" style="fill: none; stroke: #e0662c; stroke-dasharray: 0 0 0 1.37; stroke-linecap: round; stroke-linejoin: round; stroke-width: 1.1px;"/>
  <path d="M5.35,1.71c.29-.15,.58-.29,.88-.39" style="fill: none; stroke: #e0662c; stroke-dasharray: 0 0 0 1.93; stroke-linecap: round; stroke-linejoin: round; stroke-width: 1.1px;"/>
  <path d="M7.89,1.74c-.09,.04-.23-.12-.36-.28" style="fill: none; stroke: #e0662c; stroke-dasharray: 0 0 0 .95; stroke-linecap: round; stroke-linejoin: round; stroke-width: 1.1px;"/>
  <path d="M8.2,.85c-.08,0-.12,.22-.16,.44" style="fill: none; stroke: #e0662c; stroke-dasharray: 0 0 0 .98; stroke-linecap: round; stroke-linejoin: round; stroke-width: 1.1px;"/>
  <path d="M10.03,1.17c.3,.08,.6,.17,.9,.24" style="fill: none; stroke: #e0662c; stroke-dasharray: 0 0 0 1.86; stroke-linecap: round; stroke-linejoin: round; stroke-width: 1.1px;"/>
  <path d="M12.91,1.39c-.16,.06-.34,.1-.53,.12" style="fill: none; stroke: #e0662c; stroke-dasharray: 0 0 0 1.08; stroke-linecap: round; stroke-linejoin: round; stroke-width: 1.1px;"/>
  <path d="M13.29,.98c-.07-.01-.14,.08-.2,.19" style="fill: none; stroke: #e0662c; stroke-dasharray: 0 0 0 .58; stroke-linecap: round; stroke-linejoin: round; stroke-width: 1.1px;"/>
  <path d="M15.72,1.02c-.42,.01-.82,.04-1.22,.05" style="fill: none; stroke: #e0662c; stroke-dasharray: 0 0 0 2.43; stroke-linecap: round; stroke-linejoin: round; stroke-width: 1.1px;"/>
  <path d="M17.4,.76c-.29,.02-.57,.07-.84,.13" style="fill: none; stroke: #e0662c; stroke-dasharray: 0 0 0 1.7; stroke-linecap: round; stroke-linejoin: round; stroke-width: 1.1px;"/>
  <path d="M19.42,.86c.33,.08,.63,.22,.91,.43" style="fill: none; stroke: #e0662c; stroke-dasharray: 0 0 0 2.03; stroke-linecap: round; stroke-linejoin: round; stroke-width: 1.1px;"/>
  <path d="M22.36,2.47c-.21-.07-.46-.11-.7-.16" style="fill: none; stroke: #e0662c; stroke-dasharray: 0 0 0 1.43; stroke-linecap: round; stroke-linejoin: round; stroke-width: 1.1px;"/>
  <path d="M22.36,2.47h0m-1.33-.44h0m-3.63-1.26h0m-1.68,.25h0m-2.43-.04h0m-.38,.41h0m-1.06,.15h0m-3.65-.69h0m-.31,.9h0m-.72-.58h0m-3.59,1.34h0m-1.15,.74h0m-1.31,2.42h0m.95,.8h0m1.13-.87h0m1.6-.28h0m.8,.69h0m.87-.02h0m.59-.36h0m.47,.38h0m1.22-.11h0m.99-.09h0m1-.19h0m.96,.42h0m.26-.34h0m.99-.24h0m1.15-.28h0m1.08-.23h0m1.09,.14h0m.27-.67h0m1.64,.55h0m.67,.38h0m-.27-.84h0m.85,.29h0m.89,.11h0m-.49-.4h0m-.1-.63h0m.54,.27h0m.78,.1h0m.5-1.2h0" style="fill: none; stroke: #e0662c; stroke-linecap: round; stroke-linejoin: round; stroke-width: 1.1px;"/>
</svg>