<?xml version="1.0" encoding="UTF-8"?>
<svg id="Layer_2" data-name="Layer 2" xmlns="http://www.w3.org/2000/svg" viewBox="0 0 7.89 10.15">
  <path d="M4.74,2.4c.05-.06,0-.15,.09-.2,.04,.18,.03,.21-.09,.2m-.63-1.15c.05-.01,.01-.05,0-.09-.07,.02-.02,.05,0,.09m2.34,2.83s-.07,.06-.11,.1c.1,0,.11,0,.11-.1m-.03-.8c.06-.05,.02-.12-.06-.13l.06,.13m-2.92-.82c-.02-.05,.07-.13,0-.15-.03,.06-.08,.11,0,.15m3.39,2.77c.02-.06,.07-.11,0-.12-.05,.06-.1,.09,0,.12m-1.18-.42c.09-.02-.03,2.97,.05,2.95-.04-.07,.04-3.05-.05-2.95m-2.09,.1c.03-.06,.01-.09-.02-.14-.08,.07-.13,.15,.02,.14m2.66-1.42c-.12,.07,0,.16,.03,.25,.07-.04-.02-.16-.03-.25m-4.09-.09c-.1,.05-.38,2.74-.44,2.86m3.99-2.48c-.23,.04,.02,.28,.16,.16-.01-.09-.04-.25-.16-.16m-2.04,.06c-.2,.06-.05,.44-.12,.61,.11,.27,.1-.48,.12-.61m-2.05-.13c-.15,.16-.42,1.44-.38,1.55M5.53,2.1c.12,.59,.54,1.32,.61,2.01,.12-.14-.43-1.82-.61-2.01m-.39-.66c.04,.82,.26,1.73,.35,2.58,.05-.18-.28-2.5-.35-2.58m-.63,0c-.34-.28-.66,1.48-.52,1.8,.27-.57,.33-1.4,.52-1.8m.24,.74c.08-1.67-.17,1.09-.06,1.76,.12-.56,.43,.64,.5,1.83-.1,.06-.24-4.95-.39-4.35,.07,.31,.13,.54-.06,.76M2.35,7.51c.08-.17,.47-3.25,.47-3.43-.11,.26,.18,2.04,.29,2.96M.76,5.43c2.33-11.43,11.5,2.78,2.48,3.99-2.47-1.19-2.91-.89-2.48-3.99" style="fill: #e0662c;"/>
  <path d="M1.39,3.27c2.83-6.88,9.51,3.89,2.95,5.91" style="fill: none; stroke: #e0662c; stroke-dasharray: 0 0 0 2.25; stroke-linecap: round; stroke-linejoin: round; stroke-width: 1.16px;"/>
  <path d="M.88,8.09c-.21-.29-.29-.68-.26-1.31" style="fill: none; stroke: #e0662c; stroke-dasharray: 0 0 0 2.73; stroke-linecap: round; stroke-linejoin: round; stroke-width: 1.16px;"/>
  <path d="M.76,5.43H.76m2.48,3.99h0" style="fill: none; stroke: #e0662c; stroke-linecap: round; stroke-linejoin: round; stroke-width: 1.16px;"/>
  <path d="M2.82,4.08c0,.09-.1,.91-.21,1.72" style="fill: none; stroke: #e0662c; stroke-dasharray: 0 0 0 3.47; stroke-linecap: round; stroke-linejoin: round; stroke-width: 1.16px;"/>
  <path d="M3.11,7.04c-.05-.4-.13-.95-.2-1.48" style="fill: none; stroke: #e0662c; stroke-dasharray: 0 0 0 2.98; stroke-linecap: round; stroke-linejoin: round; stroke-width: 1.16px;"/>
  <path d="M3.11,7.04h0m-.29-2.96h0m-.47,3.43h0" style="fill: none; stroke: #e0662c; stroke-linecap: round; stroke-linejoin: round; stroke-width: 1.16px;"/>
  <path d="M4.7,3.94c-.05-.27-.04-.88,0-1.41" style="fill: none; stroke: #e0662c; stroke-dasharray: 0 0 0 2.82; stroke-linecap: round; stroke-linejoin: round; stroke-width: 1.16px;"/>
  <path d="M5.2,5.77c-.02-.38-.07-.77-.13-1.1" style="fill: none; stroke: #e0662c; stroke-dasharray: 0 0 0 2.22; stroke-linecap: round; stroke-linejoin: round; stroke-width: 1.16px;"/>
  <path d="M5.03,3.54c-.02-.39-.05-.78-.07-1.12" style="fill: none; stroke: #e0662c; stroke-dasharray: 0 0 0 2.24; stroke-linecap: round; stroke-linejoin: round; stroke-width: 1.16px;"/>
  <path d="M4.75,2.18c.1-.12,.13-.24,.13-.37" style="fill: none; stroke: #e0662c; stroke-dasharray: 0 0 0 .8; stroke-linecap: round; stroke-linejoin: round; stroke-width: 1.16px;"/>
  <path d="M4.75,2.18h0m.06-.76h0m.39,4.35h0m-.5-1.83h0" style="fill: none; stroke: #e0662c; stroke-linecap: round; stroke-linejoin: round; stroke-width: 1.16px;"/>
  <path d="M3.98,3.24c-.06-.15-.03-.6,.06-1.01" style="fill: none; stroke: #e0662c; stroke-dasharray: 0 0 0 2.05; stroke-linecap: round; stroke-linejoin: round; stroke-width: 1.16px;"/>
  <path d="M4.51,1.44c-.1,.21-.17,.55-.25,.91" style="fill: none; stroke: #e0662c; stroke-dasharray: 0 0 0 1.88; stroke-linecap: round; stroke-linejoin: round; stroke-width: 1.16px;"/>
  <path d="M4.51,1.44h0m-.53,1.8h0" style="fill: none; stroke: #e0662c; stroke-linecap: round; stroke-linejoin: round; stroke-width: 1.16px;"/>
  <path d="M5.49,4.03c-.05-.42-.12-.86-.19-1.29" style="fill: none; stroke: #e0662c; stroke-dasharray: 0 0 0 2.61; stroke-linecap: round; stroke-linejoin: round; stroke-width: 1.16px;"/>
  <path d="M5.14,1.44s.14,.66,.22,1.29" style="fill: none; stroke: #e0662c; stroke-dasharray: 0 0 0 2.61; stroke-linecap: round; stroke-linejoin: round; stroke-width: 1.16px;"/>
  <path d="M5.14,1.44h0m.35,2.58h0" style="fill: none; stroke: #e0662c; stroke-linecap: round; stroke-linejoin: round; stroke-width: 1.16px;"/>
  <path d="M6.14,4.11c-.03-.33-.15-.68-.27-1.01" style="fill: none; stroke: #e0662c; stroke-dasharray: 0 0 0 2.1; stroke-linecap: round; stroke-linejoin: round; stroke-width: 1.16px;"/>
  <path d="M5.53,2.1c.08,.09,.26,.53,.4,.98" style="fill: none; stroke: #e0662c; stroke-dasharray: 0 0 0 2.12; stroke-linecap: round; stroke-linejoin: round; stroke-width: 1.16px;"/>
  <path d="M5.53,2.1h0m.61,2.01h0" style="fill: none; stroke: #e0662c; stroke-linecap: round; stroke-linejoin: round; stroke-width: 1.16px;"/>
  <path d="M1.27,5.27c-.02-.06,.05-.43,.13-.79" style="fill: none; stroke: #e0662c; stroke-dasharray: 0 0 0 1.61; stroke-linecap: round; stroke-linejoin: round; stroke-width: 1.16px;"/>
  <path d="M1.27,5.27h0m.39-1.56h0" style="fill: none; stroke: #e0662c; stroke-linecap: round; stroke-linejoin: round; stroke-width: 1.16px;"/>
  <path d="M3.58,4.46c.04-.08,.02-.21,.02-.33" style="fill: none; stroke: #e0662c; stroke-dasharray: 0 0 0 .66; stroke-linecap: round; stroke-linejoin: round; stroke-width: 1.16px;"/>
  <path d="M3.71,3.85c-.01,.06-.02,.22-.03,.38" style="fill: none; stroke: #e0662c; stroke-dasharray: 0 0 0 .76; stroke-linecap: round; stroke-linejoin: round; stroke-width: 1.16px;"/>
  <path d="M3.71,3.85h0m-.12,.61h0" style="fill: none; stroke: #e0662c; stroke-linecap: round; stroke-linejoin: round; stroke-width: 1.16px;"/>
  <path d="M5.91,3.95c-.06,.05-.15,.03-.2,0" style="fill: none; stroke: #e0662c; stroke-dasharray: 0 0 0 .44; stroke-linecap: round; stroke-linejoin: round; stroke-width: 1.16px;"/>
  <path d="M5.75,3.79c.06-.04,.1-.02,.12,.02" style="fill: none; stroke: #e0662c; stroke-dasharray: 0 0 0 .29; stroke-linecap: round; stroke-linejoin: round; stroke-width: 1.16px;"/>
  <path d="M5.75,3.79h0m.16,.16h0" style="fill: none; stroke: #e0662c; stroke-linecap: round; stroke-linejoin: round; stroke-width: 1.16px;"/>
  <path d="M1.76,6.28c.03-.06,.11-.75,.2-1.44" style="fill: none; stroke: #e0662c; stroke-dasharray: 0 0 0 2.9; stroke-linecap: round; stroke-linejoin: round; stroke-width: 1.16px;"/>
  <path d="M1.76,6.28h0m.44-2.87h0" style="fill: none; stroke: #e0662c; stroke-linecap: round; stroke-linejoin: round; stroke-width: 1.16px;"/>
  <path d="M6.31,3.75s-.05-.09-.07-.13" style="fill: none; stroke: #e0662c; stroke-dasharray: 0 0 0 .29; stroke-linecap: round; stroke-linejoin: round; stroke-width: 1.16px;"/>
  <path d="M6.28,3.5s.02,.09,.03,.13" style="fill: none; stroke: #e0662c; stroke-dasharray: 0 0 0 .27; stroke-linecap: round; stroke-linejoin: round; stroke-width: 1.16px;"/>
  <path d="M6.28,3.5h0m.03,.25h0" style="fill: none; stroke: #e0662c; stroke-linecap: round; stroke-linejoin: round; stroke-width: 1.16px;"/>
  <path d="M3.61,4.78s.03,.04,.03,.07" style="fill: none; stroke: #e0662c; stroke-dasharray: 0 0 0 .15; stroke-linecap: round; stroke-linejoin: round; stroke-width: 1.16px;"/>
  <path d="M3.62,4.92c-.08,0-.1-.01-.09-.04" style="fill: none; stroke: #e0662c; stroke-dasharray: 0 0 0 .24; stroke-linecap: round; stroke-linejoin: round; stroke-width: 1.16px;"/>
  <path d="M3.62,4.92h0m-.02-.14h0" style="fill: none; stroke: #e0662c; stroke-linecap: round; stroke-linejoin: round; stroke-width: 1.16px;"/>
  <path d="M5.75,7.77s-.03-.74-.02-1.48" style="fill: none; stroke: #e0662c; stroke-dasharray: 0 0 0 2.96; stroke-linecap: round; stroke-linejoin: round; stroke-width: 1.16px;"/>
  <path d="M5.71,4.82s.04,.71,.04,1.47" style="fill: none; stroke: #e0662c; stroke-dasharray: 0 0 0 2.96; stroke-linecap: round; stroke-linejoin: round; stroke-width: 1.16px;"/>
  <path d="M5.71,4.82h0m.05,2.95h0" style="fill: none; stroke: #e0662c; stroke-linecap: round; stroke-linejoin: round; stroke-width: 1.16px;"/>
  <path d="M6.89,5.11s.04,.03,.03,.05" style="fill: none; stroke: #e0662c; stroke-dasharray: 0 0 0 .15; stroke-linecap: round; stroke-linejoin: round; stroke-width: 1.16px;"/>
  <path d="M6.89,5.24c-.06-.02-.07-.03-.06-.05" style="fill: none; stroke: #e0662c; stroke-dasharray: 0 0 0 .18; stroke-linecap: round; stroke-linejoin: round; stroke-width: 1.16px;"/>
  <path d="M6.89,5.24h0m0-.12h0" style="fill: none; stroke: #e0662c; stroke-linecap: round; stroke-linejoin: round; stroke-width: 1.16px;"/>
  <path d="M3.5,2.32s.04,.04,.02,.07" style="fill: none; stroke: #e0662c; stroke-dasharray: 0 0 0 .17; stroke-linecap: round; stroke-linejoin: round; stroke-width: 1.16px;"/>
  <path d="M3.5,2.47s-.05-.04-.04-.07" style="fill: none; stroke: #e0662c; stroke-dasharray: 0 0 0 .18; stroke-linecap: round; stroke-linejoin: round; stroke-width: 1.16px;"/>
  <path d="M3.5,2.47h0m0-.15h0" style="fill: none; stroke: #e0662c; stroke-linecap: round; stroke-linejoin: round; stroke-width: 1.16px;"/>
  <path d="M6.36,3.16s.07,.02,.08,.04" style="fill: none; stroke: #e0662c; stroke-dasharray: 0 0 0 .19; stroke-linecap: round; stroke-linejoin: round; stroke-width: 1.16px;"/>
  <path d="M6.42,3.29s-.02-.04-.03-.06" style="fill: none; stroke: #e0662c; stroke-dasharray: 0 0 0 .14; stroke-linecap: round; stroke-linejoin: round; stroke-width: 1.16px;"/>
  <path d="M6.42,3.29h0m-.06-.13h0" style="fill: none; stroke: #e0662c; stroke-linecap: round; stroke-linejoin: round; stroke-width: 1.16px;"/>
  <path d="M6.34,4.18s.04-.03,.05-.05" style="fill: none; stroke: #e0662c; stroke-dasharray: 0 0 0 .14; stroke-linecap: round; stroke-linejoin: round; stroke-width: 1.16px;"/>
  <path d="M6.45,4.08c0,.05,0,.08-.02,.09" style="fill: none; stroke: #e0662c; stroke-dasharray: 0 0 0 .19; stroke-linecap: round; stroke-linejoin: round; stroke-width: 1.16px;"/>
  <path d="M6.45,4.08h0m-.11,.1h0" style="fill: none; stroke: #e0662c; stroke-linecap: round; stroke-linejoin: round; stroke-width: 1.16px;"/>
  <path d="M4.11,1.16s.02,.04,.02,.05" style="fill: none; stroke: #e0662c; stroke-dasharray: 0 0 0 .11; stroke-linecap: round; stroke-linejoin: round; stroke-width: 1.16px;"/>
  <path d="M4.11,1.26s-.03-.04-.03-.05" style="fill: none; stroke: #e0662c; stroke-dasharray: 0 0 0 .12; stroke-linecap: round; stroke-linejoin: round; stroke-width: 1.16px;"/>
  <path d="M4.11,1.26h0m0-.09h0" style="fill: none; stroke: #e0662c; stroke-linecap: round; stroke-linejoin: round; stroke-width: 1.16px;"/>
  <path d="M4.83,2.21s-.05,.06-.06,.09" style="fill: none; stroke: #e0662c; stroke-dasharray: 0 0 0 .22; stroke-linecap: round; stroke-linejoin: round; stroke-width: 1.16px;"/>
  <path d="M4.74,2.4c.07,0,.1,0,.1-.06" style="fill: none; stroke: #e0662c; stroke-dasharray: 0 0 0 .28; stroke-linecap: round; stroke-linejoin: round; stroke-width: 1.16px;"/>
  <path d="M4.74,2.4h0m.09-.2h0" style="fill: none; stroke: #e0662c; stroke-linecap: round; stroke-linejoin: round; stroke-width: 1.16px;"/>
</svg>