<?xml version="1.0" encoding="UTF-8"?>
<svg id="Layer_2" data-name="Layer 2" xmlns="http://www.w3.org/2000/svg" viewBox="0 0 14.67 19.76">
  <path d="M5.77,17.81c.03-.16-.23-.42-.15-.7,.38-1.3-.17-2.72-.08-4.05,.09-1.3,.28-2.89,1.29-3.9,.43-.43,1.05-.63,1.48-1.08,.07-.08,.34-.58,.26-.68-.1-.14-.74-.25-.85-.21-.78,.31-1.49,1.01-2.12,1.56-1.11,.96-2.38,1.45-3.67,2.1-.42,.21-.69,.43-.83,.15-.17-.33,.48-.41,.65-.5,1.55-.77,3.12-1.51,4.59-2.42,1.3-.82,2.32-2.04,3.43-3.07,1.11-1.03,2.26-2.03,3.33-3.12,.12-.12,.4-.89,.63-.69,.22,.19-.25,.71-.41,.91-.91,1.19-1.93,2.24-2.99,3.28-.49,.48-.7,1.28-1.2,1.76-.09,.09-.8,.24-.63,.42,.35,.38,.7,.9,1.15,1.2,1.03,.7,2.21,1.3,2.56,2.46,.32,1.04-.5,1.95-1.2,2.82-.35,.43-.71,.97-.94,1.46-.36,.77-.32,1.77-.84,2.41-.76,.93-2.02,.87-3.14,.8-.62-.04-.35-.17-.33-.93" style="fill: #e0662c;"/>
  <path d="M5.62,17.12c-.04,.12,0,.24,.04,.35" style="fill: none; stroke: #e0662c; stroke-dasharray: 0 0 0 .73; stroke-linecap: round; stroke-linejoin: round; stroke-width: 1.1px;"/>
  <path d="M5.69,15.1c-.04-.34-.09-.67-.12-1.01" style="fill: none; stroke: #e0662c; stroke-dasharray: 0 0 0 2.04; stroke-linecap: round; stroke-linejoin: round; stroke-width: 1.1px;"/>
  <path d="M5.84,10.99c.09-.34,.21-.67,.37-.98" style="fill: none; stroke: #e0662c; stroke-dasharray: 0 0 0 2.1; stroke-linecap: round; stroke-linejoin: round; stroke-width: 1.1px;"/>
  <path d="M8.31,8.08c-.22,.23-.48,.39-.74,.55" style="fill: none; stroke: #e0662c; stroke-dasharray: 0 0 0 1.84; stroke-linecap: round; stroke-linejoin: round; stroke-width: 1.1px;"/>
  <path d="M8.57,7.4c.04,.05-.01,.21-.08,.35" style="fill: none; stroke: #e0662c; stroke-dasharray: 0 0 0 .74; stroke-linecap: round; stroke-linejoin: round; stroke-width: 1.1px;"/>
  <path d="M7.72,7.2c.06-.02,.25,0,.44,.04" style="fill: none; stroke: #e0662c; stroke-dasharray: 0 0 0 .89; stroke-linecap: round; stroke-linejoin: round; stroke-width: 1.1px;"/>
  <path d="M5.61,8.75c.31-.27,.65-.58,1-.86" style="fill: none; stroke: #e0662c; stroke-dasharray: 0 0 0 2.64; stroke-linecap: round; stroke-linejoin: round; stroke-width: 1.1px;"/>
  <path d="M3.84,9.92c-.31,.16-.63,.32-.95,.47" style="fill: none; stroke: #e0662c; stroke-dasharray: 0 0 0 2.12; stroke-linecap: round; stroke-linejoin: round; stroke-width: 1.1px;"/>
  <path d="M1.11,11c.09,.17,.22,.16,.41,.07" style="fill: none; stroke: #e0662c; stroke-dasharray: 0 0 0 .95; stroke-linecap: round; stroke-linejoin: round; stroke-width: 1.1px;"/>
  <path d="M1.76,10.5c-.09,.04-.28,.08-.44,.15" style="fill: none; stroke: #e0662c; stroke-dasharray: 0 0 0 .94; stroke-linecap: round; stroke-linejoin: round; stroke-width: 1.1px;"/>
  <path d="M4.09,9.35c.38-.2,.77-.4,1.15-.61" style="fill: none; stroke: #e0662c; stroke-dasharray: 0 0 0 2.59; stroke-linecap: round; stroke-linejoin: round; stroke-width: 1.1px;"/>
  <path d="M8.14,6.63c.28-.27,.55-.54,.82-.81" style="fill: none; stroke: #e0662c; stroke-dasharray: 0 0 0 2.31; stroke-linecap: round; stroke-linejoin: round; stroke-width: 1.1px;"/>
  <path d="M11.46,3.47c.28-.26,.56-.52,.83-.78" style="fill: none; stroke: #e0662c; stroke-dasharray: 0 0 0 2.28; stroke-linecap: round; stroke-linejoin: round; stroke-width: 1.1px;"/>
  <path d="M13.74,1.2c-.12-.1-.25,.06-.37,.25" style="fill: none; stroke: #e0662c; stroke-dasharray: 0 0 0 1.02; stroke-linecap: round; stroke-linejoin: round; stroke-width: 1.1px;"/>
  <path d="M13.33,2.11c.07-.09,.21-.26,.32-.42" style="fill: none; stroke: #e0662c; stroke-dasharray: 0 0 0 1.07; stroke-linecap: round; stroke-linejoin: round; stroke-width: 1.1px;"/>
  <path d="M11.9,3.81c-.25,.27-.51,.54-.77,.81" style="fill: none; stroke: #e0662c; stroke-dasharray: 0 0 0 2.22; stroke-linecap: round; stroke-linejoin: round; stroke-width: 1.1px;"/>
  <path d="M9.14,7.15c.25-.24,.43-.56,.6-.88" style="fill: none; stroke: #e0662c; stroke-dasharray: 0 0 0 2.13; stroke-linecap: round; stroke-linejoin: round; stroke-width: 1.1px;"/>
  <path d="M8.51,7.58c-.09-.1,.07-.18,.25-.26" style="fill: none; stroke: #e0662c; stroke-dasharray: 0 0 0 .84; stroke-linecap: round; stroke-linejoin: round; stroke-width: 1.1px;"/>
  <path d="M9.66,8.78c-.23-.15-.42-.36-.61-.57" style="fill: none; stroke: #e0662c; stroke-dasharray: 0 0 0 1.67; stroke-linecap: round; stroke-linejoin: round; stroke-width: 1.1px;"/>
  <path d="M11.16,9.81c.24,.19,.46,.4,.64,.64" style="fill: none; stroke: #e0662c; stroke-dasharray: 0 0 0 1.82; stroke-linecap: round; stroke-linejoin: round; stroke-width: 1.1px;"/>
  <path d="M11.02,14.06c.34-.42,.7-.84,.95-1.29" style="fill: none; stroke: #e0662c; stroke-dasharray: 0 0 0 3.2; stroke-linecap: round; stroke-linejoin: round; stroke-width: 1.1px;"/>
  <path d="M10.08,15.53c.12-.25,.27-.51,.43-.76" style="fill: none; stroke: #e0662c; stroke-dasharray: 0 0 0 1.74; stroke-linecap: round; stroke-linejoin: round; stroke-width: 1.1px;"/>
  <path d="M9.24,17.94c.27-.33,.38-.75,.49-1.18" style="fill: none; stroke: #e0662c; stroke-dasharray: 0 0 0 2.57; stroke-linecap: round; stroke-linejoin: round; stroke-width: 1.1px;"/>
  <path d="M7.79,18.72c-.27,.04-.56,.06-.84,.06" style="fill: none; stroke: #e0662c; stroke-dasharray: 0 0 0 1.69; stroke-linecap: round; stroke-linejoin: round; stroke-width: 1.1px;"/>
  <path d="M5.77,17.82c0,.28-.05,.48-.07,.61" style="fill: none; stroke: #e0662c; stroke-dasharray: 0 0 0 1.24; stroke-linecap: round; stroke-linejoin: round; stroke-width: 1.1px;"/>
  <path d="M5.77,17.82h0m.33,.93h0m3.14-.8h0m.84-2.41h0m.94-1.46h0m1.2-2.82h0m-2.56-2.46h0m-1.15-1.21h0m.63-.42h0m1.2-1.76h0m2.99-3.28h0m.41-.91h0m-.63,.69h0m-3.33,3.12h0m-3.43,3.07h0M1.76,10.5h0m-.65,.5h0m.83-.15h0m3.67-2.1h0m2.12-1.56h0m.85,.21h0m-.26,.68h0m-1.48,1.09h0m-1.28,3.9h0m.08,4.05h0" style="fill: none; stroke: #e0662c; stroke-linecap: round; stroke-linejoin: round; stroke-width: 1.1px;"/>
</svg>